<?xml version="1.0" encoding="utf-8"?>
<!-- Generator: Adobe Illustrator 25.0.0, SVG Export Plug-In . SVG Version: 6.00 Build 0)  -->
<svg version="1.1" id="Layer_1" xmlns="http://www.w3.org/2000/svg" xmlns:xlink="http://www.w3.org/1999/xlink" x="0px" y="0px"
	 viewBox="0 0 220 124" style="enable-background:new 0 0 220 124;" xml:space="preserve">
<style type="text/css">
	.st0{fill:#FFFFFF;}
</style>
<g>
	<path class="st0" d="M141.1,73.7c0,0.1-0.1,0.3-0.1,0.4c0,0.2-0.1,0.2-0.2,0.3c-0.5,0.2-0.9,0.4-1.5,0.5c-0.6,0.1-1.2,0.2-1.8,0.3
		c-0.6,0.1-1.1,0.3-1.5,0.7c-0.1,0.1-0.1,0.1-0.2,0c-0.9-0.4-1.8-0.4-2.7-0.1c-0.6,0.2-1.2,0.4-1.7,0.6c-0.8,0.3-1.6,0.4-2.4,0.4
		c-0.3,0-0.5,0.1-0.8,0.1c-2.7,0.4-5.4,0.6-8.1,0.6c-0.7,0-1.4-0.1-2.1-0.1c-0.8-0.1-1.6-0.1-2.5-0.2c-2.7-0.2-5.4-0.5-8-1.2
		c-3.3-0.9-6.3-2.2-9.2-4c-1-0.7-1.9-1.4-2.9-2.1c-1.1-0.8-2.1-1.7-3.1-2.7c-0.5-0.5-1-1.1-1.4-1.7c-0.4-0.5-0.8-1-1.2-1.5
		c-3-3.9-5.3-8.2-7-12.9c-0.5-1.4-0.9-2.9-1.2-4.4c-0.4-1.6-0.7-3.3-1.2-4.8c-0.2-0.6-0.4-1.1-0.6-1.7c-0.1-0.2-0.2-0.5-0.3-0.7
		c-0.3-0.5-0.4-1-0.4-1.6c0-0.6,0.1-1.1,0.4-1.7c0.5-1,1.4-1.7,2.4-2.2c0.3-0.1,0.6-0.2,0.9-0.3c0.5-0.1,1-0.3,1.5-0.6
		c0.1,0,0.1-0.1,0.2-0.1c0,0,0,0,0.1-0.1c-0.1,0-0.2,0-0.3,0c-0.3,0.1-0.5,0.1-0.8,0.2c-0.1,0-0.2,0.1-0.3,0.1
		c-0.2,0.1-0.4,0.2-0.6,0.3c-0.1,0-0.2,0.1-0.4,0.1c-0.4,0-0.7-0.2-0.7-0.6c0-0.3,0.1-0.6,0.2-0.8c0.3-0.5,0.8-0.7,1.3-0.7
		c0.3,0,0.6-0.1,0.8-0.2c0.9-0.4,1.3-1.4,0.9-2.3c0-0.1-0.1-0.2-0.2-0.2c-0.2-0.2-0.3-0.4-0.1-0.7c0.1-0.2,0.3-0.3,0.4-0.4
		c0.3-0.2,0.6-0.5,1-0.7c0.2-0.2,0.4-0.4,0.6-0.6c0.3-0.4,0.3-0.8-0.1-1.1c-0.1-0.1-0.2-0.2-0.3-0.3c-0.5-0.3-0.8-0.8-0.9-1.4
		c-0.1-0.5,0.1-0.9,0.5-1.2c0.5-0.3,1.1-0.4,1.6-0.3c0.2,0,0.5,0.1,0.7,0.2c0.5,0.3,0.8,0.8,0.7,1.4c0,0.3-0.1,0.5-0.2,0.8
		c-0.1,0.3-0.1,0.5,0,0.8c0.1,0.3,0.3,0.5,0.5,0.5c0.2,0.1,0.5,0.1,0.7,0.1c0.5,0,0.9,0,1.4-0.1c0.2,0,0.4,0,0.6,0
		c0.1,0,0.3,0,0.4,0.1c0.3,0.1,0.4,0.3,0.4,0.6c0,0.3,0,0.5-0.1,0.7c-0.1,0.2,0,0.3,0.1,0.4c0.2,0.2,0.5,0.4,0.8,0.5
		c0.5,0.2,1.1,0.3,1.6,0.4c0.3,0.1,0.7,0.1,1,0.2c0.1,0,0.2,0.1,0.3,0.1c0.5,0.2,0.9,0.6,0.9,1.2c0,0,0,0.1,0,0.1
		c0.2,0,0.4,0.1,0.5,0.1c0.5,0.1,0.9,0.3,1.2,0.6c0.3,0.2,0.7,0.4,1,0.7c0.4,0.3,0.9,0.5,1.5,0.6c0.1,0,0.1,0,0.2,0
		c1,0.4,1.9,0.7,2.9,1.1c0.6,0.2,1.1,0.5,1.6,0.8c0.4,0.3,0.8,0.6,1,1c0.1,0.2,0.2,0.4,0.3,0.6c-0.2,0.2-0.5,0.3-0.8,0.3
		c-0.4,0-0.8,0-1.2-0.1c-0.5-0.2-1-0.3-1.6-0.5c-0.4-0.1-0.7-0.2-1.1-0.3c-0.2,0-0.4,0-0.5,0c-0.5,0-0.8,0.2-1,0.7
		c-0.2,0.4-0.2,0.8-0.2,1.3c0.1,0.7,0.1,1.5,0.2,2.2c0.1,1.7,0.2,3.3,0.4,5c0.1,1.3,0.3,2.6,0.4,3.9c0.3,2.2,0.8,4.3,1.5,6.3
		c0.3,0.7,0.5,1.5,0.9,2.2c0.6,1.2,1.3,2.3,2.1,3.3c1.1,1.4,2.2,2.7,3.4,4.1c1.3,1.5,2.8,2.6,4.4,3.7c1.4,0.9,2.8,1.7,4.3,2.3
		c1.9,0.8,4,1.4,6,1.9c0.4,0.1,0.8,0.1,1.1,0.2c0.1,0,0.2,0,0.3-0.1c0.2-0.2,0.5-0.5,0.7-0.7c0.4-0.4,0.8-0.8,1.2-1.2
		c0.3-0.3,0.7-0.6,1.1-0.8c0.4-0.2,0.8-0.3,1.2-0.2c0.2,0,0.4,0.1,0.6,0.2c0.1,0,0.1,0.1,0.1,0.2c-0.1,0.2-0.1,0.4-0.2,0.6
		c-0.2,0.3-0.4,0.5-0.6,0.8c-0.2,0.2-0.4,0.5-0.6,0.7c-0.1,0.1-0.2,0.2-0.2,0.4c-0.1,0.2,0,0.3,0.2,0.4c0.2,0.1,0.3,0.1,0.5,0.1
		c0.3,0,0.7,0,1-0.1c0.5-0.1,1,0,1.5,0.1c0.4,0.1,0.8,0.2,1.3,0.3c0.7,0.2,1.3,0,1.8-0.5c0.1-0.1,0.1-0.2,0.2-0.3
		c0.4,0.4,0.8,0.6,1.3,0.6c0.3,0,0.7,0,1,0c0.6,0,1.2-0.1,1.8-0.1c0.2,0,0.4,0,0.6,0.1c0.3,0.1,0.5,0.2,0.6,0.4
		c0,0.1,0.1,0.2,0.1,0.3C141.1,73.4,141.1,73.5,141.1,73.7z M109.6,64.7c0-0.1-0.1-0.2-0.1-0.2c-0.2-0.2-0.3-0.4-0.5-0.6
		c-0.7-0.6-1.3-1.3-1.8-2.1c-0.4-0.7-0.8-1.3-1.2-2c-0.1-0.1-0.2-0.3-0.3-0.4c-0.2-0.1-0.4-0.3-0.5-0.5c-0.1-0.1-0.2-0.3-0.4-0.5
		c-0.1-0.1-0.1-0.1-0.2-0.2c-0.2,0.3-0.1,0.6-0.2,0.9c-0.1-0.6-0.4-1.1-0.8-1.5c-0.3-0.2-0.5-0.4-0.9-0.3c0-0.4,0.1-0.7,0.5-0.9
		c0.1,0,0.2-0.1,0.2-0.1c0.1-0.1,0.2-0.2,0.1-0.3c-0.1-0.1-0.2-0.2-0.2-0.3c0-0.1-0.1-0.1-0.1-0.2c-0.2-0.7-0.3-1.4-0.6-2.1
		c-0.4-1.2-0.6-2.4-0.9-3.6c0-0.2-0.1-0.3-0.1-0.5c-0.1-0.2-0.2-0.2-0.3-0.1c-0.3,0.3-0.5,0.6-0.6,0.9c0,0.1,0,0.2-0.1,0.3
		c0-0.1,0-0.1,0-0.1c0-0.5,0.1-0.9,0.2-1.3c0-0.1,0.1-0.2,0.1-0.2c0.1-0.1,0.2-0.1,0.3,0c0,0.1,0.1,0.1,0.2,0.2
		c0.1-0.1,0.1-0.2,0.1-0.3c0.1-0.2,0.1-0.4,0.1-0.6c0-0.2-0.1-0.4-0.4-0.4c-0.1,0-0.1,0-0.2,0c0.1-0.2,0.1-0.4,0.2-0.6
		c0.1-0.5,0.2-1,0.1-1.5c0-0.1-0.1-0.2-0.1-0.3c-0.1-0.1-0.2,0-0.2-0.1c0.1-0.6,0.1-1.3,0.2-1.9c0-0.6,0-1.3-0.1-1.9
		c-0.1-0.3-0.2-0.5-0.5-0.5c0,0,0-0.1,0-0.1c0.3-1.1,0.4-2.1,0.4-3.3c0-0.4-0.1-0.8-0.3-1.1c-0.2-0.4-0.5-0.5-0.9-0.4
		c-0.2,0.1-0.4,0.2-0.6,0.3c-0.1,0-0.2,0.1-0.3,0.1c-0.4,0.1-0.8,0.1-1.3,0.2c-0.6,0.1-1.3,0.3-1.9,0.5c-0.1,0-0.1,0.1-0.2,0.1
		c0.2,0.1,0.4,0.2,0.5,0.3c0.2,0.1,0.4,0.2,0.5,0.4c-0.1,0-0.2,0-0.3,0c-0.6-0.1-1.2-0.3-1.7-0.4c-0.1,0-0.2,0-0.3-0.1
		c0,0.1,0,0.1,0,0.2c-0.1,0.5-0.3,0.6-0.8,0.6c-0.2,0-0.4,0-0.5,0c-0.3,0-0.5,0-0.8-0.1c0.1,0.1,0.1,0.1,0.2,0.1
		c0.2,0.1,0.3,0.3,0.1,0.5c-0.1,0.1-0.2,0.2-0.4,0.3c-0.5,0.3-1,0.5-1.6,0.6c-0.2,0-0.4,0-0.6-0.1c-0.2-0.1-0.3,0-0.5,0.1
		c-0.2,0.2-0.2,0.4-0.2,0.6c0.1,0.2,0.2,0.4,0.3,0.6c0.1,0.3,0.3,0.5,0.4,0.8c0.1,0.2,0.1,0.3,0.1,0.5c0,0.1,0,0.2-0.1,0.3
		c-0.1,0.1-0.2,0.2-0.2,0.3c0,0.1-0.1,0.1-0.2,0.1c-0.1,0-0.2,0-0.4,0.1c-0.3,0-0.5,0-0.8,0.1c-0.6,0.1-0.8,0.4-0.8,1
		c0,0.1,0,0.1,0,0.2c-0.1,0-0.1,0-0.1,0c-0.4-0.1-0.5,0.1-0.5,0.4c0,0.4,0.2,0.8,0.5,1c0.2,0.2,0.4,0.2,0.6,0c0.1-0.1,0.2-0.1,0.2,0
		c0.3,0.1,0.6,0.2,0.9,0.4c0.5,0.3,0.8,0.8,0.8,1.4c0,0.6,0,1.2,0,1.8c0,0.2-0.1,0.2-0.3,0.2c-0.1,0-0.1-0.1-0.2-0.1
		c-0.4-0.4-0.6-0.8-0.6-1.4c0-0.3,0.2-0.5,0.5-0.6c0.1,0,0.1,0,0.2,0c-0.1-0.2-0.3-0.6-0.6-0.8c-0.4-0.4-0.7-0.4-1,0
		c-0.3,0.3-0.6,0.7-0.9,1.1c0.1,0.1,0.2,0.1,0.2,0.2c0.2,0.2,0.5,0.3,0.7,0.5c0.2,0.1,0.3,0.3,0.5,0.5c0.2,0.3,0.2,0.5-0.2,0.7
		c-0.1,0.1-0.2,0.1-0.3,0.2c0,0,0,0,0,0c0,0,0,0,0.1,0c0.7,0.2,1.2,0.6,1.4,1.2c0.1,0.2,0.2,0.5,0.2,0.7c0.1,0.2,0.1,0.4,0.2,0.6
		c0.2,0.4,0.6,0.5,0.9,0.2c0.1-0.1,0.1-0.2,0.2-0.2c0.2-0.2,0.3-0.2,0.5-0.1c0.1,0,0.1,0.1,0.2,0.1c-0.1-0.1-0.1-0.2-0.2-0.3
		c-0.5-0.5-1-0.9-1.5-1.4c-0.1-0.1-0.3-0.3-0.4-0.4c-0.1-0.1-0.1-0.2-0.1-0.3c0-0.1,0.2-0.1,0.3-0.1c0.2,0,0.4,0.1,0.7,0.1
		c0-0.3,0-0.5-0.1-0.7c0-0.3-0.1-0.6-0.1-0.9c0-0.2,0.1-0.4,0.3-0.4c0.1,0,0.2-0.1,0.3-0.2c0,0,0.1,0,0.1-0.1c0,0.1,0,0.2,0,0.3
		c0,0.3-0.1,0.6-0.1,0.9c0,0.3,0,0.6,0,0.9c0,0.3,0.2,0.4,0.5,0.2c0,0,0.1,0,0.1-0.1c0.2-0.2,0.5-0.4,0.7-0.7c0-0.1,0.1-0.1,0.1-0.2
		c0.1-0.1,0.3-0.1,0.4,0c0.1,0.1,0.2,0.2,0.3,0.3c0.2,0.2,0.3,0.5,0.5,0.7c0.2,0.2,0.3,0.4,0.3,0.7c0.1,0.3-0.1,0.6-0.4,0.6
		c-0.2,0-0.3,0-0.5,0c-0.3-0.1-0.6-0.2-0.9-0.4c-0.1,0-0.1-0.1-0.2-0.1c0.1,0.3,0.3,0.5,0.5,0.7c0.2,0.2,0.5,0.4,0.7,0.6
		c0.2,0.2,0.4,0.4,0.6,0.6c0.2,0.3,0.3,0.6,0.3,1c-0.1,0.4,0.1,0.6,0.2,0.9c0.2,0.4,0.5,0.5,0.9,0.4c0.1,0,0.3-0.1,0.4-0.1
		c0.2,0.2,0.1,0.6,0.4,0.8c0.3-0.3,0.2-0.7,0.3-1.1c0.1,0,0.3,0.1,0.4,0.1c0.6,0.2,1,0.6,1.2,1.2c0,0.2,0.1,0.3,0.2,0.5
		c0.1,0.1,0.1,0.3,0.2,0.4c0.1,0.1,0.2,0.1,0.3,0.1c0.1,0,0.1-0.2,0.1-0.2c-0.1-0.2-0.1-0.4-0.2-0.6c-0.2-0.4-0.3-0.7-0.5-1.1
		c0-0.1-0.1-0.2-0.1-0.3c0,0,0,0,0,0c0.1,0,0.1,0.1,0.2,0.1c0.4,0.4,0.8,0.8,1.2,1.3c0.1,0.1,0.2,0.2,0.3,0.4
		c0.1,0.2,0.2,0.4,0.3,0.6c0.1,0.4,0,0.8-0.4,1c-0.2,0.1-0.3,0.1-0.5,0.2c-0.3,0-0.5,0.1-0.8,0.1c0.5,0.3,0.9,0.7,1.3,1.1
		c0.1,0.1,0.2,0.1,0.2,0.2c0.3,0.2,0.7,0.4,1.1,0.4c0.1,0,0.2,0,0.3,0.1c0.6,0.4,1.1,0.9,1.3,1.6c0.1,0.1,0.1,0.3,0.1,0.5
		c0,0.3-0.2,0.5-0.5,0.5c-0.4,0-0.8-0.1-1.2-0.3c-0.5-0.3-1-0.6-1.5-0.8c-0.2-0.1-0.5-0.2-0.7-0.2c-0.1,0-0.2-0.1-0.3,0.1
		c0.1,0.1,0.2,0.1,0.3,0.2c0.3,0.2,0.6,0.4,1,0.6c0.6,0.3,1.1,0.5,1.7,0.8c1.3,0.6,2.6,1.1,3.8,1.8c0.7,0.4,1.4,0.9,2,1.5
		c0.6,0.6,1.2,1.4,1.9,1.9c0,0-0.1,0-0.1,0c-0.9,0.3-1.7,0.2-2.5-0.2c-0.1,0-0.2-0.1-0.2-0.2c-0.1-0.1-0.1-0.2,0-0.3
		c0.1-0.1,0.2-0.1,0.2-0.1c0.1,0,0.2-0.1,0.3-0.1c0,0,0,0,0-0.1c-0.5-0.1-0.9-0.2-1.4-0.3c-0.1,0-0.2,0-0.3,0
		c-0.2,0-0.2,0.1-0.2,0.3c0,0.1,0,0.1,0.1,0.2c0.2,0.4,0.5,0.8,1,0.9c0.2,0.1,0.5,0.2,0.7,0.2c0.7,0.2,1.4,0.2,2.2,0.3
		c0.2,0,0.5,0,0.8,0.1c-0.1,0.2-0.2,0.3-0.3,0.5c-0.1,0.1-0.3,0.2-0.3,0.5c0.1,0,0.2,0,0.3,0.1c0.1,0,0.2,0,0.3,0
		c-0.1,0.1-0.1,0.1-0.1,0.1c-0.4,0.3-0.3,0.4,0.1,0.6c0.2,0.1,0.5,0.2,0.7,0.4c0.1,0,0.1-0.1,0.2-0.1c0.4-0.2,0.7-0.1,1,0.3
		c0.1,0.1,0.2,0.3,0.3,0.5c0.1,0.1,0.2,0.3,0.3,0.4c0.2,0.2,0.4,0.2,0.7,0.1c0.1-0.1,0.2-0.1,0.3-0.2c0.2-0.1,0.3-0.3,0.5-0.5
		c0.2-0.2,0.4-0.3,0.7-0.4c0,0.1-0.1,0.2-0.2,0.3c-0.2,0.2-0.3,0.4-0.5,0.6c0,0.1-0.1,0.1-0.1,0.2c0,0,0,0,0,0
		c0.1,0,0.2-0.1,0.3-0.1c0.2-0.1,0.3-0.2,0.5-0.3c0.7-0.5,1.4-0.6,2.2-0.4c0.7,0.1,1.3,0.4,1.9,0.6c0.6,0.3,1.2,0.5,1.8,0.8
		c0.1,0.1,0.3,0.1,0.4,0.1c0.3,0.1,0.6,0.1,0.9,0.2c0.4,0.1,0.8,0.2,1.2,0.3c0.4,0.1,0.9,0.1,1.3,0c0.1-0.1,0.3-0.1,0.4-0.2
		c0.1,0,0.2-0.1,0.3-0.2c-0.1,0-0.1-0.1-0.2-0.1c-0.2-0.1-0.3-0.1-0.5-0.2c-0.6-0.2-1.2-0.3-1.8-0.5c-0.3-0.1-0.6-0.2-0.8-0.3
		c-0.3-0.2-0.3-0.3-0.1-0.6c0,0,0,0,0-0.1c0,0-0.1,0-0.1,0c-0.5,0.1-0.9,0.1-1.4,0c-0.7-0.1-1.3-0.4-1.8-0.8
		c-0.5-0.4-0.9-0.8-1.2-1.2c-0.1-0.1-0.2-0.2-0.4-0.3c-0.4-0.1-0.8-0.2-1.1-0.3c-1.2-0.4-2.4-1-3.5-1.8c-0.7-0.5-1.3-1.1-1.7-1.9
		C109.3,64.9,109.3,64.9,109.6,64.7z M86.5,38.8c0.3-0.1,0.5-0.1,0.8-0.2c0.7-0.2,1.3-0.5,2-0.8c0.5-0.3,1.1-0.6,1.7-0.8
		c0.7-0.3,1.5-0.5,2.3-0.4c0.1,0,0.2,0,0.3,0c0.7-0.1,1.5-0.2,2.2-0.3c1.2-0.2,2.4-0.4,3.5-0.8c0.1,0,0.2-0.1,0.4-0.1
		c0.8-0.1,1.5-0.5,2-1.1c0.2-0.2,0.4-0.5,0.5-0.8c0.1-0.3,0.1-0.6-0.1-0.9c-0.1-0.1-0.1-0.2-0.3-0.2c-0.9-0.1-1.8-0.1-2.8,0
		c-1.7,0.1-3.3,0.3-4.9,0.7c-1.3,0.3-2.5,0.7-3.8,1.1c-1.3,0.4-2.6,0.8-3.9,1c-0.3,0.1-0.7,0.1-1,0.2c-0.1,0-0.3,0.1-0.3,0.2
		c0,0.1,0.1,0.2,0.2,0.3c0.2,0.1,0.4,0.2,0.6,0.3c0.1,0,0.2,0.1,0.2,0.2c-0.1,0.1-0.3,0.1-0.4,0.2c-0.1,0.1-0.2,0.2,0,0.3
		c0.1,0.1,0.2,0.2,0.3,0.2c0.1,0.1,0.2,0.1,0.3,0.2c0.1,0.1,0.1,0.2,0,0.3c-0.2,0.1-0.4,0.3-0.7,0.2c-0.3-0.1-0.7-0.2-1-0.3
		c-0.2-0.1-0.4-0.2-0.6-0.3c-0.3-0.2-0.4-0.6-0.3-0.9c0-0.1,0-0.2,0.1-0.3c-0.2,0-0.4,0.1-0.6,0.1c-0.7,0.1-1.3,0.3-1.9,0.6
		c-0.3,0.2-0.6,0.3-0.8,0.6c-0.3,0.4-0.4,0.8-0.4,1.3c0.1,0.6,0.4,1.1,0.7,1.5c0,0,0.1,0.1,0.2,0.1c0-0.1,0-0.1,0-0.1
		c0,0,0-0.1,0-0.1c-0.1-0.5-0.1-1,0-1.5c0-0.3,0.1-0.6,0.3-0.9c0.4-0.6,1.2-0.7,1.7-0.4c-0.2,0.1-0.4,0.2-0.6,0.3
		c-0.3,0.2-0.4,0.5-0.2,0.8c0,0.1,0.1,0.2,0.1,0.2c0.4,0.5,0.9,0.8,1.5,1c0.1,0,0.2,0,0.2,0c0.4,0,0.6-0.2,0.6-0.6
		c0-0.1,0-0.3,0-0.4c0.4-0.1,0.8-0.1,1.2-0.2c0.2,0,0.4-0.1,0.6-0.1c0.2,0,0.3,0.1,0.2,0.3C86.6,38.5,86.6,38.6,86.5,38.8z
		 M123.3,76.7C123.3,76.7,123.3,76.6,123.3,76.7c-0.1-0.1-0.2-0.1-0.3-0.2c-0.7-0.2-1.3-0.2-2-0.2c-0.7,0-1.5,0.1-2.2,0.1
		c-0.5,0-0.9-0.1-1.3-0.3c-0.2-0.1-0.3-0.1-0.5-0.1c-0.4,0.1-0.8,0.1-1.2,0.1c-1,0.1-2,0-3-0.2c-0.9-0.1-1.8-0.3-2.6-0.4
		c-0.2,0-0.4,0-0.6-0.1c-1.4-0.5-2.7-1.1-4.1-1.6c-1.4-0.6-2.8-1.2-4.1-2c-0.4-0.2-0.7-0.3-1.1-0.4c0,0-0.1,0-0.2,0
		c0.1,0.2,0.1,0.2,0.4,0.3c1,0.7,2.1,1.3,3.3,1.7c0.2,0.1,0.4,0.2,0.6,0.4c-0.1,0-0.2,0-0.2,0c-0.3-0.1-0.6-0.2-0.9-0.3
		c-0.8-0.3-1.6-0.7-2.4-1.1c-0.3-0.2-0.7-0.3-1-0.5c-0.1,0-0.2,0-0.2-0.1c0,0,0,0,0,0.1c0.1,0.1,0.1,0.1,0.2,0.2
		c0.7,0.4,1.4,0.9,2.1,1.2c1.2,0.6,2.5,1.1,3.8,1.6c1.2,0.5,2.5,0.8,3.8,1c1.1,0.2,2.1,0.3,3.2,0.5c1.6,0.2,3.2,0.5,4.8,0.6
		c1.7,0.1,3.5,0.1,5.2-0.1C122.7,76.8,123,76.7,123.3,76.7z M84.4,53C84.4,53,84.4,53,84.4,53c0,0.2,0,0.4,0.1,0.5
		c0.5,1.3,1.1,2.6,1.9,3.8c0.7,1.2,1.5,2.3,2.3,3.4c0.4,0.6,0.7,1.1,1.1,1.7c0.4,0.7,0.8,1.4,1.3,2.1c0.7,1.1,1.5,2,2.6,2.8
		c0.5,0.4,0.9,0.8,1.3,1.2c0.1,0.1,0.1,0.1,0.2,0.2c0.5,0.6,1.2,1,2,1.2c0.1,0,0.2,0,0.3,0c0.3,0,0.4-0.1,0.2-0.4
		c-0.1-0.1-0.1-0.2-0.2-0.3c-0.3-0.4-0.8-0.7-1.2-1c-0.2-0.1-0.4-0.1-0.6-0.2c-0.1,0-0.2,0-0.2-0.1c-0.2-0.2-0.4-0.4-0.6-0.6
		c-0.1-0.1-0.3-0.3-0.4-0.4c-0.3-0.3-0.3-0.4-0.1-0.7c-0.1,0-0.1,0-0.2,0c-0.4,0-0.7-0.1-0.9-0.4c-0.2-0.2-0.3-0.4-0.4-0.6
		c-0.1-0.2-0.2-0.4-0.4-0.6c-0.1-0.1-0.1-0.2-0.2-0.3c-0.1-0.1-0.2-0.2-0.4-0.2c-0.1,0-0.2,0-0.3,0c-0.5-0.2-0.8-0.6-1-1
		c-0.1-0.4-0.2-0.7-0.4-1.1c-0.2-0.8-0.7-1.4-1.4-1.8c-0.1-0.1-0.1-0.1-0.2-0.2c-0.1-0.2-0.2-0.5-0.3-0.7c-0.2-0.3-0.3-0.5-0.5-0.7
		c-0.4-0.4-0.7-0.9-1.1-1.3c-0.4-0.6-0.8-1.2-1-1.9c-0.3-0.8-0.7-1.5-1.2-2.2C84.6,53.1,84.5,53,84.4,53z M93.2,60.3
		c-0.1,0.1,0,0.2,0.1,0.3c0.1,0.1,0.3,0.2,0.4,0.3c0.4,0.2,0.8,0.4,1.1,0.6c0.3,0.2,0.6,0.3,0.9,0.5c0.4,0.2,0.8,0.5,1.3,0.7
		c0.1,0.1,0.3,0.1,0.4,0.2c0,0,0.1,0,0.2,0c-0.2-0.3-0.5-0.5-0.8-0.8c0.2-0.4,0.2-0.5-0.1-0.7c-0.1-0.1-0.2-0.2-0.2-0.2
		c-0.1-0.1-0.2-0.2-0.3-0.3c-0.2-0.2-0.3-0.3-0.1-0.6c-0.4-0.3-0.8-0.4-1.1-0.9c0.3-0.1,0.6,0,0.9-0.1c-0.1-0.1-0.2-0.1-0.3-0.2
		c-0.1-0.1-0.3-0.2-0.4-0.2c-0.2-0.1-0.1-0.3,0-0.4c0.1-0.1,0.2-0.1,0.3-0.1c0.1-0.1,0.2-0.1,0.4-0.2c0.1,0,0.1-0.1,0.2-0.2
		c-0.1,0-0.1-0.1-0.1-0.1c-0.5-0.1-1-0.3-1.4-0.4c-0.3-0.1-0.5-0.1-0.8-0.2c-0.1,0-0.2,0-0.3,0c0,0.3,0.3,0.4,0.4,0.6
		c-0.3-0.1-0.5-0.3-0.9-0.2c0.1,0.2,0.1,0.4,0.2,0.5c-0.3,0.1-0.5-0.1-0.7,0c0.1,0.1,0.1,0.2,0.2,0.3c0.2,0.2,0.4,0.4,0.6,0.5
		c0.1,0.1,0.2,0.1,0.1,0.3c-0.2,0-0.3,0-0.5,0c0.1,0.1,0.2,0.2,0.3,0.2c0.4,0.3,0.7,0.6,1.1,0.9c0.1,0.1,0.2,0.2,0.2,0.2
		c0,0,0,0,0,0C93.9,60.7,93.6,60.5,93.2,60.3z M85.6,32.5c0.1,0.1,0.2,0.1,0.4,0.1c0.4-0.1,0.7-0.2,1.1-0.3c0.8-0.2,1.5-0.4,2.3-0.4
		c0.7,0,1.4,0.1,2,0.6c0,0,0,0,0.1,0c0-0.2-0.1-0.3-0.1-0.5c0-0.2,0-0.4,0.1-0.4c0.2-0.1,0.3,0.1,0.4,0.2c0.2,0.2,0.3,0.4,0.4,0.6
		c0.2,0.3,0.4,0.5,0.6,0.6c0.3,0.1,0.5,0.1,0.7-0.2c0.1-0.2,0.2-0.4,0.2-0.6c0-0.3,0-0.5,0-0.8c0.1,0.1,0.3,0.3,0.4,0.4
		c0.2,0.1,0.3,0.3,0.6,0.3c-0.1-0.4-0.5-0.7-0.7-1.1c0.1-0.1,0.1-0.1,0.1-0.2c0-0.1,0.1-0.1,0.1-0.2c0.1-0.2,0-0.3-0.2-0.3
		c-0.1,0-0.2,0-0.2,0c-0.2,0-0.4,0-0.6,0.1c-0.7,0.2-1.4,0.4-2.1,0.6c-0.5,0.1-1,0.2-1.5,0.3c-0.7,0.1-1.4,0.4-2.1,0.5
		c-0.6,0.2-1.1,0.3-1.7,0.5C85.9,32.3,85.7,32.4,85.6,32.5z M90,54.8c0.2,0.1,0.3,0.2,0.4,0.2c0.8,0.3,1.6,0.7,2.4,1.1
		c0.3,0.2,0.6,0.3,0.9,0.5c0.2,0.1,0.3,0.1,0.5,0.2c0.2,0.1,0.3,0,0.2-0.3c0,0,0-0.1,0-0.1c-0.2-0.3-0.4-0.6-0.6-0.9
		c0,0-0.1-0.1-0.1-0.1c-0.2-0.1-0.3-0.3-0.4-0.5c-0.1-0.2-0.2-0.4-0.2-0.6c-0.1-0.4-0.1-0.7-0.2-1.1c0-0.2-0.1-0.3-0.2-0.5
		c-0.1-0.2-0.3-0.2-0.5-0.1c0.1,0.2,0.2,0.4,0.3,0.6c0.1,0.2,0.1,0.3,0.1,0.5c0,0.2-0.1,0.3-0.3,0.3c-0.2,0-0.3,0-0.5-0.1
		c-0.3-0.1-0.6-0.2-0.8-0.4c-0.2-0.1-0.5-0.2-0.7-0.3c-0.2,0-0.4-0.1-0.5,0.1c-0.1,0.2,0,0.3,0,0.5c0.1,0.2,0.3,0.4,0.4,0.7
		c0,0,0,0,0,0.1C90.1,54.7,90,54.7,90,54.8z M86,54.2C86,54.2,86.1,54.2,86,54.2c-0.5-0.8-0.8-1.6-1-2.4c-0.2-0.7-0.5-1.3-0.9-1.8
		C84,49.9,84,49.8,84,49.7c0.4,0.5,0.4,0.5,0.7,0.6c0-0.1,0-0.1,0-0.1c0-0.1,0-0.2,0-0.3c-0.2-1-0.6-1.8-1.1-2.7
		c0,0-0.1-0.1-0.1-0.1c0,0-0.1-0.1-0.2-0.1c0,0.1,0,0.2,0,0.3c0.1,0.3,0.2,0.6,0.3,0.9c0.1,0.4,0.2,0.7,0.3,1.1
		c-0.1-0.1-0.1-0.1-0.1-0.2c-0.3-0.4-0.5-0.9-0.8-1.3c-0.1-0.1-0.2-0.2-0.3-0.3c0,0.1,0,0.2,0,0.2c0.1,0.4,0.2,0.7,0.4,1.1
		c0.4,0.7,0.7,1.5,1,2.2c0.2,0.5,0.5,1.1,0.7,1.6c0.2,0.5,0.5,0.9,0.9,1.2C85.8,54,85.9,54.1,86,54.2z M98.1,65.7
		c0.2,0,0.4,0,0.6-0.1c0.2,0,0.4-0.1,0.5-0.2c0.2-0.1,0.2-0.3,0-0.4c-0.2-0.1-0.4-0.2-0.6-0.3c-0.2-0.1-0.4-0.1-0.5-0.2
		c-0.5-0.3-1.1-0.4-1.7-0.5c-0.3-0.1-0.6-0.1-1,0c-0.3,0-0.4,0.2-0.2,0.5c0.1,0.2,0.3,0.3,0.4,0.5c0.1,0.1,0.3,0.2,0.4,0.2
		c0.1,0,0.2,0,0.3,0.1C97,65.6,97.5,65.6,98.1,65.7z M89.7,28.1c-0.1,0.2-0.1,0.4-0.1,0.5c0.2,0.8,0.7,1.4,1.4,1.8
		c0.1,0.1,0.3,0.1,0.5,0.1c0.3,0,0.4-0.2,0.3-0.5c0-0.2-0.1-0.3-0.1-0.5c-0.1-0.2,0-0.3,0.2-0.2c0.1,0,0.3,0.1,0.4,0.2
		c-0.1-0.2-0.2-0.4-0.4-0.5c-0.2-0.1-0.4-0.3-0.6-0.3C90.8,28.4,90.3,28.3,89.7,28.1z M131.4,73.2C131.4,73.2,131.3,73.2,131.4,73.2
		c-1-0.1-1.8-0.3-2.7-0.4c-0.5-0.1-1.1-0.1-1.6-0.1c-0.3,0-0.7,0-1,0.2c-0.2,0.1-0.4,0.2-0.4,0.5c0.3,0,0.6,0.1,0.9,0.1
		c0.7-0.1,1.4,0,2.1,0.1c0.6,0,1.1,0.1,1.7,0.1c0.2,0,0.4-0.1,0.6-0.1C131.2,73.5,131.3,73.4,131.4,73.2z M86.2,24.3
		c-0.1-0.2-0.2-0.3-0.2-0.5c-0.1-0.2,0-0.3,0.2-0.3c0.1,0,0.3,0,0.4,0c0.3,0,0.6,0,0.9,0.1c0.1,0,0.2,0,0.3,0c0.2,0,0.2-0.2,0.2-0.3
		c-0.2-0.9-1.1-1.2-1.7-0.7c-0.3,0.2-0.4,0.5-0.5,0.8C85.6,23.7,85.8,24.1,86.2,24.3z M116.9,73.1C116.9,73.1,116.9,73,116.9,73.1
		c0-0.1,0-0.3,0-0.4c0-0.1,0-0.1,0-0.2c-0.1-0.2-0.2-0.3-0.4-0.2c-0.1,0-0.2,0.1-0.3,0.1c-0.3,0.2-0.6,0.4-0.9,0.7
		c-0.1,0.1-0.2,0.2-0.2,0.4c0,0.1-0.1,0.2,0,0.3c0.1,0.1,0.2,0,0.3,0c0,0,0.1,0,0.1-0.1c0.1-0.1,0.2-0.1,0.2-0.2
		c0.1-0.1,0.2-0.1,0.3,0.1c0,0.1,0,0.2,0.1,0.2c0.1,0.1,0.1,0.2,0.3,0.1c0.2-0.1,0.4-0.3,0.5-0.5C116.9,73.4,116.9,73.2,116.9,73.1z
		 M111.7,75.3C111.7,75.3,111.7,75.3,111.7,75.3c-0.3-0.3-0.7-0.5-1-0.6c-0.4-0.1-0.7-0.1-1.1-0.2c-0.8-0.2-1.5-0.3-2.3-0.5
		c-0.1,0-0.2,0-0.3,0c0.1,0.1,0.1,0.1,0.2,0.1c0.3,0.2,0.7,0.3,1,0.5c1,0.4,2.1,0.6,3.1,0.7C111.5,75.3,111.6,75.3,111.7,75.3z
		 M87.7,41.4C87.7,41.4,87.7,41.4,87.7,41.4c-0.1,0.1-0.2,0.1-0.2,0.1c-0.2,0-0.4,0-0.6,0c-0.1,0-0.2,0-0.2,0.1
		c-0.1,0.1,0,0.2,0.1,0.2c0,0,0.1,0,0.1,0.1c0.4,0.3,1.2,0.1,1.5-0.3c0,0,0,0,0,0c0.1-0.2,0.1-0.4-0.1-0.5c-0.1-0.1-0.3-0.1-0.5-0.2
		c-0.4,0-0.9-0.1-1.3-0.1c-0.1,0-0.2,0-0.3,0c0.3,0.2,0.5,0.3,0.8,0.4C87.2,41.1,87.5,41.2,87.7,41.4z M102.4,65.6
		c0-0.1-0.1-0.2-0.2-0.2c-0.2-0.1-0.4-0.1-0.6-0.2c-0.1,0-0.2-0.1-0.3-0.1c-0.4-0.3-0.9-0.6-1.5-0.7c-0.1,0-0.2,0-0.3,0
		c0,0,0,0,0,0.1c0.1,0.1,0.1,0.2,0.2,0.2c0.2,0.1,0.3,0.3,0.5,0.4c0.1,0.1,0.2,0.1,0.2,0.2c0.1,0.1,0.2,0.2,0.4,0.3
		c0.1,0,0.3,0.1,0.4,0.1c0.3,0.1,0.6,0.2,1,0.2C102.1,65.8,102.3,65.8,102.4,65.6z M89.8,30.1C89.8,30,89.9,30,89.8,30.1
		c0-0.1,0-0.2-0.1-0.3c-0.1-0.1-0.2-0.2-0.3-0.3c-0.1-0.1-0.2-0.1-0.4-0.1c-0.6,0.2-1.2,0.3-1.8,0.5c-0.2,0.1-0.3,0.1-0.5,0.2
		c0,0-0.1,0.1-0.1,0.1c0.2,0,0.4,0.1,0.6-0.1c0.2-0.1,0.5-0.2,0.8-0.2c0.4,0,0.8,0,1.3,0C89.4,30,89.6,30.1,89.8,30.1z M104.1,65.2
		C104.1,65.2,104.1,65.2,104.1,65.2c-0.1-0.1-0.2-0.2-0.4-0.2c-0.3-0.1-0.5-0.1-0.8-0.2c-0.1,0-0.1,0-0.2-0.1
		c-0.4-0.4-0.9-0.4-1.5-0.4c-0.1,0-0.2,0-0.4,0.1c0.1,0.1,0.1,0.1,0.2,0.1c0.3,0.1,0.6,0.3,1,0.4c0.6,0.2,1.2,0.3,1.8,0.3
		C103.9,65.2,104,65.2,104.1,65.2z M136.6,73.3c0.3,0.1,0.5,0.2,0.7,0.2c0.7,0,1.5-0.1,2.2-0.2c0.1,0,0.2-0.1,0.3-0.1
		C139.4,73,137.1,73.1,136.6,73.3z M105.1,34.1c0.1,0.1,0.1,0.2,0.2,0.3c0.2,0.1,0.3,0.2,0.5,0.3c0.2,0.1,0.4,0.2,0.4,0.4
		c0,0,0,0.1,0.1,0.1c0.1,0.1,0.2,0.1,0.2,0c0.1-0.2,0.1-0.5-0.1-0.6c-0.3-0.3-0.7-0.5-1.1-0.5C105.3,34.1,105.3,34.1,105.1,34.1z
		 M101.2,67.6c0,0.2,0.2,0.4,0.4,0.5c0.4,0.2,0.9,0.4,1.4,0.5c0.1,0,0.1,0,0.2,0C102.9,68.1,101.6,67.5,101.2,67.6z M118.5,72.9
		c-0.1,0-0.2-0.1-0.3-0.1c-0.4,0-0.7,0.2-0.9,0.4c-0.2,0.2-0.2,0.4,0.1,0.6C117.8,73.6,118.2,73.3,118.5,72.9z M84.9,42.2
		c0.2-0.1,0.3-0.2,0.4-0.4c0.1-0.2,0.1-0.3-0.1-0.4c-0.2-0.1-0.5-0.1-0.7,0c-0.2,0.1-0.2,0.2-0.1,0.4C84.6,42,84.7,42.1,84.9,42.2z
		 M89.1,26.9c0.6,0.1,1.1,0,1.3-0.3c0,0,0-0.1-0.1-0.1c-0.3-0.1-0.7-0.2-1,0C89.2,26.6,89.1,26.7,89.1,26.9z M85.4,45.7
		c-0.1-0.2-0.1-0.4-0.2-0.5C85,45,84.8,44.9,84.6,45c-0.1,0-0.2,0.1-0.2,0.2c0,0.1,0.1,0.2,0.2,0.2C84.8,45.6,85,45.7,85.4,45.7z
		 M101.3,66.2c0.3,0.5,1.2,0.8,1.6,0.6C102.7,66.5,101.7,66.1,101.3,66.2z M99.7,63.9C99.7,63.9,99.7,63.8,99.7,63.9
		c0-0.1,0-0.1,0-0.1c-0.5-0.3-0.9-0.5-1.5-0.6c0,0-0.1,0-0.1,0c0.1,0.2,0.3,0.4,0.5,0.4c0.3,0.1,0.6,0.2,0.9,0.3
		C99.6,63.9,99.6,63.9,99.7,63.9z M84.3,44.1C84.3,44.1,84.3,44.1,84.3,44.1c0.2,0.3,0.6,0.5,0.9,0.6c0.1,0,0.2-0.1,0.3-0.2
		c0.1-0.1-0.1-0.2-0.1-0.2c-0.3-0.2-0.6-0.2-1-0.2C84.4,44,84.3,44,84.3,44.1z M121.1,75c0.1-0.1,0.3-0.2,0.4-0.3
		c0.1-0.1,0.3-0.2,0.4-0.3c0.1-0.1,0.2-0.1,0.1-0.3c-0.3,0-0.9,0.3-1,0.5C120.9,74.8,120.9,74.9,121.1,75z M83.1,45.9
		c0-0.3-0.1-0.6-0.3-0.8c-0.1-0.1-0.1-0.2-0.3-0.1c-0.1,0-0.2,0.2-0.1,0.3c0,0.1,0.1,0.3,0.1,0.4C82.7,45.7,82.8,45.8,83.1,45.9z
		 M118.3,73.7C118.3,73.7,118.3,73.7,118.3,73.7c-0.3-0.1-0.8,0.2-0.9,0.5c0,0,0,0.1,0.1,0.1c0.1,0,0.3,0.1,0.4,0
		C118.1,74.2,118.3,74,118.3,73.7z M119.7,73.6c-0.4-0.1-0.8,0.2-0.8,0.6C119.2,74.1,119.6,73.9,119.7,73.6z M104.8,70.4
		c0.1-0.1,0.1-0.2,0-0.3c-0.1-0.1-0.2-0.2-0.4-0.2c-0.2,0-0.3,0-0.5,0.1C104.2,70.2,104.5,70.3,104.8,70.4z M107.5,70.4
		c0.3,0.3,0.8,0.2,1-0.1C108.3,70.2,107.8,70.2,107.5,70.4z M97.5,57.7c0-0.4-0.2-0.6-0.5-0.6c-0.1,0-0.2,0-0.3,0.1
		c0,0.1,0.1,0.2,0.2,0.2C97.1,57.5,97.3,57.6,97.5,57.7z M87.2,50.9c0.3,0.3,0.7,0.3,0.9,0C87.9,50.7,87.4,50.7,87.2,50.9z
		 M90.8,58.2c0.3,0.3,0.7,0.5,1.1,0.7C91.7,58.4,91.2,58.1,90.8,58.2z M120.1,74.1c-0.2,0-0.4,0.1-0.6,0.2c-0.2,0.2-0.2,0.3,0.1,0.4
		C119.9,74.5,120,74.4,120.1,74.1z M90.3,57.7c-0.1-0.4-0.5-0.7-0.8-0.7C89.5,57.3,89.9,57.6,90.3,57.7z M102.8,72.1
		c0.2-0.2,0.2-0.3,0.2-0.4c-0.1-0.1-0.3-0.1-0.4-0.1c-0.2,0.1-0.2,0.2-0.1,0.3C102.6,72,102.7,72.1,102.8,72.1z M96,63.2
		c-0.3-0.2-0.9-0.3-1.1-0.2C95.3,63.2,95.6,63.4,96,63.2z M100.4,69.5c-0.3-0.1-0.7,0-0.8,0.2C100,69.9,100.3,69.8,100.4,69.5z
		 M105.7,73.8c0.1-0.2,0.1-0.3,0-0.3c-0.2-0.1-0.4-0.1-0.6,0.1C105.3,73.7,105.5,73.7,105.7,73.8z M103.4,69.6
		c-0.3-0.2-0.6-0.2-0.8,0C102.9,69.9,103.2,69.9,103.4,69.6z M81.9,39.5c0.1,0.1,0.2,0.2,0.4,0.2c0.1,0,0.2-0.2,0.3-0.3
		C82.3,39.3,82.1,39.3,81.9,39.5z M100,68c0.2,0.2,0.4,0.2,0.6,0.2c0.1,0,0.1-0.1,0.2-0.2c0,0-0.1-0.1-0.1-0.1
		C100.5,67.9,100.3,67.9,100,68z M96.4,63.4c0.4,0.3,0.7,0.4,0.9,0.3C97,63.5,96.7,63.4,96.4,63.4z M121.2,74
		c-0.3,0-0.7,0.3-0.9,0.5C120.7,74.5,120.9,74.3,121.2,74z M85,46.3c-0.1-0.3-0.5-0.5-0.7-0.3C84.5,46.2,84.7,46.3,85,46.3z
		 M111,65.8c0-0.2,0-0.3-0.1-0.4c-0.1,0-0.2,0-0.2,0.1c-0.1,0.1-0.1,0.2,0,0.2C110.7,65.9,110.8,65.9,111,65.8z M85.7,42.3
		c0.1,0.2,0.3,0.2,0.4,0.2c0.1,0,0.2-0.1,0.2-0.2c0-0.1,0-0.1-0.1-0.2C86.1,42.2,85.9,42.2,85.7,42.3z M123.9,76.6
		c0.1,0.2,0.3,0.2,0.4,0.2c0.1,0,0.2-0.1,0.2-0.3C124.3,76.4,124.1,76.5,123.9,76.6z M108.1,71.2c-0.4,0-0.9-0.1-1.3-0.1
		C107.1,71.3,107.8,71.3,108.1,71.2z M90.2,59.7c-0.1-0.4-0.5-0.7-0.8-0.7C89.7,59.3,89.9,59.5,90.2,59.7z M127.8,70.5
		c-0.2-0.1-0.4-0.1-0.5,0.1c0,0,0,0.1,0,0.1c0.1,0.1,0.3,0.2,0.4,0C127.8,70.7,127.8,70.6,127.8,70.5z M85.6,43c0-0.1,0-0.2,0-0.2
		c0,0-0.1-0.1-0.1-0.1c-0.1,0-0.2,0-0.2,0.1c-0.1,0-0.2,0.1-0.1,0.2c0,0.1,0.1,0.1,0.2,0.1C85.4,43,85.5,43,85.6,43z M103.5,67.9
		c0-0.2,0-0.3-0.1-0.3c-0.2-0.1-0.3-0.1-0.4,0.1C103.1,67.9,103.3,67.9,103.5,67.9z M114.5,72.9c0.4,0,0.6-0.2,0.7-0.5
		C114.9,72.6,114.7,72.7,114.5,72.9z M90.9,51.3C91,51.3,91,51.3,90.9,51.3c0-0.2,0-0.3,0-0.4c0-0.1-0.1-0.1-0.2,0
		c-0.1,0.1-0.1,0.3,0,0.3C90.8,51.3,90.9,51.3,90.9,51.3z M132.8,73.1c-0.2,0-0.2,0-0.3,0.1c0,0.1-0.1,0.2,0,0.2
		c0,0,0.1,0.1,0.2,0.1c0,0,0.1-0.1,0.1-0.1C132.8,73.3,132.8,73.2,132.8,73.1z M112.2,67c-0.1-0.3-0.3-0.4-0.5-0.2
		C111.8,67,112,67,112.2,67z M111.8,74.1c0.4-0.1,0.4-0.2,0.3-0.5C111.8,73.8,111.8,73.9,111.8,74.1z M130.2,69
		c-0.2,0.1-0.2,0.2-0.2,0.3c0,0.1,0.1,0.1,0.3,0.1C130.3,69.3,130.4,69.2,130.2,69z M89.4,55.5c0.1,0,0.2,0.1,0.3,0.1
		c0.1,0,0.2-0.1,0.2-0.1c0-0.1-0.1-0.1-0.1-0.1C89.6,55.3,89.5,55.4,89.4,55.5z M135.7,72.9c-0.1,0-0.1,0-0.1,0.1
		c-0.1,0.1-0.2,0.3-0.1,0.3c0.1,0.1,0.2,0,0.3,0C135.7,73.1,135.7,73,135.7,72.9z M97.6,66.5c-0.2-0.2-0.4-0.3-0.6-0.3
		C97.1,66.4,97.4,66.5,97.6,66.5z M87.3,49.5c-0.2-0.1-0.4-0.1-0.5,0C87,49.7,87.1,49.7,87.3,49.5z M99.8,61.9
		c0-0.1-0.1-0.2-0.1-0.2c0,0-0.1,0-0.2,0c0,0-0.1,0.1-0.1,0.1c0,0,0.1,0.1,0.1,0.1C99.6,61.9,99.7,61.9,99.8,61.9z M89.4,39
		c0.1,0,0.2,0.1,0.2,0.1c0.1,0,0.1-0.1,0.1-0.2C89.6,38.8,89.6,38.8,89.4,39z M101.1,71.4c-0.1-0.1-0.1-0.3-0.2-0.2
		c-0.1,0-0.1,0.2-0.1,0.3C100.9,71.5,101,71.5,101.1,71.4z M100.7,62.3c-0.1,0.1,0,0.2,0,0.3c0.1,0.1,0.2,0.1,0.2,0
		C100.9,62.4,100.8,62.3,100.7,62.3z M82,42.4c-0.1,0.1-0.2,0.2-0.1,0.3c0,0.1,0.1,0.1,0.2,0.1C82,42.6,82,42.5,82,42.4z M99.9,70.8
		c-0.1-0.1-0.2-0.1-0.4,0C99.7,70.9,99.7,70.9,99.9,70.8z M99.7,66.4c0.1,0.2,0.1,0.2,0.3,0.1C100,66.3,100,66.3,99.7,66.4z
		 M87.9,26.3c-0.2,0-0.3,0.1-0.4,0.3C87.7,26.6,87.8,26.5,87.9,26.3z M118.6,71.1c0.3,0.1,0.3,0.1,0.4-0.1
		C118.8,71,118.7,71,118.6,71.1z M113.7,73c0.2-0.1,0.3-0.1,0.1-0.3C113.7,72.8,113.7,72.9,113.7,73z M88.3,42.5
		c0.2-0.1,0.2-0.1,0-0.3C88.3,42.3,88.3,42.4,88.3,42.5z M95.3,63.6C95.3,63.6,95.3,63.6,95.3,63.6c0-0.1,0-0.2-0.1-0.2
		c0,0-0.1,0-0.1,0.1c0,0,0,0.1,0.1,0.1C95.2,63.6,95.2,63.6,95.3,63.6z M81.4,42.9c-0.1,0.1-0.1,0.2,0,0.3c0,0,0.1,0,0.1,0
		C81.5,43.1,81.5,43,81.4,42.9z M92.6,51.1c0.1,0.1,0.2,0.2,0.3,0C92.8,51,92.7,51,92.6,51.1z M112.8,74.1c0.1,0,0.2,0,0.2,0
		c0,0,0-0.1,0-0.2c0,0,0,0-0.1,0C112.9,74,112.9,74,112.8,74.1z M117.9,74.9c0-0.1-0.1-0.1-0.1-0.1c-0.1,0-0.2,0-0.2,0.1
		C117.7,75,117.8,75,117.9,74.9z M101.2,70.5c0.1,0,0.2,0,0.2-0.1c0,0,0-0.1-0.1-0.1C101.2,70.3,101.2,70.4,101.2,70.5z M113,67.5
		c0-0.1,0-0.1-0.1-0.1c0,0,0,0,0,0.1C112.8,67.5,112.9,67.5,113,67.5z M86,46.9C86,46.9,86,46.9,86,46.9c-0.1-0.1-0.1-0.1-0.1-0.1
		c0,0,0,0.1,0,0.1C85.9,46.9,86,46.9,86,46.9z M90,51.1C90,51,90,51,90,51.1c-0.1-0.1-0.1-0.1-0.1,0C89.9,51.1,89.9,51.1,90,51.1
		C90,51.1,90,51.1,90,51.1z"/>
	<path class="st0" d="M131,88.6c0,2.1,0,4.3,0,6.4c0,0.1,0,0.2,0,0.3c0,0.2,0.1,0.3,0.3,0.2c0.2-0.1,0.3-0.2,0.5-0.3
		c1-0.8,1.9-1.6,2.9-2.4c0.1-0.1,0.2-0.2,0.3-0.3c0,0,0.1-0.1,0.1-0.1c0.1-0.2,0.1-0.4-0.1-0.5c-0.1-0.1-0.2-0.1-0.3-0.1
		c-0.2,0-0.4-0.1-0.6-0.1c-0.4-0.1-0.5-0.3-0.5-0.6c0-0.2,0.2-0.4,0.4-0.3c0.3,0,0.5,0.1,0.8,0.1c0.6,0,1.3,0.1,1.9,0.1
		c1,0,1.9,0,2.9,0c0.1,0,0.1,0,0.2,0c0.3,0,0.4,0.1,0.5,0.4c0.1,0.3,0,0.5-0.3,0.6c-0.1,0-0.2,0.1-0.3,0.1c-1.4,0.1-2.5,0.6-3.6,1.4
		c-0.5,0.4-0.9,0.8-1.4,1.2c-0.1,0.1-0.2,0.3-0.1,0.4c0.1,0.2,0.2,0.4,0.3,0.5c0.9,1.4,1.8,2.7,3,3.8c0.3,0.3,0.7,0.6,1,0.8
		c0.5,0.3,1,0.5,1.5,0.5c0.2,0,0.3,0,0.5,0c0.2,0,0.2,0.1,0.3,0.3c0.1,0.5-0.1,0.7-0.6,0.8c-0.4,0-0.7,0-1.1,0
		c-0.6,0-1.3,0.1-1.9,0.1c-0.4,0-0.7-0.1-0.9-0.3c-1.4-1.5-2.6-3.1-3.6-4.8c0-0.1-0.1-0.1-0.1-0.2c-0.1-0.2-0.2-0.2-0.4-0.1
		c-0.4,0.2-0.8,0.4-1.1,0.7c-0.2,0.2-0.3,0.4-0.3,0.7c0,0.6,0,1.1,0.1,1.7c0,0.1,0,0.3,0.1,0.4c0.1,0.3,0.3,0.6,0.7,0.7
		c0.3,0.1,0.6,0.1,0.9,0.2c0.2,0,0.3,0,0.5,0.1c0.3,0.1,0.4,0.4,0.3,0.7c0,0.1-0.1,0.1-0.2,0.1c-0.1,0-0.2,0-0.3,0
		c-1.2-0.1-2.5,0-3.7,0c-0.5,0-0.9,0.1-1.4,0.1c-0.1,0-0.2,0-0.3,0c-0.2,0-0.3,0-0.4-0.2c-0.1-0.2-0.1-0.4,0.1-0.6
		c0.1-0.1,0.2-0.1,0.3-0.2c0.1-0.1,0.3-0.1,0.4-0.1c0.3-0.1,0.5-0.3,0.7-0.6c0.1-0.3,0.2-0.7,0.2-1c0-0.1,0-0.2,0-0.3
		c0-4.1,0-8.2,0-12.3c0-0.4,0-0.8-0.1-1.2c0-0.4-0.3-0.8-0.6-1c-0.2-0.1-0.5-0.2-0.7-0.4c-0.1-0.1-0.2-0.1-0.3-0.2
		c-0.2-0.1-0.2-0.4-0.1-0.6c0.1-0.1,0.2-0.2,0.3-0.2c0.1-0.1,0.2-0.1,0.4-0.2c0.7-0.2,1.3-0.6,2-1c0.2-0.1,0.5-0.3,0.7-0.4
		c0.4-0.2,0.7,0,0.8,0.4c0,0.1,0,0.3,0,0.4C131,84.4,131,86.5,131,88.6C131,88.6,131,88.6,131,88.6z"/>
	<path class="st0" d="M83.4,88c0,1,0,2,0,3c0,0.1,0,0.1,0,0.2c0,0.2,0.1,0.3,0.4,0.4c0.1,0,0.2,0,0.2,0c1.1-0.1,2.2-0.1,3.3-0.2
		c0,0,0,0,0,0c0.6-0.1,0.8-0.2,0.9-0.8c0.1-0.3,0.1-0.5,0.1-0.8c0-0.2,0.1-0.4,0.3-0.5c0.2-0.1,0.5,0,0.7,0.1
		c0.1,0.1,0.1,0.2,0.1,0.4c-0.1,0.3-0.1,0.7-0.2,1c-0.1,1.1-0.2,2.2-0.1,3.3c0,0.2,0,0.4,0,0.6c0,0.3-0.1,0.4-0.4,0.4
		c-0.3,0-0.5-0.1-0.6-0.4c-0.1-0.2-0.1-0.4-0.1-0.6c-0.1-0.2-0.2-0.4-0.3-0.6c-0.3-0.5-0.6-0.8-1.2-0.8c-1,0-1.9-0.1-2.9-0.1
		c0,0-0.1,0-0.1,0c-0.2,0-0.2,0.1-0.2,0.2c0,0.1,0,0.1,0,0.2c0,2,0,4,0,6c0,0.1,0,0.2,0,0.3c0,0.5,0.3,0.8,0.7,0.9
		c0.4,0.1,0.8,0.2,1.2,0.3c0.1,0,0.3,0,0.4,0.1c0.1,0,0.2,0,0.3,0.1c0.2,0.1,0.2,0.2,0.2,0.4c0,0.2-0.1,0.3-0.3,0.4
		c-0.2,0-0.4,0.1-0.5,0.1c-0.4,0-0.8,0-1.2-0.1c-1.5-0.1-2.9-0.1-4.4,0c-0.2,0-0.4,0.1-0.6,0.1c-0.3,0-0.4-0.1-0.5-0.4
		c0-0.3,0.1-0.4,0.3-0.5c0.1,0,0.2,0,0.3-0.1c0.5-0.1,0.9-0.4,1.1-0.8c0.2-0.4,0.2-0.7,0.2-1.1c0-0.2,0-0.4,0-0.6
		c0-3.9,0-7.9,0-11.8c0-0.3,0-0.6-0.1-0.9c-0.1-0.5-0.3-0.9-0.7-1.2c-0.2-0.2-0.5-0.3-0.7-0.4c-0.1-0.1-0.2-0.1-0.3-0.2
		c-0.3-0.2-0.3-0.4-0.1-0.7c0.1-0.1,0.2-0.1,0.3-0.1c0.2,0,0.5,0,0.7,0.1c0.3,0,0.7,0.1,1,0.1c2.6,0.1,5.2,0.1,7.8,0
		c0.7,0,1.5-0.1,2.2-0.1c0.2,0,0.3,0,0.5,0c0.3,0,0.3,0.1,0.3,0.4c-0.1,0.3-0.1,0.6-0.1,1c0,0.6-0.1,1.2-0.1,1.7c0,0.2,0,0.3,0,0.5
		c0,0.2-0.2,0.4-0.4,0.3c-0.2,0-0.4-0.1-0.5-0.3c0-0.1-0.1-0.2-0.1-0.3c-0.2-0.3-0.3-0.6-0.5-0.9c-0.3-0.6-0.9-0.9-1.6-1
		c-0.5,0-1-0.1-1.5-0.1c-0.8,0-1.7,0-2.5,0c-0.2,0-0.4,0-0.6,0.1c-0.3,0.1-0.4,0.1-0.4,0.4c0,0.1,0,0.2,0,0.3
		C83.4,86,83.4,87,83.4,88z"/>
	<path class="st0" d="M111.6,95.9c0,1,0,2,0,3c0,0.1,0,0.3,0,0.4c0.1,0.5,0.4,0.7,0.8,0.7c0.2,0,0.5-0.1,0.7-0.1c0.1,0,0.1,0,0.2,0
		c0.3,0,0.4,0,0.5,0.2c0.1,0.2,0.1,0.4-0.1,0.6c0,0-0.1,0.1-0.1,0.1c-0.6,0.5-1.3,0.9-2.1,1.1c-0.6,0.1-1,0-1.4-0.4
		c-0.1-0.1-0.2-0.3-0.4-0.4c-0.1-0.2-0.3-0.2-0.5-0.1c-0.4,0.2-0.8,0.4-1.2,0.5c-0.8,0.4-1.6,0.6-2.5,0.5c-0.4,0-0.8-0.1-1.1-0.3
		c-0.9-0.4-1.4-1.2-1.5-2.1c-0.1-0.8,0.2-1.5,0.8-2c0.5-0.5,1.2-0.8,1.9-1c0.9-0.4,1.9-0.6,2.9-0.8c0.2,0,0.4-0.1,0.6-0.2
		c0.3-0.1,0.4-0.4,0.4-0.7c0-0.4,0-0.9,0-1.3c0-0.2,0-0.3-0.1-0.5c-0.2-0.8-0.7-1.2-1.5-1.3c-0.6-0.1-1,0.1-1.3,0.6
		c-0.1,0.2-0.2,0.4-0.3,0.6c-0.3,0.5-0.7,0.9-1.2,1c-0.2,0-0.5,0.1-0.7,0c-0.3,0-0.6-0.2-0.7-0.6c-0.1-0.4-0.1-0.7,0.2-0.9
		c0.2-0.2,0.4-0.4,0.6-0.5c1.1-0.7,2.3-1.2,3.6-1.4c0.6-0.1,1.1-0.1,1.7,0c1.1,0.2,1.8,1,1.9,2.2c0,0.2,0,0.4,0,0.6
		C111.6,94.2,111.6,95,111.6,95.9C111.6,95.9,111.6,95.9,111.6,95.9z M109.4,98.2C109.4,98.2,109.4,98.2,109.4,98.2
		c0-0.2,0-0.3,0-0.5s0-0.3,0-0.5c0-0.5-0.2-0.6-0.7-0.6c0,0,0,0-0.1,0c-0.4,0.1-0.7,0.2-1.1,0.3c-0.6,0.1-1.1,0.3-1.6,0.7
		c-0.6,0.4-0.8,0.9-0.7,1.6c0.1,0.6,0.4,1.1,1.1,1.2c0.5,0.1,1.1,0.1,1.6,0c0.4-0.1,0.7-0.2,1.1-0.4c0.2-0.1,0.4-0.3,0.4-0.6
		C109.4,98.9,109.4,98.6,109.4,98.2z"/>
	<path class="st0" d="M98.4,90c0,3.4,0,6.2,0.1,8.9c0,0.2,0,0.5,0.1,0.7c0.1,0.4,0.3,0.7,0.7,0.8c0.3,0.1,0.7,0.2,1,0.3
		c0.2,0,0.3,0,0.5,0.1c0.2,0.1,0.3,0.3,0.3,0.5c0,0.2-0.2,0.3-0.4,0.4c-0.1,0-0.3,0-0.4,0c-1.4-0.1-2.8-0.1-4.2,0
		c-0.3,0-0.6,0-0.8,0.1c-0.3,0-0.4,0-0.4-0.2c-0.1-0.3,0-0.5,0.2-0.6c0.1-0.1,0.3-0.2,0.4-0.2c0.6-0.2,0.9-0.6,0.9-1.2
		c0-0.1,0-0.2,0-0.3c0-4.2,0-8.4,0-12.7c0-0.4,0-0.8-0.1-1.1c-0.1-0.6-0.4-1-1-1.3C95,84,94.8,84,94.6,83.9
		c-0.2-0.1-0.3-0.2-0.3-0.4c0-0.2,0.1-0.4,0.3-0.5c0.1-0.1,0.2-0.1,0.4-0.2c0.7-0.2,1.3-0.5,1.9-0.9c0.2-0.1,0.5-0.3,0.7-0.4
		c0.1,0,0.2-0.1,0.2-0.1c0.3-0.1,0.6,0,0.7,0.4c0,0.1,0,0.3,0,0.4c0,0.7-0.1,1.5-0.1,2.2C98.4,86.5,98.4,88.5,98.4,90z"/>
	<path class="st0" d="M120.7,90.4c0.7,0,1.4,0.1,2.2,0.2c0.1,0,0.2,0.1,0.3,0.1c0.3,0.1,0.5,0.3,0.6,0.6c0.1,0.6,0.2,1.2,0.4,1.8
		c0.1,0.3,0,0.3-0.2,0.4c-0.1,0-0.2,0.1-0.3,0.1c-0.2,0-0.4-0.1-0.5-0.3c-0.2-0.3-0.4-0.6-0.7-0.9c-0.6-0.6-1.4-0.9-2.3-0.9
		c-0.3,0-0.6,0-0.8,0.1c-0.9,0.3-1.2,1.3-0.6,2.1c0.1,0.2,0.3,0.3,0.5,0.4c0.5,0.3,1.1,0.5,1.6,0.8c0.7,0.3,1.3,0.6,2,1
		c0.1,0,0.2,0.1,0.2,0.2c1.1,0.7,1.4,1.7,1.3,2.9c-0.1,1-0.6,1.7-1.4,2.3c-0.6,0.4-1.2,0.5-1.9,0.6c-1.5,0.2-2.9,0-4.4-0.4
		c-0.2,0-0.3-0.1-0.5-0.2c-0.1,0-0.2-0.1-0.2-0.3c0-0.4-0.1-0.7-0.1-1.1c0-0.3,0-0.7,0-1c0-0.2,0.1-0.4,0.3-0.4
		c0.2-0.1,0.4,0.1,0.5,0.2c0,0.1,0.1,0.1,0.1,0.2c0.7,1.1,1.7,1.7,3,1.8c0.4,0,0.9,0,1.3-0.1c0.1,0,0.1,0,0.2-0.1
		c1.1-0.3,1.1-1.6,0.5-2.2c-0.2-0.2-0.4-0.4-0.6-0.5c-0.5-0.3-1-0.5-1.6-0.8c-0.5-0.3-1.1-0.5-1.6-0.8c-0.2-0.1-0.4-0.2-0.6-0.4
		c-0.7-0.5-1.1-1.3-1.1-2.2c0-1.2,0.5-2.1,1.5-2.8c0.6-0.3,1.2-0.5,1.8-0.5C120.1,90.4,120.4,90.4,120.7,90.4z"/>
	<path class="st0" d="M99.7,63.9c-0.1,0-0.1,0-0.2,0c-0.3-0.1-0.6-0.2-0.9-0.3c-0.2-0.1-0.4-0.2-0.5-0.4c0.1,0,0.1,0,0.1,0
		c0.5,0.1,1,0.3,1.5,0.6C99.7,63.8,99.7,63.8,99.7,63.9C99.7,63.8,99.7,63.9,99.7,63.9z"/>
	<path class="st0" d="M104.8,70.4c-0.3-0.1-0.6-0.1-0.8-0.4c0.1-0.2,0.3-0.1,0.5-0.1c0.1,0,0.3,0,0.4,0.2
		C104.9,70.1,104.9,70.2,104.8,70.4z"/>
	<path class="st0" d="M107.5,70.4c0.2-0.2,0.8-0.3,1-0.1C108.3,70.7,107.9,70.7,107.5,70.4z"/>
	<path class="st0" d="M87.2,50.9c0.3-0.2,0.7-0.2,0.9,0C87.9,51.2,87.5,51.2,87.2,50.9z"/>
	<path class="st0" d="M102.8,72.1c-0.1-0.1-0.2-0.1-0.3-0.2c-0.1-0.1-0.1-0.2,0.1-0.3c0.2-0.1,0.4,0,0.4,0.1
		C103,71.8,103,71.9,102.8,72.1z"/>
	<path class="st0" d="M100.4,69.5c-0.1,0.3-0.5,0.4-0.8,0.2C99.8,69.5,100.2,69.4,100.4,69.5z"/>
	<path class="st0" d="M105.7,73.8c-0.2,0-0.4-0.1-0.6-0.2c0.2-0.2,0.4-0.2,0.6-0.1C105.8,73.5,105.8,73.5,105.7,73.8z"/>
	<path class="st0" d="M103.4,69.6c-0.2,0.2-0.5,0.2-0.8,0C102.8,69.5,103.1,69.5,103.4,69.6z"/>
	<path class="st0" d="M111,65.8c-0.2,0.1-0.3,0.1-0.4,0c-0.1-0.1,0-0.2,0-0.2c0.1-0.1,0.1-0.2,0.2-0.1C111,65.5,111,65.6,111,65.8z"
		/>
	<path class="st0" d="M108.1,71.2c-0.4,0.1-1,0.1-1.3-0.1C107.3,71.1,107.7,71.2,108.1,71.2z"/>
	<path class="st0" d="M90.9,51.3c-0.1,0-0.1,0-0.2-0.1c-0.1-0.1-0.1-0.2,0-0.3c0.1-0.1,0.2-0.1,0.2,0C91,51.1,91,51.2,90.9,51.3
		C91,51.3,91,51.3,90.9,51.3z"/>
	<path class="st0" d="M112.2,67c-0.2,0-0.4,0-0.5-0.2C111.9,66.6,112.1,66.6,112.2,67z"/>
	<path class="st0" d="M97.6,66.5c-0.2,0-0.5-0.1-0.6-0.3C97.2,66.2,97.4,66.3,97.6,66.5z"/>
	<path class="st0" d="M87.3,49.5c-0.2,0.2-0.3,0.2-0.5,0C87,49.4,87.1,49.4,87.3,49.5z"/>
	<path class="st0" d="M99.8,61.9c-0.1,0-0.2,0-0.2,0c0,0-0.1-0.1-0.1-0.1c0,0,0-0.1,0.1-0.1c0,0,0.1,0,0.2,0
		C99.7,61.7,99.7,61.8,99.8,61.9z"/>
	<path class="st0" d="M101.1,71.4c-0.1,0-0.2,0-0.3,0.1c-0.1-0.1,0-0.3,0.1-0.3C101.1,71.2,101.1,71.3,101.1,71.4z"/>
	<path class="st0" d="M100.7,62.3c0.2,0,0.2,0.1,0.3,0.3c-0.1,0.1-0.2,0.1-0.2,0C100.6,62.5,100.6,62.4,100.7,62.3z"/>
	<path class="st0" d="M82,42.4c0,0.1,0.1,0.2,0.1,0.3c-0.1,0-0.2,0-0.2-0.1C81.8,42.6,81.8,42.5,82,42.4z"/>
	<path class="st0" d="M99.9,70.8c-0.2,0.1-0.2,0.1-0.4,0C99.6,70.7,99.8,70.7,99.9,70.8z"/>
	<path class="st0" d="M99.7,66.4c0.2-0.1,0.2-0.1,0.3,0.1C99.8,66.5,99.8,66.5,99.7,66.4z"/>
	<path class="st0" d="M87.9,26.3c0,0.2-0.2,0.3-0.4,0.3C87.6,26.4,87.7,26.4,87.9,26.3z"/>
	<path class="st0" d="M113.7,73c0-0.1,0.1-0.2,0.1-0.3C113.9,72.9,113.9,72.9,113.7,73z"/>
	<path class="st0" d="M95.3,63.6c-0.1,0-0.1,0-0.2,0c0,0-0.1-0.1-0.1-0.1c0,0,0.1-0.1,0.1-0.1C95.3,63.4,95.3,63.5,95.3,63.6
		C95.3,63.6,95.3,63.6,95.3,63.6z"/>
	<path class="st0" d="M81.4,42.9c0.1,0.1,0.1,0.2,0,0.3c0,0-0.1,0-0.1,0C81.3,43.1,81.3,43,81.4,42.9z"/>
	<path class="st0" d="M92.6,51.1c0.1-0.1,0.2-0.1,0.3,0C92.8,51.3,92.7,51.1,92.6,51.1z"/>
	<path class="st0" d="M112.8,74.1c0.1-0.1,0.1-0.2,0.1-0.2c0,0,0,0,0.1,0c0,0.1,0,0.1,0,0.2C113,74.1,112.9,74.1,112.8,74.1z"/>
	<path class="st0" d="M117.9,74.9c-0.1,0-0.2,0-0.3,0c0-0.1,0.1-0.2,0.2-0.1C117.8,74.8,117.8,74.9,117.9,74.9z"/>
	<path class="st0" d="M101.2,70.5c0-0.1,0-0.2,0.1-0.2c0,0,0.1,0,0.1,0.1C101.4,70.5,101.3,70.5,101.2,70.5z"/>
	<path class="st0" d="M113,67.5c-0.1,0-0.1,0-0.2-0.1c0,0,0-0.1,0-0.1C112.9,67.3,113,67.4,113,67.5z"/>
	<path class="st0" d="M86,46.9c0,0-0.1,0-0.1,0c0,0,0-0.1,0-0.1C85.9,46.8,86,46.8,86,46.9C86,46.9,86,46.9,86,46.9z"/>
	<path class="st0" d="M90,51.1C90,51.1,90,51.1,90,51.1c-0.1,0-0.1,0-0.1,0C89.9,51,90,51,90,51.1C90,51,90,51,90,51.1z"/>
	<path class="st0" d="M93,47.2c0.4,0.8,0.7,1.6,1.3,2.3c0-0.1,0-0.1,0-0.2c-0.1-0.4-0.3-0.7-0.4-1.1c-0.1-0.2-0.1-0.3-0.2-0.5
		c0-0.1,0-0.2,0-0.3c0.2,0,0.3,0.1,0.4,0.2c0.3,0.3,0.6,0.6,0.8,0.9c0.3,0.3,0.5,0.7,0.8,1c0,0.1,0.1,0.1,0.1,0.2
		c0.1,0.2,0,0.3-0.1,0.3c-0.2,0.1-0.3,0.2-0.2,0.4c0,0.1,0.1,0.2,0.1,0.4c-0.1-0.1-0.2-0.2-0.3-0.3c-0.2-0.2-0.3-0.1-0.5,0
		c0,0,0,0,0,0c-0.2,0.3-0.3,0.4-0.6,0c-0.1-0.2-0.3-0.3-0.4-0.5c-0.4-0.8-0.7-1.6-0.8-2.5C92.9,47.5,93,47.4,93,47.2z"/>
	<path class="st0" d="M99.2,49.4C99.1,49.7,99,50,99,50.3c0,0.1-0.1,0.1-0.1,0.2c-0.1,0.1-0.2,0.1-0.3,0c-0.1-0.1-0.1-0.2-0.2-0.4
		c-0.1-0.1-0.1-0.2-0.2-0.3c-0.2-0.2-0.3-0.4-0.4-0.7c-0.2-0.7-0.2-1.4,0-2c0-0.1,0.1-0.3,0.3-0.4c0.3,0.3,0.2,0.7,0.4,1
		c0.1,0,0.1,0,0.2,0c0.2,0,0.4,0.1,0.4,0.3c0,0.1,0,0.2,0,0.3c0,0.2,0,0.3,0,0.5C98.8,49.3,98.9,49.3,99.2,49.4z"/>
	<path class="st0" d="M99.5,41c0.1-0.1,0.2-0.2,0.2-0.3c0.1-0.3,0.1-0.6,0.2-0.8c0-0.2,0.1-0.3,0.3-0.5c0,0.1,0,0.2,0,0.3
		c-0.1,0.6-0.2,1.1-0.5,1.7c-0.1,0.2-0.2,0.3-0.3,0.4c-0.2,0.2-0.3,0.2-0.5,0c-0.2-0.2-0.2-0.4-0.2-0.6c0-0.8,0.1-1.5,0.5-2.2
		c0.1-0.1,0.1-0.3,0.3-0.3c0.2,0,0.2,0.2,0.2,0.4c0,0.2,0,0.3,0,0.5c-0.1,0.3-0.2,0.7-0.2,1C99.4,40.7,99.4,40.8,99.5,41z"/>
	<path class="st0" d="M89.3,45.1c0.1,0.1,0.2,0.2,0.3,0.3c0.1,0.1,0.3,0.2,0.4,0.2c0.5,0.2,0.8,0.6,0.7,1.2c0,0.1,0,0.2-0.1,0.3
		c-0.1,0.3-0.4,0.3-0.6,0.2c-0.1,0-0.1-0.1-0.2-0.2c-0.3-0.4-0.7-0.7-1-1.1c-0.1-0.1-0.2-0.2-0.2-0.3c0,0,0,0,0-0.1
		c0.1,0,0.2,0.1,0.2,0.1c0.2,0.1,0.4,0.3,0.6,0.4c0.1,0,0.1,0.1,0.3,0C89.7,45.7,89.4,45.5,89.3,45.1z"/>
	<path class="st0" d="M93.2,45.5c-0.1,0-0.2,0-0.3,0c-0.1,0-0.3-0.1-0.4-0.1c-0.4-0.2-0.7-0.3-1.1-0.4c-0.3-0.1-0.5-0.2-0.7-0.5
		c-0.1-0.2-0.2-0.3-0.3-0.4c0-0.1,0-0.2,0-0.2c0,0,0.1-0.1,0.2,0c0.1,0,0.2,0.1,0.4,0.1c0.7,0.3,1.3,0.7,1.9,1.2
		C93,45.2,93.2,45.3,93.2,45.5z"/>
	<path class="st0" d="M91.8,42.8c0.1-0.3,0.1-0.5,0-0.8c-0.1-0.2-0.2-0.5-0.2-0.7c0.1,0.1,0.2,0.3,0.3,0.4c0.1,0.2,0.2,0.3,0.4,0.4
		c0.2,0.1,0.4,0.2,0.6,0.4c0.1,0.1,0.2,0.1,0.3,0.2c-0.1,0.2-0.2,0.2-0.4,0.3c0.2,0.2,0.4,0.4,0.6,0.7c-0.1,0-0.2,0-0.2,0
		C92.7,43.4,92.2,43.1,91.8,42.8z"/>
	<path class="st0" d="M89.5,44.5c0.3,0,0.8,0.2,1.4,0.7c0.2,0.2,0.5,0.3,0.6,0.6c0,0-0.1,0.1-0.1,0.1c-0.3,0-0.7,0-1-0.3
		c-0.3-0.3-0.6-0.5-0.8-0.8C89.6,44.7,89.5,44.6,89.5,44.5z"/>
	<path class="st0" d="M107.8,64.6c-0.6-0.2-1.3-1.4-1.2-2c0.1,0,0.1,0,0.2,0.1c0.4,0.5,0.8,0.9,1,1.5
		C107.8,64.2,107.8,64.4,107.8,64.6z"/>
	<path class="st0" d="M91,43.5c0.6-0.1,2.2,0.5,2.6,1c-0.1,0-0.2,0-0.2,0c-0.4-0.1-0.8-0.3-1.2-0.5c-0.2-0.1-0.4-0.1-0.6-0.2
		C91.4,43.8,91.2,43.7,91,43.5z"/>
	<path class="st0" d="M102.5,56.2c-0.4-0.5-0.6-1.2-0.4-1.5c0.1,0,0.2,0.1,0.3,0.2C102.6,55.3,102.6,55.8,102.5,56.2z"/>
	<path class="st0" d="M92.9,49.5c-0.2-0.1-0.5-0.4-0.5-0.5c0-0.1,0.1-0.3,0.2-0.3c0.1,0,0.2,0.1,0.2,0.1C93,49,93,49.2,92.9,49.5z"
		/>
	<path class="st0" d="M93,41.8C93,41.7,93,41.7,93,41.8c0.1-0.2,0.2-0.3,0.3-0.3c0.1,0,0.2,0.2,0.2,0.3c0,0,0,0,0,0
		c0,0.1,0.1,0.2-0.1,0.3c-0.1,0.1-0.2,0-0.3-0.1C93.1,41.9,93.1,41.8,93,41.8z"/>
	<path class="st0" d="M104.9,60.3c0.3,0.1,0.6,0.4,0.6,0.7c-0.2,0.1-0.3,0-0.4-0.1C105,60.7,104.9,60.5,104.9,60.3z"/>
	<path class="st0" d="M100.3,48.3c0-0.5,0-1,0.2-1.4C100.6,47.1,100.5,47.8,100.3,48.3z"/>
	<path class="st0" d="M92.3,47.1c-0.3,0-0.5-0.3-0.5-0.7C92.1,46.6,92.2,46.8,92.3,47.1z"/>
	<path class="st0" d="M91.5,48.8c-0.3-0.2-0.3-0.4-0.1-0.8C91.5,48.3,91.6,48.5,91.5,48.8z"/>
	<path class="st0" d="M99.9,47.8c-0.2-0.4,0-0.7,0-1.1C100,46.9,100,47.5,99.9,47.8z"/>
	<path class="st0" d="M103.3,58c0.1,0.2,0.1,0.4,0,0.7C103,58.4,103,58.3,103.3,58z"/>
	<path class="st0" d="M96.6,47.5c-0.1-0.2-0.1-0.5-0.1-0.9C96.6,47,96.6,47.3,96.6,47.5z"/>
	<path class="st0" d="M98.3,43.7c0.2,0.2,0.3,0.5,0.4,0.8C98.4,44.2,98.4,43.9,98.3,43.7z"/>
	<path class="st0" d="M95.3,54.4c-0.2-0.1-0.2-0.2-0.2-0.4c0.1-0.1,0.2,0,0.3,0C95.4,54.2,95.4,54.3,95.3,54.4z"/>
	<path class="st0" d="M101.4,52c-0.2-0.2-0.1-0.4,0-0.6C101.4,51.6,101.4,51.7,101.4,52z"/>
	<path class="st0" d="M91.1,46.7c0.1-0.1,0.2-0.1,0.2-0.2c0.1,0.2,0.1,0.3,0,0.3C91.2,46.9,91.2,46.9,91.1,46.7z"/>
	<path class="st0" d="M97.4,54.2c0.1,0.1,0.2,0.2,0.3,0.3c0,0,0,0,0,0C97.5,54.5,97.4,54.4,97.4,54.2C97.3,54.2,97.4,54.2,97.4,54.2
		z"/>
	<path class="st0" d="M100.9,50.5c-0.1-0.2,0-0.3,0.1-0.4C101,50.2,101,50.3,100.9,50.5z"/>
	<path class="st0" d="M106,61.8c0,0.1,0,0.3,0.1,0.4C106,62.1,106,62,106,61.8C106,61.9,106,61.8,106,61.8z"/>
	<path class="st0" d="M98.1,42.8c0,0.1,0.1,0.2,0.1,0.4C98,43,98,43,98.1,42.8z"/>
	<path class="st0" d="M91,40.7c0,0-0.1-0.1-0.1-0.2C91.1,40.5,91.1,40.5,91,40.7C91.1,40.6,91,40.7,91,40.7z"/>
	<path class="st0" d="M115.8,69.5c-0.1,0.1-0.2,0.1-0.2-0.1C115.7,69.4,115.7,69.4,115.8,69.5z"/>
	<path class="st0" d="M87.6,36.6C87.6,36.6,87.6,36.5,87.6,36.6c0.2-0.7,0.6-0.8,1.1-0.5c0.3,0.2,0.5,0.4,0.7,0.7c0,0,0,0,0,0.1
		c0,0.1,0.1,0.3,0,0.4c-0.1,0.1-0.2,0-0.3,0c-0.2-0.1-0.3-0.2-0.5-0.3c-0.1-0.1-0.3-0.2-0.4-0.2C88,36.7,87.8,36.7,87.6,36.6z"/>
	<path class="st0" d="M96.6,33.7c0-0.2,0-0.5,0.1-0.7c0-0.1,0-0.2,0.1-0.2c0.1-0.2,0.3-0.3,0.5-0.2c0.3,0.2,0.6,0.5,0.6,0.9
		c0,0.3-0.1,0.4-0.4,0.4C97.2,34,96.9,33.9,96.6,33.7z"/>
	<path class="st0" d="M94.1,34.1c-0.1,0.1-0.2,0.1-0.3,0.2c-0.2,0.1-0.5,0.1-0.7,0.2c-0.1,0-0.2,0-0.3,0c-0.3-0.2-0.6-0.2-0.9-0.1
		c-0.2,0.1-0.4,0.2-0.6,0.2c-0.2,0.1-0.3,0.1-0.5,0c0.1-0.1,0.2-0.2,0.3-0.3c0.3-0.2,0.7-0.3,1.1-0.4c0.5-0.1,1-0.1,1.5-0.1
		C93.8,34,94,34,94.1,34.1z"/>
	<path class="st0" d="M89.5,36c-0.3,0.1-0.5-0.2-0.7-0.4c0,0,0-0.1,0-0.2c0.1-0.2,0.2-0.2,0.3-0.2c0.3,0,0.6,0.1,0.8,0.4
		c0.2,0.2,0.1,0.3-0.1,0.4C89.8,36,89.7,36,89.5,36z"/>
	<path class="st0" d="M98.6,33.4c0,0.2,0,0.3-0.1,0.5c-0.1-0.1-0.2-0.1-0.1-0.3c0.1-0.3,0.4-0.6,0.7-0.8c0.1,0,0.2-0.1,0.3,0
		c0.1,0,0.1,0.1,0.2,0.1c0,0,0,0.1-0.1,0.2c-0.1,0.1-0.2,0.1-0.4,0.2C98.9,33.4,98.8,33.4,98.6,33.4z"/>
	<path class="st0" d="M87.7,35.5c0.1-0.1,0.3-0.2,0.4-0.2c0.1,0.1,0,0.2-0.1,0.2C87.9,35.6,87.8,35.7,87.7,35.5z"/>
	<path class="st0" d="M90.5,35.1c-0.1-0.2-0.1-0.2,0.1-0.4C90.7,34.9,90.7,34.9,90.5,35.1z"/>
	<path class="st0" d="M89.6,61.8c0,0.1,0.1,0.2,0.1,0.3C89.6,62,89.5,61.9,89.6,61.8C89.5,61.8,89.6,61.8,89.6,61.8z"/>
</g>
</svg>
