<?xml version="1.0" encoding="utf-8"?>
<!-- Generator: Adobe Illustrator 24.0.1, SVG Export Plug-In . SVG Version: 6.00 Build 0)  -->
<svg version="1.1" id="Capa_1" xmlns="http://www.w3.org/2000/svg" xmlns:xlink="http://www.w3.org/1999/xlink" x="0px" y="0px"
	 viewBox="0 0 297.5 297.5" style="enable-background:new 0 0 297.5 297.5;" xml:space="preserve">
<style type="text/css">
	.st0{fill:none;}
	.st1{fill:#F4AF30;}
	.st2{fill:#AE9676;}
</style>
<g>
	<path class="st0" d="M114.6,77.1c0.1-0.4,0.2-0.8,0.4-1.2C114.8,76.3,114.7,76.7,114.6,77.1z"/>
	<path class="st0" d="M170,71.3c0.2-0.1,0.4-0.2,0.6-0.3C170.3,71.1,170.2,71.2,170,71.3z"/>
	<path class="st0" d="M148.8,98.4c4.7,0,8.6-3.6,9.1-8.2C157.4,94.8,153.5,98.4,148.8,98.4z"/>
	<path class="st0" d="M171.9,70.6c0.1,0,0.2-0.1,0.3-0.1C172.1,70.5,172,70.6,171.9,70.6z"/>
	<path class="st0" d="M174.1,111.1c5.1,0,9.1-4.1,9.1-9.1v0C183.3,107,179.2,111.1,174.1,111.1c-5.1,0-9.1-4.1-9.1-9.2
		C165,107,169,111.1,174.1,111.1z"/>
	<path class="st0" d="M117.1,72.8c0.6-0.5,1.2-1,1.9-1.4C118.3,71.8,117.7,72.3,117.1,72.8z"/>
	<path class="st0" d="M120.4,70.8c0.1,0,0.2-0.1,0.3-0.1C120.6,70.7,120.5,70.8,120.4,70.8z"/>
	<path class="st0" d="M119.5,71.2c0.1,0,0.2-0.1,0.3-0.1C119.7,71.1,119.6,71.1,119.5,71.2z"/>
	<path class="st0" d="M116,74.1c0.1-0.2,0.2-0.3,0.4-0.5C116.2,73.8,116.1,74,116,74.1z"/>
	<path class="st0" d="M116.6,73.3c0.1-0.1,0.2-0.2,0.3-0.4C116.8,73.1,116.7,73.2,116.6,73.3z"/>
	<path class="st0" d="M115.6,74.6c0.1-0.1,0.1-0.2,0.2-0.3C115.8,74.4,115.7,74.5,115.6,74.6z"/>
	<path class="st0" d="M165,79.5c0-0.6,0.1-1.2,0.2-1.8C165,78.2,165,78.8,165,79.5z"/>
	<path class="st0" d="M148.8,259c17.4-11.5,74-52.3,87.9-107.1C222.8,206.7,166.2,247.5,148.8,259z"/>
	<path class="st0" d="M238.9,139.9c-0.4,3-0.9,6-1.6,9C238,146,238.5,143,238.9,139.9z"/>
	<path class="st0" d="M239.5,133.8c-0.1,2.1-0.3,4.1-0.6,6.1C239.2,137.9,239.4,135.9,239.5,133.8z"/>
	<path class="st0" d="M165.8,75.6c0.1-0.2,0.2-0.3,0.2-0.5C166,75.3,165.9,75.4,165.8,75.6z"/>
	<path class="st0" d="M166.6,74.3c0.3-0.4,0.7-0.9,1-1.3C167.2,73.4,166.9,73.8,166.6,74.3z"/>
	<path class="st0" d="M166.2,74.9c0.1-0.2,0.2-0.4,0.3-0.6C166.4,74.5,166.3,74.7,166.2,74.9z"/>
	<path class="st0" d="M165.2,77.4c0.1-0.5,0.3-1,0.5-1.5C165.5,76.4,165.3,76.9,165.2,77.4z"/>
	<path class="st0" d="M167.8,72.8c0.6-0.5,1.2-1,1.9-1.4C169,71.8,168.4,72.3,167.8,72.8z"/>
	<path class="st0" d="M171.1,70.8c0.1,0,0.2-0.1,0.3-0.1C171.3,70.8,171.2,70.8,171.1,70.8z"/>
	<path class="st0" d="M196.5,114.1c5,0,9.1,4.1,9.1,9.1c0,0,0,0,0,0C205.6,118.1,201.5,114,196.5,114.1l-95.4,0
		c-1.9,0-3.7,0.6-5.1,1.6c1.5-1,3.2-1.6,5.1-1.6H196.5z"/>
	<path class="st0" d="M123.4,111.1c5,0,9.1-4.1,9.1-9.1v0C132.5,107,128.5,111.1,123.4,111.1c-5.1,0-9.2-4.1-9.2-9.2
		C114.3,107,118.3,111.1,123.4,111.1z"/>
	<path class="st0" d="M98.5,175.9h29c0,0,0,0,0,0L98.5,175.9c-5,0-9.2,4.1-9.2,9.1c0,0,0,0,0,0C89.3,180,93.4,175.9,98.5,175.9z"/>
	<path class="st0" d="M199.1,175.9c5.1,0,9.1,4.1,9.1,9.1c0,0,0,0,0,0C208.2,180,204.1,175.9,199.1,175.9l-29,0c0,0,0,0,0,0H199.1z"
		/>
	<path class="st0" d="M121.2,70.6c0.1,0,0.2-0.1,0.3-0.1C121.4,70.5,121.3,70.6,121.2,70.6z"/>
	<path class="st1" d="M148.8,161.7c18.1,0,33.3-12.5,37.5-29.4h-74.9c0.3,1.1,0.6,2.1,0.9,3.1C117.3,150.7,131.8,161.7,148.8,161.7z
		"/>
	<path class="st2" d="M148.8,259c17.4-11.5,74-52.3,87.9-107.1c0.2-1,0.5-2,0.7-2.9c0.7-3,1.2-6,1.6-9c0.3-2,0.5-4.1,0.6-6.1
		s0.2-4.1,0.2-6.2c0-50.1-40.8-90.9-91-90.9c-50.2,0-91,40.8-91,90.9c0,2.1,0.1,4.2,0.2,6.2c0.1,2.1,0.3,4.1,0.6,6.1
		c0.4,3,0.9,6,1.6,9c0.2,1,0.5,2,0.7,2.9C74.8,206.7,131.3,247.5,148.8,259z M165,79.5c0-0.6,0.1-1.2,0.2-1.8c0-0.1,0-0.2,0.1-0.3
		c0.1-0.5,0.3-1,0.5-1.5c0-0.1,0.1-0.2,0.1-0.3c0.1-0.2,0.2-0.3,0.2-0.5c0-0.1,0.1-0.1,0.1-0.2c0.1-0.2,0.2-0.4,0.3-0.6
		c0,0,0-0.1,0.1-0.1c0.3-0.4,0.7-0.9,1-1.3c0.1-0.1,0.1-0.1,0.2-0.2c0.6-0.5,1.2-1,1.9-1.4c0.1,0,0.1-0.1,0.2-0.1
		c0.2-0.1,0.4-0.2,0.6-0.3c0.2-0.1,0.4-0.1,0.6-0.2c0.1,0,0.2-0.1,0.3-0.1c0.2-0.1,0.4-0.1,0.5-0.1c0.1,0,0.2-0.1,0.3-0.1
		c0.6-0.1,1.2-0.2,1.8-0.2c5,0,9.1,4.1,9.1,9.1v22.5v0c0,5-4.1,9.1-9.1,9.1c-5.1,0-9.2-4.1-9.1-9.2V79.5z M139.6,66.8
		c0-5,4.1-9.1,9.1-9.1c5,0,9.2,4.1,9.2,9.1v22.5c0,0.3,0,0.6,0,0.9c-0.5,4.6-4.4,8.2-9.1,8.2c-5,0-9.1-4.1-9.1-9.1V66.8z
		 M114.3,79.5c0-0.8,0.1-1.6,0.3-2.4c0.1-0.4,0.2-0.8,0.4-1.2c0.2-0.4,0.4-0.9,0.7-1.3c0.1-0.1,0.1-0.2,0.2-0.3
		c0.1-0.1,0.1-0.1,0.2-0.2c0.1-0.2,0.2-0.3,0.4-0.5c0.1-0.1,0.2-0.2,0.3-0.3c0.1-0.1,0.2-0.2,0.3-0.4c0.1-0.1,0.1-0.1,0.2-0.2
		c0.6-0.5,1.2-1,1.9-1.4c0.2-0.1,0.3-0.2,0.5-0.2c0.1,0,0.2-0.1,0.3-0.1c0.2-0.1,0.4-0.1,0.6-0.2c0.1,0,0.2-0.1,0.3-0.1
		c0.2-0.1,0.4-0.1,0.5-0.1c0.1,0,0.2-0.1,0.3-0.1c0.6-0.1,1.2-0.2,1.8-0.2c5,0,9.1,4.1,9.1,9.1v22.5v0c0,5-4.1,9.1-9.1,9.1
		c-5.1,0-9.2-4.1-9.2-9.2V79.5z M89.3,185C89.3,185,89.3,185,89.3,185C89.3,185,89.3,185,89.3,185c0-5,4.1-9.2,9.2-9.2h29
		c-20.8-8.5-35.5-28.9-35.5-52.7c0-3.1,1.6-5.9,4-7.6c1.5-1,3.2-1.6,5.1-1.6h95.4c5,0,9.1,4.1,9.1,9.1c0,0,0,0,0,0c0,0,0,0,0,0
		c0,23.8-14.7,44.2-35.5,52.7h29c5.1,0,9.1,4.1,9.1,9.1c0,0,0,0,0,0s0,0,0,0c0,5-4.1,9.1-9.1,9.1H98.5
		C93.4,194.2,89.3,190.1,89.3,185z"/>
	<path d="M58.6,139.9c-0.3-2-0.5-4.1-0.6-6.1C58.1,135.9,58.3,137.9,58.6,139.9z"/>
	<path d="M60.2,148.9c-0.7-3-1.2-6-1.6-9C59,143,59.5,146,60.2,148.9z"/>
	<path d="M148.8,259c-17.4-11.5-74-52.3-87.9-107.1C74.8,206.7,131.3,247.5,148.8,259z"/>
	<path d="M98.5,194.2h100.6c5.1,0,9.1-4.1,9.1-9.1c0-5-4.1-9.1-9.1-9.1h-29c0,0,0,0,0,0h0c20.8-8.4,35.5-28.9,35.5-52.7
		c0-5-4.1-9.1-9.1-9.1h-95.4c-1.9,0-3.7,0.6-5.1,1.6c-2.4,1.6-4,4.4-4,7.6c0,23.8,14.7,44.2,35.5,52.7h0c0,0,0,0,0,0h-29
		c-5,0-9.1,4.1-9.2,9.1C89.3,190.1,93.4,194.2,98.5,194.2z M112.2,135.4c-0.3-1-0.6-2.1-0.9-3.1h74.9c-4.1,16.9-19.4,29.4-37.5,29.4
		C131.8,161.7,117.3,150.7,112.2,135.4z"/>
	<path d="M112.2,135.4c-0.3-1-0.6-2.1-0.9-3.1C111.6,133.4,111.9,134.4,112.2,135.4z"/>
	<path d="M112.2,135.4c5.1,15.3,19.6,26.3,36.5,26.3C131.8,161.7,117.3,150.7,112.2,135.4z"/>
	<path d="M170.1,175.9L170.1,175.9c20.8-8.5,35.5-28.9,35.5-52.7c0,0,0,0,0,0C205.6,147,190.9,167.4,170.1,175.9z"/>
	<path d="M208.2,185C208.2,185,208.2,185,208.2,185c0,5-4.1,9.1-9.1,9.1H98.5c-5,0-9.1-4.1-9.2-9.1c0,0,0,0,0,0c0,5,4.1,9.1,9.2,9.1
		h100.6C204.1,194.2,208.2,190.1,208.2,185z"/>
	<path d="M91.9,123.2c0-3.1,1.6-5.9,4-7.6C93.5,117.3,91.9,120.1,91.9,123.2c0,23.8,14.7,44.2,35.5,52.7h0
		C106.6,167.4,91.9,147,91.9,123.2z"/>
	<path d="M174.1,111.1c5,0,9.1-4.1,9.1-9.1V79.5c0-5-4.1-9.1-9.1-9.1c-0.6,0-1.2,0.1-1.8,0.2c-0.1,0-0.2,0.1-0.3,0.1
		c-0.2,0-0.4,0.1-0.5,0.1c-0.1,0-0.2,0.1-0.3,0.1c-0.2,0.1-0.4,0.1-0.6,0.2c-0.2,0.1-0.4,0.2-0.6,0.3c-0.1,0-0.2,0.1-0.2,0.1
		c-0.7,0.4-1.3,0.9-1.9,1.4c-0.1,0.1-0.1,0.1-0.2,0.2c-0.4,0.4-0.7,0.8-1,1.3c0,0,0,0.1-0.1,0.1c-0.1,0.2-0.2,0.4-0.3,0.6
		c0,0.1-0.1,0.1-0.1,0.2c-0.1,0.2-0.2,0.3-0.2,0.5c0,0.1-0.1,0.2-0.1,0.3c-0.2,0.5-0.4,1-0.5,1.5c0,0.1,0,0.2-0.1,0.3
		c-0.1,0.6-0.2,1.2-0.2,1.8v22.5C165,107,169,111.1,174.1,111.1z"/>
	<path d="M166.1,75.1c0-0.1,0.1-0.1,0.1-0.2C166.1,75,166.1,75,166.1,75.1z"/>
	<path d="M169.7,71.4c0.1,0,0.1-0.1,0.2-0.1C169.9,71.3,169.8,71.4,169.7,71.4z"/>
	<path d="M165.1,77.6c0-0.1,0-0.2,0.1-0.3C165.2,77.4,165.2,77.5,165.1,77.6z"/>
	<path d="M167.6,73c0.1-0.1,0.1-0.1,0.2-0.2C167.8,72.9,167.7,72.9,167.6,73z"/>
	<path d="M165.7,75.9c0-0.1,0.1-0.2,0.1-0.3C165.8,75.7,165.7,75.8,165.7,75.9z"/>
	<path d="M166.5,74.3C166.5,74.3,166.6,74.3,166.5,74.3C166.6,74.3,166.5,74.3,166.5,74.3z"/>
	<path d="M172.3,70.5c0.6-0.1,1.2-0.2,1.8-0.2C173.5,70.3,172.9,70.4,172.3,70.5z"/>
	<path d="M170.5,71c0.2-0.1,0.4-0.1,0.6-0.2C170.9,70.9,170.7,71,170.5,71z"/>
	<path d="M171.4,70.7c0.2-0.1,0.4-0.1,0.5-0.1C171.7,70.6,171.6,70.7,171.4,70.7z"/>
	<path d="M183.3,79.5c0-5-4.1-9.2-9.1-9.1C179.2,70.3,183.3,74.4,183.3,79.5z"/>
	<path d="M148.8,98.4c4.7,0,8.6-3.6,9.1-8.2c0-0.3,0-0.6,0-0.9V66.8c0-5-4.1-9.1-9.2-9.1c-5,0-9.1,4.1-9.1,9.1v22.5
		C139.6,94.3,143.7,98.4,148.8,98.4z"/>
	<path d="M157.9,66.8c0-5-4.1-9.1-9.2-9.1C153.8,57.6,157.9,61.7,157.9,66.8z"/>
	<path d="M148.8,57.6c-5,0-9.1,4.1-9.1,9.1C139.6,61.7,143.7,57.6,148.8,57.6z"/>
	<path d="M123.4,111.1c5,0,9.1-4.1,9.1-9.1V79.5c0-5-4.1-9.1-9.1-9.1c-0.6,0-1.2,0.1-1.8,0.2c-0.1,0-0.2,0.1-0.3,0.1
		c-0.2,0-0.4,0.1-0.5,0.1c-0.1,0-0.2,0.1-0.3,0.1c-0.2,0.1-0.4,0.1-0.6,0.2c-0.1,0-0.2,0.1-0.3,0.1c-0.2,0.1-0.3,0.2-0.5,0.2
		c-0.7,0.4-1.3,0.9-1.9,1.4c-0.1,0.1-0.1,0.1-0.2,0.2c-0.1,0.1-0.2,0.2-0.3,0.4c-0.1,0.1-0.2,0.2-0.3,0.3c-0.1,0.2-0.2,0.3-0.4,0.5
		c-0.1,0.1-0.1,0.1-0.2,0.2c-0.1,0.1-0.1,0.2-0.2,0.3c-0.3,0.4-0.5,0.8-0.7,1.3c-0.2,0.4-0.3,0.8-0.4,1.2c-0.2,0.8-0.3,1.6-0.3,2.4
		v22.5C114.3,107,118.3,111.1,123.4,111.1z"/>
	<path d="M116.9,73c0.1-0.1,0.1-0.1,0.2-0.2C117.1,72.9,117,72.9,116.9,73z"/>
	<path d="M132.5,79.5c0-5-4.1-9.2-9.1-9.1C128.5,70.3,132.5,74.4,132.5,79.5z"/>
	<path d="M119.8,71c0.2-0.1,0.4-0.1,0.6-0.2C120.2,70.9,120,70.9,119.8,71z"/>
	<path d="M121.6,70.5c0.6-0.1,1.2-0.2,1.8-0.2C122.8,70.3,122.2,70.4,121.6,70.5z"/>
	<path d="M116.3,73.6c0.1-0.1,0.2-0.2,0.3-0.3C116.5,73.4,116.4,73.5,116.3,73.6z"/>
	<path d="M119,71.4c0.2-0.1,0.3-0.2,0.5-0.2C119.4,71.3,119.2,71.3,119,71.4z"/>
	<path d="M120.7,70.7c0.2-0.1,0.4-0.1,0.5-0.1C121,70.6,120.9,70.7,120.7,70.7z"/>
	<path d="M114.3,79.5c0-0.8,0.1-1.6,0.3-2.4C114.4,77.8,114.3,78.6,114.3,79.5z"/>
	<path d="M115,75.9c0.2-0.4,0.4-0.9,0.7-1.3C115.4,75,115.2,75.5,115,75.9z"/>
	<path d="M115.8,74.3c0.1-0.1,0.1-0.1,0.2-0.2C115.9,74.2,115.9,74.3,115.8,74.3z"/>
	<path d="M148.8,16.3c-61.4,0-111.3,49.9-111.3,111.3c0,34.8,16.2,70.5,46.9,103.6l18.2,17.8c21.5,19.2,40.1,30.2,41,30.8
		c1.6,0.9,3.4,1.4,5.1,1.4c1.8,0,3.5-0.5,5.1-1.4c0.9-0.5,19.6-11.5,41.1-30.8l18.2-17.8c30.7-33.2,46.9-68.8,46.9-103.6
		C260,66.2,210.1,16.3,148.8,16.3z M238.9,139.9c-0.4,3-0.9,6-1.6,9c-0.2,1-0.5,2-0.7,2.9c-13.9,54.8-70.4,95.6-87.9,107.1
		c-17.4-11.5-74-52.3-87.9-107.1c-0.2-1-0.5-2-0.7-2.9c-0.7-3-1.2-6-1.6-9c-0.3-2-0.5-4.1-0.6-6.1c-0.1-2.1-0.2-4.1-0.2-6.2
		c0-50.1,40.8-90.9,91-90.9c50.2,0,91,40.8,91,90.9c0,2.1-0.1,4.2-0.2,6.2S239.2,137.9,238.9,139.9z"/>
</g>
</svg>
