<svg width="167" height="105" viewBox="0 0 167 105" fill="none" xmlns="http://www.w3.org/2000/svg">
<rect width="167" height="105" fill="#0B0706"/>
<path d="M28.0857 57.3V72H26.5527V65.217H17.3547V72H15.8007V57.3H17.3547V63.852H26.5527V57.3H28.0857ZM39.3097 72.126C37.8537 72.126 36.5307 71.804 35.3407 71.16C34.1647 70.502 33.2407 69.606 32.5687 68.472C31.9107 67.338 31.5817 66.064 31.5817 64.65C31.5817 63.236 31.9107 61.962 32.5687 60.828C33.2407 59.694 34.1647 58.805 35.3407 58.161C36.5307 57.503 37.8537 57.174 39.3097 57.174C40.7657 57.174 42.0747 57.496 43.2367 58.14C44.4127 58.784 45.3367 59.68 46.0087 60.828C46.6807 61.962 47.0167 63.236 47.0167 64.65C47.0167 66.064 46.6807 67.345 46.0087 68.493C45.3367 69.627 44.4127 70.516 43.2367 71.16C42.0747 71.804 40.7657 72.126 39.3097 72.126ZM39.3097 70.74C40.4717 70.74 41.5217 70.481 42.4597 69.963C43.3977 69.431 44.1327 68.703 44.6647 67.779C45.1967 66.841 45.4627 65.798 45.4627 64.65C45.4627 63.502 45.1967 62.466 44.6647 61.542C44.1327 60.604 43.3977 59.876 42.4597 59.358C41.5217 58.826 40.4717 58.56 39.3097 58.56C38.1477 58.56 37.0907 58.826 36.1387 59.358C35.2007 59.876 34.4587 60.604 33.9127 61.542C33.3807 62.466 33.1147 63.502 33.1147 64.65C33.1147 65.798 33.3807 66.841 33.9127 67.779C34.4587 68.703 35.2007 69.431 36.1387 69.963C37.0907 70.481 38.1477 70.74 39.3097 70.74ZM54.553 72.126C53.461 72.126 52.411 71.951 51.403 71.601C50.409 71.251 49.639 70.789 49.093 70.215L49.702 69.018C50.234 69.55 50.941 69.984 51.823 70.32C52.705 70.642 53.615 70.803 54.553 70.803C55.869 70.803 56.856 70.565 57.514 70.089C58.172 69.599 58.501 68.969 58.501 68.199C58.501 67.611 58.319 67.142 57.955 66.792C57.605 66.442 57.171 66.176 56.653 65.994C56.135 65.798 55.414 65.588 54.49 65.364C53.384 65.084 52.502 64.818 51.844 64.566C51.186 64.3 50.619 63.901 50.143 63.369C49.681 62.837 49.45 62.116 49.45 61.206C49.45 60.464 49.646 59.792 50.038 59.19C50.43 58.574 51.032 58.084 51.844 57.72C52.656 57.356 53.664 57.174 54.868 57.174C55.708 57.174 56.527 57.293 57.325 57.531C58.137 57.755 58.837 58.07 59.425 58.476L58.9 59.715C58.284 59.309 57.626 59.008 56.926 58.812C56.226 58.602 55.54 58.497 54.868 58.497C53.58 58.497 52.607 58.749 51.949 59.253C51.305 59.743 50.983 60.38 50.983 61.164C50.983 61.752 51.158 62.228 51.508 62.592C51.872 62.942 52.32 63.215 52.852 63.411C53.398 63.593 54.126 63.796 55.036 64.02C56.114 64.286 56.982 64.552 57.64 64.818C58.312 65.07 58.879 65.462 59.341 65.994C59.803 66.512 60.034 67.219 60.034 68.115C60.034 68.857 59.831 69.536 59.425 70.152C59.033 70.754 58.424 71.237 57.598 71.601C56.772 71.951 55.757 72.126 54.553 72.126ZM68.9219 57.3C70.7979 57.3 72.2679 57.748 73.3319 58.644C74.3959 59.54 74.9279 60.772 74.9279 62.34C74.9279 63.908 74.3959 65.14 73.3319 66.036C72.2679 66.918 70.7979 67.359 68.9219 67.359H64.9739V72H63.4199V57.3H68.9219ZM68.8799 65.994C70.3359 65.994 71.4489 65.679 72.2189 65.049C72.9889 64.405 73.3739 63.502 73.3739 62.34C73.3739 61.15 72.9889 60.24 72.2189 59.61C71.4489 58.966 70.3359 58.644 68.8799 58.644H64.9739V65.994H68.8799ZM78.288 57.3H79.842V72H78.288V57.3ZM87.481 58.644H82.315V57.3H94.201V58.644H89.035V72H87.481V58.644ZM105.164 68.073H96.9743L95.2103 72H93.5933L100.313 57.3H101.846L108.566 72H106.928L105.164 68.073ZM104.597 66.813L101.069 58.917L97.5413 66.813H104.597ZM110.998 57.3H112.552V70.656H120.784V72H110.998V57.3ZM123.364 57.3H124.918V72H123.364V57.3ZM132.557 58.644H127.391V57.3H139.277V58.644H134.111V72H132.557V58.644ZM146.697 66.918V72H145.164V66.918L139.284 57.3H140.943L145.983 65.553L151.023 57.3H152.577L146.697 66.918Z" fill="#FC8500"/>
<path d="M15.7909 36.597H11.2759V33.3H24.4429V36.597H19.9489V48H15.7909V36.597ZM32.418 44.094H30.15V48H25.992V33.3H32.712C34.042 33.3 35.197 33.524 36.177 33.972C37.157 34.406 37.913 35.036 38.445 35.862C38.977 36.674 39.243 37.633 39.243 38.739C39.243 39.803 38.991 40.734 38.487 41.532C37.997 42.316 37.29 42.932 36.366 43.38L39.537 48H35.085L32.418 44.094ZM35.043 38.739C35.043 38.053 34.826 37.521 34.392 37.143C33.958 36.765 33.314 36.576 32.46 36.576H30.15V40.881H32.46C33.314 40.881 33.958 40.699 34.392 40.335C34.826 39.957 35.043 39.425 35.043 38.739ZM53.3389 44.787V48H41.5369V33.3H53.0659V36.513H45.6529V38.991H52.1839V42.099H45.6529V44.787H53.3389ZM60.8123 48.294C59.6223 48.294 58.4673 48.147 57.3473 47.853C56.2273 47.559 55.3173 47.167 54.6173 46.677L55.9823 43.611C56.6403 44.045 57.4033 44.395 58.2713 44.661C59.1393 44.927 59.9933 45.06 60.8333 45.06C62.4293 45.06 63.2273 44.661 63.2273 43.863C63.2273 43.443 62.9963 43.135 62.5343 42.939C62.0863 42.729 61.3583 42.512 60.3503 42.288C59.2443 42.05 58.3203 41.798 57.5783 41.532C56.8363 41.252 56.1993 40.811 55.6673 40.209C55.1353 39.607 54.8693 38.795 54.8693 37.773C54.8693 36.877 55.1143 36.072 55.6043 35.358C56.0943 34.63 56.8223 34.056 57.7883 33.636C58.7683 33.216 59.9653 33.006 61.3793 33.006C62.3453 33.006 63.2973 33.118 64.2353 33.342C65.1733 33.552 65.9993 33.867 66.7133 34.287L65.4323 37.374C64.0323 36.618 62.6743 36.24 61.3583 36.24C60.5323 36.24 59.9303 36.366 59.5523 36.618C59.1743 36.856 58.9853 37.171 58.9853 37.563C58.9853 37.955 59.2093 38.249 59.6573 38.445C60.1053 38.641 60.8263 38.844 61.8203 39.054C62.9403 39.292 63.8643 39.551 64.5923 39.831C65.3343 40.097 65.9713 40.531 66.5033 41.133C67.0493 41.721 67.3223 42.526 67.3223 43.548C67.3223 44.43 67.0773 45.228 66.5873 45.942C66.0973 46.656 65.3623 47.23 64.3823 47.664C63.4023 48.084 62.2123 48.294 60.8123 48.294ZM69.2429 33.3H73.4009V44.703H80.415V48H69.2429V33.3ZM93.8623 44.787V48H82.0603V33.3H93.5893V36.513H86.1763V38.991H92.7073V42.099H86.1763V44.787H93.8623ZM103.478 48.294C101.938 48.294 100.552 47.972 99.3202 47.328C98.1022 46.67 97.1432 45.76 96.4432 44.598C95.7432 43.436 95.3932 42.12 95.3932 40.65C95.3932 39.18 95.7432 37.864 96.4432 36.702C97.1432 35.54 98.1022 34.637 99.3202 33.993C100.552 33.335 101.938 33.006 103.478 33.006C104.822 33.006 106.033 33.244 107.111 33.72C108.189 34.196 109.085 34.882 109.799 35.778L107.153 38.172C106.201 37.024 105.046 36.45 103.688 36.45C102.89 36.45 102.176 36.625 101.546 36.975C100.93 37.325 100.447 37.822 100.097 38.466C99.7612 39.096 99.5932 39.824 99.5932 40.65C99.5932 41.476 99.7612 42.211 100.097 42.855C100.447 43.485 100.93 43.975 101.546 44.325C102.176 44.675 102.89 44.85 103.688 44.85C105.046 44.85 106.201 44.276 107.153 43.128L109.799 45.522C109.085 46.418 108.189 47.104 107.111 47.58C106.033 48.056 104.822 48.294 103.478 48.294ZM125.639 33.3V48H121.481V42.267H115.811V48H111.653V33.3H115.811V38.823H121.481V33.3H125.639ZM140.374 44.787V48H128.572V33.3H140.101V36.513H132.688V38.991H139.219V42.099H132.688V44.787H140.374ZM147.847 48.294C146.657 48.294 145.502 48.147 144.382 47.853C143.262 47.559 142.352 47.167 141.652 46.677L143.017 43.611C143.675 44.045 144.438 44.395 145.306 44.661C146.174 44.927 147.028 45.06 147.868 45.06C149.464 45.06 150.262 44.661 150.262 43.863C150.262 43.443 150.031 43.135 149.569 42.939C149.121 42.729 148.393 42.512 147.385 42.288C146.279 42.05 145.355 41.798 144.613 41.532C143.871 41.252 143.234 40.811 142.702 40.209C142.17 39.607 141.904 38.795 141.904 37.773C141.904 36.877 142.149 36.072 142.639 35.358C143.129 34.63 143.857 34.056 144.823 33.636C145.803 33.216 147 33.006 148.414 33.006C149.38 33.006 150.332 33.118 151.27 33.342C152.208 33.552 153.034 33.867 153.748 34.287L152.467 37.374C151.067 36.618 149.709 36.24 148.393 36.24C147.567 36.24 146.965 36.366 146.587 36.618C146.209 36.856 146.02 37.171 146.02 37.563C146.02 37.955 146.244 38.249 146.692 38.445C147.14 38.641 147.861 38.844 148.855 39.054C149.975 39.292 150.899 39.551 151.627 39.831C152.369 40.097 153.006 40.531 153.538 41.133C154.084 41.721 154.357 42.526 154.357 43.548C154.357 44.43 154.112 45.228 153.622 45.942C153.132 46.656 152.397 47.23 151.417 47.664C150.437 48.084 149.247 48.294 147.847 48.294Z" fill="#FC8500"/>
</svg>
