<svg width="28" height="28" viewBox="0 0 28 28" fill="none" xmlns="http://www.w3.org/2000/svg">
<path d="M24.5 11.375C24.2679 11.375 24.0454 11.4672 23.8813 11.6313C23.7172 11.7954 23.625 12.0179 23.625 12.25V19.25C23.625 19.4821 23.5328 19.7046 23.3687 19.8687C23.2046 20.0328 22.9821 20.125 22.75 20.125H5.25C5.01794 20.125 4.79538 20.0328 4.63128 19.8687C4.46719 19.7046 4.375 19.4821 4.375 19.25V12.25C4.375 12.0179 4.28281 11.7954 4.11872 11.6313C3.95462 11.4672 3.73206 11.375 3.5 11.375C3.26794 11.375 3.04538 11.4672 2.88128 11.6313C2.71719 11.7954 2.625 12.0179 2.625 12.25V19.25C2.62561 19.946 2.90258 20.6132 3.395 21.105C3.88681 21.5974 4.55404 21.8744 5.25 21.875H22.75C23.446 21.8744 24.1132 21.5974 24.605 21.105C25.0974 20.6132 25.3744 19.946 25.375 19.25V12.25C25.375 12.0179 25.2828 11.7954 25.1187 11.6313C24.9546 11.4672 24.7321 11.375 24.5 11.375Z" fill="white"/>
<path d="M13.475 16.45C13.6265 16.5636 13.8107 16.625 14 16.625C14.1893 16.625 14.3736 16.5636 14.525 16.45L24.8588 8.6975C25.02 8.57594 25.1342 8.40236 25.182 8.20621C25.2299 8.01005 25.2084 7.80339 25.1213 7.62125C24.991 7.35203 24.8165 7.10655 24.605 6.895C24.1132 6.40258 23.446 6.12561 22.75 6.125H5.25002C4.55406 6.12561 3.88683 6.40258 3.39502 6.895C3.18358 7.10655 3.00908 7.35203 2.87877 7.62125C2.79163 7.80339 2.77017 8.01005 2.81801 8.20621C2.86585 8.40236 2.98006 8.57594 3.14127 8.6975L13.475 16.45ZM5.25002 7.875H22.75C22.8312 7.86222 22.9139 7.86222 22.995 7.875L14 14.6562L5.00502 7.875C5.08619 7.86222 5.16885 7.86222 5.25002 7.875Z" fill="white"/>
</svg>
