<svg width="28" height="28" viewBox="0 0 28 28" fill="none" xmlns="http://www.w3.org/2000/svg">
<path d="M23.94 5.38124L21.9537 3.39499C21.686 3.12759 21.3635 2.92124 21.0085 2.7901C20.6536 2.65896 20.2744 2.60612 19.8971 2.63521C19.5198 2.6643 19.1532 2.77462 18.8225 2.95862C18.4919 3.14263 18.2049 3.39595 17.9812 3.70124L16.0475 6.32624C15.8062 6.65725 15.6456 7.04015 15.5788 7.4443C15.5119 7.84846 15.5406 8.26265 15.6625 8.65374L15.7762 8.98624C16.0125 9.76499 16.3187 10.7362 16.5112 11.3837C16.5711 11.5865 16.5556 11.8041 16.4675 11.9962C15.9932 12.956 15.3799 13.8405 14.6475 14.6212C14.5655 14.7026 14.5004 14.7994 14.456 14.906C14.4115 15.0126 14.3887 15.127 14.3887 15.2425C14.3887 15.358 14.4115 15.4724 14.456 15.579C14.5004 15.6856 14.5655 15.7824 14.6475 15.8637C14.8114 16.0267 15.0332 16.1182 15.2644 16.1182C15.4955 16.1182 15.7173 16.0267 15.8812 15.8637C16.7506 14.9553 17.4765 13.9197 18.0337 12.7925C18.3262 12.2024 18.3795 11.5222 18.1825 10.8937C17.9987 10.2637 17.6837 9.26624 17.4387 8.48749L17.3337 8.14624C17.3008 8.01513 17.2986 7.87817 17.3274 7.74609C17.3563 7.61401 17.4154 7.49041 17.5 7.38499L19.4337 4.75999C19.5081 4.65851 19.6034 4.57424 19.7133 4.51295C19.8231 4.45165 19.9449 4.41476 20.0703 4.4048C20.1957 4.39483 20.3218 4.41202 20.4399 4.4552C20.5581 4.49838 20.6656 4.56652 20.755 4.65499L21.3412 5.24124L19.5912 7.95374C19.5065 8.08584 19.4588 8.2383 19.4532 8.39515C19.4477 8.55199 19.4844 8.70746 19.5595 8.84524C19.6347 8.98302 19.7455 9.09805 19.8804 9.17828C20.0153 9.25851 20.1693 9.30098 20.3262 9.30124C20.4718 9.30194 20.6153 9.2663 20.7437 9.19755C20.872 9.12879 20.9812 9.02909 21.0612 8.90749L22.61 6.50999L22.75 6.64124C22.9532 6.86234 23.1105 7.12162 23.2126 7.40402C23.3147 7.68642 23.3597 7.9863 23.345 8.28624C23.345 9.82624 22.3037 12.6612 17.4562 17.4212C12.3725 22.4087 8.33874 24.4212 6.66749 22.7325L4.62874 20.72C4.53992 20.6311 4.47128 20.5242 4.4275 20.4064C4.38371 20.2886 4.3658 20.1628 4.37499 20.0375C4.38507 19.9114 4.42236 19.789 4.48429 19.6788C4.54623 19.5685 4.63133 19.473 4.73374 19.3987L7.35874 17.465C7.46815 17.385 7.59465 17.3315 7.72828 17.3087C7.8619 17.2859 7.99899 17.2945 8.12874 17.3337L9.78249 17.85L7.91874 19.1712C7.8241 19.2376 7.74354 19.322 7.6817 19.4196C7.61987 19.5172 7.57798 19.6261 7.55845 19.74C7.53893 19.8539 7.54215 19.9705 7.56795 20.0831C7.59374 20.1958 7.64159 20.3022 7.70874 20.3962C7.79011 20.5105 7.89777 20.6036 8.02264 20.6675C8.14752 20.7315 8.28594 20.7645 8.42624 20.7637C8.60466 20.7633 8.77868 20.7084 8.92499 20.6062L12.25 18.27C12.3453 18.2043 12.4267 18.1205 12.4893 18.0232C12.552 17.9259 12.5947 17.8171 12.6151 17.7032C12.6354 17.5892 12.633 17.4724 12.6079 17.3594C12.5827 17.2464 12.5354 17.1396 12.4687 17.045C12.3529 16.892 12.1899 16.7813 12.005 16.73L8.67999 15.6625C8.28889 15.5406 7.8747 15.5119 7.47055 15.5788C7.0664 15.6456 6.6835 15.8062 6.35249 16.0475L3.72749 17.9812C3.4222 18.2049 3.16887 18.4919 2.98487 18.8225C2.80087 19.1532 2.69054 19.5198 2.66145 19.8971C2.63236 20.2744 2.6852 20.6536 2.81634 21.0085C2.94749 21.3635 3.15383 21.686 3.42124 21.9537L5.40749 23.9487C5.76535 24.3062 6.19145 24.588 6.66045 24.7774C7.12945 24.9668 7.63176 25.0599 8.13749 25.0512C10.3425 25.0512 13.6675 23.52 18.6375 18.6462C22.8725 14.49 25.0337 10.9987 25.0512 8.26874C25.0726 7.73711 24.9851 7.20672 24.794 6.71016C24.6029 6.2136 24.3123 5.76137 23.94 5.38124Z" fill="white"/>
</svg>
