<svg width="18" height="14" viewBox="0 0 18 14" fill="none" xmlns="http://www.w3.org/2000/svg">
<path d="M15.3 6.125C14.3072 6.125 13.5 5.34023 13.5 4.375C13.5 3.40977 14.3072 2.625 15.3 2.625C16.2928 2.625 17.1 3.40977 17.1 4.375C17.1 5.34023 16.2928 6.125 15.3 6.125ZM2.7 6.125C1.70719 6.125 0.9 5.34023 0.9 4.375C0.9 3.40977 1.70719 2.625 2.7 2.625C3.69281 2.625 4.5 3.40977 4.5 4.375C4.5 5.34023 3.69281 6.125 2.7 6.125ZM1.8 7H3.6C4.095 7 4.54219 7.19414 4.86844 7.50859C3.735 8.11289 2.93062 9.20391 2.75625 10.5H0.9C0.402187 10.5 0 10.109 0 9.625V8.75C0 7.78477 0.807188 7 1.8 7ZM9 7C7.25906 7 5.85 5.63008 5.85 3.9375C5.85 2.24492 7.25906 0.875 9 0.875C10.7409 0.875 12.15 2.24492 12.15 3.9375C12.15 5.63008 10.7409 7 9 7ZM6.84 7.875H7.07344C7.65844 8.14844 8.30813 8.3125 9 8.3125C9.69188 8.3125 10.3388 8.14844 10.9266 7.875H11.16C12.9488 7.875 14.4 9.28594 14.4 11.025V11.8125C14.4 12.5371 13.7953 13.125 13.05 13.125H4.95C4.20469 13.125 3.6 12.5371 3.6 11.8125V11.025C3.6 9.28594 5.05125 7.875 6.84 7.875ZM13.1316 7.50859C13.4578 7.19414 13.905 7 14.4 7H16.2C17.1928 7 18 7.78477 18 8.75V9.625C18 10.109 17.5978 10.5 17.1 10.5H15.2466C15.0694 9.20391 14.265 8.11289 13.1316 7.50859Z" fill="#FC8500"/>
</svg>
