<svg width="460" height="440" viewBox="0 0 460 440" fill="none" xmlns="http://www.w3.org/2000/svg">
<g clip-path="url(#clip0)">
<path d="M15.9377 313.254C20.2358 312.994 23.6283 310.744 26.7238 308.055C33.041 302.596 40.0858 300.048 48.3627 302.336C52.0212 303.431 55.2552 305.625 57.627 308.619C62.9718 314.933 73.216 314.391 77.6254 309.682C78.2759 309.027 78.7874 308.247 79.1293 307.389C79.4711 306.531 79.6363 305.613 79.6149 304.69C79.5406 298.644 79.6149 292.598 79.6149 286.552C79.6149 285.356 79.8004 284.041 78.5088 283.365C77.2171 282.689 76.2818 283.804 75.3836 284.517C71.9335 287.327 67.7983 289.167 63.4024 289.85C62.2047 290.039 60.9848 290.039 59.7872 289.85C55.2293 289.716 51.577 287.525 48.2143 284.725C47.5736 284.166 47.0315 283.503 46.6108 282.764C46.5172 282.602 46.457 282.423 46.4339 282.238C46.4109 282.053 46.4254 281.865 46.4767 281.685C46.528 281.505 46.615 281.338 46.7324 281.193C46.8498 281.048 46.9953 280.928 47.1602 280.84C48.0139 280.253 48.7636 280.543 49.4391 281.241C51.0704 282.891 53.0271 284.184 55.1848 285.037C56.1817 285.552 57.2923 285.807 58.4139 285.779C59.9657 286.054 61.5536 286.054 63.1054 285.779C66.2603 285.727 68.8436 284.071 71.2711 282.437C74.7292 280.257 77.3462 276.968 78.6944 273.108C79.3113 271.16 79.612 269.127 79.5852 267.084C79.5852 214.709 79.5852 162.337 79.5852 109.967C79.5852 107.278 78.4271 106.112 75.7622 106.104H55.4C53.1137 106.104 52.6237 105.629 52.6237 103.304C52.6237 90.9369 52.6237 78.5624 52.6237 66.1656C52.6237 64.9995 52.9652 64.2864 54.1084 64.0562C55.9345 63.6477 57.82 64.2642 59.6462 63.7219C61.2273 62.6152 60.485 60.9588 60.6112 59.5253C60.7077 58.3443 60.5221 57.0667 62.1701 56.8068C62.4854 56.6901 62.822 56.642 63.1574 56.6657H100.096C100.365 56.6614 100.633 56.699 100.89 56.7771C101.589 56.9952 102.187 57.4562 102.575 58.0769C102.865 62.6152 102.62 67.1535 102.709 71.6918C102.709 72.4346 102.531 73.1773 102.894 73.8533C102.882 74.2635 103.03 74.6624 103.308 74.9648C103.585 75.2673 103.969 75.4494 104.379 75.4725C104.885 75.657 105.428 75.7107 105.96 75.6285C120.045 75.6285 134.124 75.6285 148.199 75.6285C148.728 75.7174 149.272 75.661 149.773 75.4651C152.037 74.6703 152.853 72.494 154.085 70.7708C158.539 64.591 164.582 61.1148 171.901 59.7184C173.082 59.4956 174.277 59.3767 175.465 59.2059C176.528 59.024 177.615 59.024 178.679 59.2059C188.636 60.0873 196.344 64.7172 201.802 73.0956C202.626 74.3435 203.51 75.4874 205.21 75.4651C205.917 75.6879 206.666 75.7463 207.4 75.6359C249.054 75.6359 290.709 75.6359 332.364 75.6359C333.109 75.7318 333.865 75.6813 334.591 75.4874C336.023 74.856 336.432 73.6453 336.439 72.2192C336.439 70.4068 336.484 68.5871 336.439 66.7821C336.402 65.6383 336.617 64.6727 337.671 64.0636C339.624 63.6699 341.628 64.2567 343.565 63.7294L344.122 63.1797C344.657 61.6422 344.063 60.0304 344.449 58.4929C344.514 58.0645 344.714 57.6681 345.02 57.361C345.326 57.0539 345.721 56.852 346.149 56.7845C347.745 56.6273 349.35 56.5925 350.952 56.6805C361.522 56.6805 372.093 56.6805 382.664 56.6805C383.408 56.603 384.159 56.6406 384.891 56.7919C385.459 57.1372 385.917 57.6385 386.209 58.2363C386.501 58.834 386.616 59.5031 386.539 60.1641C386.479 71.9221 386.539 83.6875 386.539 95.4529C386.539 98.2829 385.967 98.6988 383.094 98.8845C381.691 98.9736 380.006 97.9635 378.863 99.6273C378.358 101.113 378.915 102.598 378.559 104.084C378.203 105.569 377.037 106.104 375.53 106.06C373.801 106 372.071 106.022 370.334 106.06C369.243 106.06 368.196 106.245 367.929 107.605C367.72 108.328 367.667 109.087 367.773 109.833C367.773 152.958 367.773 196.083 367.773 239.208C367.648 239.937 367.712 240.687 367.958 241.384C368.174 243.122 369.346 244.051 370.839 244.578C375.99 246.398 381.179 248.114 386.301 250.008C387.326 250.387 388.298 250.335 388.818 249.74C389.337 249.146 388.989 248.173 388.365 247.326C384.78 242.476 381.684 237.329 380.689 231.26C379.806 225.868 380.296 220.743 384.215 216.405C387.823 212.394 397.162 210.745 402.647 216.13C405.447 219.002 407.985 222.116 410.234 225.437C416.811 234.662 425.578 240.634 436.379 243.835C440.491 245.046 444.545 246.509 448.056 249.072C454.893 254.063 458.627 260.86 459.614 269.223C459.807 270.558 459.807 271.914 459.614 273.249C459.02 278.901 456.741 284.078 454.967 289.382C451.998 298.191 448.843 306.919 445.807 315.691C443.58 322.056 440.209 327.508 434.241 330.977C430.099 333.383 425.519 334.297 420.797 334.691C419.465 334.88 418.113 334.88 416.781 334.691L413.686 334.564C413.003 334.215 412.201 334.564 411.533 334.275C402.499 333.272 393.947 330.405 385.411 327.493C380.66 325.869 375.906 324.257 371.15 322.658C370.747 322.518 370.315 322.475 369.892 322.535C369.469 322.594 369.066 322.754 368.717 323C368.367 323.245 368.081 323.571 367.882 323.949C367.683 324.328 367.577 324.748 367.572 325.176C367.528 329.677 367.572 334.185 367.572 338.694C367.572 340.358 368.485 341.071 370.096 341.071C374.55 341.071 378.987 341.071 383.406 341.071C385.819 341.071 386.502 341.762 386.502 344.198C386.502 356.082 386.502 368.011 386.502 379.918C386.563 380.547 386.444 381.18 386.157 381.744C385.87 382.307 385.428 382.776 384.883 383.097C383.02 383.527 381.09 382.896 379.234 383.446C377.683 384.188 378.589 385.57 378.492 386.647C378.366 387.917 378.551 389.21 377.23 389.997C374.409 390.227 371.588 390.093 368.767 390.086C358.419 390.086 348.064 390.227 337.716 390.004C336.231 389.655 336.513 388.422 336.513 387.42C336.513 381.099 336.513 374.793 336.513 368.464C336.513 364.951 335.585 364.008 332.148 364.008C256.901 364.008 181.651 364.008 106.398 364.008C104.913 364.008 103.147 363.606 102.902 365.924C102.545 370.076 102.842 374.235 102.738 378.395C102.795 379.401 102.763 380.41 102.642 381.411C101.313 383.55 99.1604 382.74 97.2749 382.896C96.3173 382.985 95.0479 382.48 94.8549 384.137C94.2982 385.733 95.0999 387.457 94.4169 389.046L93.6746 389.789C93.2812 390.16 92.7912 390.034 92.3384 390.034H54.7022C54.3668 390.053 54.0306 390.015 53.7075 389.923C52.7945 389.432 52.5866 388.69 52.5866 387.65C52.6311 375.31 52.6311 362.97 52.5866 350.63C52.5866 348.669 53.5739 348.105 55.1922 347.993C55.9922 347.919 56.7973 347.919 57.5973 347.993C59.9208 348.253 60.9081 347.191 60.6409 345.022C60.592 344.28 60.592 343.536 60.6409 342.794C60.6091 342.405 60.7011 342.016 60.9037 341.682C61.1064 341.349 61.4094 341.088 61.7692 340.937C66.3123 340.618 70.8628 340.885 75.4058 340.789C76.1345 340.896 76.8779 340.838 77.5809 340.618C79.0655 340.053 79.5703 338.976 79.5629 337.439C79.5184 331.081 79.5629 324.715 79.5629 318.357C79.5629 315.743 78.5979 315.067 76.1333 315.839C74.5819 316.322 73.023 316.775 71.4641 317.243C70.796 317.562 70.0239 317.161 69.3707 317.547C65.9107 317.692 62.4664 317.005 59.327 315.542C56.521 314.16 54.7171 311.672 52.4827 309.667C50.0852 307.482 47.0298 306.158 43.7974 305.901C43.0785 305.637 42.2894 305.637 41.5704 305.901C37.1164 305.901 33.5161 307.929 30.3093 310.662C26.078 314.272 21.4013 316.775 15.8338 317.347C15.1751 317.525 14.4808 317.525 13.8221 317.347C9.0439 317.158 4.52315 315.13 1.20248 311.687C0.903716 311.425 0.652556 311.114 0.460151 310.766C0.096409 309.89 -0.245063 308.827 0.668004 308.204C1.0509 307.985 1.50074 307.915 1.93192 308.007C2.36309 308.098 2.7455 308.346 3.00635 308.701C4.88112 310.686 7.24378 312.143 9.85806 312.927C10.6118 313.152 11.3951 313.263 12.1816 313.254C13.4191 313.524 14.7002 313.524 15.9377 313.254Z" fill="black"/>
<path d="M255.399 36.3287C255.599 37.4651 254.812 37.9182 253.951 38.401C251.335 39.7227 248.828 41.2502 246.454 42.969C242.846 45.7693 240.3 49.3865 238.147 53.3678C237.848 53.8826 237.583 54.416 237.353 54.9647C237.193 55.5162 236.851 55.9976 236.384 56.3306C235.916 56.6636 235.35 56.8288 234.777 56.7994C233.582 56.7622 233.106 55.8189 232.661 54.8384C231.092 51.3138 228.921 48.0891 226.247 45.3088C223.838 42.9359 221.057 40.9738 218.015 39.5003C217.274 39.1618 216.557 38.7722 215.87 38.3342C214.17 37.1606 214.296 35.3631 216.07 34.2787C219.596 32.1841 223.189 30.2306 226.136 27.2298C228.809 24.4282 231.04 21.2346 232.75 17.7595C233.225 16.8534 233.619 15.8952 234.843 15.8878C236.068 15.8803 236.855 16.6825 237.397 17.767C238.635 20.3198 240.111 22.7496 241.807 25.0238C244.872 29.057 248.992 31.6567 253.372 33.937C254.337 34.4272 255.584 34.7763 255.399 36.3287Z" fill="black"/>
<path d="M22.626 217.192C23.9622 218.834 24.7788 220.78 25.8403 222.592C29.1066 228.178 33.8723 232.07 39.5883 234.922C40.6498 235.457 41.9192 235.91 41.9637 237.336C42.0231 238.881 40.7092 239.364 39.566 239.899C32.6852 243.042 27.1722 248.569 24.0439 255.46C23.8366 255.948 23.5883 256.417 23.3015 256.863C23.0855 257.193 22.7858 257.46 22.4331 257.636C22.0805 257.812 21.6875 257.891 21.2942 257.865C20.901 257.839 20.5216 257.71 20.1948 257.49C19.868 257.269 19.6054 256.966 19.434 256.611C17.4371 252.526 15.1211 248.686 11.736 245.559C9.02653 243.055 5.79739 241.429 2.60537 239.616C0.222491 238.265 0.333841 236.437 2.50887 235.279C6.755 233.006 10.8081 230.458 14.0521 226.789C16.2791 224.263 17.7266 221.263 19.4266 218.425C19.7532 217.876 19.9388 217.244 20.6366 217.044C21.3344 216.843 21.9876 216.747 22.626 217.192Z" fill="black"/>
<path d="M301.386 439.948C300.028 440.26 299.523 439.094 299.077 438.098C297.507 434.354 295.182 430.973 292.248 428.168C289.545 425.715 286.49 423.682 283.184 422.136C282.197 421.654 281.239 421.178 281.224 419.737C281.209 418.296 282.071 417.762 283.177 417.19C289.175 414.122 294.364 410.126 297.63 404.043C298.246 402.899 298.825 401.74 299.471 400.604C300.607 398.606 302.618 398.591 303.732 400.685C304.793 402.816 305.983 404.88 307.295 406.865C310.024 410.723 313.616 413.889 317.784 416.113C318.771 416.655 319.774 417.167 320.753 417.762C322.498 418.846 322.542 420.339 320.82 421.475C319.729 422.218 318.534 422.775 317.376 423.399C311.356 426.623 307.161 431.57 304.237 437.623C303.346 439.361 302.655 439.911 301.386 439.948Z" fill="black"/>
<path d="M197.319 399.386C197.319 400.314 196.465 400.871 195.596 401.332C193.693 402.261 191.906 403.413 190.274 404.763C188.141 406.676 186.423 409.007 185.226 411.611C184.721 412.718 184.09 413.58 182.791 413.617C181.492 413.654 180.861 412.614 180.401 411.634C178.353 407.158 174.749 403.578 170.261 401.562C169.207 401.072 168.316 400.448 168.294 399.215C168.271 397.982 169.177 397.254 170.194 396.793C174.807 394.733 178.504 391.052 180.587 386.447C181.017 385.54 181.552 384.738 182.717 384.731C183.883 384.723 184.632 385.474 185.1 386.528C187.129 391.063 190.727 394.711 195.233 396.801C196.769 397.566 197.304 398.279 197.319 399.386Z" fill="black"/>
<path d="M134.8 28.7451C134.057 28.5965 133.783 28.1583 133.478 27.4824C131.554 22.9912 128.071 19.3479 123.672 17.2248C122.796 16.794 121.772 16.4003 121.386 15.3233C121.208 14.6667 121.208 13.9744 121.386 13.3178C122.967 11.5797 125.246 10.9112 127.109 9.60397C129.871 7.62079 131.563 4.92454 133.196 2.07232C133.679 1.21814 133.835 0.0222851 135.282 0.0297128C136.73 0.0371404 137.42 0.861611 137.955 2.0129C139.971 6.54007 143.591 10.1598 148.117 12.1739C149.119 12.6345 150.04 13.2435 150.062 14.4022C150.084 15.561 149.075 16.1923 148.095 16.6825C143.655 18.7732 140.08 22.3446 137.984 26.7842C137.629 27.4182 137.222 28.0219 136.767 28.5891C136.158 29.057 135.475 28.8268 134.8 28.7451Z" fill="black"/>
<path d="M412.335 142.158C411.221 141.601 410.917 140.405 410.449 139.447C408.378 135.198 404.993 132.428 400.881 130.318C397.911 128.833 397.911 127.169 400.881 125.476C405.261 122.958 408.891 119.838 411.014 115.077C412.083 112.67 413.931 112.789 415.371 115.077C416.247 116.466 417.086 117.884 417.962 119.281C419.966 122.467 423.24 124.072 426.298 125.966C428.147 127.095 428.28 128.848 426.432 129.746C421.464 132.064 417.479 136.07 415.185 141.051C414.948 141.45 414.666 141.821 414.347 142.158C413.692 142.364 412.99 142.364 412.335 142.158Z" fill="black"/>
<path d="M428.859 185.58C432.37 186.494 434.798 188.41 435.778 192.154C437.039 196.93 433.172 201.988 427.768 202.211C425.797 202.256 423.876 201.586 422.36 200.324C420.844 199.063 419.835 197.295 419.521 195.348C419.316 194.42 419.316 193.46 419.521 192.532C420.159 188.559 422.586 186.36 426.454 185.602C427.243 185.407 428.067 185.399 428.859 185.58Z" fill="black"/>
<path d="M85.1601 410.371C86.7444 410.772 88.1905 411.595 89.3447 412.752C90.4989 413.91 91.318 415.358 91.7149 416.945C91.8708 418.008 91.8708 419.089 91.7149 420.153C90.2674 424.506 87.4094 426.92 82.6659 426.898C79.4516 426.898 75.2426 422.872 75.1164 419.678C74.9086 415.006 77.2692 411.389 81.5302 410.423C82.7306 410.222 83.9545 410.205 85.1601 410.371Z" fill="black"/>
<path d="M348.227 28.6485C344.375 28.5965 342.17 26.0934 342.155 22.0379C342.161 21.2149 342.33 20.4013 342.655 19.6448C342.979 18.8884 343.451 18.2043 344.042 17.6329C344.634 17.0614 345.334 16.6139 346.101 16.3168C346.868 16.0197 347.687 15.8789 348.509 15.9026C352.711 16.0883 354.923 18.8366 354.997 22.4984C355.072 25.9968 351.924 28.7079 348.227 28.6485Z" fill="black"/>
<path d="M40.8282 141.972C44.6141 143.458 46.4179 145.805 46.0245 148.977C45.683 151.873 43.7975 153.626 41.2068 154.659C40.1454 154.867 39.0538 154.867 37.9925 154.659C36.7502 154.394 35.6236 153.743 34.7741 152.798C33.9246 151.854 33.3959 150.664 33.2638 149.4C33.0114 145.902 34.2363 143.562 36.8864 142.515C37.3763 142.321 37.896 142.18 38.3711 142.01C39.1783 141.824 40.0157 141.811 40.8282 141.972Z" fill="black"/>
<path d="M426.135 396.749C424.509 400.619 422.49 401.948 419.083 402.03C416.856 402.074 413.656 399.408 413.478 397.157C413.259 396.094 413.259 394.997 413.478 393.934C413.733 392.671 414.395 391.527 415.364 390.679C416.333 389.831 417.553 389.325 418.838 389.239C420.094 389.049 421.379 389.248 422.519 389.809C423.659 390.371 424.599 391.269 425.214 392.381C425.571 393.005 425.823 393.689 426.12 394.342C426.299 395.134 426.304 395.955 426.135 396.749Z" fill="black"/>
<path d="M247.775 389.091C245.392 389.046 243.232 386.959 243.321 384.768C243.387 383.568 243.909 382.438 244.779 381.61C245.65 380.782 246.804 380.317 248.005 380.311C249.208 380.323 250.358 380.805 251.21 381.655C252.062 382.504 252.548 383.654 252.563 384.857C252.535 385.453 252.388 386.036 252.13 386.574C251.873 387.111 251.51 387.592 251.063 387.987C250.617 388.381 250.096 388.683 249.531 388.872C248.966 389.062 248.369 389.136 247.775 389.091Z" fill="#010101"/>
<path d="M10.8824 72.2489C11.9142 69.6566 12.998 68.8916 15.4403 69.0179C16.376 69.0207 17.2822 69.3456 18.0067 69.938C18.7313 70.5304 19.23 71.3543 19.4192 72.2712C19.7002 73.1572 19.6742 74.1121 19.3455 74.9815C19.0168 75.8509 18.4046 76.584 17.6079 77.062C14.9355 78.8744 12.278 77.9236 10.9269 74.6629C10.6971 73.8766 10.6817 73.0431 10.8824 72.2489Z" fill="#010101"/>
<path d="M23.9252 371.725C22.9602 373.589 21.624 374.949 19.3599 374.934C17.4744 374.934 15.3736 373.359 15.0099 371.762C14.8089 370.666 14.9749 369.534 15.4822 368.541C15.9895 367.549 16.8098 366.752 17.8159 366.273C18.8362 365.954 19.933 365.978 20.9384 366.341C21.9439 366.705 22.8026 367.388 23.3833 368.286C23.5841 368.62 23.7674 368.965 23.9327 369.318C24.1159 370.11 24.1133 370.934 23.9252 371.725Z" fill="black"/>
<path d="M424.071 84.7497C423.46 86.0065 422.45 87.0252 421.198 87.6465C420.274 87.8719 419.309 87.8719 418.385 87.6465C417.675 87.5006 417.023 87.15 416.51 86.6379C415.997 86.1258 415.645 85.4745 415.497 84.7645C415.3 83.839 415.3 82.8824 415.497 81.9569C415.913 79.8845 417.427 79.0229 419.29 78.9189C420.314 78.8368 421.336 79.0873 422.205 79.6334C423.075 80.1794 423.745 80.9917 424.116 81.9494C424.324 82.8731 424.309 83.8331 424.071 84.7497Z" fill="#010101"/>
<path d="M367.944 241.399C367.409 240.656 367.587 239.854 367.587 239.067C367.587 195.986 367.587 152.886 367.587 109.766C367.587 109.06 367.305 108.281 367.899 107.657C367.899 108.125 367.944 108.592 367.944 109.068C367.948 153.173 367.948 197.284 367.944 241.399Z" fill="#FEFEFE"/>
<path d="M334.635 75.5245C333.974 76.037 333.21 75.7993 332.497 75.7993C290.808 75.7993 249.119 75.7993 207.429 75.7993C206.687 75.7993 205.945 76.0073 205.284 75.5022H255.658C281.036 75.5022 306.421 75.5022 331.814 75.5022C332.749 75.4725 333.692 75.5022 334.635 75.5245Z" fill="#FEFEFE"/>
<path d="M149.81 75.5096C149.287 75.8202 148.669 75.926 148.073 75.8067H105.938C105.426 75.8067 104.854 75.9776 104.416 75.5171L149.81 75.5096Z" fill="#FCFCFC"/>
<path d="M53.7075 389.952C65.2211 389.99 76.7198 390.042 88.2333 390.049C90.0298 390.049 91.841 390.302 93.6226 389.811C93.2144 390.45 92.5611 390.272 91.9821 390.272H55.2293C54.7097 390.302 54.19 390.406 53.7075 389.952Z" fill="#FCFCFC"/>
<path d="M337.708 389.997C347.656 390.027 357.603 390.056 367.55 390.086C370.772 390.086 373.994 390.019 377.2 389.99C376.688 390.457 376.057 390.301 375.471 390.301H339.438C338.852 390.301 338.221 390.458 337.708 389.997Z" fill="#FCFCFC"/>
<path d="M100.897 56.8216H62.1775C62.6749 56.3166 63.3133 56.48 63.8997 56.48C75.6483 56.48 87.4044 56.48 99.1678 56.48C99.7543 56.5097 100.385 56.3463 100.897 56.8216Z" fill="#FCFCFC"/>
<path d="M384.891 56.8291H346.178C346.683 56.3611 347.321 56.5171 347.908 56.5171C359.656 56.5171 371.408 56.5171 383.161 56.5171C383.785 56.5097 384.386 56.3463 384.891 56.8291Z" fill="#FEFEFE"/>
<path d="M77.5882 340.685C73.7281 341.086 69.8532 340.752 65.9856 340.863C64.5826 340.863 63.1796 340.96 61.7766 341.004C62.1997 340.544 62.7639 340.648 63.2613 340.648L77.5882 340.685Z" fill="#FCFCFC"/>
<path d="M102.902 73.8978C102.308 71.8106 102.709 69.6715 102.649 67.5546C102.56 64.4127 102.598 61.2708 102.583 58.1215C103.117 58.686 102.917 59.3916 102.917 60.0378C102.924 64.6578 102.909 69.2778 102.902 73.8978Z" fill="#FCFCFC"/>
<path d="M102.612 381.411C102.612 376.887 102.612 372.371 102.612 367.855C102.612 367.209 102.404 366.526 102.842 365.924C102.842 370.717 102.86 375.506 102.894 380.289C102.925 380.485 102.915 380.686 102.867 380.878C102.818 381.071 102.732 381.252 102.612 381.411Z" fill="#FCFCFC"/>
<path d="M343.595 63.7665C341.665 64.5093 339.668 63.9374 337.701 64.1008C339.638 63.3877 341.635 63.9522 343.595 63.7665Z" fill="#FEFEFE"/>
<path d="M59.6535 63.7665C57.8422 64.5093 55.9419 63.9299 54.1157 64.1007C55.9196 63.3506 57.8125 63.9596 59.6535 63.7665Z" fill="#FCFCFC"/>
<path d="M379.242 383.438C381.083 382.651 383.005 383.223 384.891 383.089C383.042 383.817 381.12 383.267 379.242 383.438Z" fill="#FCFCFC"/>
<path d="M94.3872 389.068C94.9662 387.472 94.3427 385.763 94.8252 384.159C94.6322 385.793 95.3968 387.509 94.3872 389.068Z" fill="#FCFCFC"/>
<path d="M344.478 58.53C344.397 60.0898 344.909 61.6942 344.152 63.2169C344.323 61.6496 343.781 60.0452 344.478 58.53Z" fill="#FEFEFE"/>
<path d="M378.529 104.121C378.611 102.635 378.061 101.105 378.833 99.6644C378.685 101.143 379.205 102.673 378.529 104.121Z" fill="#FEFEFE"/>
<path d="M63.098 285.794C61.5753 286.302 59.9292 286.302 58.4065 285.794H63.098Z" fill="#FCFCFC"/>
<path d="M416.774 334.683H420.79C419.502 335.207 418.061 335.207 416.774 334.683Z" fill="#FCFCFC"/>
<path d="M459.606 273.242C459.606 271.897 459.606 270.56 459.606 269.216C460.137 270.505 460.137 271.952 459.606 273.242Z" fill="#FCFCFC"/>
<path d="M59.7649 289.879H63.38C62.812 290.136 62.1958 290.269 61.5725 290.269C60.9491 290.269 60.3329 290.136 59.7649 289.879Z" fill="#FCFCFC"/>
<path d="M15.9377 313.254C14.6978 313.704 13.3397 313.704 12.0999 313.254H15.9377Z" fill="#FCFCFC"/>
<path d="M85.1601 410.371L81.5449 410.423C82.1104 410.162 82.7243 410.022 83.347 410.013C83.9697 410.005 84.5873 410.126 85.1601 410.371Z" fill="#FCFCFC"/>
<path d="M37.9775 154.637H41.1918C40.6987 154.905 40.1461 155.046 39.5847 155.046C39.0232 155.046 38.4707 154.905 37.9775 154.637Z" fill="#FCFCFC"/>
<path d="M178.753 59.243H175.539C176.037 58.9922 176.588 58.8616 177.146 58.8616C177.704 58.8616 178.254 58.9922 178.753 59.243Z" fill="#FEFEFE"/>
<path d="M413.478 393.934V397.157C413.206 396.664 413.063 396.109 413.063 395.545C413.063 394.982 413.206 394.427 413.478 393.934Z" fill="#FCFCFC"/>
<path d="M91.7297 420.153C91.7297 419.084 91.7297 418.014 91.7297 416.945C91.9732 417.444 92.0997 417.993 92.0997 418.549C92.0997 419.105 91.9732 419.653 91.7297 420.153Z" fill="#FCFCFC"/>
<path d="M419.521 192.525V195.348C419.266 194.921 419.132 194.433 419.132 193.936C419.132 193.439 419.266 192.952 419.521 192.525Z" fill="#FCFCFC"/>
<path d="M418.385 87.6464H421.198C420.778 87.9158 420.29 88.059 419.792 88.059C419.293 88.059 418.805 87.9158 418.385 87.6464Z" fill="#FCFCFC"/>
<path d="M424.071 84.7496C424.071 83.8138 424.071 82.8779 424.071 81.9346C424.339 82.3552 424.481 82.8435 424.481 83.3421C424.481 83.8407 424.339 84.329 424.071 84.7496Z" fill="#FCFCFC"/>
<path d="M415.467 81.942V84.7496C415.217 84.3241 415.086 83.8394 415.086 83.3458C415.086 82.8522 415.217 82.3675 415.467 81.942Z" fill="#FEFEFE"/>
<path d="M23.9253 371.725V369.318C24.1736 369.67 24.3068 370.091 24.3068 370.522C24.3068 370.953 24.1736 371.373 23.9253 371.725Z" fill="#FCFCFC"/>
<path d="M428.859 185.58H426.454C426.806 185.332 427.226 185.198 427.656 185.198C428.087 185.198 428.507 185.332 428.859 185.58Z" fill="#FCFCFC"/>
<path d="M40.8281 141.972H38.4155C38.772 141.732 39.192 141.604 39.6218 141.604C40.0516 141.604 40.4716 141.732 40.8281 141.972Z" fill="#FCFCFC"/>
<path d="M426.135 396.749C426.135 395.947 426.135 395.144 426.135 394.342C426.376 394.697 426.505 395.116 426.505 395.545C426.505 395.975 426.376 396.394 426.135 396.749Z" fill="#FCFCFC"/>
<path d="M10.8826 72.2489V74.6629C10.6195 74.3156 10.4771 73.8917 10.4771 73.4559C10.4771 73.0201 10.6195 72.5962 10.8826 72.2489Z" fill="#FCFCFC"/>
<path d="M22.6262 217.192C21.9862 216.974 21.3001 216.928 20.6367 217.059C21.3345 216.606 22.01 216.479 22.6262 217.192Z" fill="#FCFCFC"/>
<path d="M412.335 142.158L414.339 142.106C414.072 142.364 413.718 142.512 413.347 142.522C412.976 142.531 412.615 142.402 412.335 142.158Z" fill="#FCFCFC"/>
<path d="M41.5186 305.916C42.2362 305.645 43.0279 305.645 43.7455 305.916H41.5186Z" fill="#FCFCFC"/>
<path d="M13.77 317.317H15.7817C15.4985 317.551 15.1429 317.679 14.7759 317.679C14.4088 317.679 14.0532 317.551 13.77 317.317Z" fill="#FCFCFC"/>
<path d="M69.356 317.614C70.0184 317.343 70.7372 317.239 71.4493 317.31C70.8184 317.904 70.0612 317.585 69.356 317.614Z" fill="#FCFCFC"/>
<path d="M411.526 334.245C412.256 334.146 413 334.246 413.678 334.535C412.951 334.535 412.179 334.839 411.526 334.245Z" fill="#FCFCFC"/>
<path d="M134.8 28.7451C135.464 28.8861 136.154 28.8345 136.789 28.5965C136.173 29.317 135.498 29.1684 134.8 28.7451Z" fill="#FEFEFE"/>
<path d="M121.408 13.3178V15.3233C121.17 15.0436 121.039 14.6881 121.039 14.3205C121.039 13.953 121.17 13.5974 121.408 13.3178Z" fill="#FCFCFC"/>
<path d="M225.616 303.472V251.204C225.616 247.668 226.745 246.844 230.07 247.921C240.047 251.152 250.314 246.769 255.369 237.143C257.507 233.091 258.771 228.635 259.081 224.063C259.177 222.637 259.578 222.132 261.1 222.132C294.044 222.176 326.989 222.191 359.934 222.176C362.717 222.176 363.497 222.993 363.497 225.816C363.497 229.856 363.497 233.89 363.497 237.923C363.497 240.753 362.361 241.548 359.666 240.619C352.503 238.146 345.384 235.546 338.183 233.192C334.95 232.181 331.456 232.41 328.383 233.836C325.309 235.261 322.876 237.78 321.557 240.902C320.237 244.024 320.127 247.525 321.246 250.724C322.366 253.924 324.635 256.591 327.613 258.208C329.74 259.201 331.935 260.04 334.182 260.718C338.926 262.382 343.699 263.979 348.442 265.643C349.185 265.888 350.128 265.91 350.306 266.928C350.484 267.946 349.667 268.183 349.125 268.644C347.596 269.966 346.38 271.613 345.565 273.464C344.75 275.314 344.356 277.323 344.412 279.345C344.468 281.367 344.973 283.351 345.889 285.153C346.806 286.956 348.112 288.532 349.712 289.768C352.176 291.684 352.206 292.204 349.994 294.447C348.395 296.069 347.227 298.066 346.599 300.255C345.97 302.445 345.901 304.757 346.396 306.981C346.892 309.204 347.937 311.268 349.435 312.983C350.934 314.698 352.839 316.009 354.975 316.797C356.46 317.369 358.018 317.852 359.533 318.394C360.675 318.736 361.673 319.445 362.371 320.412C363.069 321.379 363.428 322.55 363.393 323.742C363.467 328.652 363.393 333.562 363.393 338.471C363.393 340.38 362.25 341.056 360.535 341.063H347.633C344.924 341.063 344.538 341.472 344.53 344.257C344.508 344.661 344.508 345.065 344.53 345.468C344.709 347.377 343.877 348.135 341.947 348.06C336.008 347.845 336.461 348.268 336.483 353.601C336.483 359.744 336.484 359.744 330.434 359.744H229.796C226.151 359.744 225.616 359.202 225.616 355.547V303.472Z" fill="#FE5776"/>
<path d="M148.926 222.169H209.634C213.524 222.169 213.813 222.429 214.355 226.202C214.838 229.932 215.921 233.559 217.562 236.943C220.209 242.247 221.574 248.098 221.548 254.026C221.548 263.311 221.548 272.593 221.548 281.872C221.548 282.868 221.727 283.989 220.539 284.487C219.351 284.985 218.713 284.041 217.956 283.388C211.431 277.795 203.725 275.351 195.233 275.715C181.529 276.309 170.558 281.991 163.201 293.883C161.94 295.87 160.968 298.025 160.314 300.286C159.95 301.615 159.304 301.897 158.087 301.86C153.111 301.629 148.135 302.308 143.403 303.866C132.959 307.476 127.324 315.007 125.543 325.718C124.923 329.575 124.886 333.504 125.432 337.372C125.654 339.051 126.552 339.704 128.111 339.727H217.236C221.029 339.727 221.489 340.195 221.489 344.042C221.489 348.142 221.489 352.25 221.489 356.35C221.489 358.905 220.695 359.677 218.089 359.677H105.997C103.481 359.677 102.687 358.86 102.672 356.253C102.672 352.086 102.672 347.912 102.672 343.745C102.672 341.361 102.1 340.774 99.7024 340.774C95.4711 340.737 91.2324 340.774 87.0011 340.774C84.4029 340.774 83.8016 340.15 83.8091 337.535C83.8091 330.071 83.913 322.606 83.8907 315.141C83.8425 313.724 84.1856 312.321 84.8823 311.087C85.579 309.853 86.6024 308.834 87.8399 308.144C94.224 304.155 101.536 304.661 107.274 309.511C107.527 309.726 107.786 309.949 108.016 310.187C108.759 310.929 109.627 311.308 110.496 310.514C111.364 309.719 110.993 308.813 110.288 308.048C107.346 304.668 103.274 302.476 98.8338 301.883C94.7211 301.384 90.5528 302.113 86.8526 303.977C84.6256 305.047 83.6903 304.497 83.6829 302.083C83.6829 296.03 83.6829 289.976 83.6829 283.923C83.6829 280.06 85.3902 278.381 89.2058 278.344C93.3851 278.3 97.1636 279.6 99.8063 282.801C107.556 292.279 120.094 292.093 129.106 284.769C131.14 283.12 133.085 281.353 135.438 280.149C142.119 276.755 148.704 277.55 154.308 282.489C155.14 283.232 155.993 284.168 157.04 283.135C158.087 282.103 157.292 281.07 156.476 280.164C149.654 272.826 138.497 272.268 129.752 278.857C127.243 280.758 124.934 282.905 122.009 284.242C115.328 287.31 108.425 285.876 103.548 280.394C99.1679 275.47 93.593 273.501 87.0902 274.17C84.6108 274.423 83.7348 273.754 83.7348 271.243C83.7348 256.037 83.7348 240.835 83.7348 225.638C83.7348 222.83 84.4772 222.124 87.4019 222.124L148.926 222.169Z" fill="#1FA9FE"/>
<path d="M159.861 217.519C147.152 217.519 134.451 217.348 121.749 217.586C114.415 217.72 111.357 213.167 110.614 207.67C109.523 200.027 111.216 192.688 113.331 185.446C117.993 169.499 125.402 154.807 134.198 140.784C138.279 134.229 142.868 128.005 147.924 122.17C149.891 119.942 150.893 119.801 153.12 121.665C159.442 126.969 167.332 130.044 175.573 130.416C183.814 130.788 191.949 128.436 198.722 123.723C200.303 122.623 201.587 122.772 203.131 123.723C221.244 135.028 234.502 150.648 243.707 169.774C251.405 185.674 255.245 203.167 254.916 220.832C254.82 227.249 253.365 233.399 249.156 238.495C241.406 247.869 227.435 246.22 221.541 235.338C219.21 230.922 218.1 225.962 218.327 220.973C218.534 213.545 218.327 206.185 216.285 198.995C214.155 191.626 210.866 184.986 204.601 180.203C204.023 179.741 203.407 179.328 202.76 178.97C201.921 178.516 201.067 178.464 200.459 179.386C199.85 180.307 200.288 180.908 200.964 181.48C208.075 187.511 211.557 195.504 213.264 204.417C213.717 206.764 214.333 209.163 213.628 211.592C213.108 213.412 212.373 215.142 210.183 215.261C207.993 215.38 206.999 213.776 206.412 211.963C206.019 210.68 205.712 209.373 205.492 208.049C204.426 201.905 201.271 196.319 196.56 192.236C191.849 188.154 185.873 185.826 179.644 185.647C174.871 185.506 170.097 185.61 165.324 185.588C162.013 185.588 160.796 184.035 161.546 180.834C162.481 176.845 163.387 172.857 164.381 168.89C164.678 167.702 164.508 166.796 163.298 166.506C162.088 166.216 161.65 167.078 161.36 168.073C159.556 174.32 157.715 180.552 155.926 186.806C155.399 188.655 156.275 189.68 158.354 189.688C164.879 189.688 171.396 189.688 177.914 189.688C191.67 189.688 201.669 199.648 201.758 213.419C201.758 217.512 201.758 217.512 197.749 217.512L159.861 217.519Z" fill="#FEFEFE"/>
<path d="M281.158 79.9142H332.779C335.697 79.9142 336.491 80.657 336.491 83.6281C336.491 90.0159 336.491 96.4037 336.491 102.791C336.491 105.688 336.936 106.119 339.906 106.119H360.067C362.606 106.119 363.445 106.951 363.445 109.521C363.445 144.421 363.445 179.331 363.445 214.251C363.445 216.643 362.517 217.579 360.171 217.579C327.108 217.579 294.042 217.591 260.974 217.616C259.667 217.616 259.326 217.267 259.281 215.952C258.793 200.002 255.129 184.311 248.503 169.796C244.252 160.276 238.657 151.416 231.889 143.488C227.634 138.749 225.36 132.557 225.535 126.189C225.683 112.135 225.579 98.0823 225.579 84.0292C225.579 80.6867 226.285 79.9811 229.543 79.9811L281.158 79.9142Z" fill="#FED900"/>
<path d="M419.454 330.42C409.447 330.197 401.23 328.191 393.198 325.51C380.942 321.417 368.753 317.117 356.563 312.831C354.807 312.296 353.259 311.231 352.131 309.782C351.003 308.332 350.35 306.57 350.261 304.735C349.927 300.85 351.582 297.805 354.93 295.822C357.647 294.18 360.528 294.254 363.46 295.279C373.518 298.785 383.577 302.276 393.784 305.351L394.356 305.537C395.476 305.886 396.701 306.28 397.199 304.757C397.652 303.338 396.456 302.952 395.462 302.529C388.038 299.558 380.563 296.876 373.043 294.24C367.105 292.16 361.166 290.139 355.227 288.03C349.853 286.121 347.225 280.899 348.999 275.834C350.773 270.768 356.185 268.272 361.656 270.189C371.306 273.583 381.038 276.874 390.837 279.845C391.405 280.046 391.992 280.19 392.589 280.276C392.919 280.298 393.247 280.21 393.522 280.025C393.796 279.84 394.001 279.568 394.103 279.253C394.206 278.938 394.2 278.598 394.087 278.286C393.974 277.975 393.76 277.711 393.48 277.535C392.7 277.149 391.899 276.807 391.082 276.51C371.633 269.082 351.872 262.486 332.245 255.541C326.766 253.603 323.901 249.324 324.873 244.4C326.009 238.725 331.725 235.487 337.419 237.403C348.071 241.02 358.687 244.734 369.339 248.389C378.588 251.563 387.843 254.717 397.102 257.851C401.155 259.218 405.268 260.496 409.314 261.803C410.39 262.145 411.674 262.746 412.283 261.261C412.929 259.634 411.541 259.159 410.375 258.795C397.54 254.769 390.392 245.113 385.596 233.333C384.363 230.319 384.103 226.994 384.854 223.825C385.191 222.35 385.898 220.985 386.908 219.859C387.919 218.732 389.199 217.882 390.629 217.388C392.058 216.894 393.59 216.772 395.08 217.034C396.57 217.296 397.968 217.933 399.144 218.886C401.371 220.691 402.967 223.03 404.622 225.303C409.365 231.803 414.502 237.893 421.495 242.105C426.825 245.313 432.741 247.096 438.569 249.116C449.31 252.83 455.145 260.837 455.293 272.142C455.269 274.499 454.837 276.833 454.017 279.043C449.912 290.882 445.784 302.707 441.724 314.554C437.619 326.587 429.535 330.412 419.454 330.42Z" fill="#FEFEFE"/>
<path d="M174.707 335.53C160.254 335.53 145.808 335.53 131.355 335.53C129.678 335.53 129.188 335.062 129.173 333.413C129.128 326.617 130.167 320.147 134.54 314.651C138.734 309.385 144.546 307.223 150.968 306.295C154.1 305.888 157.266 305.796 160.417 306.02C162.169 306.109 163.09 305.574 163.565 303.792C167.722 288.112 181.737 280.179 195.24 279.852C209.077 279.518 221.11 290.994 221.452 304.854C221.675 314.064 221.526 323.282 221.511 332.492C221.511 334.787 220.583 335.567 218.059 335.567L174.707 335.53Z" fill="#FEFEFE"/>
<path d="M64.7979 77.9013C64.7979 73.3927 64.7979 68.8916 64.7979 64.383C64.7979 61.7833 65.607 60.9811 68.1458 60.9737C77.1527 60.9737 86.1572 60.9737 95.1592 60.9737C97.6311 60.9737 98.4997 61.8724 98.5071 64.3904C98.5071 73.3333 98.5071 82.2762 98.5071 91.2191C98.5071 93.8708 97.6386 94.7696 95.0478 94.7696C86.1102 94.7696 77.1725 94.7696 68.2348 94.7696C65.6218 94.7696 64.8053 93.8931 64.7979 91.2117C64.783 86.7774 64.7979 82.3357 64.7979 77.9013Z" fill="#FEFEFE"/>
<path d="M348.621 77.7379C348.621 73.2813 348.621 68.8247 348.621 64.4201C348.621 61.8576 349.467 60.9811 351.939 60.9737C361.015 60.9737 370.091 60.9737 379.168 60.9737C381.446 60.9737 382.382 61.8576 382.397 64.1305C382.426 73.2813 382.426 82.4421 382.397 91.6128C382.397 93.8411 381.395 94.7919 379.145 94.7993C370 94.8389 360.857 94.8389 351.716 94.7993C349.526 94.7993 348.628 93.7817 348.621 91.494C348.606 86.9037 348.621 82.3134 348.621 77.7379Z" fill="#FEFEFE"/>
<path d="M348.591 361.891C348.591 357.434 348.591 353.022 348.591 348.588C348.591 345.981 349.467 345.126 352.117 345.126C361.025 345.126 369.958 345.126 378.915 345.126C381.432 345.126 382.345 346.003 382.345 348.476C382.345 357.553 382.345 366.625 382.345 375.691C382.345 378.046 381.417 378.922 378.989 378.922C370.012 378.922 361.035 378.922 352.058 378.922C349.437 378.922 348.598 378.046 348.591 375.394C348.586 370.893 348.586 366.392 348.591 361.891Z" fill="#FEFEFE"/>
<path d="M81.6563 378.662C77.0909 378.662 72.5182 378.662 67.9454 378.662C65.5922 378.662 64.798 377.92 64.7905 375.528C64.7905 366.441 64.7905 357.362 64.7905 348.291C64.7905 345.758 65.5329 344.993 68.0197 344.985C77.0909 344.985 86.1598 344.985 95.2261 344.985C97.6387 344.985 98.4849 345.862 98.4923 348.283C98.4923 357.36 98.4923 366.436 98.4923 375.513C98.4923 377.882 97.75 378.655 95.3671 378.662C90.8092 378.677 86.2439 378.662 81.6563 378.662Z" fill="#FEFEFE"/>
<path d="M176.675 112.693C169.726 112.551 163.558 109.64 158.599 104.106C157.73 103.141 156.921 102.13 157.53 100.697C158.139 99.2633 159.267 99.2113 160.536 99.2113C166.438 98.9365 170.751 95.5718 174.819 91.7836C177.358 89.3919 179.8 86.874 182.814 85.0988C186.659 82.811 190.63 82.707 194.439 85.0542C198.247 87.4013 200.429 90.9963 200.095 95.6535C199.791 99.8724 197.282 102.999 194.431 105.785C189.673 110.353 183.853 112.611 176.675 112.693Z" fill="#FEFEFE"/>
<path d="M277.884 275.091C277.884 282.08 277.966 289.07 277.832 296.059C277.787 298.51 278.671 299.773 280.935 300.754C283.114 301.657 285.013 303.125 286.439 305.005C287.864 306.886 288.764 309.112 289.047 311.455C289.329 313.798 288.984 316.174 288.047 318.34C287.109 320.506 285.613 322.383 283.711 323.779C282.648 324.604 281.45 325.237 280.17 325.651C278.337 326.216 277.646 327.456 277.602 329.268C277.543 331.823 277.387 334.371 277.298 336.926C277.253 338.011 277.09 339.043 275.724 339.043C274.358 339.043 274.239 337.922 274.239 336.889C274.135 334.334 274.031 331.786 273.957 329.231C273.991 328.424 273.753 327.629 273.28 326.974C272.807 326.319 272.128 325.843 271.351 325.621C268.756 324.707 266.506 323.013 264.909 320.77C263.312 318.528 262.446 315.847 262.429 313.094C262.412 310.34 263.245 307.649 264.814 305.387C266.383 303.125 268.612 301.403 271.196 300.456C273.096 299.714 273.653 298.488 273.675 296.601C273.823 282.212 274.004 267.829 274.217 253.454C274.214 253.05 274.234 252.646 274.276 252.243C274.373 251.263 274.788 250.543 275.902 250.624C276.882 250.706 277.253 251.367 277.283 252.288C277.364 255.259 277.513 258.23 277.543 261.157C277.587 265.792 277.543 270.426 277.543 275.069L277.884 275.091Z" fill="black"/>
<path d="M308.765 316.144C308.765 309.355 308.765 302.573 308.765 295.784C308.765 293.905 307.971 292.813 306.226 292.175C303.667 291.244 301.455 289.55 299.889 287.321C298.323 285.093 297.478 282.437 297.468 279.712C297.458 276.988 298.284 274.326 299.835 272.086C301.385 269.847 303.585 268.137 306.137 267.188C308.231 266.393 309.032 265.108 309.04 262.939C309.04 259.582 309.262 256.254 309.359 252.867C309.359 251.79 309.485 250.721 310.844 250.639C312.328 250.565 312.462 251.768 312.499 252.867C312.603 256.292 312.736 259.716 312.788 263.14C312.788 265.212 313.679 266.438 315.684 267.181C318.199 268.125 320.37 269.81 321.911 272.013C323.452 274.215 324.291 276.833 324.316 279.522C324.342 282.21 323.554 284.844 322.055 287.076C320.557 289.308 318.418 291.033 315.921 292.026C313.694 292.873 313.041 294.173 313.019 296.431C312.907 309.867 312.662 323.297 312.469 336.733C312.469 337.476 312.506 338.219 311.846 338.768C311.639 338.933 311.39 339.035 311.127 339.064C310.864 339.093 310.599 339.047 310.361 338.932C309.47 338.523 309.441 337.706 309.426 336.874C309.317 330.293 309.198 323.71 309.069 317.124C309.069 316.79 309.069 316.456 309.069 316.121L308.765 316.144Z" fill="black"/>
<path d="M107.786 262.464C101.105 262.464 96.5028 260.362 92.7614 256.396C92.1304 255.727 91.5514 254.977 92.0562 254.071C92.6723 252.979 93.5409 252.838 94.5282 253.759C96.1361 255.387 98.0547 256.675 100.17 257.547C106.851 260.132 112.723 258.29 117.986 253.93C121.542 250.959 125.194 248.322 129.781 247.245C136.811 245.625 143.366 246.903 147.998 252.444C154.62 260.325 164.953 260.072 172.651 253.343C177.313 249.265 182.546 246.695 188.901 246.955C191.358 247.055 193.77 247.649 195.993 248.702C198.216 249.754 200.205 251.244 201.839 253.083C202.582 253.878 203.131 254.761 202.203 255.72C201.275 256.678 200.37 256.039 199.612 255.304C192.887 248.775 183.779 249.525 176.964 255.155C173.252 258.223 169.481 261.097 164.671 262.145C157.649 263.704 151.116 262.405 146.491 256.841C140.048 249.102 129.626 249.317 121.994 256.002C117.555 259.872 112.574 262.434 107.786 262.464Z" fill="black"/>
<path d="M326.47 128.692C326.497 132.324 325.966 135.939 324.896 139.41C322.863 145.948 323.061 152.977 325.46 159.39C325.67 160.132 326.104 160.789 326.704 161.273C327.304 161.756 328.039 162.04 328.808 162.086C335.058 162.904 337.939 167.665 335.815 173.577C335.545 174.265 335.415 175 335.434 175.739C335.453 176.478 335.621 177.205 335.927 177.878C336.498 179.163 337.063 180.463 337.508 181.8C338.041 183.273 338.008 184.892 337.416 186.343C336.823 187.794 335.713 188.973 334.301 189.651C333.074 190.198 331.976 190.999 331.08 192.002C330.185 193.004 329.511 194.185 329.105 195.466C328.603 196.972 327.787 198.354 326.712 199.522C325.638 200.69 324.328 201.616 322.869 202.24C318.883 204.023 314.926 206.043 310.331 204.647C309.498 204.4 308.687 204.088 307.904 203.711C306.89 203.183 305.778 202.873 304.638 202.8C303.498 202.727 302.355 202.893 301.282 203.288C297.289 204.662 294.163 203.191 292.486 199.269C292.114 198.408 291.699 197.554 291.409 196.662C291.148 195.826 290.703 195.058 290.107 194.415C289.511 193.773 288.779 193.272 287.965 192.948C282.769 190.579 281.395 184.585 285.033 180.188C285.611 179.583 285.979 178.807 286.082 177.976C286.185 177.145 286.018 176.303 285.604 175.575C282.808 169.422 278.062 164.362 272.101 161.18C261.827 155.535 255.525 146.912 253.179 135.458C249.007 115.069 263.639 94.6953 284.32 91.9842C306.924 89.0206 326.47 106.045 326.47 128.692Z" fill="black"/>
<path d="M275.56 322.182C274.351 322.177 273.155 321.93 272.042 321.457C270.928 320.984 269.921 320.294 269.077 319.427C268.233 318.56 267.57 317.533 267.127 316.407C266.684 315.281 266.47 314.078 266.497 312.868C266.498 311.638 266.744 310.421 267.221 309.288C267.698 308.155 268.396 307.128 269.274 306.268C270.152 305.408 271.193 304.732 272.335 304.279C273.478 303.826 274.699 303.606 275.928 303.631C277.157 303.656 278.368 303.926 279.491 304.425C280.614 304.925 281.626 305.643 282.469 306.538C283.311 307.434 283.966 308.488 284.396 309.64C284.826 310.792 285.022 312.018 284.973 313.247C284.963 314.459 284.71 315.656 284.227 316.767C283.744 317.879 283.043 318.882 282.164 319.716C281.286 320.55 280.248 321.198 279.113 321.622C277.979 322.046 276.77 322.236 275.56 322.182Z" fill="#FEFEFE"/>
<path d="M301.727 279.659C301.716 278.453 301.943 277.257 302.396 276.139C302.85 275.022 303.52 274.006 304.368 273.149C305.217 272.292 306.227 271.613 307.339 271.149C308.452 270.686 309.645 270.448 310.851 270.449C312.687 270.424 314.489 270.946 316.028 271.95C317.567 272.953 318.772 274.392 319.49 276.084C320.208 277.775 320.407 279.642 320.06 281.447C319.714 283.252 318.839 284.912 317.546 286.218C316.253 287.523 314.601 288.413 312.801 288.776C311 289.138 309.133 288.956 307.436 288.253C305.739 287.549 304.29 286.356 303.274 284.826C302.257 283.295 301.719 281.497 301.727 279.659Z" fill="#FEFEFE"/>
<path d="M322.394 128.684C322.39 131.913 321.902 135.123 320.947 138.207C318.778 145.184 318.869 152.668 321.206 159.591C321.548 160.397 321.609 161.295 321.378 162.14C321.148 162.984 320.64 163.727 319.937 164.248C319.252 164.891 318.468 165.418 317.613 165.808C310.378 168.779 303.121 171.705 295.841 174.587C292.515 175.895 290.407 175.33 288.677 172.188C284.825 165.176 279.086 160.4 272.264 156.375C259.4 148.784 253.803 133.215 258.227 118.783C260.565 111.272 265.519 104.85 272.189 100.685C278.859 96.5195 286.801 94.8881 294.571 96.0871C302.342 97.2861 309.424 101.236 314.53 107.218C319.636 113.2 322.427 120.817 322.394 128.684Z" fill="#FEFEFE"/>
<path d="M287.215 184.548C287.215 183.471 288.388 182.319 290.184 181.577C299.34 177.823 308.495 174.057 317.651 170.279C320.56 169.076 323.468 167.878 326.373 166.684C329.09 165.585 331.265 166.357 332.215 168.742C333.106 170.97 332.044 173.035 329.424 174.119C317.368 179.071 305.308 184.023 293.243 188.975C290.014 190.304 287.178 188.588 287.215 184.548Z" fill="#FEFEFE"/>
<path d="M295.121 194.642C295.083 194.087 295.223 193.533 295.523 193.064C295.822 192.595 296.264 192.234 296.784 192.035L328.897 178.814C330.59 178.115 331.755 178.68 332.468 180.299C332.772 180.968 333.032 181.658 333.299 182.349C334.116 184.466 333.759 185.499 331.696 186.345C321.125 190.718 310.542 195.073 299.946 199.411C298.224 200.153 297.088 199.574 296.398 197.925C295.908 196.759 295.448 195.563 295.121 194.642Z" fill="#FEFEFE"/>
<path d="M311.088 119.459C310.509 121.026 309.908 122.66 309.299 124.295C308.691 125.929 308.089 127.555 307.451 129.175C306.879 130.66 305.907 131.083 304.415 130.437C302.693 129.694 300.926 129.078 299.219 128.32C297.682 127.644 296.702 127.942 296.101 129.605C295.5 131.269 294.705 132.955 293.963 134.589C293.221 136.223 292.233 136.706 290.578 135.978C288.922 135.25 287.074 134.649 285.382 133.869C283.897 133.2 283.103 133.698 282.538 135.042C281.796 136.84 281.054 138.622 280.274 140.413C280.19 140.725 280.033 141.012 279.817 141.253C279.601 141.493 279.331 141.679 279.03 141.796C278.729 141.913 278.405 141.958 278.083 141.926C277.761 141.895 277.452 141.789 277.179 141.616C274.38 140.338 271.604 139.001 268.798 137.724C267.796 137.263 266.957 136.706 267.447 135.495C267.937 134.285 268.931 134.389 269.978 134.753C271.671 135.377 273.43 135.837 275.1 136.528C276.644 137.167 277.461 136.691 278.07 135.213C278.775 133.408 279.621 131.655 280.378 129.865C280.994 128.38 282.004 128.008 283.444 128.603C285.181 129.345 286.948 129.947 288.64 130.734C290.333 131.522 291.142 130.965 291.751 129.405C292.404 127.726 293.161 126.085 293.866 124.421C294.572 122.757 295.589 122.334 297.237 123.076C299.011 123.864 300.859 124.48 302.633 125.26C303.955 125.839 304.771 125.505 305.365 124.213C306.211 122.386 307.132 120.603 308.045 118.813C308.183 118.426 308.467 118.109 308.836 117.93C309.206 117.751 309.631 117.724 310.019 117.855C310.353 117.961 310.641 118.178 310.835 118.47C311.029 118.761 311.118 119.11 311.088 119.459Z" fill="black"/>
</g>
<defs>
<clipPath id="clip0">
<rect width="460" height="440" fill="white"/>
</clipPath>
</defs>
</svg>
