<svg width="155" height="31" viewBox="0 0 155 31" fill="none" xmlns="http://www.w3.org/2000/svg">
<path opacity="0.5" fill-rule="evenodd" clip-rule="evenodd" d="M15.0461 19.6455C15.0461 14.1561 17.6015 10.0283 22.9551 10.0283C25.8753 10.0283 27.659 11.5552 28.5107 13.4525V10.4405H34.1097V30.0848H28.5107V27.1161C27.6996 29.0134 25.8753 30.4983 22.9551 30.4983C17.6015 30.4983 15.0474 26.373 15.0474 20.8836V19.6455H15.0461ZM52.6405 21.0071V19.2727C52.6405 13.7019 55.7629 10.0283 62.1322 10.0283C68.1329 10.0283 70.7683 13.7438 70.7683 19.19V22.3266H58.481C58.6017 25.0115 59.7777 26.2063 63.0234 26.2063C65.2126 26.2063 67.5264 25.7521 69.2288 25.0102L70.2827 29.0948C68.7431 29.9219 65.5788 30.5391 62.7793 30.5391C55.3993 30.5391 52.6405 26.7853 52.6405 21.0071ZM92.4266 20.8798C92.4266 26.3705 89.8319 30.4983 84.477 30.4983C81.5581 30.4983 79.529 29.0108 78.7179 27.1136V30.0848H73.2029V0.57388L79.0434 0.0394463V13.1636C79.8952 11.4305 81.7589 10.0283 84.477 10.0283C89.8319 10.0283 92.4266 14.1536 92.4266 19.643V20.8811V20.8798ZM94.3718 20.7577V19.7677C94.3718 14.1141 97.5335 10.0283 103.983 10.0283C110.431 10.0283 113.595 14.1141 113.595 19.7677V20.7577C113.595 26.4137 110.431 30.4983 103.984 30.4983C97.5335 30.4983 94.373 26.4137 94.373 20.7577H94.3718ZM115.541 20.7577V19.7677C115.541 14.1141 118.704 10.0283 125.153 10.0283C131.601 10.0283 134.764 14.1141 134.764 19.7677V20.7577C134.764 26.4137 131.601 30.4983 125.153 30.4983C118.704 30.4983 115.542 26.4137 115.542 20.7577H115.541ZM12.1284 4.787C10.3041 4.787 9.77522 5.61283 9.77522 7.42735V10.4405H14.6431L14.1562 15.3115H9.77395V30.0873H3.93348V15.3115H0V10.4405H3.93348V7.51006C3.93348 2.59964 5.88115 0 11.3148 0C12.492 0 13.8702 0.0814375 14.7219 0.204866V4.78573H12.1272L12.1284 4.787ZM20.8879 20.9651C20.8879 23.8955 21.9431 25.8335 24.6599 25.8335C27.0538 25.8335 28.2705 24.0597 28.2705 21.2552V19.2727C28.2705 16.4656 27.0538 14.6918 24.6599 14.6918C21.9431 14.6918 20.8879 16.6323 20.8879 19.5628V20.9651ZM46.2762 10.0283C48.5456 10.0283 50.6966 10.522 51.8701 11.3478L50.5733 15.5584C49.6809 15.1041 48.2214 14.6498 46.6805 14.6498C43.5162 14.6498 42.1381 16.5076 42.1381 19.6862V20.8404C42.1381 24.019 43.5162 25.8755 46.6805 25.8755C48.2226 25.8755 49.6809 25.4212 50.5733 24.9682L51.8701 29.1775C50.6966 30.0034 48.5456 30.4983 46.2762 30.4983C39.4225 30.4983 36.2976 26.742 36.2976 20.7169V19.8084C36.2976 13.7833 39.4225 10.0283 46.275 10.0283H46.2762ZM58.481 18.4481H65.5381V17.9519C65.5381 15.8065 64.6863 14.1141 62.1309 14.1141C59.4942 14.1141 58.4822 15.8065 58.4822 18.4481H58.481ZM86.5862 19.5196C86.5862 16.7532 85.531 14.6918 82.7341 14.6918C80.3401 14.6918 79.0434 16.4249 79.0434 19.2294V21.2934C79.0434 24.1004 80.3401 25.8335 82.7341 25.8335C85.531 25.8335 86.5862 23.7708 86.5862 21.0045V19.5196ZM107.756 19.3541C107.756 16.7558 106.701 14.6918 103.984 14.6918C101.266 14.6918 100.212 16.7558 100.212 19.3554V21.1699C100.212 23.7708 101.266 25.8335 103.984 25.8335C106.7 25.8335 107.756 23.7708 107.756 21.1699V19.3554V19.3541ZM128.924 19.3541C128.924 16.7558 127.869 14.6918 125.153 14.6918C122.435 14.6918 121.381 16.7558 121.381 19.3554V21.1699C121.381 23.7708 122.435 25.8335 125.153 25.8335C127.87 25.8335 128.925 23.7708 128.925 21.1699V19.3554L128.924 19.3541ZM142.794 19.8084L148.553 10.4405H154.757L148.713 20.1392L155 30.0848H148.796L142.793 20.4701V30.0848H136.952V0.576425L142.793 0.0381738V19.8084H142.794Z" fill="white"/>
</svg>
