<?xml version="1.0" encoding="utf-8"?>
<!-- Generator: Adobe Illustrator 24.1.0, SVG Export Plug-In . SVG Version: 6.00 Build 0)  -->
<svg version="1.1" id="Capa_1" xmlns="http://www.w3.org/2000/svg" xmlns:xlink="http://www.w3.org/1999/xlink" x="0px" y="0px"
	 viewBox="0 0 512 512" style="enable-background:new 0 0 512 512;" xml:space="preserve">
<style type="text/css">
	.st0{fill:#0000FF;}
	.st1{fill:#FFFFFF;}
</style>
<path class="st0" d="M256,512c-25.7,0-44.3-18.8-59.2-34.5c-0.8-0.8-1.5-1.7-2.2-2.5c-1.4-1.6-2.8-3.2-4.3-4.7
	c-10.5-10.7-25-16.6-40-16.8c-2.5,0-4.9,0.1-7.4,0.2c-1.4,0.1-2.9,0.2-4.3,0.2c-22.2,0-46.8,0.3-64.2-17
	c-17.6-17.5-17-42.3-16.5-64.6c0-1.1,0.1-2.3,0.2-3.4c0.2-2.6,0.3-5.2,0.3-7.8c-0.1-15-6-29.5-16.8-40.1c-1.5-1.5-3.1-3-4.8-4.4
	c-0.8-0.7-1.6-1.4-2.3-2.1C19.2,300.3,0,281.7,0,256c0-25.5,18.9-44.1,34.1-58.9c1-1,2-1.9,3-2.8c1.5-1.3,3-2.6,4.4-4
	c10.7-10.5,16.7-25,16.8-40.1c0-2.4-0.1-4.8-0.2-7.2c-0.1-1.5-0.2-3-0.2-4.4c0-22.1-0.3-46.7,17-64c17.4-17.4,42.3-17.5,64.6-17.1
	c1.2,0,2.3,0.1,3.5,0.2c2.6,0.2,5.1,0.3,7.7,0.3c15-0.1,29.5-6,40.1-16.7c1.4-1.5,2.8-2.9,4.1-4.5c0.8-1,1.7-1.9,2.6-2.8
	C211.9,19,230.4,0,256,0c25.6,0,44.1,19,59,34.3c0.9,0.9,1.8,1.9,2.6,2.9c1.3,1.5,2.7,3,4.1,4.5c10.5,10.7,25,16.7,40.1,16.8
	c2.4,0,4.8-0.1,7.3-0.2c1.5-0.1,3-0.2,4.4-0.2c22.2,0,46.7-0.3,64.1,17c17.6,17.5,17.5,42.3,17.1,64.5c0,1.2-0.1,2.3-0.2,3.4
	c-0.2,2.6-0.3,5.2-0.3,7.7c0.1,15,6,29.5,16.8,40.1c1.4,1.4,2.9,2.7,4.4,4c1,0.9,2,1.8,3,2.7C493.1,212,512,230.5,512,256
	c0,25.5-18.9,44.1-34.1,58.9c-1,1-2,1.9-3,2.8c-1.5,1.3-3,2.6-4.4,4c-10.7,10.5-16.7,25-16.8,40.1c0,2.4,0.1,4.8,0.2,7.3
	c0.1,1.5,0.2,3,0.2,4.4c0,22.1,0.3,46.7-17,64c-17.4,17.4-42.3,17.5-64.6,17.1c-1.2,0-2.3-0.1-3.5-0.2c-2.6-0.2-5.1-0.3-7.7-0.3
	c-15,0.1-29.5,6-40.1,16.7c-1.4,1.5-2.8,3-4.1,4.5c-0.8,1-1.7,1.9-2.6,2.8C300.1,493,281.6,512,256,512z"/>
<path class="st1" d="M229.1,349.6c-6.3,0-12.4-2.1-17.4-6.1l-67.3-53.8c-12-9.6-13.9-27.1-4.3-39c9.6-12,27.1-13.9,39-4.3l47.9,38.4
	l103.5-103.5c10.8-10.8,28.5-10.8,39.3,0c10.8,10.8,10.8,28.5,0,39.3L248.7,341.7C243.5,346.8,236.4,349.7,229.1,349.6z"/>
</svg>
