<?xml version="1.0" encoding="UTF-8"?>
<svg width="1328px" height="992px" viewBox="0 0 1328 992" version="1.1" xmlns="http://www.w3.org/2000/svg" xmlns:xlink="http://www.w3.org/1999/xlink">
    <!-- Generator: Sketch 64 (93537) - https://sketch.com -->
    <title>home-bg-1</title>
    <defs>
        <linearGradient x1="50%" y1="0%" x2="50%" y2="100%" id="linearGradient-1">
            <stop stop-color="#2A24FB" offset="0%"></stop>
            <stop stop-color="#832EFB" offset="100%"></stop>
        </linearGradient>
    </defs>
    <g id="Page-1" stroke="none" stroke-width="1" fill="none" fill-rule="evenodd">
        <g id="home-bg-1" transform="translate(-102.000000, -161.000000)">
            <g id="Path-2" transform="translate(775.476894, 581.479892) rotate(7.000000) translate(-775.476894, -581.479892) translate(55.976894, 83.979892)">
                <g id="path-2-link" fill="#00000000" fill-rule="nonzero">
                    <path d="M0.63236,162.128225 C25.596957,256.717543 123.079255,325.592785 293.079255,368.753953 C548.07926,433.495704 458.58956,660.985887 770.10893,715.568134 C1081.6283,770.150381 1037.82575,1050.79659 1438.6733,984.001237 C1422.83029,854.970237 1382.57278,527.099158 1317.90078,0.3880004 L0.63236,162.128225 Z" id="path-2"></path>
                </g>
                <g id="path-2-link" fill="url(#linearGradient-1)">
                    <path d="M0.63236,162.128225 C25.596957,256.717543 123.079255,325.592785 293.079255,368.753953 C548.07926,433.495704 458.58956,660.985887 770.10893,715.568134 C1081.6283,770.150381 1037.82575,1050.79659 1438.6733,984.001237 C1422.83029,854.970237 1382.57278,527.099158 1317.90078,0.3880004 L0.63236,162.128225 Z" id="path-2"></path>
                </g>
            </g>
        </g>
    </g>
</svg>