<svg xmlns="http://www.w3.org/2000/svg" xmlns:xlink="http://www.w3.org/1999/xlink" width="660.397" height="453.207" viewBox="0 0 660.397 453.207"><defs><clipPath id="a"><rect width="660.397" height="453.207" fill="none"/></clipPath><linearGradient id="b" x1="0.706" y1="0.343" x2="0.706" y2="1.343" gradientUnits="objectBoundingBox"><stop offset="0" stop-color="gray" stop-opacity="0.251"/><stop offset="0.535" stop-color="gray" stop-opacity="0.122"/><stop offset="1" stop-color="gray" stop-opacity="0.102"/></linearGradient><linearGradient id="c" x1="0.6" y1="-0.39" x2="0.6" y2="0.61" xlink:href="#b"/></defs><g clip-path="url(#a)"><g transform="translate(0 0.001)"><path d="M629.272,256.837c-22.115,28.117-13.524,69.192.529,102.089,4.705,11.014,10.027,22.667,8.042,34.478-2.427,14.443-15.318,25-28.852,30.6a85.874,85.874,0,0,1-76.866-6.331c-19.592-12.188-33.622-32.007-53.547-43.64-33.345-19.468-75.789-12.116-112,1.294-25.617,9.487-53.624,21.825-79.078,11.911-17.911-6.976-30.292-23.957-37.038-41.956-3.257-8.69-5.621-18.1-11.84-24.985-3.7-4.1-8.523-7-13.467-9.453-45.138-22.38-102.147-10.395-145.99-35.218-29.61-16.765-48.565-48.388-56.958-81.363s-7.416-67.551-5.285-101.511c1.514-24.133,4.231-49.9,19.652-68.524C52.887,4.525,80.883-2.8,106.187.943s48.241,17.094,68.419,32.815c25.219,19.649,48.606,44.116,79.569,52.075,21.086,5.42,43.268,2.456,65.015,1.429,36.356-1.716,72.728,2.1,108.884,6.281,34.614,4,69.477,8.405,102.451,19.665,23.335,7.969,42.043,22.433,64.078,32.538,14.363,6.587,30.025,8.406,43.623,16.795,16.752,10.335,32.109,28.31,27.817,49.344C661.963,231.884,641.01,241.914,629.272,256.837Z" transform="translate(-6.375)" fill="#39ac5b" opacity="0.433" style="isolation:isolate"/><path d="M342.62-10268.108a87.338,87.338,0,0,1-15.921-2.6l15.921,2.6Zm-263.034-39.14h-.009a60.19,60.19,0,0,1-10.287-.859,52.779,52.779,0,0,1-10.092-2.8,50.97,50.97,0,0,1-9.623-5.008l44.53,7.265A80.368,80.368,0,0,1,79.586-10307.248Zm-150.805-96.132h0l-2.738-.312h-.01c-12.906-1.472-26.252-2.993-38.923-5.719a151.7,151.7,0,0,1-18.621-5.168,108.526,108.526,0,0,1-17.624-7.94,101.261,101.261,0,0,1-20.211-15.148,119.2,119.2,0,0,1-16.225-19.455,141.829,141.829,0,0,1-12.247-22.494,159.925,159.925,0,0,1-8.277-24.268c-3.837-15.076-5.992-31.558-6.589-50.386-.562-17.771.343-35.815,1.3-51.124,1.539-24.52,4.324-50.008,19.653-68.525a60.52,60.52,0,0,1,11.574-10.705,68.837,68.837,0,0,1,13.833-7.56,79.285,79.285,0,0,1,15.314-4.484,86.929,86.929,0,0,1,16.019-1.479,88.089,88.089,0,0,1,12.873.944,108.033,108.033,0,0,1,18.528,4.5,133.7,133.7,0,0,1,17.6,7.42,197.681,197.681,0,0,1,32.286,20.9c5.5,4.286,10.993,8.865,16.3,13.294,9.58,7.988,19.485,16.248,29.845,23.139a131.606,131.606,0,0,0,16.053,9.238,93.819,93.819,0,0,0,17.37,6.405c8.4,2.158,17.509,3.164,28.68,3.164,8.015,0,16.2-.521,24.107-1.024l.18-.012c3.954-.251,8.043-.511,12.046-.7,5.915-.28,12.1-.422,18.373-.422,30.041,0,59.956,3.17,90.512,6.7,4.274.494,9.9,1.149,15.486,1.837L-71.219-10403.38Z" transform="translate(221.926 10698.148)" fill="#fff" opacity="0.66"/><path d="M665.767,145.6s-35.549-10.528-37.9,19.418,9.4,79.27,0,95.125-42.919,38.76-25.276,40.813,26.451,4.988,21.166,15.558-32.883,20.552-27.011,28.185,8.808,17.028,2.936,26.423-26.423,15.267-22.9,21.726,16.441,9.982,9.982,17.028-25.183,23.074-17.876,22.987" transform="translate(-234.157 -59.364)" fill="none" stroke="#535461" stroke-miterlimit="10" stroke-width="3"/><rect width="90.199" height="41.832" rx="12.97" transform="translate(400.957 66.282)" fill="#63ff91"/><rect width="75.82" height="0.784" transform="translate(408.147 101.694)" opacity="0.1" style="isolation:isolate"/><rect width="75.82" height="28.759" transform="translate(408.147 72.818)" opacity="0.3" style="isolation:isolate"/><circle cx="10.458" cy="10.458" r="10.458" transform="translate(415.337 77.34)" opacity="0.1" style="isolation:isolate"/><circle cx="10.458" cy="10.458" r="10.458" transform="translate(455.861 77.34)" opacity="0.1" style="isolation:isolate"/><rect width="15.686" height="9.153" transform="translate(438.213 108.113)" fill="#63ff91"/><rect width="65.362" height="52.289" transform="translate(413.376 114.65)" fill="#63ff91"/><rect width="67.976" height="6.536" transform="translate(412.069 177.397)" fill="#63ff91"/><path d="M720.689,333.527v30.066h11.765V324.376H720.689Z" transform="translate(-297.509 -133.906)" fill="#63ff91"/><path d="M780.8,324.376v39.217h11.765V324.376Z" transform="translate(-322.322 -133.906)" fill="#63ff91"/><path d="M668.373,215.29v12.091a17.681,17.681,0,0,0-8.691,4.189,20.569,20.569,0,0,0-5.174,7.587,38.553,38.553,0,0,0-2.548,11.581,66.243,66.243,0,0,0,.723,15.536H639.612a89.242,89.242,0,0,1,.342-18.75,49.77,49.77,0,0,1,4.2-14.861,30.181,30.181,0,0,1,13.906-14.594A25.679,25.679,0,0,1,668.373,215.29Z" transform="translate(-263.9 -88.874)" fill="#63ff91"/><rect width="11.765" height="9.151" transform="translate(423.18 190.47)" opacity="0.3" style="isolation:isolate"/><rect width="11.765" height="11.765" transform="translate(423.18 207.464)" opacity="0.3" style="isolation:isolate"/><rect width="11.765" height="3.922" transform="translate(423.18 225.765)" opacity="0.3" style="isolation:isolate"/><rect width="11.765" height="9.151" transform="translate(458.475 190.47)" opacity="0.3" style="isolation:isolate"/><rect width="11.765" height="11.765" transform="translate(458.475 207.464)" opacity="0.3" style="isolation:isolate"/><rect width="11.765" height="3.922" transform="translate(458.475 225.765)" opacity="0.3" style="isolation:isolate"/><path d="M681.576,215.29v12.091a17.682,17.682,0,0,0-8.691,4.189l-1.627-13.5A25.682,25.682,0,0,1,681.576,215.29Z" transform="translate(-277.103 -88.874)" opacity="0.3" style="isolation:isolate"/><path d="M654.986,251.37a38.552,38.552,0,0,0-2.548,11.581l-12.007-3.214a49.769,49.769,0,0,1,4.2-14.861Z" transform="translate(-264.377 -101.088)" opacity="0.3" style="isolation:isolate"/><path d="M830.466,215.29v12.091a17.681,17.681,0,0,1,8.691,4.189,20.57,20.57,0,0,1,5.174,7.587,38.536,38.536,0,0,1,2.548,11.581,66.21,66.21,0,0,1-.723,15.536h13.072a89.238,89.238,0,0,0-.342-18.75,49.753,49.753,0,0,0-4.2-14.861,30.179,30.179,0,0,0-13.906-14.594A25.679,25.679,0,0,0,830.466,215.29Z" transform="translate(-342.826 -88.874)" fill="#63ff91"/><path d="M830.466,215.29v12.091a17.681,17.681,0,0,1,8.691,4.189l1.627-13.5A25.679,25.679,0,0,0,830.466,215.29Z" transform="translate(-342.826 -88.874)" opacity="0.3" style="isolation:isolate"/><path d="M854.078,251.37a38.539,38.539,0,0,1,2.548,11.581l12.007-3.214a49.753,49.753,0,0,0-4.2-14.861Z" transform="translate(-352.573 -101.088)" opacity="0.3" style="isolation:isolate"/><rect width="15.686" height="1.083" transform="translate(438.213 108.113)" opacity="0.1" style="isolation:isolate"/><path d="M816.428,211.119v21.892a4.561,4.561,0,0,1-1.215-3.1V214.219A4.555,4.555,0,0,1,816.428,211.119Z" transform="translate(-336.529 -87.153)" opacity="0.1" style="isolation:isolate"/><path d="M703.53,211.628v16.388a4.555,4.555,0,0,1-1.218,2.773V208.855A4.558,4.558,0,0,1,703.53,211.628Z" transform="translate(-289.922 -86.218)" opacity="0.1" style="isolation:isolate"/><rect width="58.825" height="0.774" transform="translate(416.645 166.94)" opacity="0.1" style="isolation:isolate"/><rect width="28.758" height="0.6" transform="translate(415.336 183.935)" opacity="0.1" style="isolation:isolate"/><rect width="28.758" height="0.6" transform="translate(446.711 183.935)" opacity="0.1" style="isolation:isolate"/><rect width="4.501" height="38.712" transform="translate(418.544 27.57)" fill="#63ff91"/><rect width="4.501" height="38.712" transform="translate(470.161 27.57)" fill="#63ff91"/><circle cx="5.102" cy="5.102" r="5.102" transform="translate(415.544 22.768)" opacity="0.1" style="isolation:isolate"/><circle cx="5.102" cy="5.102" r="5.102" transform="translate(415.544 22.468)" fill="#63ff91"/><circle cx="5.102" cy="5.102" r="5.102" transform="translate(467.46 22.768)" opacity="0.1" style="isolation:isolate"/><circle cx="5.102" cy="5.102" r="5.102" transform="translate(467.46 22.468)" fill="#63ff91"/><path d="M596.82,424.408c-2.007,2.009-2.464,4.769-3.178,7.328a36.111,36.111,0,0,1-13.51,19c-4.894,3.627-11.454,7.641-10.293,13.051.277,1.293,1.009,2.5,1.2,3.8.833,5.643-7.793,8.616-11.133,13.554-2.487,3.679-1.823,8.236-1.083,12.425.9,5.129,2,10.6,6.207,14.376a17.7,17.7,0,0,1,3.281,3.131c1.775,2.753.233,6.36,1.846,9.183,2.151,3.764,8.927,3.928,12.859,1.39s5.749-6.711,7.492-10.623c4.709-10.574,10.5-21.182,20.287-28.882,9.384-7.383,23.036-13.11,24.646-23.856.69-4.607-1.059-9.657,1.613-13.716,1.262-1.918,3.373-3.34,4.8-5.173,4.258-5.461,1.088-13.36-5.146-17.239C627.3,416.3,605.007,416.209,596.82,424.408Z" transform="translate(-230.411 -172.548)" fill="#dee3f3" opacity="0.5" style="isolation:isolate"/><rect width="43.452" height="5.285" transform="translate(489.918 68.506) rotate(-17.351)" fill="#63ff91"/><path d="M873.665,413.242s-22.738-4.548-28.8-10.611-33.349-16.675-36.381-9.1-40.929,33.349-15.159,37.9,60.635,6.063,68.214,3.032S873.665,413.242,873.665,413.242Z" transform="translate(-323.807 -161.37)" fill="#a8a8a8"/><path d="M793.327,444.208c25.77,4.548,60.635,6.064,68.214,3.032,5.772-2.309,9.783-13.4,11.369-18.564.48.1.758.158.758.158s-4.548,18.191-12.127,21.222-42.444,1.516-68.214-3.032c-7.439-1.313-9.566-4.4-8.765-8.3C785.2,441.273,787.791,443.231,793.327,444.208Z" transform="translate(-323.811 -176.963)" opacity="0.2" style="isolation:isolate"/><path d="M947.1,83.251a6.682,6.682,0,0,0-1.882-2.608c-6.1-5.561-15.97-3.875-23.545-7.272-1.745-.783-3.535-1.868-5.43-1.571-2.646.415-5.107,3.428-7.414,2.092l.166.5c-.055-.027-.11-.055-.166-.086q.849,2.584,1.7,5.168a18.76,18.76,0,0,0,2.605,5.678,14.867,14.867,0,0,0,3.6,24.728q.12.26.237.522c.072.032.146.06.218.092a17.327,17.327,0,0,1,1.12,3.6c-1.964.271-5.386,2.443-8.754,5.649l-6.733-.23a22.016,22.016,0,0,1-12.1-4.113l-20.134-14.475a6.74,6.74,0,0,0-3.858,1.705c-2.5-2.6-4.622-5.326-4.441-6.921,0,0-9.363-17.524-12.768-8.762s6.385,17.942,6.385,17.942l6.21,8.044a33.867,33.867,0,0,0-.464,4.264c7.661,8.762,34.474,16.69,34.474,16.69l4.181.2c.009.077.016.141.023.206a14.243,14.243,0,0,0-.374,3.348c0,.161.005.331.008.5,0,.111-.01.223-.008.334.213,13.977,2.128,56.745,2.128,56.745.373-.166.757-.318,1.149-.461l-.3,3.8s-17.875,2.5-31.069,7.51-13.619,10.849-13.619,10.849v51.543c-3.77,1.934-9.716,4.476-12.768,3.116-3.314-1.477-5.133-.236-5.461,1.059h0a1.645,1.645,0,0,0-.015.778l0,.016a1.417,1.417,0,0,0,.127.331l.013.024a1.332,1.332,0,0,0,.225.3c1.277,1.252,28.941,12.1,35.325,10.431a4.439,4.439,0,0,0,.578-.195c.062-.025.116-.059.175-.087.118-.056.237-.11.348-.175.066-.039.124-.086.188-.129.1-.064.193-.126.282-.2.062-.049.118-.106.177-.159.082-.073.165-.145.242-.224.056-.058.106-.122.159-.183.072-.083.146-.164.213-.254.049-.063.092-.133.137-.2.064-.093.13-.186.189-.285.04-.068.077-.14.115-.211.058-.105.115-.209.167-.319.033-.07.063-.144.1-.216.05-.116.1-.232.147-.353.027-.07.051-.144.076-.216.045-.128.088-.256.128-.388.02-.069.038-.139.057-.208.039-.141.077-.282.11-.427.015-.064.028-.13.041-.194.033-.154.065-.309.092-.466.01-.058.019-.117.028-.176.027-.168.052-.336.073-.507.006-.049.012-.1.017-.147q.033-.275.056-.552l.009-.116c.015-.2.028-.4.037-.594,0-.027,0-.053,0-.08q.013-.319.018-.638v-.04a34.933,34.933,0,0,0-.821-7.4h0l1.544-43.912a239.472,239.472,0,0,0,25.045-.922l.916,20.95s0,13.769,4.682,20.028c4.006,5.356,8.636,29.045,9.888,35.766-1.721,3.279-5.01,7.335-10.739,7.21,0,0-10.78-.932-10.171,2.033v0a1.5,1.5,0,0,0,.067.227l.007.019a2.123,2.123,0,0,0,.117.248l.01.016c.043.077.093.156.149.237.011.016.022.033.035.049.062.087.131.177.21.27l.019.022c.072.083.152.17.237.258l.072.073c.1.1.2.2.31.3,5.533,5.007,37.878,5.841,37.878,5.841v-.113c0-.032,0-.072,0-.116v-.017c-.019-1.448-.211-9.052-2.148-14.774h.448s-4.682-42.142-8.512-47.149c0,0-1.018-22.221,1.279-36.147.141-.051.284-.1.423-.153,10.73-4.007,11.491-13.876,10.386-21.126,2.03.652,3.234,1.1,3.234,1.1s-.037-.315-.106-.873l.106.039s-.2-1.325-.541-3.393c-.767-5.686-2.255-15.622-3.838-20.313-.255-1.031-.5-1.912-.728-2.581a44.092,44.092,0,0,1-1.874-8.667,102.728,102.728,0,0,1-.658-11.494,110.254,110.254,0,0,1,1.177-15.332,92.49,92.49,0,0,0,1.185-13,17.331,17.331,0,0,0-.256-3.663c-.568-2.6-3.076-4.291-5.685-5.367-.168-.069-.34-.126-.51-.19.063-.986.147-2.1.254-3.28a2.8,2.8,0,0,0,2.169.439,5.135,5.135,0,0,0,2.642-2.061c3.772-4.633,7.645-9.462,9.094-15.217a32.887,32.887,0,0,0,.8-7.835q0-.216,0-.433A8.541,8.541,0,0,0,947.1,83.251Z" transform="translate(-346.742 -29.619)" fill="url(#b)"/><path d="M963.933,125.447s5.714,8.572,4.49,12.654,13.471,1.632,13.471,1.632.408-15.92,3.265-19.593S963.933,125.447,963.933,125.447Z" transform="translate(-397.923 -49.231)" fill="#f7c4a7"/><path d="M882.5,122s-11.838-9.8-11.43-13.471c0,0-8.98-17.145-12.246-8.572s6.123,17.553,6.123,17.553l11.43,15.1Z" transform="translate(-354.247 -40.272)" fill="#f7c4a7"/><path d="M864.5,400.919s-11.021,6.939-15.512,4.9-6.123,1.224-4.9,2.449,27.758,11.838,33.881,10.2,3.009-15,3.009-15Z" transform="translate(-348.285 -165.504)" fill="#535461"/><path d="M963.333,450.519s-2.653,11.225-11.838,11.022c0,0-13.879-1.225-8.572,3.673s36.331,5.715,36.331,5.715,0-16.736-5.715-20.41A8.737,8.737,0,0,0,963.333,450.519Z" transform="translate(-388.75 -185.305)" fill="#535461"/><path d="M950.029,312.784l1.225,28.574s0,13.471,4.49,19.594,9.8,36.738,9.8,36.738h15.512s-4.49-41.228-8.164-46.127c0,0-1.632-36.33,4.082-44.494Z" transform="translate(-392.183 -126.762)" fill="#575988"/><path d="M950.029,312.784l1.225,28.574s0,13.471,4.49,19.594,9.8,36.738,9.8,36.738h15.512s-4.49-41.228-8.164-46.127c0,0-1.632-36.33,4.082-44.494Z" transform="translate(-392.183 -126.762)" opacity="0.1" style="isolation:isolate"/><path d="M950.709,271.57s9.389,22.451-7.755,28.982-48.168,5.715-48.168,5.715l-1.633,47.351s-19.186,2.449-19.594-3.674V298.1s.408-5.715,13.063-10.613,29.8-7.348,29.8-7.348l.817-10.613Z" transform="translate(-360.615 -111.265)" fill="#575988"/><path d="M963.789,146.966a19.533,19.533,0,0,1,9.591,1.356c2.5,1.052,4.907,2.706,5.453,5.25.646,3.013-.07,9.77-.892,15.485a106.653,106.653,0,0,0-.5,27.061c.421,3.75,1,7.02,1.8,8.48,2.449,4.49,4.9,25.717,4.9,25.717s-26.941-10.205-40.412-4.082c0,0-1.837-41.841-2.041-55.516-.158-10.588,13.266-22.655,17.757-23.064C962.074,147.414,961.174,147.237,963.789,146.966Z" transform="translate(-388.738 -60.621)" opacity="0.1" style="isolation:isolate"/><path d="M963.789,145.576a19.533,19.533,0,0,1,9.591,1.356c2.5,1.053,4.907,2.707,5.453,5.251.646,3.013-.07,9.77-.892,15.485a106.652,106.652,0,0,0-.5,27.061,43.846,43.846,0,0,0,1.8,8.48c1.837,5.511,4.9,25.717,4.9,25.717s-26.941-10.2-40.412-4.082c0,0-1.837-41.841-2.041-55.515-.158-10.589,13.266-22.656,17.757-23.064C962.074,146.024,961.174,145.847,963.789,145.576Z" transform="translate(-388.738 -60.047)" fill="#e14b5a"/><path d="M971.08,172.987,942.1,171.354s-1.844-14.209,2.339-14.063l28.684,1S979.244,165.639,971.08,172.987Z" transform="translate(-388.741 -64.931)" opacity="0.1" style="isolation:isolate"/><path d="M945.25,158.813l-33.065-1.633s-25.717-7.756-33.064-16.328c0,0,.408-15.1,8.572-15.92L907,139.093a20.849,20.849,0,0,0,11.6,4.023l28.684,1S953.414,151.465,945.25,158.813Z" transform="translate(-362.911 -51.574)" fill="#e14b5a"/><path d="M981.689,127.57c.485-3.871,2.241-5.154,3.47-6.735,2.857-3.674-21.226,5.306-21.226,5.306a43.351,43.351,0,0,1,3.255,6.006,14.637,14.637,0,0,0,6.133,1.341C976.872,133.489,979.149,129.667,981.689,127.57Z" transform="translate(-397.923 -49.518)" opacity="0.1" style="isolation:isolate"/><circle cx="14.695" cy="14.695" r="14.695" transform="translate(560.704 54.173)" fill="#f7c4a7"/><path d="M960.846,90.36a16.257,16.257,0,0,1-3.027-6.2l-1.628-5.056c2.213,1.308,4.572-1.639,7.11-2.046,1.818-.291,3.535.771,5.208,1.537,7.266,3.323,16.732,1.674,22.583,7.114a6.53,6.53,0,0,1,1.805,2.551,8.536,8.536,0,0,1,.328,2.877,32.782,32.782,0,0,1-.765,7.666c-1.389,5.631-5.1,10.355-8.723,14.887a4.939,4.939,0,0,1-2.534,2.017c-2.1.469-3.726-1.8-4.538-3.794a40.344,40.344,0,0,1-2.369-8.192,10.718,10.718,0,0,0-.97-3.462c-1.265-2.242-4.383-4.365-6.278-6.1C965.185,92.454,962.587,92.261,960.846,90.36Z" transform="translate(-394.727 -31.792)" opacity="0.1" style="isolation:isolate"/><path d="M960.846,89.665a16.257,16.257,0,0,1-3.027-6.2l-1.628-5.056c2.213,1.308,4.572-1.639,7.11-2.046,1.818-.291,3.535.771,5.208,1.536,7.266,3.323,16.732,1.674,22.583,7.115A6.53,6.53,0,0,1,992.9,87.57a8.536,8.536,0,0,1,.328,2.877,32.782,32.782,0,0,1-.765,7.666c-1.389,5.631-5.1,10.354-8.723,14.887a4.939,4.939,0,0,1-2.534,2.017c-2.1.469-3.726-1.8-4.538-3.794a40.345,40.345,0,0,1-2.369-8.192,10.725,10.725,0,0,0-.97-3.463c-1.265-2.242-4.383-4.364-6.278-6.1C965.185,91.759,962.587,91.566,960.846,89.665Z" transform="translate(-394.727 -31.505)" fill="#632652"/><ellipse cx="1.225" cy="2.653" rx="1.225" ry="2.653" transform="translate(578.052 67.848)" fill="#f7c4a7"/><path d="M984.4,240.679s-.816,2.45-4.9,2.041-15.92-1.224-15.92,0" transform="translate(-397.779 -99.355)" opacity="0.1" style="isolation:isolate"/><path d="M942.924,474.8a3.459,3.459,0,0,1-1.187-1.7c-.107.53.221,1.218,1.187,2.111,5.307,4.9,36.331,5.715,36.331,5.715s0-.144,0-.408C979.053,480.511,948.214,479.684,942.924,474.8Z" transform="translate(-388.752 -195.3)" fill="#fff" opacity="0.5" style="isolation:isolate"/><path d="M877.963,421.827c-6.123,1.633-32.656-8.98-33.881-10.2a1.324,1.324,0,0,1-.34-.6,1.467,1.467,0,0,0,.34,1.413c1.224,1.224,27.758,11.838,33.881,10.2,3.151-.84,3.854-4.79,3.795-8.426C881.7,417.608,880.88,421.049,877.963,421.827Z" transform="translate(-348.282 -169.676)" fill="#fff" opacity="0.5" style="isolation:isolate"/><path d="M350.228,379.874a175.288,175.288,0,0,1-2.629-24.1h0a32.288,32.288,0,0,0-22.722-29.487c-2.319-.713-4.876-1.38-7.7-1.979-24.738-5.254-32.252-.666-33.106-.063a31.7,31.7,0,0,1-1.873-4.09c-.042-.143-.081-.288-.121-.433a31.668,31.668,0,0,0,8.461-19.08c4.126-4.184,6.537-9.232,6.537-14.667a20.149,20.149,0,0,0-4.909-12.859v-7.376a32.122,32.122,0,0,0-32.122-32.123h-2.6a32.123,32.123,0,0,0-32.123,32.123h0V273.7a19.944,19.944,0,0,0-4.441,12.273c0,5.321,2.312,10.269,6.281,14.4a31.675,31.675,0,0,0,8.815,19.7c.174,1.206.352,2.5.528,3.874l-44.258,9.36s-17.063.7-28.049,23.374c-9.3,19.195-27.813,68.54-33.275,83.23h0c-.99,2.662-1.552,4.188-1.552,4.188s.181-.183.529-.5c-.344.929-.529,1.431-.529,1.431s.269-.271.779-.718c-.775,6.148-.886,16.7,7.168,18.015,6.751,1.1,24.141,1.555,37.282,1.74v.013h.911c8.708.117,15.334.117,15.334.117v-.117h141.3v-1.448a9.752,9.752,0,0,0-.779-3.827q.1-.118.2-.237a7.755,7.755,0,0,1,1.466,3.4,3.363,3.363,0,0,1-.066.359l.083-.216a3.651,3.651,0,0,1-.083,1.151s18.128-46.71,17.935-74.6A47.23,47.23,0,0,0,350.228,379.874Zm-113-49.624a32.545,32.545,0,0,1-.449-4.028v-.037C236.939,327.5,237.09,328.855,237.23,330.249ZM182.313,430.578V441.71l-6.978,1.49Z" transform="translate(-53.406 -96.438)" fill="url(#c)"/><path d="M325.883,241.263h0A32.122,32.122,0,0,1,358,273.386v13.7H293.76v-13.7A32.123,32.123,0,0,1,325.883,241.263Z" transform="translate(-121.267 -99.596)" fill="#e14b5a"/><ellipse cx="36.615" cy="25.159" rx="36.615" ry="25.159" transform="translate(168.225 166.826)" fill="#e14b5a"/><path d="M308.02,362.935s7.638,39.985,0,50.767,23.362,15.05,23.362,15.05l32.122-11.68L368,388.319s-19.543-11.007-15.5-33.246Z" transform="translate(-126.654 -146.578)" fill="#f7c4a7"/><path d="M448.516,589.626s2.022,8.76-8.985,10.333a62.243,62.243,0,0,1-19.586-.233l-2.427-22.005h25.608Z" transform="translate(-172.356 -238.49)" fill="#f7c4a7"/><path d="M138.51,570.043s-4.861,19.749,6.146,21.546,51.441,1.8,51.441,1.8V570.024l-18.3,3.909L160.6,557.445Z" transform="translate(-56.737 -230.12)" fill="#f7c4a7"/><path d="M240.165,389.091l-43.017,9.1s-16.4.674-26.956,22.464-33.47,84.012-33.47,84.012,19.543-19.768,42.455,1.348l15.275-27.63-3.369,43.8H309.463V501.52s24.71,13.253,22.913,20.666c0,0,21.144-54.48,16.6-79.24a168.383,168.383,0,0,1-2.527-23.165h0a31.03,31.03,0,0,0-21.837-28.339c-2.228-.686-4.686-1.326-7.4-1.9-25.383-5.391-31.9,0-31.9,0s-4.917,16-4.83,23.249c.112,9.322-13.253,15.5-13.253,15.5s-19.768-4.717-20.666-8.536S238.592,393.584,240.165,389.091Z" transform="translate(-56.44 -159.818)" opacity="0.1" style="isolation:isolate"/><path d="M240.165,387.561l-43.017,9.1s-16.4.674-26.956,22.463-33.47,84.012-33.47,84.012,19.543-19.768,42.455,1.348l15.275-27.63-3.369,43.8H309.463V499.989s24.71,13.253,22.913,20.666c0,0,21.144-54.48,16.6-79.24a168.373,168.373,0,0,1-2.527-23.165h0a31.031,31.031,0,0,0-21.837-28.338c-2.228-.686-4.686-1.326-7.4-1.9-25.383-5.392-31.9,0-31.9,0s-4.917,16-4.83,23.249c.112,9.322-13.253,15.5-13.253,15.5s-19.768-4.717-20.666-8.536S238.592,392.054,240.165,387.561Z" transform="translate(-56.44 -159.186)" fill="#575988"/><path d="M355.668,374.466a30.41,30.41,0,0,1-1.172-15.95l-44.477,7.862s.642,3.361,1.368,8.4a30.544,30.544,0,0,0,43.189.8q.56-.539,1.092-1.107Z" transform="translate(-127.979 -148)" opacity="0.1" style="isolation:isolate"/><path d="M357.729,325.18a30.55,30.55,0,0,1-61.09.742c-.007-.247-.009-.494-.009-.742a30.556,30.556,0,0,1,17.126-27.452q1.374-.67,2.823-1.208a30.763,30.763,0,0,1,15.736-1.46.019.019,0,0,0,.011,0,30.526,30.526,0,0,1,25.337,28.095Q357.729,324.16,357.729,325.18Z" transform="translate(-122.452 -121.627)" fill="#f7c4a7"/><g transform="translate(174.178 174.124)" opacity="0.1"><path d="M316.537,299.049a.386.386,0,0,1,.042-.027,30.539,30.539,0,0,0-19.949,28.661c0,.247,0,.494.009.741a6.777,6.777,0,0,0,2.74-.658c7.448-3.476,11.917-14.111,13.671-21.529C313.679,303.582,314.281,300.59,316.537,299.049Z" transform="translate(-296.63 -297.564)"/><path d="M351.961,298.882a30.291,30.291,0,0,0-7.595-2.343,9.8,9.8,0,0,1,5.454,3.426,13.969,13.969,0,0,1,1.669,2.976,30.631,30.631,0,0,0-25.694.533c1.918,4.2,7.864,6.5,11.833,8.03q6.52,2.517,13.193,4.6-1.964-1.6-3.929-3.19l8.871,1.411a15.367,15.367,0,0,0-.619-5.23c1.688,1.37,3.952,1.829,5.8,2.992,3.457,2.179,4.895,6.385,6.78,10.01a6.457,6.457,0,0,0,1.981,2.534A30.564,30.564,0,0,0,351.961,298.882Z" transform="translate(-308.67 -296.539)"/></g><path d="M316.537,297.874a.405.405,0,0,1,.042-.027,30.541,30.541,0,0,0-19.949,28.661c0,.247,0,.494.009.742a6.788,6.788,0,0,0,2.74-.658c7.448-3.475,11.917-14.111,13.671-21.529C313.679,302.407,314.281,299.415,316.537,297.874Z" transform="translate(-122.452 -122.955)" fill="#632652"/><path d="M351.961,297.707a30.315,30.315,0,0,0-7.595-2.343,9.8,9.8,0,0,1,5.454,3.426,13.983,13.983,0,0,1,1.669,2.976,30.631,30.631,0,0,0-25.694.533c1.918,4.2,7.864,6.5,11.833,8.03q6.52,2.517,13.193,4.6-1.964-1.6-3.929-3.19l8.871,1.411a15.367,15.367,0,0,0-.619-5.229c1.688,1.37,3.952,1.828,5.8,2.992,3.457,2.178,4.895,6.384,6.78,10.009a6.457,6.457,0,0,0,1.981,2.534A30.564,30.564,0,0,0,351.961,297.707Z" transform="translate(-134.492 -121.93)" fill="#632652"/><path d="M290.7,317.642s31.449-39.086,67.839,0l-3.144-8.761s-17.072-24.934-29.2-19.543-24.036,9.21-24.036,9.21Z" transform="translate(-120.004 -119.127)" opacity="0.1" style="isolation:isolate"/><path d="M290.7,316.467s31.449-39.086,67.839,0l-3.144-8.761s-17.072-24.934-29.2-19.543-24.036,9.21-24.036,9.21Z" transform="translate(-120.004 -118.642)" fill="#e14b5a"/><path d="M242.758,480.36s-6.739,17.971,2.7,34.144-8.312,22.913-8.312,22.913" transform="translate(-97.895 -198.298)" opacity="0.1" style="isolation:isolate"/><path d="M430.414,452.816s11.681,14.826,4.043,28.079-7.188,45.151-7.188,45.151" transform="translate(-176.379 -186.928)" opacity="0.1" style="isolation:isolate"/><path d="M221.529,600.1H351.365a10.782,10.782,0,0,1,10.783,10.782h-151.4A10.782,10.782,0,0,1,221.529,600.1Z" transform="translate(-86.998 -247.728)" fill="#535461"/><path d="M246.27,473.857h90.776a22.9,22.9,0,0,1,22.9,22.9v53.7H223.37v-53.7a22.9,22.9,0,0,1,22.9-22.9Z" transform="translate(-92.21 -195.614)" fill="#535461"/><circle cx="8.087" cy="8.087" r="8.087" transform="translate(191.249 311.826)" fill="#fff"/><path d="M293.76,297.1S324.67,266.2,358,296.532" transform="translate(-121.267 -116.907)" fill="none" stroke="#000" stroke-miterlimit="10" stroke-width="1" opacity="0.1" style="isolation:isolate"/><rect width="3.104" height="17.591" transform="translate(241.444 178.221)" fill="#6a5c99"/><path d="M404.137,322.9h0a10.693,10.693,0,0,1,10.693,10.693h0v.69a10.693,10.693,0,0,1-10.693,10.693h0V322.9Z" transform="translate(-166.832 -133.297)" fill="#ffd037"/><path d="M403.028,321.138h0a2.414,2.414,0,0,1,2.415,2.414v19.316a2.415,2.415,0,0,1-2.415,2.415h0a2.415,2.415,0,0,1-2.414-2.415V323.552A2.414,2.414,0,0,1,403.028,321.138Z" transform="translate(-165.378 -132.57)" fill="#6a5c99"/><rect width="3.104" height="17.591" transform="translate(164.365 178.566)" fill="#6a5c99"/><path d="M284.738,345.563h0a10.693,10.693,0,0,1-10.693-10.693h0v-.69a10.693,10.693,0,0,1,10.693-10.693h0v22.075Z" transform="translate(-113.129 -133.54)" fill="#ffd037"/><path d="M289.97,345.871h0a2.415,2.415,0,0,1-2.415-2.415V324.141a2.415,2.415,0,0,1,2.415-2.415h0a2.415,2.415,0,0,1,2.415,2.415v19.316A2.415,2.415,0,0,1,289.97,345.871Z" transform="translate(-118.706 -132.812)" fill="#6a5c99"/><path d="M356.024,257.311c-4.2-8.74-13.358-19.307-33.092-20.15l0-.024-.237.011h-.016l-6.991.333v.035c-19.6.9-28.716,11.428-32.906,20.14a45.3,45.3,0,0,0-4.333,18.862l2.413-.059,2.414-.055a41.084,41.084,0,0,1,3.931-16.805c5.322-10.93,15.114-16.744,29.1-17.28v0l6.183-.342h0c13.989.537,23.781,6.35,29.1,17.281a41.081,41.081,0,0,1,3.931,16.805l2.414.055,2.413.059A45.3,45.3,0,0,0,356.024,257.311Z" transform="translate(-114.948 -97.893)" fill="#ffd037"/><rect width="329.282" height="88.408" transform="translate(22.087 363.296)" fill="#d6d6e3"/><rect width="329.282" height="11.476" transform="translate(22.087 369.246)" opacity="0.1" style="isolation:isolate"/><rect width="373.454" height="11.476" transform="translate(0 362.021)" fill="#d6d6e3"/><path d="M435.5,567.929s14.092,25.836,49.324,18.79,18.2,65.178,18.2,65.178-5.764,34.453-1.708,34.255" transform="translate(-179.781 -234.448)" fill="none" stroke="#535461" stroke-miterlimit="10" stroke-width="3"/></g></g></svg>