<svg xmlns="http://www.w3.org/2000/svg" xmlns:xlink="http://www.w3.org/1999/xlink" width="467.525" height="519.723" viewBox="0 0 467.525 519.723"><defs><linearGradient id="a" x1="0.966" y1="-1.692" x2="0.966" y2="-0.692" gradientUnits="objectBoundingBox"><stop offset="0" stop-color="gray" stop-opacity="0.251"/><stop offset="0.54" stop-color="gray" stop-opacity="0.122"/><stop offset="1" stop-color="gray" stop-opacity="0.102"/></linearGradient></defs><g transform="translate(0 306.682)"><rect width="20.252" height="29.514" transform="translate(55.126 20.509)" fill="#2f2e41"/><path d="M435.9,407.8s-.761,14.572,5.976,15.169c4.714.418-9.193,13.33-9.193,13.33l-11.951-16.547s8.958.917,3.217-9.193Z" transform="translate(-364.441 -373.673)" fill="#ffb8b8"/><path d="M420.735,419.749l3.777,5.23,8.176,11.316s6.828-6.341,9.293-10.277c.926-1.481,1.239-2.622.34-2.959a.018.018,0,0,0-.013,0,1.456,1.456,0,0,0-.4-.089l-.024,0a4.254,4.254,0,0,1-1.148-.259c-5.5-2.056-4.829-14.908-4.829-14.908l-11.952,2.758c3.831,6.745,1.117,8.584-1.114,9.058a7.42,7.42,0,0,1-1.488.156C420.973,419.773,420.735,419.749,420.735,419.749Z" transform="translate(-364.44 -373.673)" opacity="0.1" style="isolation:isolate"/><path d="M416.7,392.707c2.188,6.478,5.543,12.381,12.381,12.381s12-5.554,12.382-12.381c.493-8.724-5.385-12.418-12.382-12.382C420.816,380.368,414.1,385.019,416.7,392.707Z" transform="translate(-363.917 -370.551)" fill="#2f2e41"/><path d="M447.695,513.07l-3.217,22.523s2.757,13.79,1.379,23.442l-1.379,10.112h-6.436L436.2,558.576s-1.838-11.032-1.838-16.088c0,0-5.057-22.983-1.839-27.579Z" transform="translate(-365.659 -385.637)" fill="#ffb8b8"/><path d="M405.7,511.514l3.217,23.9s-2.758,13.79-1.379,23.442l1.379,10.112h6.435l1.838-10.572s1.839-11.032,1.839-16.088c0,0,5.056-24.361,1.838-28.958Z" transform="translate(-362.731 -385.46)" fill="#ffb8b8"/><ellipse cx="60.362" cy="6.173" rx="60.362" ry="6.173" transform="translate(0 196.151)" fill="#63ff91" opacity="0.1" style="isolation:isolate"/><path d="M411.232,574.718s-3.677-1.378-4.137.46-1.379,11.492-1.379,11.492-2.758,4.137-4.6,4.6-5.976,6.435-.919,6.895,10.112-1.379,10.112-2.3,1.838-1.379,2.757-1.379,4.138-1.379,3.677-2.758-1.838-17.466-1.838-17.466Z" transform="translate(-361.831 -392.587)" fill="#2f2e41"/><path d="M441.8,574.718s3.677-1.378,4.137.46,1.379,11.492,1.379,11.492,2.757,4.137,4.6,4.6,5.975,6.435.919,6.895-10.112-1.379-10.112-2.3-1.839-1.379-2.758-1.379-4.137-1.379-3.677-2.758,1.838-17.466,1.838-17.466Z" transform="translate(-366.203 -392.587)" fill="#2f2e41"/><circle cx="9.531" cy="9.531" r="9.531" transform="translate(55.038 20.455)" fill="#ffb8b8"/><path d="M387.909,457.4s19.3,8.275,21.143-.459a126.136,126.136,0,0,0,2.3-16.546l.007,0c.269-.164,9.78-6,7.907-14.071a12.17,12.17,0,0,0-2.4-4.77s-.283-.183-.763-.44a15.23,15.23,0,0,0-1.74-.793c-3.245-1.236-8.642-1.934-9.905,6.286a188.753,188.753,0,0,0-1.839,24.824s-5.517,3.217-12.872,0-14.711-1.379-15.17,2.758S387.909,457.4,387.909,457.4Z" transform="translate(-359.194 -375.011)" fill="#ffb8b8"/><path d="M444.593,424.908l.1,3.054,1.1,34.433.184,5.721,16.086,17.928s3.218,9.65,10.113,11.029-4.6-13.327-4.6-13.327l-15.63-22.986-.024-.773a87.4,87.4,0,0,1,1.6-19.2,23.058,23.058,0,0,0,.262-7.144c-.641-5.128-4.86-7.351-7.352-8.226a12.425,12.425,0,0,0-1.4-.412.018.018,0,0,0-.013,0c-.208-.051-.347-.079-.4-.089Z" transform="translate(-367.152 -375.618)" fill="#ffb8b8"/><path d="M415.549,457.491v1.839c6.7,8.19,21.534,4.321,26.938,2.554,1.27-.415,2.019-.714,2.019-.714a4.765,4.765,0,0,1-.459-1.839V455.2c0-1.379-.456-.46-.916-.919s1.376-3.218,1.376-3.218c4.6-2.758,1.839-10.572,1.839-10.572l-3.215-6.9V424.9a12.607,12.607,0,0,0-1.4-.411.018.018,0,0,0-.013,0,1.456,1.456,0,0,0-.4-.089l-.024,0a4.254,4.254,0,0,1-1.148-.259,7.615,7.615,0,0,1-6.667,4.4c-4.709.337-9.174-4.74-11.227-7.488a7.42,7.42,0,0,1-1.488.156,15.23,15.23,0,0,0-1.74-.793l2.043,8.584c1.808,4.52-4.822,11.255-5.05,11.49l-.007,0v5.057l.46,5.516.46,1.379-.92,1.379.46,1.379-.46.919C415.549,457.032,415.549,456.576,415.549,457.491Z" transform="translate(-363.851 -375.107)" fill="#d0cde1"/><path d="M441.467,465.619l1.379-.459s16.547,41.369,5.516,43.207-19.306,5.057-21.144,1.839-.92-14.709-.92-14.709l-1.838-.46s3.217,17.007-3.217,15.628-24.361-3.677-24.361-5.516S413.428,463.6,413.428,463.6,420.323,467.918,441.467,465.619Z" transform="translate(-361.73 -380.015)" fill="#2f2e41"/><circle cx="4.887" cy="4.887" r="4.887" transform="translate(60.275 2.607)" fill="#2f2e41"/><path d="M436.793,374.185a4.887,4.887,0,0,0-4.4-4.863c.16-.016.324-.025.488-.025a4.887,4.887,0,0,1,0,9.775c-.165,0-.328-.009-.488-.025A4.887,4.887,0,0,0,436.793,374.185Z" transform="translate(-365.766 -369.298)" fill="#2f2e41"/><path d="M432.2,389.169s.1-.568,4.093.929,6.384,12.541,4.387,19.027a5.941,5.941,0,0,0,.918,5.816,9.609,9.609,0,0,1-3.407,14.924c-.165.072-.332.143-.5.213l-2.494,1.5a11.411,11.411,0,0,0,1.588-9.536,27.445,27.445,0,0,1-.5-14.049c.183-.784.39-1.592.626-2.416,2-6.984,1.026-6.178-5.96-13.162a44.378,44.378,0,0,1-7.483,4.489c-3.492,1.5-6.485,2.994-3.991,7.983s8.482,9.48,4.49,15.965-4.49,3.991-3.991,6.486h0l.5,2.494-2.993-2.993,2,3.991s-6.485,0-8.482-4.989l-1,1s-3.991-6.984,3.492-13.471c0,0,2.494-1.5-1-6.485s-.81-15.716,3.68-17.711S432.2,389.169,432.2,389.169Z" transform="translate(-363.099 -371.455)" fill="#2f2e41"/></g><path d="M685.55,127.416v51.128a1.787,1.787,0,0,1-1.782,1.782H682.5V446.662a27.791,27.791,0,0,1-27.79,27.79H488.29a27.784,27.784,0,0,1-27.782-27.787v-257h-.918a1.26,1.26,0,0,1-1.261-1.253v-29.1a1.26,1.26,0,0,1,1.26-1.26h.919V147.095h-.926a1.32,1.32,0,0,1-1.315-1.323v-28.7a1.318,1.318,0,0,1,1.315-1.315h.926V100.794h-.942a1.166,1.166,0,0,1-1.167-1.165V83.965a1.174,1.174,0,0,1,1.167-1.176h.942V51.076A27.783,27.783,0,0,1,488.29,23.294H654.709A27.79,27.79,0,0,1,682.5,51.076v74.557h1.268A1.787,1.787,0,0,1,685.55,127.416Z" transform="translate(-368.706 -23.294)" fill="#3f3d56"/><rect width="30.999" height="6.295" rx="2.232" transform="translate(181.791 14.251)" fill="#e6e8ec"/><circle cx="3.57" cy="3.57" r="3.57" transform="translate(217.478 13.828)" fill="#e6e8ec"/><path d="M671.29,58.577v392.4A17.632,17.632,0,0,1,653.659,468.6h-159.3a17.6,17.6,0,0,1-17.631-17.57V58.577a17.629,17.629,0,0,1,17.63-17.63H518.2v3.059a14.517,14.517,0,0,0,14.518,14.518h81.018A14.517,14.517,0,0,0,628.25,44.006V40.947h25.408a17.625,17.625,0,0,1,17.631,17.62Z" transform="translate(-370.803 -29.3)" fill="#63ff91"/><circle cx="15.568" cy="15.568" r="15.568" transform="translate(260.039 47.974)" fill="#fff"/><path d="M674.276,93.585H667.77V87.08h-1v6.505h-6.505v1h6.505v6.505h1V94.586h6.506Z" transform="translate(-391.662 -30.543)" fill="#3f3d56"/><rect width="63.007" height="63.007" transform="translate(128.726 236.729)" fill="#3a3768" opacity="0.3" style="isolation:isolate"/><rect width="63.007" height="63.007" transform="translate(120.724 82.025)" fill="#fff"/><rect width="63.007" height="63.007" transform="translate(220.544 157.952)" fill="#fff"/><rect width="63.007" height="63.007" transform="translate(140.895 228.202)" fill="#fff"/><path d="M658.428,223.8a14.824,14.824,0,0,1-4.215,1.155,7.4,7.4,0,0,0,3.23-4.037,14.771,14.771,0,0,1-4.668,1.784,7.332,7.332,0,0,0-12.7,5.014,7.188,7.188,0,0,0,.185,1.68,20.794,20.794,0,0,1-15.132-7.686,7.371,7.371,0,0,0,2.277,9.818,7.148,7.148,0,0,1-3.335-.92v.089a7.355,7.355,0,0,0,5.894,7.21,7.608,7.608,0,0,1-1.938.259,7.151,7.151,0,0,1-1.381-.137,7.371,7.371,0,0,0,6.863,5.1,14.725,14.725,0,0,1-9.124,3.149,15.851,15.851,0,0,1-1.752-.1,20.574,20.574,0,0,0,11.24,3.319c13.526,0,20.913-11.2,20.913-20.921v-.945A14.913,14.913,0,0,0,658.428,223.8Z" transform="translate(-387.386 -45.69)" fill="#63ff91"/><path d="M555.547,302.008a6.08,6.08,0,0,1,6.064,6.064v12.112a6.08,6.08,0,0,1-6.064,6.064H543.435a6.092,6.092,0,0,1-4.288-1.777,6.019,6.019,0,0,1-1.784-4.287V308.073a6.081,6.081,0,0,1,6.072-6.064h12.112m0-2.422H543.435a8.519,8.519,0,0,0-8.495,8.495v12.112a8.519,8.519,0,0,0,8.495,8.495h12.112a8.52,8.52,0,0,0,8.495-8.463V308.113A8.527,8.527,0,0,0,555.547,299.586Z" transform="translate(-377.42 -54.694)" fill="#63ff91"/><path d="M558.3,308.711a1.825,1.825,0,1,1,1.816-1.833v.016a1.809,1.809,0,0,1-1.8,1.817Zm-7.857,1.187a4.845,4.845,0,1,1-4.846,4.845,4.845,4.845,0,0,1,4.846-4.845m0-2.422a7.267,7.267,0,1,0,7.267,7.267A7.268,7.268,0,0,0,550.443,307.475Z" transform="translate(-378.355 -55.316)" fill="#63ff91"/><path d="M526.405,131.961a16.957,16.957,0,0,0-6.814,32.55,15.118,15.118,0,0,1,.29-3.9c.332-1.381,2.188-9.261,2.188-9.261a6.462,6.462,0,0,1-.549-2.681c0-2.519,1.462-4.4,3.279-4.4a2.275,2.275,0,0,1,2.293,2.552c0,1.55-.994,3.876-1.5,6.024a2.627,2.627,0,0,0,2.681,3.271c3.23,0,5.385-4.135,5.385-9.036,0-3.722-2.511-6.5-7.065-6.5a8.075,8.075,0,0,0-8.36,7.779c0,.117-.006.235-.005.353a4.882,4.882,0,0,0,1.122,3.334.808.808,0,0,1,.243.945c-.081.315-.267,1.066-.347,1.365a.59.59,0,0,1-.676.488.567.567,0,0,1-.18-.06c-2.374-.969-3.48-3.568-3.48-6.46,0-4.845,4.037-10.61,12.112-10.61,6.46,0,10.755,4.691,10.755,9.73,0,6.662-3.706,11.644-9.173,11.644a4.846,4.846,0,0,1-4.142-2.116s-.994,3.908-1.2,4.668a14,14,0,0,1-1.7,3.641,17.01,17.01,0,1,0,4.853-33.316Z" transform="translate(-374.505 -35.644)" fill="#63ff91"/><ellipse cx="65.119" cy="6.638" rx="65.119" ry="6.638" transform="translate(213.786 506.446)" fill="#63ff91" opacity="0.1" style="isolation:isolate"/><rect width="54.24" height="54.24" transform="translate(210.679 298.605)" fill="#3a3768" opacity="0.3" style="isolation:isolate"/><rect width="54.24" height="54.24" transform="translate(213.823 315.443) rotate(-42.14)" fill="#fff"/><path d="M617.031,373.814l2.085,5.235,13.618,14.437,4.559-4.3,2.871,3.038,3.038-2.871.174-5.9,3.8-3.587.306-10.337-12.186-12.915Zm27.457-2.891-.174,5.908-4.559,4.3-.174,5.908L636.716,384l-3.8,3.587L620.7,374.662l14.438-13.618Z" transform="translate(-386.749 -61.175)" fill="#63ff91"/><path d="M634.818,369.564l2.28-2.148,5.783,6.124-2.28,2.141Zm-5.318,5.019,2.28-2.155,5.777,6.131-2.281,2.149Z" transform="translate(-388.166 -62.402)" fill="#63ff91"/><path d="M687.316,573.646c-.563-2.384-.9-4.469-.9-4.469a9.266,9.266,0,0,0-1.036-4.54v-.653h0v-4.8a15.863,15.863,0,0,1,1.21-2.509c.862-1.5,0-7.021,0-7.021s-3.2-7.779-2.426-12.714-6.563-21.918-6.563-21.918a21.693,21.693,0,0,1,.7-4.865,3.555,3.555,0,0,0,.09-1.015.97.97,0,0,0,0-.125v.042c-.112-3.254-2.684-9.356-2.684-9.356l.348-11.623a34.24,34.24,0,0,0-1.036-16.064c-.939-3.211-1.536-5.776-1.919-7.764-.042-.223-.083-.438-.118-.646,5.512-.841,9.732-1.543,9.732-1.543s-3.2-13.381-5.36-15.724-3.886-9.7-3.886-9.7-1.126-9.454.695-12.214,2.086-7.528,2.086-7.528,4.171-3.01,4.664-4.352a22.024,22.024,0,0,0,1.391-5.936c0-1.592-.521-3.01-.347-3.851s-1.21-4.011-.515-5.519a4.031,4.031,0,0,0,.271-1.453.083.083,0,0,0,0-.042h0a20.7,20.7,0,0,0-.368-3.927,11.137,11.137,0,0,0-4.1-2.2l-.09-.355-.237-.939a3.175,3.175,0,0,0-.41-.243v-1.738l.647-3.059c1.279-5.3-5.812-6.1-5.812-6.1a3.735,3.735,0,0,0-2.008-1.766c-1.391-.5-.237,7.993.431,8.536a27.632,27.632,0,0,1,2.781,4.379h0l.125.215a2.81,2.81,0,0,0-.326.34l.27,1.843.042.285a7.564,7.564,0,0,0-1.133,1.926,4.106,4.106,0,0,1,1.036,3.016,9.452,9.452,0,0,0,.431,3.677c-.076-.09-.987-1.078-1.9-.834s-3.475,1-3.475,1-1.9.333-1.731.751-1.293,2.259-1.293,2.259l-5.109-4.866c-.056-.146-.1-.292-.153-.438a11.717,11.717,0,0,1-.438-2.086,11.287,11.287,0,0,0,1.627-.521,3.527,3.527,0,0,0,1.39-.9,5.512,5.512,0,0,0,.82-2.2,30.658,30.658,0,0,1,1.9-4.227,13.751,13.751,0,0,0,.987-7.542,5.014,5.014,0,0,0-.778-2.225c-.834-1.147-2.35-1.612-3.476-2.53s-1.807-2.308-3.092-3a6.1,6.1,0,0,0-3.88-.334,20.729,20.729,0,0,0-7.236,2.628,3.722,3.722,0,0,1-2.426.8,3.277,3.277,0,0,1-1.744-1.279.37.37,0,0,1,0-.077l-.063-.062a9.175,9.175,0,0,0-.792,3.823v.821a1.526,1.526,0,0,1,0,.18h0a1.214,1.214,0,0,1-.042.271,1.967,1.967,0,0,1-.472.7,3.067,3.067,0,0,0-.417.57.607.607,0,0,1,.07-.209,3.017,3.017,0,0,0-.535,1.606,1.6,1.6,0,0,0,.389,1.154,5.572,5.572,0,0,0,.827.695A9.818,9.818,0,0,0,646.6,393.7l.174.438a12.167,12.167,0,0,1,.924,5.561.929.929,0,0,1-.063.409l-.181.209h0s-8.439.083-10.426-1.717-5.012,4.393-5.012,4.393-3.023.591-3.629,0-4.17-.083-4.17-.083a7.65,7.65,0,0,0-5.269-1.919,15.506,15.506,0,0,0-3.872-2.155h0l-.1-.035h0a4.324,4.324,0,0,0-1.9-.237s-4.17-3.434-5.352-5.268-6.952-8.669-7-8.7v-.327l-.069-.994a4.007,4.007,0,0,1-.515.049,1.2,1.2,0,0,0-.118-.347,18.664,18.664,0,0,0-1.223-2.781s0-1.252.368-1.564-.152-4.915-.152-4.915-3.74-8.738-7.084-2.217c0,0-6.332,4.219-1.021,9.141,0,0,2.085,1.021,2.419,1.835.2.528.917,2.009,1.39,2.989l.215.438-.062.049.083.821v.319c-1,.564-1.675,1.127-1.516,1.557a9.158,9.158,0,0,1,.605,2.259s7.347,9.2,8.3,13.13c0,0,19.7,11.706,26.179,12.547l-1.119,5.853a46.058,46.058,0,0,0-.257,4.768c.083,1.252-.779,6.952-.779,6.952s-1.126,8.341-2.086,9.53-.778,6.194-.778,6.194a41.763,41.763,0,0,1-1.293,7.1,18.061,18.061,0,0,0-.257,7.111s-3.287,7.528,4.581,2.426c0,0,3.858-.237,8.341-.39v2.288c-.055,4.309-.083,10.252.112,14.75.347,7.945,2.78,23.635,2.78,23.635v7.9a11.059,11.059,0,0,0-.222,2.259,14.632,14.632,0,0,0,2.127,7.91l.6,5.269a21.838,21.838,0,0,1,1.446,5.561,2.72,2.72,0,0,1-.062.5,3.721,3.721,0,0,0-.07.806c-.076,2.391,1.391,8.119,1.391,8.119s.09,5.77.952,6.1c.737.285-.987,3.33-1.5,4.171a1.374,1.374,0,0,1-.035-.167c-.063.111-.1.174-.1.174a4.062,4.062,0,0,0-.271,1.459,2.085,2.085,0,0,0,.96,2.03c1.641,1.009,2.523,1.843,1.133,2.176a13.69,13.69,0,0,0-1.522.32c0-.063-.056-.132-.077-.2a.932.932,0,0,0-.542.966,4.269,4.269,0,0,0,.521,1.953,20.809,20.809,0,0,0,2.336,4.268l.695-.076a3.242,3.242,0,0,1-.389.695,2.687,2.687,0,0,1-.973.862,3.123,3.123,0,0,1-1.182.41,3.292,3.292,0,0,0-2.447,1.189c-.862,1.112-1.39,2.634.3,3.969l6.18,2.127s10.629,1.39,10.065-1-.9-4.469-.9-4.469a9.432,9.432,0,0,0-.87-4.233,4.124,4.124,0,0,0-.375-.626l.375-.042s.779-5.269,1.814-6.257c.244-.229.3-.41.237-.549.111-.285-.16-.452-.507-.55l-.077.209a5.146,5.146,0,0,0-1.028-.112s-.348-2.78.771-3.768a1.059,1.059,0,0,0,.223-.82,4.717,4.717,0,0,0-.118-1.126l-.042.069A40.121,40.121,0,0,0,654.1,547.8s-.083-2.509.6-3.517-.083-13.631-.083-13.631.257-6.1-.521-8.947.952-6.193.952-6.193v-.222s-.042-.376-.1-.967v.063c-.174-1.619-.5-4.546-.744-5.894-.348-1.926.083-11.122.083-11.122l1.556-3.927,2.781,6.77,2.934,9.036a7.692,7.692,0,0,1,1.494,3.838v.285a4.6,4.6,0,0,0,0,.6,5.39,5.39,0,0,0,.9,3.218s.778,4.269,1.988,5.353a4.82,4.82,0,0,1,1.209,3.177s1.467,6.194,2.162,7.278c.584.917.612,3.434.6,4.171h0v.229s.2,2.21.2,4.073v.647a6.5,6.5,0,0,1-.181,1.5V543.4a15.5,15.5,0,0,0-.445,3.857c-.042,2.225.3,4.866,1.648,6.4,2.336,2.676,3.8,2.343,3.8,2.343s-1.127,3.343-2.509,4.018a.77.77,0,0,0-.146.09.391.391,0,0,0-.035-.2,1.632,1.632,0,0,0-.4,1.252,8.953,8.953,0,0,0,1.71,4.957,2.742,2.742,0,0,0,1.168.695l-.215.132a5.055,5.055,0,0,1-.48.229,2.271,2.271,0,0,1-.695.181,3.292,3.292,0,0,0-2.446,1.189c-.862,1.112-1.391,2.634.3,3.969l6.18,2.127S687.851,576.065,687.316,573.646Z" transform="translate(-383.539 -62.592)" fill="url(#a)"/><path d="M653.244,602.827l-5.985-2.127c-1.648-1.335-1.119-2.857-.285-3.969a3.149,3.149,0,0,1,2.364-1.189,2.934,2.934,0,0,0,1.147-.41,2.711,2.711,0,0,0,.945-.862,4.4,4.4,0,0,0,.695-2.315s6.57-1.918,8.341,0a4.874,4.874,0,0,1,.8,1.168,9.724,9.724,0,0,1,.834,4.233s.334,2.085.877,4.469S653.244,602.827,653.244,602.827Z" transform="translate(-390.062 -87.824)" fill="#2d293d"/><path d="M686.269,599.532l-5.978-2.127c-1.654-1.335-1.126-2.857-.292-3.962a3.138,3.138,0,0,1,2.37-1.2,2.17,2.17,0,0,0,.695-.181,3.418,3.418,0,0,0,.459-.23,3.783,3.783,0,0,0,1.634-3.177s6.562-1.925,8.341,0a4.7,4.7,0,0,1,.626.855,9.555,9.555,0,0,1,1.008,4.546s.333,2.086.876,4.47S686.269,599.532,686.269,599.532Z" transform="translate(-393.815 -87.449)" fill="#2d293d"/><path d="M661.145,591.954a4.873,4.873,0,0,1,.8,1.168h0l-9.843,1.14a4.4,4.4,0,0,0,.695-2.315S659.352,590.036,661.145,591.954Z" transform="translate(-390.735 -87.823)" opacity="0.1" style="isolation:isolate"/><path d="M694.623,589.483v1.842c-1.53,2.523-8.933,1.974-11.08.695a3.564,3.564,0,0,0,.458-.23,3.783,3.783,0,0,0,1.634-3.177s6.563-1.925,8.341,0A4.6,4.6,0,0,1,694.623,589.483Z" transform="translate(-394.308 -87.443)" opacity="0.1" style="isolation:isolate"/><path d="M690.958,568.209a16.328,16.328,0,0,0-1.174,2.509v6.61c-1.669,2.781-10.371,1.842-11.539.333s-2.426-5.436-1.091-6.1,2.426-4.018,2.426-4.018-1.391.333-3.677-2.343-1.585-8.613-1.167-10.038,0-6.187,0-6.187.083-3.343-.584-4.434-2.086-7.278-2.086-7.278a4.941,4.941,0,0,0-1.167-3.177c-1.168-1.092-1.926-5.353-1.926-5.353a5.487,5.487,0,0,1-.834-3.594c.25-2.085-1.425-4.351-1.425-4.351l-2.843-9.036-2.677-6.778-1.5,3.927s-.424,9.2-.083,11.122.834,7.021.834,7.021-1.675,3.35-.917,6.194.5,8.946.5,8.946.751,12.631.083,13.638-.584,3.475-.584,3.475,3.427,7.362,2.335,8.341-.751,3.768-.751,3.768,2.343,0,1.342,1-1.758,6.257-1.758,6.257l-10.128,1.279a21.388,21.388,0,0,1-2.266-4.269c-1.335-3.093.25-2.78,1.6-3.093s.494-1.167-1.1-2.175-.695-3.26-.695-3.26,2.426-4.1,1.592-4.435-.924-6.1-.924-6.1-1.668-6.86-1.252-8.7-1.341-6.256-1.341-6.256l-.584-5.268a14.488,14.488,0,0,1-1.807-9.969v-8.139s-2.343-15.724-2.683-23.635c-.209-5.088-.153-12.032-.083-16.37.042-2.426.083-4.038.083-4.038l36.146-3.761a29.862,29.862,0,0,0,.66,5.366c.368,1.982.945,4.553,1.849,7.765a35.315,35.315,0,0,1,1.008,16.057l-.333,11.622s3.177,7.779,2.509,10.427a22.111,22.111,0,0,0-.7,4.866s7.111,16.982,6.36,21.917,2.35,12.679,2.35,12.679S691.792,566.735,690.958,568.209Z" transform="translate(-389.468 -74.115)" fill="#464353"/><path d="M674.061,531.395l10.97-1.467S678.83,536.281,674.061,531.395Z" transform="translate(-393.23 -80.871)" opacity="0.05" style="isolation:isolate"/><path d="M684.415,517.8s.382,3.886-2,5.352C682.413,523.156,686.675,522.488,684.415,517.8Z" transform="translate(-394.179 -79.493)" opacity="0.1" style="isolation:isolate"/><path d="M682.248,503.836s-9.189,7.57-12.512,6.952S682.248,503.836,682.248,503.836Z" transform="translate(-392.687 -77.906)" opacity="0.1" style="isolation:isolate"/><path d="M657.752,535.59s-6.951,1.592-7.187,4.394S657.752,535.59,657.752,535.59Z" transform="translate(-390.559 -81.515)" opacity="0.1" style="isolation:isolate"/><path d="M659.437,574.936s-9.863,1.842-7.062,3.1a47.833,47.833,0,0,0,7.4,2.252S662.955,580.455,659.437,574.936Z" transform="translate(-390.709 -85.986)" opacity="0.05" style="isolation:isolate"/><g transform="translate(251.452 399.807)" opacity="0.05"><path d="M650.027,580.461a1.953,1.953,0,0,1-.9-1.431l-.1.181s-.925,2.252.7,3.26c.18.111.354.23.514.34.292-.056.612-.1.91-.174C652.466,582.332,651.619,581.491,650.027,580.461Z" transform="translate(-641.807 -486.259)"/><path d="M664.473,579.7c.27-.25.257-.9.1-1.724a4.664,4.664,0,0,0-.563,2.426A1.848,1.848,0,0,1,664.473,579.7Z" transform="translate(-643.539 -486.14)"/><path d="M662.726,532.979a11.5,11.5,0,0,0-.695,3.072,12.217,12.217,0,0,1,.764-2.086A6.188,6.188,0,0,0,662.726,532.979Z" transform="translate(-643.315 -481.025)"/><path d="M688.288,527.9a3.987,3.987,0,0,0,.09-.917c-.125.626-.208,1.21-.271,1.717C688.163,528.44,688.218,528.176,688.288,527.9Z" transform="translate(-646.279 -480.344)"/><path d="M662.519,566.291a5.27,5.27,0,0,0,.251-1.856,6.1,6.1,0,0,0-.479,2.343A2.241,2.241,0,0,1,662.519,566.291Z" transform="translate(-643.345 -484.6)"/><path d="M663.043,584.316a33.6,33.6,0,0,0-1.147,5.136l-10.113,1.175a20.913,20.913,0,0,1-2.266-4.269,7.488,7.488,0,0,1-.285-.737c-.6.278-.847.9-.049,2.781a20.7,20.7,0,0,0,2.266,4.262l10.107-1.175s.758-5.268,1.759-6.256C663.808,584.7,663.495,584.448,663.043,584.316Z" transform="translate(-641.797 -486.86)"/><path d="M648.8,556.8s.083,5.776.917,6.111h0c.425-.953.7-1.856.327-2.009-.834-.333-.917-6.1-.917-6.1s-1.675-6.86-1.252-8.7-1.342-6.257-1.342-6.257l-.583-5.268a14.518,14.518,0,0,1-1.843-9.955v-8.126s-2.343-15.723-2.676-23.668c-.215-5.089-.152-12.033-.083-16.37v-2.086h-.285s-.042,1.606-.083,4.038c-.069,4.331-.132,11.282.083,16.371.334,7.945,2.677,23.668,2.677,23.668v8.112a14.464,14.464,0,0,0,1.883,10.038l.584,5.269s1.758,4.427,1.335,6.256S648.8,556.8,648.8,556.8Z" transform="translate(-640.915 -474.364)"/><path d="M683.146,588.378a9.715,9.715,0,0,1-1.6-3.976c-1.036.932.152,4.553,1.265,5.985s9.87,2.426,11.546-.34v-1.592C692.092,590.7,684.257,589.8,683.146,588.378Z" transform="translate(-645.488 -486.869)"/><path d="M697.6,578.212a16.792,16.792,0,0,0-1.167,2.509V581.9c.188-.432.458-1,.834-1.675a5.077,5.077,0,0,0,.369-2.086Z" transform="translate(-647.224 -486.157)"/><path d="M683.368,578.127a16.094,16.094,0,0,0,.827-1.988s-1.39.334-3.684-2.343c-1.641-1.946-1.731-5.623-1.5-8.029-.417,1.425-1.092,7.361,1.167,10.038C681.658,577.564,682.764,578.016,683.368,578.127Z" transform="translate(-645.196 -484.752)"/><path d="M677.171,552.894a46.029,46.029,0,0,1,.167,4.956c.056-.326.118-.59.167-.778.424-1.391,0-6.187,0-6.187s.083-3.35-.584-4.435-2.085-7.278-2.085-7.278A4.94,4.94,0,0,0,673.667,536c-1.168-1.091-1.925-5.352-1.925-5.352a5.479,5.479,0,0,1-.841-3.594c.257-2.086-1.391-4.351-1.391-4.351l-2.843-9.037-2.711-6.735-1.509,3.927s0,.494-.049,1.272l1.224-3.191,2.676,6.771,2.843,9.036s1.668,2.259,1.39,4.345a5.5,5.5,0,0,0,.869,3.559s.751,4.262,1.919,5.353a4.966,4.966,0,0,1,1.174,3.177s1.391,6.187,2.086,7.278S677.171,552.894,677.171,552.894Z" transform="translate(-643.357 -478.065)"/></g><path d="M685.931,384.169l-.626,3.059.034,1.39v1l-3.475.362-.389-.7h0a29.6,29.6,0,0,0-2.711-4.379c-.646-.542-1.793-9.037-.417-8.529a3.643,3.643,0,0,1,1.946,1.759S687.168,378.859,685.931,384.169Z" transform="translate(-393.644 -63.418)" fill="#ffcdd3"/><path d="M685.854,391.1l-3.475.361-.389-.695h0a3.074,3.074,0,0,1,3.851-.633Z" transform="translate(-394.131 -64.937)" opacity="0.1" style="isolation:isolate"/><path d="M686.7,392.8l-4.594,1.071-.1-.695-.264-1.843a3.163,3.163,0,0,1,4.427-.633l.028.021.23.939Z" transform="translate(-394.104 -64.976)" fill="#dce6f2"/><path d="M669.307,405.664s-24.073,2.718-19.575,1.258c3.135-1.022,4.379-3.01,4.644-5.221a12.708,12.708,0,0,0-.9-5.561,24.175,24.175,0,0,0-2.155-4.351s18.4-10.121,14.723-.917A14.437,14.437,0,0,0,665,395.23a12.3,12.3,0,0,0,.466,4.407A13.145,13.145,0,0,0,669.307,405.664Z" transform="translate(-390.402 -64.629)" fill="#ffcdd3"/><path d="M601.158,386.746l-5.409,2.911-.49-1.026c-.52-1.08-1.287-2.7-1.532-3.286-.322-.9-2.582-2.031-2.582-2.031-5.668-5.416,1.081-10.065,1.081-10.065,3.577-7.194,7.561,2.436,7.561,2.436s.551,5.079.161,5.416-.391,1.732-.391,1.732a21.1,21.1,0,0,1,1.31,3.064C601.073,386.432,601.158,386.746,601.158,386.746Z" transform="translate(-383.549 -62.762)" fill="#ffcdd3"/><path d="M666.323,390.864a14.437,14.437,0,0,0-1.043,4.358c-1.737,1.453-3.635,1.391-6.075,1.391-1.877,0-3.955.458-5.45-.445a24.154,24.154,0,0,0-2.155-4.352S670,381.661,666.323,390.864Z" transform="translate(-390.677 -64.629)" opacity="0.1" style="isolation:isolate"/><circle cx="9.954" cy="9.954" r="9.954" transform="translate(258.246 312.688)" fill="#ffcdd3"/><path d="M669.307,407.15s-24.073,2.718-19.575,1.258c3.135-1.022,4.379-3.01,4.644-5.221,1.2-1.3,3.6-2.238,5.151-2.732a7.183,7.183,0,0,1,4.359-.069,5.838,5.838,0,0,1,1.585.695A13.139,13.139,0,0,0,669.307,407.15Z" transform="translate(-390.402 -66.115)" opacity="0.1" style="isolation:isolate"/><path d="M686.737,392.98l-4.594,1.071-.1-.695a4.06,4.06,0,0,1,4.421-1.516Z" transform="translate(-394.138 -65.16)" opacity="0.1" style="isolation:isolate"/><path d="M677.9,475.8c-9.322,1.467-22.591,3.386-24.7,2.746-1.745-.535-7.32-.48-12.178-.313.042-2.426.083-4.038.083-4.038l36.146-3.761A29.945,29.945,0,0,0,677.9,475.8Z" transform="translate(-389.476 -74.11)" opacity="0.1" style="isolation:isolate"/><path d="M682.059,464.046s-30.7,5.268-33.991,4.261-20.208.09-20.208.09c-7.611,5.095-4.427-2.426-4.427-2.426a18.147,18.147,0,0,1,.25-7.111,43.58,43.58,0,0,0,1.252-7.111s-.167-5.019.751-6.187,2.008-9.537,2.008-9.537.841-5.686.758-6.951.25-4.762.25-4.762l1.085-5.86c-6.256-.834-25.344-12.547-25.344-12.547-.917-3.927-8.029-13.13-8.029-13.13a9.654,9.654,0,0,0-.584-2.259c-.5-1.335,7.028-4.011,7.028-4.011s5.6,6.86,6.771,8.7,5.185,5.268,5.185,5.268a4.038,4.038,0,0,1,1.842.244h.1a14.818,14.818,0,0,1,3.74,2.148,7.251,7.251,0,0,1,5.1,1.925s3.434-.5,4.018.083,3.475,0,3.475,0,2.934-6.186,4.866-4.393,10.086,1.717,10.086,1.717c1.092-1.446,3.733-2.482,5.394-3.017a7.18,7.18,0,0,1,4.358-.069,5.387,5.387,0,0,1,1.724.834l4.949,4.866s1.391-1.842,1.259-2.259,1.675-.751,1.675-.751,2.426-.751,3.343-1.008,1.766.751,1.835.834a9.8,9.8,0,0,1-.417-3.678,4.172,4.172,0,0,0-1-3.009c2.954-7.147,9.566-1.1,9.566-1.1s.751,3.927.083,5.436.695,4.685.5,5.519.334,2.259.334,3.844a22.873,22.873,0,0,1-1.335,5.943c-.507,1.335-4.519,4.345-4.519,4.345s-.25,4.769-2.008,7.528-.695,12.214-.695,12.214,1.668,7.361,3.76,9.731S682.059,464.046,682.059,464.046Z" transform="translate(-384.337 -64.572)" fill="#3f3d56"/><path d="M642.1,411.272s-.917-2.78-1.758-3.017a19.873,19.873,0,0,1-2.426-1.084l.542-1.029s3.142.862,3.642,1.78S642.1,411.272,642.1,411.272Z" transform="translate(-389.122 -66.803)" opacity="0.1" style="isolation:isolate"/><path d="M642.683,437.5c-.076-.1,18.768,23.711,33.415,9.955C676.1,447.451,652.964,450.586,642.683,437.5Z" transform="translate(-389.664 -70.367)" opacity="0.1" style="isolation:isolate"/><path d="M630.465,451.464s11.281.306,12.463,3.552v3.379a2.162,2.162,0,0,1-2.085,0c-1.141-.612-7.96-4.081-10.365-2.412Z" transform="translate(-388.276 -71.954)" opacity="0.1" style="isolation:isolate"/><path d="M630.7,451.464s10.789.292,11.921,3.385v3.225a2.086,2.086,0,0,1-2.009,0c-1.091-.59-7.646-3.893-9.912-2.3Z" transform="translate(-388.302 -71.954)" fill="#3f3d56"/><path d="M637.413,423.8a36.381,36.381,0,0,0,4.372,7.5,29.308,29.308,0,0,0,6.854,6.618S637.6,425.374,637.413,423.8Z" transform="translate(-389.065 -68.81)" opacity="0.1" style="isolation:isolate"/><path d="M633.249,409.036s1.883,8.126,6.728,10.885Z" transform="translate(-388.592 -67.132)" opacity="0.1" style="isolation:isolate"/><path d="M629.949,409.961c-.049-.152-1.675,6.423,6.256,10.065C636.205,420.026,632.855,418.886,629.949,409.961Z" transform="translate(-388.198 -67.237)" opacity="0.1" style="isolation:isolate"/><path d="M685.574,403.812a58.336,58.336,0,0,1,5.005,3.761S687.958,403.646,685.574,403.812Z" transform="translate(-394.538 -66.538)" opacity="0.1" style="isolation:isolate"/><path d="M655.715,394.6a2.122,2.122,0,0,0,.772,1.349,2.184,2.184,0,0,0,.938.208c3.038.188,6.194.32,9.037-.848a3.364,3.364,0,0,0,1.39-.91,5.422,5.422,0,0,0,.737-2.19,34.158,34.158,0,0,1,1.842-4.226,14.207,14.207,0,0,0,.98-7.591,5.087,5.087,0,0,0-.758-2.225c-.807-1.147-2.273-1.612-3.337-2.53s-1.751-2.315-2.989-3a5.811,5.811,0,0,0-3.754-.334,19.823,19.823,0,0,0-7.007,2.635,3.472,3.472,0,0,1-2.343.8,3.222,3.222,0,0,1-1.724-1.321,9.255,9.255,0,0,0-.744,4.33,1.281,1.281,0,0,1-.466,1.349c-.751.869-1.216,2.245-.48,3.121.327.382.821.591,1.134.98.563.695.368,1.7.355,2.6a1.387,1.387,0,0,0,.222.883,1.291,1.291,0,0,0,1.23.292,3.373,3.373,0,0,1,1.306-.125,2.205,2.205,0,0,1,1.14.876A15.886,15.886,0,0,1,655.715,394.6Z" transform="translate(-390.205 -62.938)" fill="#2d293d"/><g transform="translate(257.167 317.498)" opacity="0.1"><path d="M668.094,394.694a3.305,3.305,0,0,1-1.391.9c-2.78,1.174-5.964,1.035-8.995.847a2.036,2.036,0,0,1-.939-.208,2.086,2.086,0,0,1-.778-1.342,15.511,15.511,0,0,0-2.538-5.887,2.164,2.164,0,0,0-1.14-.876,3.357,3.357,0,0,0-1.307.125,1.293,1.293,0,0,1-1.23-.292,1.353,1.353,0,0,1-.216-.884c0-.9.2-1.9-.361-2.6-.313-.389-.807-.6-1.134-.979a1.961,1.961,0,0,1-.187-2,2.29,2.29,0,0,0-.146,2.67c.326.382.82.59,1.133.979.563.7.369,1.7.354,2.6a1.393,1.393,0,0,0,.223.883,1.285,1.285,0,0,0,1.23.293,3.345,3.345,0,0,1,1.307-.125,2.2,2.2,0,0,1,1.14.876,15.778,15.778,0,0,1,2.537,5.887,2.126,2.126,0,0,0,.772,1.349,2.175,2.175,0,0,0,.939.208c3.038.188,6.193.32,9.036-.848a3.417,3.417,0,0,0,1.39-.91,2.665,2.665,0,0,0,.432-.807A.5.5,0,0,1,668.094,394.694Z" transform="translate(-647.363 -381.501)"/></g><path d="M654.769,404.254s12.436,1.648,13.554-.222" transform="translate(-391.038 -66.564)" opacity="0.1" style="isolation:isolate"/><path d="M682.045,398.48s6.9,0,8.425,2.6" transform="translate(-394.138 -65.933)" opacity="0.1" style="isolation:isolate"/><ellipse cx="69.816" cy="7.117" rx="69.816" ry="7.117" transform="translate(327.892 503.749)" fill="#63ff91" opacity="0.1" style="isolation:isolate"/><path d="M779.72,585.43c3.383.44,6.893.745,10.135-.343.5-.157,1.073-.5,1.006-1.013a1.182,1.182,0,0,0-.231-.492,31.581,31.581,0,0,1-3.077-5.836.478.478,0,0,0-.187-.261.454.454,0,0,0-.328,0c-1.49.387-2.787,1.356-4.278,1.766a6.088,6.088,0,0,1-2.325.179c-.671-.074-1.6-.633-2.2-.566C778.609,581.078,779.458,583.172,779.72,585.43Z" transform="translate(-405.069 -86.273)" fill="#63ff91"/><path d="M851.685,578.569c2.236-1.49,4.546-3.145,5.866-5.507a.9.9,0,0,0,.156-.47.965.965,0,0,0-.186-.462,19.1,19.1,0,0,0-4.762-5.143,14.11,14.11,0,0,0-2.661,2.452c-.558.589-2.109,1.557-2.124,2.438,0,.529.589,1.1.864,1.49.373.551.745,1.118,1.066,1.685A27.918,27.918,0,0,1,851.685,578.569Z" transform="translate(-412.995 -85.083)" fill="#63ff91"/><path d="M790.446,592.732a2.237,2.237,0,0,1-.4,1.49,1.99,1.99,0,0,1-.857.5c-4.739,1.691-10.195-.425-14.9,1.251-.977.343-1.893.835-2.869,1.163a15.528,15.528,0,0,1-3.555.633c-1.677.164-3.354.262-5.031.306a12.18,12.18,0,0,1-3.786-.328,4.583,4.583,0,0,1-2.906-2.3,2.233,2.233,0,0,1-.142-1.64,1.87,1.87,0,0,1,.306-.529,4.535,4.535,0,0,1,1.118-.9l1.744-1.126a11.662,11.662,0,0,1,2.638-1.4c.686-.223,1.423-.32,2.117-.521,2.452-.745,4.315-2.661,6.052-4.524l2.369-2.526a2.315,2.315,0,0,1,.82-.656,2.238,2.238,0,0,1,1.014-.1,13.7,13.7,0,0,1,6.461,2.176,9.32,9.32,0,0,0,1.595.94,5.7,5.7,0,0,0,4.472-.559c.611-.321.477-.522.745-1.1s.879-.947,1.416-.417a1.565,1.565,0,0,1,.336.641,17.8,17.8,0,0,1,.32,5.269,2.336,2.336,0,0,0,.1.82,5.051,5.051,0,0,0,.462.745,1.194,1.194,0,0,1,.1.193A5.169,5.169,0,0,1,790.446,592.732Z" transform="translate(-402.531 -86.732)" fill="#514e7f"/><path d="M790.446,593.852a2.237,2.237,0,0,1-.4,1.49,1.99,1.99,0,0,1-.857.5c-4.739,1.691-10.195-.425-14.9,1.251-.977.343-1.893.835-2.869,1.163a15.528,15.528,0,0,1-3.555.633c-1.677.164-3.354.262-5.031.306a12.18,12.18,0,0,1-3.786-.328,4.583,4.583,0,0,1-2.906-2.3,2.233,2.233,0,0,1-.142-1.64,1.87,1.87,0,0,1,.306-.529c.283.581.484,1.342.656,1.618a3.308,3.308,0,0,0,2.235,1.6,5.676,5.676,0,0,0,2.02-.262c4.293-1.065,8.854-1.08,12.967-2.69a30.827,30.827,0,0,1,4.248-1.632,33.732,33.732,0,0,1,4.59-.373c2.422-.193,4.762-.924,7.155-1.3A5.161,5.161,0,0,1,790.446,593.852Z" transform="translate(-402.531 -87.852)" fill="#464353"/><path d="M860.936,578.669a8.6,8.6,0,0,1-2.616,4.658,29.825,29.825,0,0,0-3.652,4c-1.237,1.877-1.782,4.2-3.376,5.783a9.11,9.11,0,0,1-2.027,1.491,14.03,14.03,0,0,1-2.631,1.207,20.154,20.154,0,0,1-7.453.41,6.637,6.637,0,0,1-2.355-.463,6.762,6.762,0,0,1-1-.6,4.74,4.74,0,0,1-1.491-1.542,1.555,1.555,0,0,1-.142-1.111,2.536,2.536,0,0,1,.745-1.088,16.792,16.792,0,0,1,1.8-1.617,10.66,10.66,0,0,0,2.34-2.057,6.7,6.7,0,0,0,.9-2.057,18.4,18.4,0,0,0,.656-3.912,12.354,12.354,0,0,1,.276-2.616c.38-1.342,1.379-2.556,1.26-3.95a1.015,1.015,0,0,1,.052-.6.924.924,0,0,1,.47-.291,8.486,8.486,0,0,1,2.445-.559,2.816,2.816,0,0,1,2.235.887c.35.417.573,1,1.088,1.185a1.817,1.817,0,0,0,.745,0,6.345,6.345,0,0,0,3.548-1.1,4.471,4.471,0,0,0,1.49-3.257c0-.462-.208-.946.5-1.043.544-.074.969.492,1.244.865a12.153,12.153,0,0,1,2.392,4.359,1.231,1.231,0,0,1,.455-.089,1.947,1.947,0,0,1,1.625.835A3.219,3.219,0,0,1,860.936,578.669Z" transform="translate(-411.424 -85.474)" fill="#514e7f"/><path d="M860.96,579.334a8.6,8.6,0,0,1-2.616,4.658,29.825,29.825,0,0,0-3.652,4c-1.237,1.877-1.782,4.2-3.376,5.783a9.11,9.11,0,0,1-2.027,1.491,14.03,14.03,0,0,1-2.631,1.207,20.154,20.154,0,0,1-7.453.41,6.637,6.637,0,0,1-2.355-.463,6.762,6.762,0,0,1-1-.6,4.74,4.74,0,0,1-1.491-1.542,3.618,3.618,0,0,1,1.535-.365c1.111.059,1.915,1.1,2.982,1.424,1.49.455,2.981-.612,4.538-.977,1-.23,2.057-.164,3.033-.484a7.514,7.514,0,0,0,2.236-1.357,11.367,11.367,0,0,0,2.392-2.31,14.762,14.762,0,0,0,1.408-2.8,39.939,39.939,0,0,1,2.839-5.432,3.617,3.617,0,0,1,.581-.745c.231-.216.522-.372.745-.566a5.93,5.93,0,0,0,1.8-3.287,5.486,5.486,0,0,1,.4-1.1,1.947,1.947,0,0,1,1.625.835A3.217,3.217,0,0,1,860.96,579.334Z" transform="translate(-411.448 -86.139)" fill="#464353"/><path d="M743.322,398.5a10.821,10.821,0,0,1,3.04,3.555c.745,1.4,4.837,12.281,4.6,13.84,1.342-1.357,6.663-1.58,8-2.929.566-.566,3.63-3.4,4.084-4.054s3.868-2.064,4.24-2.735c1.394-2.5-9.882-11.924-8.443-14.428a.612.612,0,0,0,.119-.387.59.59,0,0,0-.186-.3,17.969,17.969,0,0,0-3.264-2.236,5.214,5.214,0,0,1-2.489-2.981,10.7,10.7,0,0,0-2.884,1.953q-3.092,2.646-6.1,5.425c-.79.745-2.3,1.692-2.661,2.727S742.569,397.885,743.322,398.5Z" transform="translate(-400.874 -64.496)" fill="#a1616a"/><path d="M762.347,395.587a32.63,32.63,0,0,0-4.83,3.95,9.672,9.672,0,0,0-3.078,4.926c-.141.745-.119,1.535-.238,2.3-.5,3.339-3.4,5.791-4.673,8.943a15.254,15.254,0,0,0-.819,2.981,35.112,35.112,0,0,0-.582,5.858c0,1.908,1.833,3.219,2.519,5a30.394,30.394,0,0,1,1.214,5.418,66.063,66.063,0,0,0,3.048,10.061c2.519,6.953,10.68,26.181,13.2,33.142,7.714-1.938,28.253-6.387,35.079-10.433,2.281-1.357-15.8-16.679-13.362-17.738a1.231,1.231,0,0,0,.678-.514,1.18,1.18,0,0,0,0-.745c-2.43-10.65-10.054-19.377-13.5-29.811-1.2-3.6-3.354-6.67-4.993-10.1-1.491-3.1-2.274-6.521-4.04-9.464a6.338,6.338,0,0,0-1.289-1.618,7.964,7.964,0,0,0-1.432-.857C764.269,396.37,763.33,396.079,762.347,395.587Z" transform="translate(-401.647 -65.604)" fill="#514e7f"/><circle cx="12.073" cy="12.073" r="12.073" transform="translate(330.784 308.639)" fill="#a1616a"/><path d="M757.9,391.389a4.048,4.048,0,0,1,4.539-.649,2.237,2.237,0,0,1,1.349,2.176l5.962.09a12.47,12.47,0,0,1,2.84.261,4.125,4.125,0,0,1,2.369,1.49.515.515,0,0,0,.277.231.479.479,0,0,0,.276-.1,5.248,5.248,0,0,1,2.981-.537,16.122,16.122,0,0,1,8.764,3.853,2.842,2.842,0,0,1,1.043,1.275c.209.678,0,1.55.492,2.012,0,5.627,1.93,10.866,3.219,16.343a7.245,7.245,0,0,0,1.812,2.6,10.437,10.437,0,0,1,1.938,2.891c1.088,2.84-.417,6.171.648,9.026a14.553,14.553,0,0,0,2.057,3.241,8.358,8.358,0,0,1,1.751,4.189c.044.685-.045,1.371,0,2.064a12.544,12.544,0,0,0,.492,2.712c.432,1.647.894,3.295,1.371,4.933.745,2.654,1.789,5.523,4.166,6.938-5.746.977-11.8,1.923-17.275-.066a8.952,8.952,0,0,1-2.154-1.08c-1.975-1.409-2.929-3.824-3.779-6.1a28.668,28.668,0,0,1-2.117-7.87,9.009,9.009,0,0,0-.358-2.571c-.558-1.491-2.034-2.377-3.39-3.2a16.339,16.339,0,0,1-4.077-3.175,6.336,6.336,0,0,1-1.654-4.769c.1-.843.433-1.655.47-2.5a2.006,2.006,0,0,0-1.163-2.064c-4.181-1.267-6.178-6.215-7.109-10.486a33.43,33.43,0,0,1-.537-6.707l-.052-4.316a5.726,5.726,0,0,1-1.878-4.129,4.628,4.628,0,0,0,0-1.364,3.818,3.818,0,0,0-.954-1.49A12.608,12.608,0,0,1,757.9,391.389Z" transform="translate(-402.758 -65.005)" fill="#464353"/><path d="M743.276,406.642c-.134,1.349.172,2.728-.134,4.054-.119.507-.32.992-.47,1.491a8.8,8.8,0,0,0,.559,5.679,31.614,31.614,0,0,0,2.9,5.03,7.677,7.677,0,0,1,.932,1.737,8.966,8.966,0,0,1,.357,1.99,60.806,60.806,0,0,0,1.423,8,15.721,15.721,0,0,0,2.818,6.431,1.947,1.947,0,0,0,1.162.79,2.106,2.106,0,0,0,.992-.208l3.085-1.17a2.163,2.163,0,0,0,.745-.387,1.876,1.876,0,0,0,.432-1.207,17.744,17.744,0,0,0-1.356-7.312c-2.5-7.109-5.828-13.958-7.452-21.314-.455-2.057-.693-5.217-2.191-6.82-.619-.671-.41-.387-1.148,0a9.194,9.194,0,0,0-1.08.574A3.539,3.539,0,0,0,743.276,406.642Z" transform="translate(-401.001 -66.449)" fill="#464353"/><path d="M809.868,457.026" transform="translate(-408.664 -72.586)" fill="#464353"/><path d="M753.782,419.643q1.23,6.507,2.512,13.02l11.984-3.145a8.407,8.407,0,0,0-1.036-3.585c-1.1-2.742-1.118-5.791-2-8.607-.67-2.147-1.833-4.122-2.459-6.282-.365-1.252-.544-2.563-.9-3.823a29.074,29.074,0,0,0-1.408-3.645,23.254,23.254,0,0,0-2.616-4.852c-1.535.574-3.168,1.237-4.039,2.616a5.556,5.556,0,0,0-.745,2.579c-.209,2.7.745,5.4.44,8.071A23.859,23.859,0,0,0,753.782,419.643Z" transform="translate(-402.206 -65.96)" fill="#63ff91"/><path d="M769.6,484.253c.671,2.564-.306,5.217-1.1,7.765a60.265,60.265,0,0,0-2.445,11.694,9.688,9.688,0,0,1-.6,2.981,27.838,27.838,0,0,1-1.454,2.385c-1.207,2.132-1.177,4.739-.917,7.177.172,1.61.433,3.212.745,4.8.4,1.93.879,3.958.313,5.843.947-.209,1.595,1.013,1.557,1.99s-.379,2.019.082,2.876c1.177.425,1.192,2.042,1.155,3.287a27.714,27.714,0,0,0,.813,6.439q2.667,12.811,5.664,25.555c4.315,1.341,9.353,2.734,13.466.879a2.645,2.645,0,0,0,1.707-1.714,3.086,3.086,0,0,0-.164-1.319l-1.953-7.1a13.056,13.056,0,0,1-.7-5.217c.193-1.319.745-2.734.119-3.89a11.136,11.136,0,0,0-.82-1.088c-1.028-1.491-.492-3.5-.4-5.314a4.148,4.148,0,0,0-.09-1.215,6.342,6.342,0,0,0-.573-1.334,20.367,20.367,0,0,1-2.235-10.135,2.5,2.5,0,0,0-.179-1.327,3.014,3.014,0,0,1-.328-.536,1.436,1.436,0,0,1,.1-.977,8.494,8.494,0,0,1-1.573-1.49,2.239,2.239,0,0,0,.373-3.443,1.148,1.148,0,0,0,.551-1.975c-.254-.179-.581-.254-.745-.507-.276-.372-.052-.9.172-1.3l1.192-2.154c.886-1.6,1.088-3.57,2.042-5.128a38.465,38.465,0,0,0,3.145-7.177l3.4-9.464,2.311,2a7.26,7.26,0,0,1,1.9,2.169,9.167,9.167,0,0,1,.611,2.593c.85,5.143,4.091,9.6,5.292,14.674a9.865,9.865,0,0,0,1.088,3.279,7.147,7.147,0,0,1,.626.94,4.947,4.947,0,0,1,.261,1.557,7.259,7.259,0,0,0,3.063,5.217c1.133.745,2.571,1.319,3.167,2.556a5.084,5.084,0,0,0,.522,1.088c.551.663,1.744.745,1.982,1.572.127.469-.119,1.021.15,1.431a1.3,1.3,0,0,0,.558.417l3.332,1.669c3.726,1.856,5.6,6.111,8.354,9.234a19.184,19.184,0,0,1,2.5,3.309c1.185,2.117,1.736,4.777,3.726,6.142a5.779,5.779,0,0,1,1.446,1.072c.634.828.4,1.99.455,3.034s.857,2.281,1.848,1.967a7.2,7.2,0,0,0,0,3.853,19.419,19.419,0,0,0,11.775-4.769,4.645,4.645,0,0,0,1.915-3.212,1.241,1.241,0,0,0-.142-.641,1.734,1.734,0,0,0-.745-.566c-3.108-1.684-4.047-5.589-5.6-8.764-1.379-2.795-3.406-5.217-5.128-7.811-3.726-5.589-6.216-12.349-11.812-16.046-1.23-.812-2.661-1.535-3.272-2.876a22.9,22.9,0,0,1-.656-2.385,2,2,0,0,0-1.751-1.49,10.63,10.63,0,0,0,.4-3.726,4.642,4.642,0,0,0-.186-1.6,7.572,7.572,0,0,0-.82-1.58,15.312,15.312,0,0,1-2.11-8.2,13.2,13.2,0,0,0-.141-4.4c-.224-.745-.612-1.364-.887-2.057a12.81,12.81,0,0,1-.641-3.838l-.306-4.911a23.508,23.508,0,0,0-.634-4.852c-1.035-3.808-2.027-19.764-5.537-21.561s-9.5,10.478-13.415,10.725a17.875,17.875,0,0,0-5.127.984,24.847,24.847,0,0,0-6.953,4.613l-7.244,6.081A26.371,26.371,0,0,1,769.6,484.253Z" transform="translate(-403.332 -72.746)" fill="#464353"/><path d="M730.851,369.561a9.107,9.107,0,0,1,7.028-3.428,16.4,16.4,0,0,1,7.766,1.953,10.013,10.013,0,0,0,2.235.932c1.282.261,2.7-.089,3.853.522,1.535.812,1.826,2.884,1.692,4.613s-.455,3.622.462,5.105a13.978,13.978,0,0,1,.887,1.327,4.423,4.423,0,0,1-.082,2.839,22.743,22.743,0,0,1-1.49-1.87,1.735,1.735,0,0,0-2.109-.552c-.656.441-.656,1.252-.685,1.976s-.224,1.595-.909,1.833a1.49,1.49,0,0,1-1.491-.6c-1.17-1.431-.7-3.726-1.855-5.157-.664-.82-1.759-1.215-2.37-2.072-.477-.67-.6-1.542-1.014-2.235s-1.393-1.26-2.049-.745a2.8,2.8,0,0,0-.544.745,3.138,3.138,0,0,1-3.726,1.118,6.555,6.555,0,0,0-1.617-.693,1.991,1.991,0,0,0-1.841,1,3.964,3.964,0,0,0-.485,2.132c0,1.006.179,2.109-.4,2.928a3.028,3.028,0,0,1-.864.745c-.857.544-2.027.909-2.832.291a2.131,2.131,0,0,1-.634-1.983,16.332,16.332,0,0,1,.6-2.094c.448-1.58-.134-3.361.358-4.852A15.266,15.266,0,0,1,730.851,369.561Z" transform="translate(-399.33 -62.257)" fill="#464353"/><path d="M738.545,407.852a1.861,1.861,0,0,0,.112,1.11,1.8,1.8,0,0,0,.6.581,12.5,12.5,0,0,0,5.694,1.841,1.728,1.728,0,0,1,.745.2,1.41,1.41,0,0,1,.335,1.587,4.238,4.238,0,0,0-.358,1.684c.15,1.066,1.409,1.55,2.482,1.685a5.756,5.756,0,0,0,4.316-.835,6.653,6.653,0,0,0,1.781-2.676c2.929-6.707,3.958-14.159,6.924-20.867a4.248,4.248,0,0,0,.447-1.393,1.388,1.388,0,0,0-.551-1.29c-.551-.342-1.408-.149-1.782-.678-.186-.276-.164-.641-.328-.924-.343-.612-1.236-.537-1.855-.865-.478-.261-.813-.745-1.342-.886a1.715,1.715,0,0,0-1.4.6c-1.736,1.625-2.653,3.927-3.622,6.1a72.484,72.484,0,0,1-5.217,9.621c.231-.357-1.1-3.077-1.625-3.182-.909-.186-2.086,1.416-2.578,2.019A12.787,12.787,0,0,0,738.545,407.852Z" transform="translate(-400.554 -64.529)" fill="#63ff91"/><rect width="58.153" height="58.153" transform="translate(344.087 352.863)" fill="#fff"/><path d="M809.991,457.161a23.567,23.567,0,0,0-2.757,2.892,5.76,5.76,0,0,0-1.267,3.726,1.92,1.92,0,0,0,.357,1.088.932.932,0,0,0,1.036.32,1.487,1.487,0,0,0,.507-.455,23.824,23.824,0,0,1,1.714-1.863c.223-.216.507-.447.8-.365a.854.854,0,0,1,.35.231,2.374,2.374,0,0,1,.745,1.125,2.671,2.671,0,0,1-.79,2.169A5.627,5.627,0,0,0,809.357,468a.843.843,0,0,0,0,.634,1.041,1.041,0,0,0,.4.343,5.756,5.756,0,0,0,4.822.313c1.036-.409,1.931-1.126,2.981-1.491a7.074,7.074,0,0,0,1.32-.492,2.714,2.714,0,0,0,1.17-1.743,7.47,7.47,0,0,0,.082-2.154,24.6,24.6,0,0,0-1.8-8.123.975.975,0,0,0-.291-.433,1.027,1.027,0,0,0-.492-.141c-1.3-.135-3.451-.806-4.71-.321a3.231,3.231,0,0,0-1.111.991C811.437,455.649,809.991,456.819,809.991,457.161Z" transform="translate(-408.221 -72.268)" fill="#a1616a"/><path d="M807.656,450.115c0-1.252-1.55-4.255.9-4.472,0-1.326-1.885-2.161-1.542-3.562.119-.477.5-.857.558-1.334.157-1.364-2.3-2.1-1.9-3.413.149-.5.693-.8.812-1.312.277-1.177-1.833-1.706-1.87-2.913,0-.41.223-.8.208-1.2,0-.514-.447-.9-.693-1.341-.633-1.141-.327-2.907-1.49-3.488.745.059,1.036-1.081.708-1.782s-.97-1.3-.97-2.079a3.3,3.3,0,0,0,0-.857c-.215-.745-1.438-.8-1.639-1.542a7.861,7.861,0,0,1,0-.843c-.074-.581-.671-.939-1.23-1.11a4.9,4.9,0,0,1-1.639-.581c-.358-.276-.745-.745-1.156-.485-.141.082-.216.246-.328.373-.455.529-1.326.3-1.907-.1a7.887,7.887,0,0,1-2.921-5.261c-.373-2.027-.35-4.122-.8-6.134a13.943,13.943,0,0,0-.544-1.833,9.466,9.466,0,0,1-.864-1.834c-.09-1.17,2.34-.372,3.264-.253a14.439,14.439,0,0,1,2.653.5,28.111,28.111,0,0,1,2.705,1.185c3.726,1.632,8.139,1.833,11.105,4.568.976.9,1.8,2.079,3.055,2.482a15.658,15.658,0,0,1,1.714.447c1.408.664,1.625,2.527,2.392,3.876a8.414,8.414,0,0,1,.634,1.118,4.419,4.419,0,0,1,.2,1.431l.1,3.54a130.767,130.767,0,0,1-.283,17.767,14.658,14.658,0,0,0,.066,5.814c.15.506.365.991.492,1.49a10.118,10.118,0,0,1,.194,1.841l.082,2.288a.553.553,0,0,1-.73.679c-3.2-.284-6.417-2.087-9.435-1" transform="translate(-406.332 -66.376)" fill="#464353"/><path d="M742.846,445.594a.98.98,0,0,0-.358.3,2.542,2.542,0,0,0,0,3.026,1.03,1.03,0,0,1,.179.3.88.88,0,0,1-.09.507,1.676,1.676,0,0,0,.231,1.878c.23.193.543.291.693.544.261.432-.1.983-.045,1.49.074.664.857.992,1.491,1.073a1.585,1.585,0,0,0,1.453-.387,1.207,1.207,0,0,0,0-1.319,3.521,3.521,0,0,0-.983-.984,1.492,1.492,0,0,0,1.408-1.364,2.119,2.119,0,0,0-.85-1.856c-.134-.112-.3-.223-.335-.4s.142-.425.3-.6c.745-.745,1.32-2.571-.081-2.982a3.456,3.456,0,0,0-1.491.067c-.357.112-.357.328-.633.477S743.159,445.437,742.846,445.594Z" transform="translate(-400.95 -71.193)" fill="#a1616a"/><path d="M758.752,387.624a2.461,2.461,0,0,0-1.893.955,5.452,5.452,0,0,0-.79,2.533,22.232,22.232,0,0,1-2.981,8.094" transform="translate(-402.211 -64.699)" opacity="0.1" style="isolation:isolate"/><path d="M761.705,389.928a2.893,2.893,0,0,0-2.475,1.491,8.269,8.269,0,0,0-.626,2.526,13.727,13.727,0,0,1-2.482,5.3" transform="translate(-402.556 -64.961)" opacity="0.1" style="isolation:isolate"/><path d="M794.746,444.661a5.446,5.446,0,0,0-5.217-5.679c-3.883-.186-7.833-.254-11.872-.254H776.4c-4.032,0-8,.067-11.872.254a5.448,5.448,0,0,0-5.173,5.694c-.179,2.5-.253,4.986-.246,7.452s.066,4.986.238,7.453a5.462,5.462,0,0,0,5.172,5.708c4.069.186,8.25.269,12.5.269s8.421-.074,12.506-.269a5.492,5.492,0,0,0,5.216-5.708c.164-2.5.246-4.987.238-7.491s-.066-4.978-.23-7.452Zm-21.114,14.362V445.265l10.151,6.872Z" transform="translate(-402.895 -70.507)" fill="#63ff91"/></svg>