<?xml version="1.0" encoding="utf-8"?>
<!-- Generator: Adobe Illustrator 25.0.0, SVG Export Plug-In . SVG Version: 6.00 Build 0)  -->
<svg version="1.1" id="Layer_1" xmlns="http://www.w3.org/2000/svg" xmlns:xlink="http://www.w3.org/1999/xlink" x="0px" y="0px"
	 viewBox="0 0 220 124" style="enable-background:new 0 0 220 124;" xml:space="preserve">
<style type="text/css">
	.st0{fill:#FFFFFF;}
</style>
<g>
	<path class="st0" d="M142.9,93.3c-1.4-0.2-2.7-0.4-4.1-0.7c-1.2-0.3-2.3-0.6-3.5-1c-0.2-0.1-0.5-0.4-0.5-0.6c0-2.8,0-5.5,0-8.3
		c0-0.1,0-0.2,0.1-0.3c0.6,0.3,1.1,0.5,1.6,0.7c3.7,1.6,7.5,2.2,11.5,1.6c3.8-0.5,5.9-2.6,6.4-6.4c0.1-0.8,0.1-1.5,0.2-2.4
		c-0.3,0.1-0.6,0.2-0.8,0.3c-4.6,1.6-9.1,1.4-13.4-1c-3.1-1.7-4.8-4.5-5.7-7.8c-0.9-3.4-0.9-6.9,0.2-10.3c1.5-5.1,5.1-8.2,9.9-10.1
		c3.1-1.2,6.4-1.7,9.7-1.8c5-0.2,9.9,0.3,14.9,1.3c-0.1,0.2-0.1,0.4-0.2,0.5c-1,2-1.9,4-2.9,6.1c-0.2,0.4-0.4,0.5-0.8,0.4
		c-0.5-0.1-1-0.1-1.6-0.2c0,1,0,1.9,0,2.8c0.1,6.1,0.2,12.2,0.2,18.4c0,2.2-0.3,4.4-0.7,6.6c-1.3,6.2-5.3,9.9-11.4,11.5
		c-1.3,0.3-2.7,0.5-4,0.7C146.3,93.3,144.6,93.3,142.9,93.3z M154.4,53.1c-2.5-0.2-4.7,0.2-6.8,1.4c-1.4,0.8-2.3,2-2.8,3.4
		c-0.8,2.5-0.9,5,0,7.4c0.8,2.2,2.4,3.4,4.6,3.8c1.6,0.3,3.1,0.1,4.6-0.3c0.5-0.1,0.6-0.4,0.6-0.9c-0.1-4.5-0.1-9-0.2-13.4
		C154.4,54.1,154.4,53.6,154.4,53.1z"/>
	<path class="st0" d="M20.7,60.2c0.2-1,0.3-2,0.5-3c1.4-6.5,6.2-10.9,12.9-11.9c2.5-0.4,4.9-0.4,7.4,0.1c0.1,0,0.2,0,0.4,0
		c0-4.9,0-9.9,0-14.8c3.3,0,6.5,0,9.8,0c0,15.1,0,30.2,0,45.4c-1.6,0.2-3.1,0.5-4.6,0.7c-4,0.5-7.9,0.8-11.9,0.3
		c-1.8-0.2-3.7-0.6-5.4-1.2c-5.2-1.8-8-5.6-8.8-11c-0.1-0.6-0.2-1.3-0.3-1.9C20.7,62.1,20.7,61.2,20.7,60.2z M41.8,69.2
		c0-0.1,0.1-0.1,0.1-0.2c0-5,0-10.1,0-15.1c0-0.2-0.3-0.5-0.5-0.5c-1-0.2-2.1-0.4-3.1-0.4c-3.9,0.1-6.5,2.1-7.3,5.9
		c-0.3,1.6-0.3,3.3,0,4.9c0.5,2.3,1.7,4.1,4,5C37.2,69.7,39.5,69.5,41.8,69.2z"/>
	<path class="st0" d="M184.6,77.9c-3.3,0-6.2-0.5-8.9-2c-3.8-2.1-5.9-5.4-6.8-9.6c-0.8-3.6-0.7-7.2,0.4-10.7
		c1.9-5.9,5.9-9.2,12-10.3c2.9-0.5,5.8-0.4,8.6,0.4c5,1.4,8.3,4.6,9.8,9.5c1.2,4,1.2,8.1,0,12.2c-1.9,5.9-6,9.3-12.1,10.3
		c-0.4,0.1-0.8,0.1-1.2,0.1C185.6,77.8,185,77.8,184.6,77.9z M190.5,61.4c0-2.2-0.3-3.9-1-5.3c-0.7-1.5-1.8-2.6-3.5-3
		c-2.8-0.7-5.5,0.5-6.6,3.3c-1.3,3.3-1.3,6.7,0,10.1c0.9,2.3,2.7,3.5,5.2,3.5c2.5,0,4.1-1.3,5.1-3.6
		C190.3,64.8,190.5,63.1,190.5,61.4z"/>
	<path class="st0" d="M131,77c-3.3,0-6.5,0-9.8,0c0-0.3,0-0.6,0-0.9c0-5.9,0-11.7,0-17.6c0-0.8,0-1.6-0.2-2.4
		c-0.3-1.8-1.3-2.8-3.2-3.1c-1.9-0.3-3.7,0-5.5,0.5c-0.2,0.1-0.4,0.4-0.4,0.6c0,0.9,0,1.8,0,2.7c0,6.4,0,12.8,0,19.2
		c0,0.3,0,0.6,0,0.9c-3.3,0-6.5,0-9.8,0c0-0.3,0-0.5,0-0.8c0-9.4,0-18.8,0-28.1c0-0.6,0.2-0.8,0.8-1c5.1-1.3,10.2-2.1,15.4-2
		c2.3,0,4.5,0.3,6.7,1.2c4.1,1.6,6,4.7,6.1,9c0.1,7.2,0.1,14.3,0.1,21.5C131.1,76.7,131,76.8,131,77z"/>
	<path class="st0" d="M97.3,76.6c-3.2,0.3-6.3,0.6-9.4,0.8c-2.6,0.1-5.3,0-7.9,0c-0.7,0-1.4-0.2-2.1-0.4c-4.3-1.1-6.4-3.7-6.5-8
		c-0.2-4.6,1.7-7.6,5.9-9.4c3.2-1.4,6.6-1.9,10.1-2.2c0.3,0,0.6-0.1,1-0.1c0-0.9,0-1.7,0-2.5c-0.1-1.1-0.6-1.8-1.7-1.8
		c-1.6-0.1-3.3-0.1-4.9,0.1c-2.7,0.3-5.2,1.2-7.7,2.4c-0.2,0.1-0.4,0.2-0.6,0.3c0-0.2-0.1-0.4-0.1-0.5c0-2.2,0-4.3,0-6.5
		c0-0.3,0.2-0.6,0.4-0.7c5.4-2.4,11-3.4,16.8-2.4c0.4,0.1,0.9,0.2,1.3,0.3c3.1,1,4.9,3.1,5.2,6.4c0.1,1,0.2,2,0.2,2.9
		c0,6.9,0,13.7,0,20.6C97.3,76,97.3,76.2,97.3,76.6z M88.7,63.5c-2.1,0.4-4,0.8-5.9,1.2c-0.6,0.2-1.3,0.5-1.8,1
		c-0.9,0.8-1,1.9-0.8,3c0.2,1,1,1.6,2,1.8c2.2,0.4,4.3,0.1,6.5-0.3C88.7,68,88.7,65.9,88.7,63.5z"/>
	<path class="st0" d="M57.6,45.8c3.3,0,6.5,0,9.8,0c0,0.3,0,0.5,0,0.8c0,8.3,0,16.6-0.1,25c0,3-0.2,6-1,8.9c-1.4,4.8-4.5,8-9,10.1
		c-0.2,0.1-0.4,0.1-0.6,0c-2.9-1.4-5.8-2.7-8.8-4.2c0.2-0.1,0.4-0.2,0.5-0.3c0.7-0.4,1.4-0.7,2-1.1c3.9-2.1,6-5.5,6.5-9.8
		c0.3-2.9,0.4-5.9,0.5-8.8c0.1-6.5,0-13.1,0-19.6C57.6,46.4,57.6,46.1,57.6,45.8z"/>
	<path class="st0" d="M57.6,40.7c0-3.4,0-6.7,0-10c3.3,0,6.5,0,9.8,0c0,3.3,0,6.7,0,10C64.1,40.7,60.9,40.7,57.6,40.7z"/>
	<path class="st0" d="M190.5,61.4c0,1.7-0.2,3.4-0.8,4.9c-0.9,2.2-2.6,3.5-5.1,3.6c-2.5,0-4.3-1.2-5.2-3.5c-1.3-3.3-1.3-6.7,0-10.1
		c1.1-2.8,3.8-4,6.6-3.3c1.7,0.4,2.7,1.5,3.5,3C190.1,57.5,190.5,59.2,190.5,61.4z"/>
</g>
</svg>
