<svg width="47" height="36" viewBox="0 0 47 36" fill="none" xmlns="http://www.w3.org/2000/svg">
<path d="M0 0V1.5V14.9941H5.875V36H8.8125V14.9941H14.6875V1.5V0H11.75V1.5V11.9941H8.8125V0H5.875V11.9941H2.9375V1.5V0H0ZM32.3125 3C24.2182 3 17.625 9.7335 17.625 18C17.625 26.2665 24.2182 33 32.3125 33C40.4068 33 47 26.2665 47 18C47 9.7335 40.4068 3 32.3125 3ZM32.3125 6C38.8192 6 44.0625 11.355 44.0625 18C44.0625 24.6453 38.8192 30 32.3125 30C25.8058 30 20.5625 24.6453 20.5625 18C20.5625 11.355 25.8058 6 32.3125 6ZM32.3125 9C27.4629 9 23.5 13.0473 23.5 18C23.5 22.953 27.4629 27 32.3125 27C37.1621 27 41.125 22.953 41.125 18C41.125 13.0473 37.1621 9 32.3125 9ZM32.3125 12C35.5746 12 38.1875 14.6685 38.1875 18C38.1875 21.3315 35.5746 24 32.3125 24C29.0504 24 26.4375 21.3315 26.4375 18C26.4375 14.6685 29.0504 12 32.3125 12Z" fill="#170704"/>
</svg>
