<svg width="88" height="88" viewBox="0 0 88 88" fill="none" xmlns="http://www.w3.org/2000/svg">
<rect width="88" height="88" rx="25" fill="#E5F8FF"/>
<g clip-path="url(#clip0)">
<path d="M44 67.25C56.8406 67.25 67.25 56.8406 67.25 44C67.25 31.1594 56.8406 20.75 44 20.75C31.1594 20.75 20.75 31.1594 20.75 44C20.75 56.8406 31.1594 67.25 44 67.25Z" fill="white"/>
<path d="M44 21.5C56.45 21.5 66.5 31.55 66.5 44C66.5 56.45 56.45 66.5 44 66.5C31.55 66.5 21.5 56.45 21.5 44C21.5 31.55 31.55 21.5 44 21.5ZM44 20C30.8 20 20 30.8 20 44C20 57.2 30.8 68 44 68C57.2 68 68 57.2 68 44C68 30.8 57.2 20 44 20Z" fill="#00B3FF"/>
<path d="M44 67.25C43.1 67.25 42.05 67.25 41 67.1C30.5 65.75 22.1 57.2 20.9 46.85C19.7 36.2 25.55 26.45 35.3 22.55L34.4 25.55V27.95L33.35 29.45V33.8L34.25 33.65C34.25 33.65 35.15 33.5 36.35 33.5C38.15 33.5 41.3 33.8 41.9 35.9C42.2 36.95 42.65 37.55 43.4 37.55C43.85 37.55 44.6 37.25 45.05 35.75C45.5 34.25 45.8 31.55 44.45 30.05C46.1 29.9 48.95 29.75 49.55 27.5C50 25.4 51.65 23.3 52.55 22.1C61.55 25.55 67.55 34.25 67.55 43.85C67.55 50.45 64.7 56.9 59.75 61.25C60.65 58.7 61.7 55.85 62.3 54.5C63.65 51.65 61.85 46.7 61.7 46.55V46.4L61.55 46.25C61.4 46.1 57.95 42.95 54.8 42.95C54.35 42.95 53.9 43.1 53.45 43.25C53 43.4 52.85 43.4 52.7 43.4C52.7 43.4 52.7 43.25 52.7 43.1C52.4 41.9 51.65 40.7 48.65 40.55C44.6 40.55 42.5 44.15 42.35 46.55C42.2 48.2 42.95 49.55 44.3 49.7C46.4 50 52.1 55.1 54.35 57.2L54.05 64.85C50.6 66.5 47.3 67.25 44 67.25Z" fill="#00B3FF"/>
<path d="M52.55 23.15C60.95 26.6 66.5 34.85 66.5 44C66.5 49.25 64.55 54.35 61.25 58.4C61.85 56.75 62.3 55.55 62.6 54.95C64.1 51.8 62.3 47 62.15 46.4L62 46.1L61.7 45.8C61.25 45.5 57.8 42.2 54.35 42.2C53.75 42.2 53.3 42.35 52.85 42.5C52.4 41.15 51.35 39.95 48.2 39.95H48.05C44 39.95 41.3 43.4 41.15 46.7C41 48.8 42.05 50.45 43.85 50.6C45.35 50.75 49.7 54.35 53.3 57.65L53 64.55C50 65.9 47 66.5 44 66.5C43.1 66.5 42.05 66.5 41.15 66.35C31.1 65 22.85 56.75 21.65 46.7C20.6 36.95 25.55 27.95 34.1 23.75L33.8 25.1V25.25V25.4V27.5L32.9 28.85L32.6 29.15V29.6V32.9V34.55L34.25 34.25C34.25 34.25 35.15 34.1 36.2 34.1C37.25 34.1 40.55 34.25 41 35.9C41.45 37.7 42.5 38.15 43.1 38.15C43.85 38.15 44.75 37.7 45.35 35.9C45.8 34.55 45.95 32.3 45.35 30.65C47.15 30.5 49.25 29.9 49.85 27.65C50.45 26.15 51.65 24.35 52.55 23.15ZM36.5 21.2C26 24.65 18.8 35 20.15 46.85C21.35 57.65 30.2 66.35 41 67.85C42.05 68 43.1 68 44 68C47.75 68 51.2 67.1 54.35 65.6L54.8 57.2C54.8 57.2 47 49.7 44 49.25C41 48.8 43.1 41.45 48.05 41.45H48.2C52.7 41.6 50.9 44.15 52.25 44.15C52.55 44.15 52.85 44.15 53.15 44C53.45 43.85 53.9 43.85 54.35 43.85C57.35 43.85 60.65 47 60.65 47C60.65 47 62.45 51.65 61.25 54.35C60.5 56.15 58.85 60.65 57.95 63.65C64.1 59.3 68 52.25 68 44.15C68 33.65 61.25 24.8 51.95 21.5C51.05 22.55 49.1 25.1 48.5 27.5C47.75 30.65 40.55 28.4 43.25 30.35C45.2 31.85 44.15 36.8 43.1 36.8C42.8 36.8 42.65 36.5 42.35 35.75C41.75 33.35 38.45 32.9 36.05 32.9C34.85 32.9 33.8 33.05 33.8 33.05V29.6L34.85 28.1V25.55L36.5 21.2Z" fill="#00B3FF"/>
</g>
<defs>
<clipPath id="clip0">
<rect width="48" height="48" fill="white" transform="translate(20 20)"/>
</clipPath>
</defs>
</svg>
