<svg width="147" height="40" viewBox="0 0 147 40" fill="none" xmlns="http://www.w3.org/2000/svg">
<rect width="72" height="40" rx="6" fill="#2A31F9"/>
<path d="M12.84 12.7222L19.132 22.8422V12.7222H21.728V27.0002H19.088L12.598 16.5282V27.0002H10.002V12.7222H12.84Z" fill="white"/>
<path d="M30.0175 16.0222C30.7362 16.0222 31.4109 16.1395 32.0415 16.3742C32.6722 16.5942 33.2149 16.9389 33.6695 17.4082C34.6815 18.4349 35.1875 19.8575 35.1875 21.6762C35.1875 23.4655 34.6815 24.8735 33.6695 25.9002C32.7602 26.8389 31.5429 27.3082 30.0175 27.3082C28.4922 27.3082 27.2602 26.8389 26.3215 25.9002C25.3095 24.8882 24.8035 23.4802 24.8035 21.6762C24.8035 19.8429 25.3095 18.4202 26.3215 17.4082C27.2455 16.4842 28.4775 16.0222 30.0175 16.0222ZM32.5915 21.6542C32.5915 20.5249 32.3715 19.6815 31.9315 19.1242C31.4915 18.5522 30.8755 18.2662 30.0835 18.2662C29.3062 18.2662 28.6682 18.5522 28.1695 19.1242C27.6709 19.6815 27.4215 20.5249 27.4215 21.6542C27.4215 22.7835 27.6415 23.6342 28.0815 24.2062C28.5362 24.7635 29.1522 25.0422 29.9295 25.0422C30.7069 25.0422 31.3449 24.7635 31.8435 24.2062C32.3422 23.6342 32.5915 22.7835 32.5915 21.6542Z" fill="white"/>
<path d="M42.4785 16.0222C43.1972 16.0222 43.8718 16.1395 44.5025 16.3742C45.1332 16.5942 45.6758 16.9389 46.1305 17.4082C47.1425 18.4349 47.6485 19.8575 47.6485 21.6762C47.6485 23.4655 47.1425 24.8735 46.1305 25.9002C45.2212 26.8389 44.0038 27.3082 42.4785 27.3082C40.9532 27.3082 39.7211 26.8389 38.7825 25.9002C37.7705 24.8882 37.2645 23.4802 37.2645 21.6762C37.2645 19.8429 37.7705 18.4202 38.7825 17.4082C39.7065 16.4842 40.9385 16.0222 42.4785 16.0222ZM45.0525 21.6542C45.0525 20.5249 44.8325 19.6815 44.3925 19.1242C43.9525 18.5522 43.3365 18.2662 42.5445 18.2662C41.7672 18.2662 41.1292 18.5522 40.6305 19.1242C40.1318 19.6815 39.8825 20.5249 39.8825 21.6542C39.8825 22.7835 40.1025 23.6342 40.5425 24.2062C40.9971 24.7635 41.6132 25.0422 42.3905 25.0422C43.1678 25.0422 43.8058 24.7635 44.3045 24.2062C44.8032 23.6342 45.0525 22.7835 45.0525 21.6542Z" fill="white"/>
<path d="M59.7134 17.5622C60.6228 18.5889 61.0774 19.9382 61.0774 21.6102C61.0774 23.2822 60.6008 24.6609 59.6474 25.7462C58.7234 26.7875 57.5721 27.3082 56.1934 27.3082C55.5334 27.3082 54.9248 27.1322 54.3674 26.7802C53.8248 26.4282 53.3921 25.8855 53.0694 25.1522L52.4314 27.0002H50.7374V11.9082H53.3334V17.6502C54.0081 16.5649 55.0128 16.0222 56.3474 16.0222C57.6968 16.0222 58.8188 16.5355 59.7134 17.5622ZM53.3334 20.9942V22.4022C53.3628 23.1502 53.6341 23.7662 54.1474 24.2502C54.6314 24.7195 55.2181 24.9542 55.9074 24.9542C56.6114 24.9542 57.2128 24.6535 57.7114 24.0522C58.2101 23.4362 58.4594 22.6295 58.4594 21.6322C58.4594 20.6349 58.2101 19.8429 57.7114 19.2562C57.2274 18.6549 56.6188 18.3542 55.8854 18.3542C55.1521 18.3542 54.5434 18.5962 54.0594 19.0802C53.5754 19.5642 53.3334 20.2022 53.3334 20.9942Z" fill="white"/>
<path d="M79.091 12.7222H90.531V14.9662H86.109V27.0002H83.513V14.9662H79.091V12.7222Z" fill="#2A31F9"/>
<path d="M95.31 18.4202C95.9553 16.8802 96.9233 16.1102 98.214 16.1102C98.4633 16.1102 98.7787 16.1615 99.16 16.2642L99.116 18.8602C98.7053 18.7722 98.302 18.7282 97.906 18.7282C96.1753 18.7282 95.31 19.9235 95.31 22.3142V27.0002H92.714V16.2862H95.31V18.4202Z" fill="#2A31F9"/>
<path d="M105.386 20.7522C106.237 20.7522 107.22 20.8915 108.334 21.1702V20.1142C108.334 19.3662 108.18 18.8162 107.872 18.4642C107.579 18.0975 107.088 17.9142 106.398 17.9142C105.724 17.9142 105.203 18.0535 104.836 18.3322C104.47 18.5962 104.286 18.9775 104.286 19.4762H101.448C101.448 18.2589 101.874 17.3789 102.724 16.8362C103.59 16.2935 104.792 16.0222 106.332 16.0222C108.532 16.0222 109.955 16.7922 110.6 18.3322C110.82 18.8602 110.93 19.4835 110.93 20.2022V27.0002H108.664L108.466 25.5702C107.777 26.7289 106.721 27.3082 105.298 27.3082C103.92 27.3082 102.849 26.9709 102.086 26.2962C101.382 25.6509 101.03 24.8369 101.03 23.8542C101.03 22.8569 101.419 22.0942 102.196 21.5662C102.974 21.0235 104.037 20.7522 105.386 20.7522ZM108.334 22.8202C107.469 22.5855 106.662 22.4682 105.914 22.4682C104.506 22.4682 103.802 22.9375 103.802 23.8762C103.802 24.2722 103.964 24.6169 104.286 24.9102C104.609 25.1889 105.122 25.3282 105.826 25.3282C106.545 25.3282 107.132 25.0935 107.586 24.6242C108.056 24.1402 108.305 23.5389 108.334 22.8202Z" fill="#2A31F9"/>
<path d="M121.688 25.3502C121.028 26.6555 120.016 27.3082 118.652 27.3082C117.288 27.3082 116.144 26.7875 115.22 25.7462C114.267 24.6609 113.79 23.2822 113.79 21.6102C113.79 19.9382 114.245 18.5815 115.154 17.5402C116.049 16.5282 117.163 16.0222 118.498 16.0222C119.833 16.0222 120.837 16.5575 121.512 17.6282V11.9082H124.13V27.0002H121.996L121.688 25.3502ZM118.982 18.3542C118.249 18.3542 117.633 18.6549 117.134 19.2562C116.65 19.8429 116.408 20.6349 116.408 21.6322C116.408 22.6295 116.657 23.4362 117.156 24.0522C117.655 24.6535 118.285 24.9542 119.048 24.9542C119.679 24.9542 120.243 24.7049 120.742 24.2062C121.255 23.6929 121.512 23.0475 121.512 22.2702V20.8842C121.483 20.1215 121.226 19.4982 120.742 19.0142C120.302 18.5742 119.715 18.3542 118.982 18.3542Z" fill="#2A31F9"/>
<path d="M135.686 17.5842C136.052 18.0535 136.324 18.5962 136.5 19.2122C136.69 19.8282 136.786 20.3929 136.786 20.9062C136.786 21.4195 136.756 21.8815 136.698 22.2922H129.79C129.819 23.1575 130.032 23.8615 130.428 24.4042C130.824 24.9469 131.425 25.2182 132.232 25.2182C133.302 25.2182 133.94 24.7489 134.146 23.8102H136.764C136.588 24.8809 136.096 25.7242 135.29 26.3402C134.454 26.9855 133.434 27.3082 132.232 27.3082C130.824 27.3082 129.643 26.7949 128.69 25.7682C127.707 24.6975 127.216 23.3262 127.216 21.6542C127.216 19.9382 127.707 18.5595 128.69 17.5182C129.628 16.5209 130.809 16.0222 132.232 16.0222C133.713 16.0222 134.864 16.5429 135.686 17.5842ZM132.254 18.0902C131.52 18.0902 130.948 18.3322 130.538 18.8162C130.127 19.2855 129.885 19.8942 129.812 20.6422H134.366C134.366 19.4835 133.999 18.7062 133.266 18.3102C132.987 18.1635 132.65 18.0902 132.254 18.0902Z" fill="#2A31F9"/>
<path d="M142.49 18.4202C143.135 16.8802 144.103 16.1102 145.394 16.1102C145.643 16.1102 145.958 16.1615 146.34 16.2642L146.296 18.8602C145.885 18.7722 145.482 18.7282 145.086 18.7282C143.355 18.7282 142.49 19.9235 142.49 22.3142V27.0002H139.894V16.2862H142.49V18.4202Z" fill="#2A31F9"/>
</svg>
