<svg width="147" height="40" viewBox="0 0 147 40" fill="none" xmlns="http://www.w3.org/2000/svg">
<rect width="72" height="40" rx="6" fill="white"/>
<path d="M12.84 12.722L19.132 22.842V12.722H21.728V27H19.088L12.598 16.528V27H10.002V12.722H12.84Z" fill="#2A31F9"/>
<path d="M30.0175 16.022C30.7362 16.022 31.4108 16.1393 32.0415 16.374C32.6722 16.594 33.2148 16.9387 33.6695 17.408C34.6815 18.4347 35.1875 19.8573 35.1875 21.676C35.1875 23.4653 34.6815 24.8733 33.6695 25.9C32.7601 26.8387 31.5428 27.308 30.0175 27.308C28.4922 27.308 27.2602 26.8387 26.3215 25.9C25.3095 24.888 24.8035 23.48 24.8035 21.676C24.8035 19.8427 25.3095 18.42 26.3215 17.408C27.2455 16.484 28.4775 16.022 30.0175 16.022ZM32.5915 21.654C32.5915 20.5247 32.3715 19.6813 31.9315 19.124C31.4915 18.552 30.8755 18.266 30.0835 18.266C29.3062 18.266 28.6681 18.552 28.1695 19.124C27.6708 19.6813 27.4215 20.5247 27.4215 21.654C27.4215 22.7833 27.6415 23.634 28.0815 24.206C28.5361 24.7633 29.1522 25.042 29.9295 25.042C30.7068 25.042 31.3448 24.7633 31.8435 24.206C32.3421 23.634 32.5915 22.7833 32.5915 21.654Z" fill="#2A31F9"/>
<path d="M42.4784 16.022C43.1971 16.022 43.8718 16.1393 44.5024 16.374C45.1331 16.594 45.6758 16.9387 46.1304 17.408C47.1424 18.4347 47.6484 19.8573 47.6484 21.676C47.6484 23.4653 47.1424 24.8733 46.1304 25.9C45.2211 26.8387 44.0038 27.308 42.4784 27.308C40.9531 27.308 39.7211 26.8387 38.7824 25.9C37.7704 24.888 37.2644 23.48 37.2644 21.676C37.2644 19.8427 37.7704 18.42 38.7824 17.408C39.7064 16.484 40.9384 16.022 42.4784 16.022ZM45.0524 21.654C45.0524 20.5247 44.8324 19.6813 44.3924 19.124C43.9524 18.552 43.3364 18.266 42.5444 18.266C41.7671 18.266 41.1291 18.552 40.6304 19.124C40.1318 19.6813 39.8824 20.5247 39.8824 21.654C39.8824 22.7833 40.1024 23.634 40.5424 24.206C40.9971 24.7633 41.6131 25.042 42.3904 25.042C43.1678 25.042 43.8058 24.7633 44.3044 24.206C44.8031 23.634 45.0524 22.7833 45.0524 21.654Z" fill="#2A31F9"/>
<path d="M59.7134 17.562C60.6227 18.5887 61.0774 19.938 61.0774 21.61C61.0774 23.282 60.6007 24.6607 59.6474 25.746C58.7234 26.7873 57.572 27.308 56.1934 27.308C55.5334 27.308 54.9247 27.132 54.3674 26.78C53.8247 26.428 53.392 25.8853 53.0694 25.152L52.4314 27H50.7374V11.908H53.3334V17.65C54.008 16.5647 55.0127 16.022 56.3474 16.022C57.6967 16.022 58.8187 16.5353 59.7134 17.562ZM53.3334 20.994V22.402C53.3627 23.15 53.634 23.766 54.1474 24.25C54.6314 24.7193 55.218 24.954 55.9074 24.954C56.6114 24.954 57.2127 24.6533 57.7114 24.052C58.21 23.436 58.4594 22.6293 58.4594 21.632C58.4594 20.6347 58.21 19.8427 57.7114 19.256C57.2274 18.6547 56.6187 18.354 55.8854 18.354C55.152 18.354 54.5434 18.596 54.0594 19.08C53.5754 19.564 53.3334 20.202 53.3334 20.994Z" fill="#2A31F9"/>
<path d="M79.0911 12.722H90.5311V14.966H86.1091V27H83.5131V14.966H79.0911V12.722Z" fill="white"/>
<path d="M95.31 18.42C95.9554 16.88 96.9234 16.11 98.2141 16.11C98.4634 16.11 98.7787 16.1613 99.16 16.264L99.116 18.86C98.7054 18.772 98.302 18.728 97.906 18.728C96.1754 18.728 95.31 19.9233 95.31 22.314V27H92.714V16.286H95.31V18.42Z" fill="white"/>
<path d="M105.386 20.752C106.237 20.752 107.22 20.8913 108.334 21.17V20.114C108.334 19.366 108.18 18.816 107.872 18.464C107.579 18.0973 107.088 17.914 106.398 17.914C105.724 17.914 105.203 18.0533 104.836 18.332C104.47 18.596 104.286 18.9773 104.286 19.476H101.448C101.448 18.2587 101.874 17.3787 102.724 16.836C103.59 16.2933 104.792 16.022 106.332 16.022C108.532 16.022 109.955 16.792 110.6 18.332C110.82 18.86 110.93 19.4833 110.93 20.202V27H108.664L108.466 25.57C107.777 26.7287 106.721 27.308 105.298 27.308C103.92 27.308 102.849 26.9707 102.086 26.296C101.382 25.6507 101.03 24.8367 101.03 23.854C101.03 22.8567 101.419 22.094 102.196 21.566C102.974 21.0233 104.037 20.752 105.386 20.752ZM108.334 22.82C107.469 22.5853 106.662 22.468 105.914 22.468C104.506 22.468 103.802 22.9373 103.802 23.876C103.802 24.272 103.964 24.6167 104.286 24.91C104.609 25.1887 105.122 25.328 105.826 25.328C106.545 25.328 107.132 25.0933 107.586 24.624C108.056 24.14 108.305 23.5387 108.334 22.82Z" fill="white"/>
<path d="M121.688 25.35C121.028 26.6553 120.016 27.308 118.652 27.308C117.288 27.308 116.144 26.7873 115.22 25.746C114.267 24.6607 113.79 23.282 113.79 21.61C113.79 19.938 114.245 18.5813 115.154 17.54C116.049 16.528 117.163 16.022 118.498 16.022C119.833 16.022 120.837 16.5573 121.512 17.628V11.908H124.13V27H121.996L121.688 25.35ZM118.982 18.354C118.249 18.354 117.633 18.6547 117.134 19.256C116.65 19.8427 116.408 20.6347 116.408 21.632C116.408 22.6293 116.657 23.436 117.156 24.052C117.655 24.6533 118.285 24.954 119.048 24.954C119.679 24.954 120.243 24.7047 120.742 24.206C121.255 23.6927 121.512 23.0473 121.512 22.27V20.884C121.483 20.1213 121.226 19.498 120.742 19.014C120.302 18.574 119.715 18.354 118.982 18.354Z" fill="white"/>
<path d="M135.686 17.584C136.052 18.0533 136.324 18.596 136.5 19.212C136.69 19.828 136.786 20.3927 136.786 20.906C136.786 21.4193 136.756 21.8813 136.698 22.292H129.79C129.819 23.1573 130.032 23.8613 130.428 24.404C130.824 24.9467 131.425 25.218 132.232 25.218C133.302 25.218 133.94 24.7487 134.146 23.81H136.764C136.588 24.8807 136.096 25.724 135.29 26.34C134.454 26.9853 133.434 27.308 132.232 27.308C130.824 27.308 129.643 26.7947 128.69 25.768C127.707 24.6973 127.216 23.326 127.216 21.654C127.216 19.938 127.707 18.5593 128.69 17.518C129.628 16.5207 130.809 16.022 132.232 16.022C133.713 16.022 134.864 16.5427 135.686 17.584ZM132.254 18.09C131.52 18.09 130.948 18.332 130.538 18.816C130.127 19.2853 129.885 19.894 129.812 20.642H134.366C134.366 19.4833 133.999 18.706 133.266 18.31C132.987 18.1633 132.65 18.09 132.254 18.09Z" fill="white"/>
<path d="M142.49 18.42C143.135 16.88 144.103 16.11 145.394 16.11C145.643 16.11 145.958 16.1613 146.34 16.264L146.296 18.86C145.885 18.772 145.482 18.728 145.086 18.728C143.355 18.728 142.49 19.9233 142.49 22.314V27H139.894V16.286H142.49V18.42Z" fill="white"/>
</svg>
