<svg width="108" height="27" viewBox="0 0 108 27" fill="none" xmlns="http://www.w3.org/2000/svg">
<path d="M7.488 5.28101C8.01667 5.42834 8.43267 5.69701 8.736 6.08701C9.03933 6.46834 9.191 6.95368 9.191 7.54301C9.191 8.33168 8.892 8.93834 8.294 9.36301C7.70467 9.78768 6.84233 10 5.707 10L1.365 10L1.365 0.900011L5.447 0.900011C6.487 0.900011 7.28867 1.10801 7.852 1.52401C8.424 1.94001 8.71 2.51634 8.71 3.25301C8.71 3.72968 8.59733 4.14134 8.372 4.48801C8.15533 4.83468 7.86067 5.09901 7.488 5.28101ZM2.665 1.95301L2.665 4.86501L5.33 4.86501C5.99733 4.86501 6.50867 4.74368 6.864 4.50101C7.228 4.24968 7.41 3.88568 7.41 3.40901C7.41 2.93234 7.228 2.57268 6.864 2.33001C6.50867 2.07868 5.99733 1.95301 5.33 1.95301L2.665 1.95301ZM5.655 8.94701C6.39167 8.94701 6.94633 8.82568 7.319 8.58301C7.69167 8.34034 7.878 7.95901 7.878 7.43901C7.878 6.42501 7.137 5.91801 5.655 5.91801L2.665 5.91801L2.665 8.94701L5.655 8.94701ZM12.2179 4.26701C12.4345 3.86834 12.7552 3.56501 13.1799 3.35701C13.6045 3.14901 14.1202 3.04501 14.7269 3.04501L14.7269 4.25401C14.6575 4.24534 14.5622 4.24101 14.4409 4.24101C13.7649 4.24101 13.2319 4.44468 12.8419 4.85201C12.4605 5.25068 12.2699 5.82268 12.2699 6.56801L12.2699 10L11.0219 10L11.0219 3.11001L12.2179 3.11001L12.2179 4.26701ZM22.4286 6.59401C22.4286 6.68934 22.4199 6.81501 22.4026 6.97101L16.8126 6.97101C16.8906 7.57768 17.1549 8.06734 17.6056 8.44001C18.0649 8.80401 18.6326 8.98601 19.3086 8.98601C20.1319 8.98601 20.7949 8.70868 21.2976 8.15401L21.9866 8.96001C21.6746 9.32401 21.2846 9.60134 20.8166 9.79201C20.3572 9.98268 19.8416 10.078 19.2696 10.078C18.5416 10.078 17.8959 9.93068 17.3326 9.63601C16.7692 9.33268 16.3316 8.91234 16.0196 8.37501C15.7162 7.83768 15.5646 7.23101 15.5646 6.55501C15.5646 5.88768 15.7119 5.28534 16.0066 4.74801C16.3099 4.21068 16.7216 3.79468 17.2416 3.50001C17.7702 3.19668 18.3639 3.04501 19.0226 3.04501C19.6812 3.04501 20.2662 3.19668 20.7776 3.50001C21.2976 3.79468 21.7006 4.21068 21.9866 4.74801C22.2812 5.28534 22.4286 5.90068 22.4286 6.59401ZM19.0226 4.09801C18.4246 4.09801 17.9219 4.28001 17.5146 4.64401C17.1159 5.00801 16.8819 5.48468 16.8126 6.07401L21.2326 6.07401C21.1632 5.49334 20.9249 5.02101 20.5176 4.65701C20.1189 4.28434 19.6206 4.09801 19.0226 4.09801ZM26.4801 3.04501C27.4334 3.04501 28.1614 3.27901 28.6641 3.74701C29.1754 4.21501 29.4311 4.91268 29.4311 5.84001L29.4311 10L28.2481 10L28.2481 9.09001C28.0401 9.41068 27.7411 9.65768 27.3511 9.83101C26.9698 9.99568 26.5148 10.078 25.9861 10.078C25.2148 10.078 24.5951 9.89168 24.1271 9.51901C23.6678 9.14634 23.4381 8.65668 23.4381 8.05001C23.4381 7.44334 23.6591 6.95801 24.1011 6.59401C24.5431 6.22134 25.2451 6.03501 26.2071 6.03501L28.1831 6.03501L28.1831 5.78801C28.1831 5.25068 28.0271 4.83901 27.7151 4.55301C27.4031 4.26701 26.9438 4.12401 26.3371 4.12401C25.9298 4.12401 25.5311 4.19334 25.1411 4.33201C24.7511 4.46201 24.4218 4.63968 24.1531 4.86501L23.6331 3.92901C23.9884 3.64301 24.4131 3.42634 24.9071 3.27901C25.4011 3.12301 25.9254 3.04501 26.4801 3.04501ZM26.1941 9.11601C26.6708 9.11601 27.0824 9.01201 27.4291 8.80401C27.7758 8.58734 28.0271 8.28401 28.1831 7.89401L28.1831 6.93201L26.2591 6.93201C25.2018 6.93201 24.6731 7.28734 24.6731 7.99801C24.6731 8.34468 24.8074 8.61768 25.0761 8.81701C25.3448 9.01634 25.7174 9.11601 26.1941 9.11601ZM38.2787 0.354011L38.2787 10L37.0827 10L37.0827 8.90801C36.8054 9.28934 36.4544 9.57968 36.0297 9.77901C35.605 9.97834 35.137 10.078 34.6257 10.078C33.9584 10.078 33.3604 9.93068 32.8317 9.63601C32.303 9.34134 31.887 8.92968 31.5837 8.40101C31.289 7.86368 31.1417 7.24834 31.1417 6.55501C31.1417 5.86168 31.289 5.25068 31.5837 4.72201C31.887 4.19334 32.303 3.78168 32.8317 3.48701C33.3604 3.19234 33.9584 3.04501 34.6257 3.04501C35.1197 3.04501 35.5747 3.14034 35.9907 3.33101C36.4067 3.51301 36.7534 3.78601 37.0307 4.15001L37.0307 0.354011L38.2787 0.354011ZM34.7297 8.98601C35.163 8.98601 35.5574 8.88634 35.9127 8.68701C36.268 8.47901 36.5454 8.19301 36.7447 7.82901C36.944 7.45634 37.0437 7.03168 37.0437 6.55501C37.0437 6.07834 36.944 5.65801 36.7447 5.29401C36.5454 4.92134 36.268 4.63534 35.9127 4.43601C35.5574 4.23668 35.163 4.13701 34.7297 4.13701C34.2877 4.13701 33.889 4.23668 33.5337 4.43601C33.187 4.63534 32.9097 4.92134 32.7017 5.29401C32.5024 5.65801 32.4027 6.07834 32.4027 6.55501C32.4027 7.03168 32.5024 7.45634 32.7017 7.82901C32.9097 8.19301 33.187 8.47901 33.5337 8.68701C33.889 8.88634 34.2877 8.98601 34.7297 8.98601ZM48.0052 9.59701C47.8232 9.75301 47.5979 9.87434 47.3292 9.96101C47.0606 10.039 46.7832 10.078 46.4972 10.078C45.8039 10.078 45.2666 9.89168 44.8852 9.51901C44.5039 9.14634 44.3132 8.61334 44.3132 7.92001L44.3132 4.13701L43.1432 4.13701L43.1432 3.11001L44.3132 3.11001L44.3132 1.60201L45.5612 1.60201L45.5612 3.11001L47.5372 3.11001L47.5372 4.13701L45.5612 4.13701L45.5612 7.86801C45.5612 8.24068 45.6522 8.52668 45.8342 8.72601C46.0249 8.92534 46.2936 9.02501 46.6402 9.02501C47.0216 9.02501 47.3466 8.91668 47.6152 8.70001L48.0052 9.59701ZM52.2365 10.078C51.5519 10.078 50.9365 9.92634 50.3905 9.62301C49.8445 9.31968 49.4155 8.90368 49.1035 8.37501C48.8002 7.83768 48.6485 7.23101 48.6485 6.55501C48.6485 5.87901 48.8002 5.27668 49.1035 4.74801C49.4155 4.21068 49.8445 3.79468 50.3905 3.50001C50.9365 3.19668 51.5519 3.04501 52.2365 3.04501C52.9212 3.04501 53.5322 3.19668 54.0695 3.50001C54.6155 3.79468 55.0402 4.21068 55.3435 4.74801C55.6555 5.27668 55.8115 5.87901 55.8115 6.55501C55.8115 7.23101 55.6555 7.83768 55.3435 8.37501C55.0402 8.90368 54.6155 9.31968 54.0695 9.62301C53.5322 9.92634 52.9212 10.078 52.2365 10.078ZM52.2365 8.98601C52.6785 8.98601 53.0729 8.88634 53.4195 8.68701C53.7749 8.47901 54.0522 8.19301 54.2515 7.82901C54.4509 7.45634 54.5505 7.03168 54.5505 6.55501C54.5505 6.07834 54.4509 5.65801 54.2515 5.29401C54.0522 4.92134 53.7749 4.63534 53.4195 4.43601C53.0729 4.23668 52.6785 4.13701 52.2365 4.13701C51.7945 4.13701 51.3959 4.23668 51.0405 4.43601C50.6939 4.63534 50.4165 4.92134 50.2085 5.29401C50.0092 5.65801 49.9095 6.07834 49.9095 6.55501C49.9095 7.03168 50.0092 7.45634 50.2085 7.82901C50.4165 8.19301 50.6939 8.47901 51.0405 8.68701C51.3959 8.88634 51.7945 8.98601 52.2365 8.98601ZM59.983 3.04501C60.9363 3.04501 61.6643 3.27901 62.167 3.74701C62.6783 4.21501 62.934 4.91268 62.934 5.84001L62.934 10L61.751 10L61.751 9.09001C61.543 9.41068 61.244 9.65768 60.854 9.83101C60.4727 9.99568 60.0177 10.078 59.489 10.078C58.7177 10.078 58.098 9.89168 57.63 9.51901C57.1707 9.14634 56.941 8.65668 56.941 8.05001C56.941 7.44334 57.162 6.95801 57.604 6.59401C58.046 6.22134 58.748 6.03501 59.71 6.03501L61.686 6.03501L61.686 5.78801C61.686 5.25068 61.53 4.83901 61.218 4.55301C60.906 4.26701 60.4467 4.12401 59.84 4.12401C59.4327 4.12401 59.034 4.19334 58.644 4.33201C58.254 4.46201 57.9247 4.63968 57.656 4.86501L57.136 3.92901C57.4913 3.64301 57.916 3.42634 58.41 3.27901C58.904 3.12301 59.4283 3.04501 59.983 3.04501ZM59.697 9.11601C60.1737 9.11601 60.5853 9.01201 60.932 8.80401C61.2787 8.58734 61.53 8.28401 61.686 7.89401L61.686 6.93201L59.762 6.93201C58.7047 6.93201 58.176 7.28734 58.176 7.99801C58.176 8.34468 58.3103 8.61768 58.579 8.81701C58.8477 9.01634 59.2203 9.11601 59.697 9.11601ZM67.2195 10.078C66.6562 10.078 66.1145 10.0043 65.5945 9.85701C65.0745 9.70101 64.6672 9.50601 64.3725 9.27201L64.8925 8.28401C65.1959 8.50068 65.5642 8.67401 65.9975 8.80401C66.4309 8.93401 66.8685 8.99901 67.3105 8.99901C68.4025 8.99901 68.9485 8.68701 68.9485 8.06301C68.9485 7.85501 68.8749 7.69034 68.7275 7.56901C68.5802 7.44768 68.3939 7.36101 68.1685 7.30901C67.9519 7.24834 67.6399 7.18334 67.2325 7.11401C66.6779 7.02734 66.2229 6.92768 65.8675 6.81501C65.5209 6.70234 65.2219 6.51168 64.9705 6.24301C64.7192 5.97434 64.5935 5.59734 64.5935 5.11201C64.5935 4.48801 64.8535 3.98968 65.3735 3.61701C65.8935 3.23568 66.5912 3.04501 67.4665 3.04501C67.9259 3.04501 68.3852 3.10134 68.8445 3.21401C69.3039 3.32668 69.6809 3.47834 69.9755 3.66901L69.4425 4.65701C68.8792 4.29301 68.2162 4.11101 67.4535 4.11101C66.9249 4.11101 66.5219 4.19768 66.2445 4.37101C65.9672 4.54434 65.8285 4.77401 65.8285 5.06001C65.8285 5.28534 65.9065 5.46301 66.0625 5.59301C66.2185 5.72301 66.4092 5.81834 66.6345 5.87901C66.8685 5.93968 67.1935 6.00901 67.6095 6.08701C68.1642 6.18234 68.6105 6.28634 68.9485 6.39901C69.2952 6.50301 69.5899 6.68501 69.8325 6.94501C70.0752 7.20501 70.1965 7.56901 70.1965 8.03701C70.1965 8.66101 69.9279 9.15934 69.3905 9.53201C68.8619 9.89601 68.1382 10.078 67.2195 10.078ZM75.6302 9.59701C75.4482 9.75301 75.2229 9.87434 74.9542 9.96101C74.6856 10.039 74.4082 10.078 74.1222 10.078C73.4289 10.078 72.8916 9.89168 72.5102 9.51901C72.1289 9.14634 71.9382 8.61334 71.9382 7.92001L71.9382 4.13701L70.7682 4.13701L70.7682 3.11001L71.9382 3.11001L71.9382 1.60201L73.1862 1.60201L73.1862 3.11001L75.1622 3.11001L75.1622 4.13701L73.1862 4.13701L73.1862 7.86801C73.1862 8.24068 73.2772 8.52668 73.4592 8.72601C73.6499 8.92534 73.9186 9.02501 74.2652 9.02501C74.6466 9.02501 74.9716 8.91668 75.2402 8.70001L75.6302 9.59701ZM91.0563 3.11001L88.4823 10L87.2863 10L85.2973 4.77401L83.2823 10L82.0863 10L79.5253 3.11001L80.7083 3.11001L82.7103 8.59601L84.7903 3.11001L85.8433 3.11001L87.8843 8.62201L89.9383 3.11001L91.0563 3.11001ZM92.3226 3.11001L93.5706 3.11001L93.5706 10L92.3226 10L92.3226 3.11001ZM92.9466 1.78401C92.704 1.78401 92.5003 1.70601 92.3356 1.55001C92.1796 1.39401 92.1016 1.20334 92.1016 0.978011C92.1016 0.752678 92.1796 0.562011 92.3356 0.406011C92.5003 0.241344 92.704 0.159011 92.9466 0.159011C93.1893 0.159011 93.3886 0.237011 93.5446 0.393011C93.7093 0.540344 93.7916 0.726677 93.7916 0.952011C93.7916 1.18601 93.7093 1.38534 93.5446 1.55001C93.3886 1.70601 93.1893 1.78401 92.9466 1.78401ZM99.8275 9.59701C99.6455 9.75301 99.4202 9.87434 99.1515 9.96101C98.8828 10.039 98.6055 10.078 98.3195 10.078C97.6262 10.078 97.0888 9.89168 96.7075 9.51901C96.3262 9.14634 96.1355 8.61334 96.1355 7.92001L96.1355 4.13701L94.9655 4.13701L94.9655 3.11001L96.1355 3.11001L96.1355 1.60201L97.3835 1.60201L97.3835 3.11001L99.3595 3.11001L99.3595 4.13701L97.3835 4.13701L97.3835 7.86801C97.3835 8.24068 97.4745 8.52668 97.6565 8.72601C97.8472 8.92534 98.1158 9.02501 98.4625 9.02501C98.8438 9.02501 99.1688 8.91668 99.4375 8.70001L99.8275 9.59701ZM105.015 3.04501C105.891 3.04501 106.584 3.30068 107.095 3.81201C107.615 4.31468 107.875 5.05568 107.875 6.03501L107.875 10L106.627 10L106.627 6.17801C106.627 5.51068 106.467 5.00801 106.146 4.67001C105.826 4.33201 105.366 4.16301 104.768 4.16301C104.092 4.16301 103.559 4.36234 103.169 4.76101C102.779 5.15101 102.584 5.71434 102.584 6.45101L102.584 10L101.336 10L101.336 0.354011L102.584 0.354011L102.584 4.08501C102.844 3.75568 103.182 3.50001 103.598 3.31801C104.023 3.13601 104.495 3.04501 105.015 3.04501ZM3.705 17.303C2.95967 17.303 2.587 17.706 2.587 18.512L2.587 19.11L4.589 19.11L4.589 20.137L2.613 20.137L2.613 26L1.365 26L1.365 20.137L0.195 20.137L0.195 19.11L1.365 19.11L1.365 18.499C1.365 17.8143 1.56433 17.2727 1.963 16.874C2.36167 16.4753 2.92067 16.276 3.64 16.276C3.91733 16.276 4.17733 16.3107 4.42 16.38C4.66267 16.4493 4.87067 16.549 5.044 16.679L4.667 17.628C4.381 17.4113 4.06033 17.303 3.705 17.303ZM8.00302 20.267C8.21969 19.8683 8.54036 19.565 8.96502 19.357C9.38969 19.149 9.90536 19.045 10.512 19.045L10.512 20.254C10.4427 20.2453 10.3474 20.241 10.226 20.241C9.55002 20.241 9.01702 20.4447 8.62702 20.852C8.24569 21.2507 8.05502 21.8227 8.05502 22.568L8.05502 26L6.80702 26L6.80702 19.11L8.00302 19.11L8.00302 20.267ZM18.5611 19.11L18.5611 26L17.3781 26L17.3781 24.96C17.1267 25.3153 16.7931 25.5927 16.3771 25.792C15.9697 25.9827 15.5234 26.078 15.0381 26.078C14.1194 26.078 13.3957 25.8267 12.8671 25.324C12.3384 24.8127 12.0741 24.063 12.0741 23.075L12.0741 19.11L13.3221 19.11L13.3221 22.932C13.3221 23.5993 13.4824 24.1063 13.8031 24.453C14.1237 24.791 14.5831 24.96 15.1811 24.96C15.8397 24.96 16.3597 24.7607 16.7411 24.362C17.1224 23.9633 17.3131 23.4 17.3131 22.672L17.3131 19.11L18.5611 19.11ZM20.9369 19.11L22.1849 19.11L22.1849 26L20.9369 26L20.9369 19.11ZM21.5609 17.784C21.3182 17.784 21.1146 17.706 20.9499 17.55C20.7939 17.394 20.7159 17.2033 20.7159 16.978C20.7159 16.7527 20.7939 16.562 20.9499 16.406C21.1146 16.2413 21.3182 16.159 21.5609 16.159C21.8036 16.159 22.0029 16.237 22.1589 16.393C22.3236 16.5403 22.4059 16.7267 22.4059 16.952C22.4059 17.186 22.3236 17.3853 22.1589 17.55C22.0029 17.706 21.8036 17.784 21.5609 17.784ZM28.4418 25.597C28.2598 25.753 28.0344 25.8743 27.7658 25.961C27.4971 26.039 27.2198 26.078 26.9338 26.078C26.2404 26.078 25.7031 25.8917 25.3218 25.519C24.9404 25.1463 24.7498 24.6133 24.7498 23.92L24.7498 20.137L23.5798 20.137L23.5798 19.11L24.7498 19.11L24.7498 17.602L25.9978 17.602L25.9978 19.11L27.9738 19.11L27.9738 20.137L25.9978 20.137L25.9978 23.868C25.9978 24.2407 26.0888 24.5267 26.2708 24.726C26.4614 24.9253 26.7301 25.025 27.0768 25.025C27.4581 25.025 27.7831 24.9167 28.0518 24.7L28.4418 25.597ZM35.9508 19.045C36.9041 19.045 37.6321 19.279 38.1348 19.747C38.6461 20.215 38.9018 20.9127 38.9018 21.84L38.9018 26L37.7188 26L37.7188 25.09C37.5108 25.4107 37.2118 25.6577 36.8218 25.831C36.4405 25.9957 35.9855 26.078 35.4568 26.078C34.6855 26.078 34.0658 25.8917 33.5978 25.519C33.1385 25.1463 32.9088 24.6567 32.9088 24.05C32.9088 23.4433 33.1298 22.958 33.5718 22.594C34.0138 22.2213 34.7158 22.035 35.6778 22.035L37.6538 22.035L37.6538 21.788C37.6538 21.2507 37.4978 20.839 37.1858 20.553C36.8738 20.267 36.4145 20.124 35.8078 20.124C35.4005 20.124 35.0018 20.1933 34.6118 20.332C34.2218 20.462 33.8925 20.6397 33.6238 20.865L33.1038 19.929C33.4591 19.643 33.8838 19.4263 34.3778 19.279C34.8718 19.123 35.3961 19.045 35.9508 19.045ZM35.6648 25.116C36.1415 25.116 36.5531 25.012 36.8998 24.804C37.2465 24.5873 37.4978 24.284 37.6538 23.894L37.6538 22.932L35.7298 22.932C34.6725 22.932 34.1438 23.2873 34.1438 23.998C34.1438 24.3447 34.2781 24.6177 34.5468 24.817C34.8155 25.0163 35.1881 25.116 35.6648 25.116ZM44.8903 19.045C45.7657 19.045 46.459 19.3007 46.9703 19.812C47.4903 20.3147 47.7503 21.0557 47.7503 22.035L47.7503 26L46.5023 26L46.5023 22.178C46.5023 21.5107 46.342 21.008 46.0213 20.67C45.7007 20.332 45.2413 20.163 44.6433 20.163C43.9673 20.163 43.4343 20.3623 43.0443 20.761C42.6543 21.151 42.4593 21.7143 42.4593 22.451L42.4593 26L41.2113 26L41.2113 19.11L42.4073 19.11L42.4073 20.15C42.6587 19.7947 42.9967 19.5217 43.4213 19.331C43.8547 19.1403 44.3443 19.045 44.8903 19.045ZM56.598 16.354L56.598 26L55.402 26L55.402 24.908C55.1247 25.2893 54.7737 25.5797 54.349 25.779C53.9244 25.9783 53.4564 26.078 52.945 26.078C52.2777 26.078 51.6797 25.9307 51.151 25.636C50.6224 25.3413 50.2064 24.9297 49.903 24.401C49.6084 23.8637 49.461 23.2483 49.461 22.555C49.461 21.8617 49.6084 21.2507 49.903 20.722C50.2064 20.1933 50.6224 19.7817 51.151 19.487C51.6797 19.1923 52.2777 19.045 52.945 19.045C53.439 19.045 53.894 19.1403 54.31 19.331C54.726 19.513 55.0727 19.786 55.35 20.15L55.35 16.354L56.598 16.354ZM53.049 24.986C53.4824 24.986 53.8767 24.8863 54.232 24.687C54.5874 24.479 54.8647 24.193 55.064 23.829C55.2634 23.4563 55.363 23.0317 55.363 22.555C55.363 22.0783 55.2634 21.658 55.064 21.294C54.8647 20.9213 54.5874 20.6353 54.232 20.436C53.8767 20.2367 53.4824 20.137 53.049 20.137C52.607 20.137 52.2084 20.2367 51.853 20.436C51.5064 20.6353 51.229 20.9213 51.021 21.294C50.8217 21.658 50.722 22.0783 50.722 22.555C50.722 23.0317 50.8217 23.4563 51.021 23.829C51.229 24.193 51.5064 24.479 51.853 24.687C52.2084 24.8863 52.607 24.986 53.049 24.986ZM71.0696 19.045C71.9362 19.045 72.6209 19.2963 73.1236 19.799C73.6349 20.3017 73.8906 21.047 73.8906 22.035L73.8906 26L72.6426 26L72.6426 22.178C72.6426 21.5107 72.4866 21.008 72.1746 20.67C71.8712 20.332 71.4336 20.163 70.8616 20.163C70.2289 20.163 69.7262 20.3623 69.3536 20.761C68.9809 21.151 68.7946 21.7143 68.7946 22.451L68.7946 26L67.5466 26L67.5466 22.178C67.5466 21.5107 67.3906 21.008 67.0786 20.67C66.7752 20.332 66.3376 20.163 65.7656 20.163C65.1329 20.163 64.6302 20.3623 64.2576 20.761C63.8849 21.151 63.6986 21.7143 63.6986 22.451L63.6986 26L62.4506 26L62.4506 19.11L63.6466 19.11L63.6466 20.137C63.8979 19.7817 64.2272 19.513 64.6346 19.331C65.0419 19.1403 65.5056 19.045 66.0256 19.045C66.5629 19.045 67.0396 19.1533 67.4556 19.37C67.8716 19.5867 68.1922 19.903 68.4176 20.319C68.6776 19.9203 69.0372 19.6083 69.4966 19.383C69.9646 19.1577 70.4889 19.045 71.0696 19.045ZM76.1869 19.11L77.4349 19.11L77.4349 26L76.1869 26L76.1869 19.11ZM76.8109 17.784C76.5682 17.784 76.3646 17.706 76.1999 17.55C76.0439 17.394 75.9659 17.2033 75.9659 16.978C75.9659 16.7527 76.0439 16.562 76.1999 16.406C76.3646 16.2413 76.5682 16.159 76.8109 16.159C77.0536 16.159 77.2529 16.237 77.4089 16.393C77.5736 16.5403 77.6559 16.7267 77.6559 16.952C77.6559 17.186 77.5736 17.3853 77.4089 17.55C77.2529 17.706 77.0536 17.784 76.8109 17.784ZM79.8178 16.354L81.0658 16.354L81.0658 26L79.8178 26L79.8178 16.354ZM86.1266 22.789L84.6966 24.115L84.6966 26L83.4486 26L83.4486 16.354L84.6966 16.354L84.6966 22.542L88.4536 19.11L89.9616 19.11L87.0626 21.957L90.2476 26L88.7136 26L86.1266 22.789Z" fill="#170704" fill-opacity="0.6"/>
</svg>
