<svg width="116" height="27" viewBox="0 0 116 27" fill="none" xmlns="http://www.w3.org/2000/svg">
<path d="M9.802 10L9.789 3.37L6.5 8.895L5.902 8.895L2.613 3.409L2.613 10L1.365 10L1.365 0.899999L2.431 0.899999L6.227 7.296L9.971 0.899999L11.037 0.899999L11.05 10L9.802 10ZM19.826 6.594C19.826 6.68933 19.8173 6.815 19.8 6.971L14.21 6.971C14.288 7.57767 14.5523 8.06733 15.003 8.44C15.4623 8.804 16.03 8.986 16.706 8.986C17.5293 8.986 18.1923 8.70867 18.695 8.154L19.384 8.96C19.072 9.324 18.682 9.60133 18.214 9.792C17.7547 9.98267 17.239 10.078 16.667 10.078C15.939 10.078 15.2933 9.93067 14.73 9.636C14.1667 9.33267 13.729 8.91233 13.417 8.375C13.1137 7.83767 12.962 7.231 12.962 6.555C12.962 5.88767 13.1093 5.28533 13.404 4.748C13.7073 4.21067 14.119 3.79467 14.639 3.5C15.1677 3.19667 15.7613 3.045 16.42 3.045C17.0787 3.045 17.6637 3.19667 18.175 3.5C18.695 3.79467 19.098 4.21067 19.384 4.748C19.6787 5.28533 19.826 5.90067 19.826 6.594ZM16.42 4.098C15.822 4.098 15.3193 4.28 14.912 4.644C14.5133 5.008 14.2793 5.48467 14.21 6.074L18.63 6.074C18.5607 5.49333 18.3223 5.021 17.915 4.657C17.5163 4.28433 17.018 4.098 16.42 4.098ZM23.8775 3.045C24.8309 3.045 25.5589 3.279 26.0615 3.747C26.5729 4.215 26.8285 4.91267 26.8285 5.84L26.8285 10L25.6455 10L25.6455 9.09C25.4375 9.41067 25.1385 9.65767 24.7485 9.831C24.3672 9.99567 23.9122 10.078 23.3835 10.078C22.6122 10.078 21.9925 9.89167 21.5245 9.519C21.0652 9.14633 20.8355 8.65667 20.8355 8.05C20.8355 7.44333 21.0565 6.958 21.4985 6.594C21.9405 6.22133 22.6425 6.035 23.6045 6.035L25.5805 6.035L25.5805 5.788C25.5805 5.25067 25.4245 4.839 25.1125 4.553C24.8005 4.267 24.3412 4.124 23.7345 4.124C23.3272 4.124 22.9285 4.19333 22.5385 4.332C22.1485 4.462 21.8192 4.63967 21.5505 4.865L21.0305 3.929C21.3859 3.643 21.8105 3.42633 22.3045 3.279C22.7985 3.123 23.3229 3.045 23.8775 3.045ZM23.5915 9.116C24.0682 9.116 24.4799 9.012 24.8265 8.804C25.1732 8.58733 25.4245 8.284 25.5805 7.894L25.5805 6.932L23.6565 6.932C22.5992 6.932 22.0705 7.28733 22.0705 7.998C22.0705 8.34467 22.2049 8.61767 22.4735 8.817C22.7422 9.01633 23.1149 9.116 23.5915 9.116ZM29.1381 0.353999L30.3861 0.353999L30.3861 10L29.1381 10L29.1381 0.353999ZM46.6861 3.11L44.1121 10L42.9161 10L40.9271 4.774L38.9121 10L37.7161 10L35.1551 3.11L36.3381 3.11L38.3401 8.596L40.4201 3.11L41.4731 3.11L43.5141 8.622L45.5681 3.11L46.6861 3.11ZM47.9525 3.11L49.2005 3.11L49.2005 10L47.9525 10L47.9525 3.11ZM48.5765 1.784C48.3339 1.784 48.1302 1.706 47.9655 1.55C47.8095 1.394 47.7315 1.20333 47.7315 0.978C47.7315 0.752666 47.8095 0.562 47.9655 0.406C48.1302 0.241333 48.3339 0.159 48.5765 0.159C48.8192 0.159 49.0185 0.237 49.1745 0.393C49.3392 0.540333 49.4215 0.726666 49.4215 0.951999C49.4215 1.186 49.3392 1.38533 49.1745 1.55C49.0185 1.706 48.8192 1.784 48.5765 1.784ZM55.4574 9.597C55.2754 9.753 55.0501 9.87433 54.7814 9.961C54.5127 10.039 54.2354 10.078 53.9494 10.078C53.2561 10.078 52.7187 9.89167 52.3374 9.519C51.9561 9.14633 51.7654 8.61333 51.7654 7.92L51.7654 4.137L50.5954 4.137L50.5954 3.11L51.7654 3.11L51.7654 1.602L53.0134 1.602L53.0134 3.11L54.9894 3.11L54.9894 4.137L53.0134 4.137L53.0134 7.868C53.0134 8.24067 53.1044 8.52667 53.2864 8.726C53.4771 8.92533 53.7457 9.025 54.0924 9.025C54.4737 9.025 54.7987 8.91667 55.0674 8.7L55.4574 9.597ZM60.6452 3.045C61.5205 3.045 62.2139 3.30067 62.7252 3.812C63.2452 4.31467 63.5052 5.05567 63.5052 6.035L63.5052 10L62.2572 10L62.2572 6.178C62.2572 5.51067 62.0969 5.008 61.7762 4.67C61.4555 4.332 60.9962 4.163 60.3982 4.163C59.7222 4.163 59.1892 4.36233 58.7992 4.761C58.4092 5.151 58.2142 5.71433 58.2142 6.451L58.2142 10L56.9662 10L56.9662 0.353999L58.2142 0.353999L58.2142 4.085C58.4742 3.75567 58.8122 3.5 59.2282 3.318C59.6529 3.136 60.1252 3.045 60.6452 3.045ZM71.282 10.078C70.7187 10.078 70.177 10.0043 69.657 9.857C69.137 9.701 68.7297 9.506 68.435 9.272L68.955 8.284C69.2584 8.50067 69.6267 8.674 70.06 8.804C70.4934 8.934 70.931 8.999 71.373 8.999C72.465 8.999 73.011 8.687 73.011 8.063C73.011 7.855 72.9374 7.69033 72.79 7.569C72.6427 7.44767 72.4564 7.361 72.231 7.309C72.0144 7.24833 71.7024 7.18333 71.295 7.114C70.7404 7.02733 70.2854 6.92767 69.93 6.815C69.5834 6.70233 69.2844 6.51167 69.033 6.243C68.7817 5.97433 68.656 5.59733 68.656 5.112C68.656 4.488 68.916 3.98967 69.436 3.617C69.956 3.23567 70.6537 3.045 71.529 3.045C71.9884 3.045 72.4477 3.10133 72.907 3.214C73.3664 3.32667 73.7434 3.47833 74.038 3.669L73.505 4.657C72.9417 4.293 72.2787 4.111 71.516 4.111C70.9874 4.111 70.5844 4.19767 70.307 4.371C70.0297 4.54433 69.891 4.774 69.891 5.06C69.891 5.28533 69.969 5.463 70.125 5.593C70.281 5.723 70.4717 5.81833 70.697 5.879C70.931 5.93967 71.256 6.009 71.672 6.087C72.2267 6.18233 72.673 6.28633 73.011 6.399C73.3577 6.503 73.6524 6.685 73.895 6.945C74.1377 7.205 74.259 7.569 74.259 8.037C74.259 8.661 73.9904 9.15933 73.453 9.532C72.9244 9.896 72.2007 10.078 71.282 10.078ZM78.3277 3.045C79.2811 3.045 80.0091 3.279 80.5117 3.747C81.0231 4.215 81.2787 4.91267 81.2787 5.84L81.2787 10L80.0957 10L80.0957 9.09C79.8877 9.41067 79.5887 9.65767 79.1987 9.831C78.8174 9.99567 78.3624 10.078 77.8337 10.078C77.0624 10.078 76.4427 9.89167 75.9747 9.519C75.5154 9.14633 75.2857 8.65667 75.2857 8.05C75.2857 7.44333 75.5067 6.958 75.9487 6.594C76.3907 6.22133 77.0927 6.035 78.0547 6.035L80.0307 6.035L80.0307 5.788C80.0307 5.25067 79.8747 4.839 79.5627 4.553C79.2507 4.267 78.7914 4.124 78.1847 4.124C77.7774 4.124 77.3787 4.19333 76.9887 4.332C76.5987 4.462 76.2694 4.63967 76.0007 4.865L75.4807 3.929C75.8361 3.643 76.2607 3.42633 76.7547 3.279C77.2487 3.123 77.7731 3.045 78.3277 3.045ZM78.0417 9.116C78.5184 9.116 78.9301 9.012 79.2767 8.804C79.6234 8.58733 79.8747 8.284 80.0307 7.894L80.0307 6.932L78.1067 6.932C77.0494 6.932 76.5207 7.28733 76.5207 7.998C76.5207 8.34467 76.6551 8.61767 76.9237 8.817C77.1924 9.01633 77.5651 9.116 78.0417 9.116ZM83.5883 0.353999L84.8363 0.353999L84.8363 10L83.5883 10L83.5883 0.353999ZM95.8381 3.045C96.7048 3.045 97.3895 3.29633 97.8921 3.799C98.4035 4.30167 98.6591 5.047 98.6591 6.035L98.6591 10L97.4111 10L97.4111 6.178C97.4111 5.51067 97.2551 5.008 96.9431 4.67C96.6398 4.332 96.2021 4.163 95.6301 4.163C94.9975 4.163 94.4948 4.36233 94.1221 4.761C93.7495 5.151 93.5631 5.71433 93.5631 6.451L93.5631 10L92.3151 10L92.3151 6.178C92.3151 5.51067 92.1591 5.008 91.8471 4.67C91.5438 4.332 91.1061 4.163 90.5341 4.163C89.9015 4.163 89.3988 4.36233 89.0261 4.761C88.6535 5.151 88.4671 5.71433 88.4671 6.451L88.4671 10L87.2191 10L87.2191 3.11L88.4151 3.11L88.4151 4.137C88.6665 3.78167 88.9958 3.513 89.4031 3.331C89.8105 3.14033 90.2741 3.045 90.7941 3.045C91.3315 3.045 91.8081 3.15333 92.2241 3.37C92.6401 3.58667 92.9608 3.903 93.1861 4.319C93.4461 3.92033 93.8058 3.60833 94.2651 3.383C94.7331 3.15767 95.2575 3.045 95.8381 3.045ZM103.945 10.078C103.26 10.078 102.645 9.92633 102.099 9.623C101.553 9.31967 101.124 8.90367 100.812 8.375C100.508 7.83767 100.357 7.231 100.357 6.555C100.357 5.879 100.508 5.27667 100.812 4.748C101.124 4.21067 101.553 3.79467 102.099 3.5C102.645 3.19667 103.26 3.045 103.945 3.045C104.629 3.045 105.24 3.19667 105.778 3.5C106.324 3.79467 106.748 4.21067 107.052 4.748C107.364 5.27667 107.52 5.879 107.52 6.555C107.52 7.231 107.364 7.83767 107.052 8.375C106.748 8.90367 106.324 9.31967 105.778 9.623C105.24 9.92633 104.629 10.078 103.945 10.078ZM103.945 8.986C104.387 8.986 104.781 8.88633 105.128 8.687C105.483 8.479 105.76 8.193 105.96 7.829C106.159 7.45633 106.259 7.03167 106.259 6.555C106.259 6.07833 106.159 5.658 105.96 5.294C105.76 4.92133 105.483 4.63533 105.128 4.436C104.781 4.23667 104.387 4.137 103.945 4.137C103.503 4.137 103.104 4.23667 102.749 4.436C102.402 4.63533 102.125 4.92133 101.917 5.294C101.717 5.658 101.618 6.07833 101.618 6.555C101.618 7.03167 101.717 7.45633 101.917 7.829C102.125 8.193 102.402 8.479 102.749 8.687C103.104 8.88633 103.503 8.986 103.945 8.986ZM112.925 3.045C113.8 3.045 114.493 3.30067 115.005 3.812C115.525 4.31467 115.785 5.05567 115.785 6.035L115.785 10L114.537 10L114.537 6.178C114.537 5.51067 114.376 5.008 114.056 4.67C113.735 4.332 113.276 4.163 112.678 4.163C112.002 4.163 111.469 4.36233 111.079 4.761C110.689 5.151 110.494 5.71433 110.494 6.451L110.494 10L109.246 10L109.246 3.11L110.442 3.11L110.442 4.15C110.693 3.79467 111.031 3.52167 111.456 3.331C111.889 3.14033 112.379 3.045 112.925 3.045ZM3.692 19.045C4.64533 19.045 5.37333 19.279 5.876 19.747C6.38733 20.215 6.643 20.9127 6.643 21.84L6.643 26L5.46 26L5.46 25.09C5.252 25.4107 4.953 25.6577 4.563 25.831C4.18167 25.9957 3.72667 26.078 3.198 26.078C2.42667 26.078 1.807 25.8917 1.339 25.519C0.879667 25.1463 0.65 24.6567 0.65 24.05C0.65 23.4433 0.871 22.958 1.313 22.594C1.755 22.2213 2.457 22.035 3.419 22.035L5.395 22.035L5.395 21.788C5.395 21.2507 5.239 20.839 4.927 20.553C4.615 20.267 4.15567 20.124 3.549 20.124C3.14167 20.124 2.743 20.1933 2.353 20.332C1.963 20.462 1.63367 20.6397 1.365 20.865L0.845 19.929C1.20033 19.643 1.625 19.4263 2.119 19.279C2.613 19.123 3.13733 19.045 3.692 19.045ZM3.406 25.116C3.88267 25.116 4.29433 25.012 4.641 24.804C4.98767 24.5873 5.239 24.284 5.395 23.894L5.395 22.932L3.471 22.932C2.41367 22.932 1.885 23.2873 1.885 23.998C1.885 24.3447 2.01933 24.6177 2.288 24.817C2.55667 25.0163 2.92933 25.116 3.406 25.116ZM12.6315 19.045C13.5069 19.045 14.2002 19.3007 14.7115 19.812C15.2315 20.3147 15.4915 21.0557 15.4915 22.035L15.4915 26L14.2435 26L14.2435 22.178C14.2435 21.5107 14.0832 21.008 13.7625 20.67C13.4419 20.332 12.9825 20.163 12.3845 20.163C11.7085 20.163 11.1755 20.3623 10.7855 20.761C10.3955 21.151 10.2005 21.7143 10.2005 22.451L10.2005 26L8.95253 26L8.95253 19.11L10.1485 19.11L10.1485 20.15C10.3999 19.7947 10.7379 19.5217 11.1625 19.331C11.5959 19.1403 12.0855 19.045 12.6315 19.045ZM24.3393 16.354L24.3393 26L23.1433 26L23.1433 24.908C22.8659 25.2893 22.5149 25.5797 22.0903 25.779C21.6656 25.9783 21.1976 26.078 20.6863 26.078C20.0189 26.078 19.4209 25.9307 18.8923 25.636C18.3636 25.3413 17.9476 24.9297 17.6443 24.401C17.3496 23.8637 17.2023 23.2483 17.2023 22.555C17.2023 21.8617 17.3496 21.2507 17.6443 20.722C17.9476 20.1933 18.3636 19.7817 18.8923 19.487C19.4209 19.1923 20.0189 19.045 20.6863 19.045C21.1803 19.045 21.6353 19.1403 22.0513 19.331C22.4673 19.513 22.8139 19.786 23.0913 20.15L23.0913 16.354L24.3393 16.354ZM20.7903 24.986C21.2236 24.986 21.6179 24.8863 21.9733 24.687C22.3286 24.479 22.6059 24.193 22.8053 23.829C23.0046 23.4563 23.1043 23.0317 23.1043 22.555C23.1043 22.0783 23.0046 21.658 22.8053 21.294C22.6059 20.9213 22.3286 20.6353 21.9733 20.436C21.6179 20.2367 21.2236 20.137 20.7903 20.137C20.3483 20.137 19.9496 20.2367 19.5943 20.436C19.2476 20.6353 18.9703 20.9213 18.7623 21.294C18.5629 21.658 18.4633 22.0783 18.4633 22.555C18.4633 23.0317 18.5629 23.4563 18.7623 23.829C18.9703 24.193 19.2476 24.479 19.5943 24.687C19.9496 24.8863 20.3483 24.986 20.7903 24.986ZM35.3008 24.973L35.3008 26L29.5288 26L29.5288 25.194L33.5978 20.137L29.6068 20.137L29.6068 19.11L35.1968 19.11L35.1968 19.929L31.1278 24.973L35.3008 24.973ZM43.3931 19.11L43.3931 26L42.2101 26L42.2101 24.96C41.9588 25.3153 41.6251 25.5927 41.2091 25.792C40.8018 25.9827 40.3554 26.078 39.8701 26.078C38.9514 26.078 38.2278 25.8267 37.6991 25.324C37.1704 24.8127 36.9061 24.063 36.9061 23.075L36.9061 19.11L38.1541 19.11L38.1541 22.932C38.1541 23.5993 38.3144 24.1063 38.6351 24.453C38.9558 24.791 39.4151 24.96 40.0131 24.96C40.6718 24.96 41.1918 24.7607 41.5731 24.362C41.9544 23.9633 42.1451 23.4 42.1451 22.672L42.1451 19.11L43.3931 19.11ZM48.7719 26.078C48.0699 26.078 47.4416 25.9263 46.8869 25.623C46.3409 25.3197 45.9119 24.9037 45.5999 24.375C45.2879 23.8377 45.1319 23.231 45.1319 22.555C45.1319 21.879 45.2879 21.2767 45.5999 20.748C45.9119 20.2107 46.3409 19.7947 46.8869 19.5C47.4416 19.1967 48.0699 19.045 48.7719 19.045C49.3959 19.045 49.9506 19.1707 50.4359 19.422C50.9299 19.6733 51.3113 20.0373 51.5799 20.514L50.6309 21.125C50.4143 20.7957 50.1456 20.5487 49.8249 20.384C49.5043 20.2193 49.1489 20.137 48.7589 20.137C48.3083 20.137 47.9009 20.2367 47.5369 20.436C47.1816 20.6353 46.8999 20.9213 46.6919 21.294C46.4926 21.658 46.3929 22.0783 46.3929 22.555C46.3929 23.0403 46.4926 23.4693 46.6919 23.842C46.8999 24.206 47.1816 24.4877 47.5369 24.687C47.9009 24.8863 48.3083 24.986 48.7589 24.986C49.1489 24.986 49.5043 24.9037 49.8249 24.739C50.1456 24.5743 50.4143 24.3273 50.6309 23.998L51.5799 24.596C51.3113 25.0727 50.9299 25.441 50.4359 25.701C49.9506 25.9523 49.3959 26.078 48.7719 26.078ZM56.0971 26.078C55.3951 26.078 54.7668 25.9263 54.2121 25.623C53.6661 25.3197 53.2371 24.9037 52.9251 24.375C52.6131 23.8377 52.4571 23.231 52.4571 22.555C52.4571 21.879 52.6131 21.2767 52.9251 20.748C53.2371 20.2107 53.6661 19.7947 54.2121 19.5C54.7668 19.1967 55.3951 19.045 56.0971 19.045C56.7211 19.045 57.2758 19.1707 57.7611 19.422C58.2551 19.6733 58.6365 20.0373 58.9051 20.514L57.9561 21.125C57.7395 20.7957 57.4708 20.5487 57.1501 20.384C56.8295 20.2193 56.4741 20.137 56.0841 20.137C55.6335 20.137 55.2261 20.2367 54.8621 20.436C54.5068 20.6353 54.2251 20.9213 54.0171 21.294C53.8178 21.658 53.7181 22.0783 53.7181 22.555C53.7181 23.0403 53.8178 23.4693 54.0171 23.842C54.2251 24.206 54.5068 24.4877 54.8621 24.687C55.2261 24.8863 55.6335 24.986 56.0841 24.986C56.4741 24.986 56.8295 24.9037 57.1501 24.739C57.4708 24.5743 57.7395 24.3273 57.9561 23.998L58.9051 24.596C58.6365 25.0727 58.2551 25.441 57.7611 25.701C57.2758 25.9523 56.7211 26.078 56.0971 26.078ZM64.111 19.045C64.9864 19.045 65.6797 19.3007 66.191 19.812C66.711 20.3147 66.971 21.0557 66.971 22.035L66.971 26L65.723 26L65.723 22.178C65.723 21.5107 65.5627 21.008 65.242 20.67C64.9214 20.332 64.462 20.163 63.864 20.163C63.188 20.163 62.655 20.3623 62.265 20.761C61.875 21.151 61.68 21.7143 61.68 22.451L61.68 26L60.432 26L60.432 16.354L61.68 16.354L61.68 20.085C61.94 19.7557 62.278 19.5 62.694 19.318C63.1187 19.136 63.591 19.045 64.111 19.045ZM69.2807 19.11L70.5287 19.11L70.5287 26L69.2807 26L69.2807 19.11ZM69.9047 17.784C69.662 17.784 69.4583 17.706 69.2937 17.55C69.1377 17.394 69.0597 17.2033 69.0597 16.978C69.0597 16.7527 69.1377 16.562 69.2937 16.406C69.4583 16.2413 69.662 16.159 69.9047 16.159C70.1473 16.159 70.3467 16.237 70.5027 16.393C70.6673 16.5403 70.7497 16.7267 70.7497 16.952C70.7497 17.186 70.6673 17.3853 70.5027 17.55C70.3467 17.706 70.1473 17.784 69.9047 17.784ZM76.5905 19.045C77.4658 19.045 78.1592 19.3007 78.6705 19.812C79.1905 20.3147 79.4505 21.0557 79.4505 22.035L79.4505 26L78.2025 26L78.2025 22.178C78.2025 21.5107 78.0422 21.008 77.7215 20.67C77.4008 20.332 76.9415 20.163 76.3435 20.163C75.6675 20.163 75.1345 20.3623 74.7445 20.761C74.3545 21.151 74.1595 21.7143 74.1595 22.451L74.1595 26L72.9115 26L72.9115 19.11L74.1075 19.11L74.1075 20.15C74.3588 19.7947 74.6968 19.5217 75.1215 19.331C75.5548 19.1403 76.0445 19.045 76.5905 19.045ZM81.7601 19.11L83.0081 19.11L83.0081 26L81.7601 26L81.7601 19.11ZM82.3841 17.784C82.1415 17.784 81.9378 17.706 81.7731 17.55C81.6171 17.394 81.5391 17.2033 81.5391 16.978C81.5391 16.7527 81.6171 16.562 81.7731 16.406C81.9378 16.2413 82.1415 16.159 82.3841 16.159C82.6268 16.159 82.8261 16.237 82.9821 16.393C83.1468 16.5403 83.2291 16.7267 83.2291 16.952C83.2291 17.186 83.1468 17.3853 82.9821 17.55C82.8261 17.706 82.6268 17.784 82.3841 17.784Z" fill="#170704" fill-opacity="0.6"/>
</svg>
