<svg width="88" height="88" viewBox="0 0 88 88" fill="none" xmlns="http://www.w3.org/2000/svg">
<rect width="88" height="88" fill="#E5E5E5"/>
<g id="Contact Us" clip-path="url(#clip0)">
<rect width="1440" height="2536" transform="translate(-877 -555)" fill="white"/>
<g id="Background Blurry Circles">
</g>
<g id="Landing">
<g id="Coin Icons">
</g>
</g>
<g id="Contact Cards">
<g id="Group 27">
<g id="Rectangle 16" filter="url(#filter0_d)">
<rect x="-132" y="-36" width="354" height="199" rx="30" fill="white"/>
</g>
<g id="Group 24">
<rect id="Rectangle 10" width="88" height="88" rx="25" fill="#E6FBF0"/>
<rect id="Rectangle 14" x="20" y="20" width="48" height="48" rx="24" fill="#00DA64"/>
</g>
<g id="email 1">
<g id="Layer 2">
<path id="email" d="M53.3332 33.3333H34.6665C33.6056 33.3333 32.5882 33.7548 31.8381 34.5049C31.0879 35.2551 30.6665 36.2725 30.6665 37.3333V50.6667C30.6665 51.7275 31.0879 52.7449 31.8381 53.4951C32.5882 54.2452 33.6056 54.6667 34.6665 54.6667H53.3332C54.394 54.6667 55.4115 54.2452 56.1616 53.4951C56.9117 52.7449 57.3332 51.7275 57.3332 50.6667V37.3333C57.3332 36.2725 56.9117 35.2551 56.1616 34.5049C55.4115 33.7548 54.394 33.3333 53.3332 33.3333ZM53.3332 36L44.6665 41.96C44.4638 42.077 44.2339 42.1386 43.9998 42.1386C43.7658 42.1386 43.5359 42.077 43.3332 41.96L34.6665 36H53.3332Z" fill="white"/>
</g>
</g>
</g>
</g>
</g>
<defs>
<filter id="filter0_d" x="-163" y="-59" width="416" height="261" filterUnits="userSpaceOnUse" color-interpolation-filters="sRGB">
<feFlood flood-opacity="0" result="BackgroundImageFix"/>
<feColorMatrix in="SourceAlpha" type="matrix" values="0 0 0 0 0 0 0 0 0 0 0 0 0 0 0 0 0 0 127 0"/>
<feMorphology radius="13" operator="dilate" in="SourceAlpha" result="effect1_dropShadow"/>
<feOffset dy="8"/>
<feGaussianBlur stdDeviation="9"/>
<feColorMatrix type="matrix" values="0 0 0 0 0 0 0 0 0 0 0 0 0 0 0 0 0 0 0.03 0"/>
<feBlend mode="normal" in2="BackgroundImageFix" result="effect1_dropShadow"/>
<feBlend mode="normal" in="SourceGraphic" in2="effect1_dropShadow" result="shape"/>
</filter>
<clipPath id="clip0">
<rect width="1440" height="2536" fill="white" transform="translate(-877 -555)"/>
</clipPath>
</defs>
</svg>
