<svg width="59" height="60" viewBox="0 0 59 60" fill="none" xmlns="http://www.w3.org/2000/svg">
<ellipse cx="29.5" cy="30" rx="29.5" ry="30" fill="white"/>
<path d="M29.2703 5.61539C15.8719 5.61539 5 16.5385 5 30C5 43.4615 15.8719 54.3846 29.2703 54.3846C42.6688 54.3846 53.5406 43.4615 53.5406 30C53.5406 16.5385 42.6688 5.61539 29.2703 5.61539ZM14.7234 32V31.8462C14.9531 31.2308 15.1828 30.6154 15.4125 29.9231C15.6422 29.3077 15.7953 28.6923 16.025 28.0769C16.1016 27.9231 16.1781 27.8462 16.3313 27.8462H26.6672C26.6672 27.9231 26.5906 28.0769 26.5906 28.1539L25.4422 31.6154C25.3656 31.8462 25.2891 31.9231 24.9828 31.9231H15.0297C14.9531 32 14.8 32 14.7234 32ZM43.8172 24.9231C42.8219 28 41.8266 31.0769 40.8313 34.2308C40.2188 36.1539 37.6156 38.6923 34.7828 38.6154C28.4281 38.5385 22.0734 38.6154 15.7953 38.6154H15.4125C15.4891 38.3846 15.5656 38.1539 15.6422 38C16.025 36.9231 16.4078 35.7692 16.7141 34.6923C16.7906 34.3846 16.9438 34.3846 17.1734 34.3846H34.3234C34.5531 34.3846 34.7063 34.3077 34.7828 34.0769C35.625 31.3846 36.5438 28.6923 37.3859 26C37.3859 25.9231 37.4625 25.8462 37.4625 25.6923H19.6234C19.6234 25.5385 19.7 25.4615 19.7 25.3846C20.0828 24.1538 20.5422 22.9231 20.925 21.6923C21.0016 21.4615 21.0781 21.3846 21.3078 21.3846H40.6016C40.9844 21.3846 41.4438 21.4615 41.8266 21.5385C42.8984 21.9231 43.5109 22.6923 43.7406 23.7692C43.7406 23.8462 43.8172 23.9231 43.8172 24V24.9231Z" fill="#3A74BE"/>
</svg>
