<svg width="58" height="58" viewBox="0 0 58 58" fill="none" xmlns="http://www.w3.org/2000/svg">
<circle cx="29" cy="29" r="29" fill="white"/>
<path d="M29 53.3215C42.1306 53.3215 52.775 42.6225 52.775 29.4246C52.775 16.2267 42.1306 5.52769 29 5.52769C15.8695 5.52769 5.22504 16.2267 5.22504 29.4246C5.22504 42.6225 15.8695 53.3215 29 53.3215Z" fill="#739BEE"/>
<path d="M35.525 31.9877C34.775 31.7615 34.025 31.6862 33.35 31.6862C32.675 31.7615 31.925 31.46 31.55 30.8569L31.325 30.5554C30.875 29.8769 30.875 29.0477 31.325 28.3692L31.55 27.9923C31.925 27.4646 32.525 27.1631 33.2 27.1631C34.025 27.1631 34.85 27.0123 35.675 26.56C37.7 25.5046 39.05 23.4692 38.975 21.2077C38.9 17.9662 36.2 15.4031 32.9 15.5538C30.125 15.7046 27.8 17.9661 27.5 20.7554C27.35 22.2631 27.8 23.62 28.55 24.7508C29 25.4292 29 26.3338 28.55 27.0123L28.475 27.0877C28.1 27.6154 27.5 27.9169 26.9 27.9169H26.525C25.775 27.9169 25.1 27.4646 24.8 26.7861C23.825 24.8261 21.8 23.5446 19.475 23.62C16.475 23.6954 14 26.1831 13.925 29.1985C13.775 32.5154 16.4 35.2292 19.7 35.2292C21.95 35.2292 23.9 33.9477 24.8 32.0631C25.1 31.3846 25.775 30.9323 26.525 30.9323H26.825C27.5 30.9323 28.1 31.2338 28.4 31.7615L28.775 32.2892C29.225 32.8923 29.15 33.7215 28.775 34.3246C28.1 35.38 27.8 36.5862 27.95 37.9431C28.175 40.6569 30.425 42.8431 33.05 43.1446C36.725 43.5215 39.725 40.4308 39.425 36.8123C39.275 34.6262 37.7 32.6661 35.525 31.9877Z" fill="#FEFEFE"/>
</svg>
