<svg width="64" height="64" viewBox="0 0 64 64" fill="none" xmlns="http://www.w3.org/2000/svg">
<circle cx="32" cy="32" r="32" fill="white"/>
<path d="M32.1625 58.2662C46.3873 58.2662 57.9188 46.6937 57.9188 32.4185C57.9188 18.1432 46.3873 6.57077 32.1625 6.57077C17.9377 6.57077 6.40625 18.1432 6.40625 32.4185C6.40625 46.6937 17.9377 58.2662 32.1625 58.2662Z" fill="#00A478"/>
<path d="M29.2375 29.9723V23.3677H20.5438V17.5785H44.8375V23.4492H36.1438V29.9723H29.2375Z" fill="white"/>
<path d="M32.4875 27.3631C41.5875 27.3631 46.3 29.8908 46.8687 30.7062C46.3 31.5215 41.6687 32.7446 32.4875 32.7446C23.3875 32.7446 18.675 31.5215 18.1062 30.7062C18.675 29.8092 23.3875 27.3631 32.4875 27.3631ZM32.4875 26.7108C23.7937 26.7108 16.8062 28.5046 16.8062 30.7062C16.8062 32.9077 23.7937 34.7015 32.4875 34.7015C41.1812 34.7015 48.1687 32.9077 48.1687 30.7062C48.1687 28.5046 41.1812 26.7108 32.4875 26.7108Z" fill="white"/>
<path d="M36.1437 32.0108V27.4446C35.0062 27.3631 33.7875 27.2815 32.5687 27.2815C31.4312 27.2815 30.375 27.2815 29.3187 27.3631V31.9292C30.2937 31.9292 31.4312 32.0108 32.5687 32.0108C33.7875 32.0923 35.0062 32.0923 36.1437 32.0108ZM32.4875 34.7015C31.35 34.7015 30.2937 34.7015 29.2375 34.62V46.7692H36.0625V34.5385C34.925 34.62 33.7062 34.7015 32.4875 34.7015Z" fill="white"/>
</svg>
