<svg width="70" height="71" viewBox="0 0 70 71" fill="none" xmlns="http://www.w3.org/2000/svg">
<ellipse cx="35" cy="35.5" rx="35" ry="35.5" fill="white"/>
<g clip-path="url(#clip0)">
<path d="M35.1812 64.1831C19.2313 64.0923 6.45313 51.2938 6.54375 35.4092C6.54375 19.4339 19.5031 6.63539 35.3625 6.72616C51.3125 6.81693 64.0906 19.7062 64 35.5908C63.8187 51.4754 50.95 64.2738 35.1812 64.1831ZM61.1906 35.5C61.1906 21.0677 49.5906 9.44923 35.1812 9.44923C20.8625 9.44923 9.2625 21.0677 9.2625 35.4092C9.2625 49.8415 20.8625 61.46 35.2719 61.46C49.5906 61.46 61.1906 49.8415 61.1906 35.5Z" fill="#C0C0C0"/>
<path d="M57.2938 35.5C57.1125 47.7539 47.2344 57.6477 35.0907 57.5569C22.7656 57.3754 12.9781 47.3908 13.1594 35.2277C13.3406 22.9739 23.2188 13.2615 35.2719 13.3523C47.5063 13.4431 57.2938 23.3369 57.2938 35.5ZM33.8219 43.3969V43.1246C34.4563 40.6739 35 38.3139 35.6344 35.8631C35.725 35.6815 35.9063 35.4092 36.1782 35.3185C36.8125 35.0462 37.4469 34.7739 38.0813 34.5923C39.5313 34.2292 40.3469 33.4123 40.5282 31.96C40.6188 31.3246 40.8907 30.6892 41.0719 29.9631C39.5313 30.5985 38.1719 31.1431 36.7219 31.6877C37.7188 27.7846 38.625 24.1539 39.6219 20.3415H31.375C30.8313 20.3415 30.65 20.5231 30.4688 21.0677L26.6625 35.2277C26.5719 35.5 26.3 35.7723 26.1188 35.8631C25.3032 36.2262 24.3969 36.4985 23.5813 36.8615C23.4 36.9523 23.1281 37.0431 23.1281 37.1339C22.7656 38.3139 22.4032 39.5846 21.95 40.9462C23.2188 40.4015 24.3063 39.9477 25.575 39.4939C24.7594 42.6708 23.9438 45.7569 23.1281 48.8431H46.5094C46.9625 48.8431 47.1438 48.7523 47.2344 48.2985C47.4157 47.3908 47.6875 46.4831 47.9594 45.6662C48.1407 45.0308 48.2313 44.3954 48.4125 43.6692L33.8219 43.3969Z" fill="#C0C0C0"/>
<path d="M33.8218 43.3969C38.7156 43.4877 43.5187 43.5785 48.4125 43.76C48.2312 44.4862 48.05 45.1215 47.9593 45.7569C47.6875 46.6646 47.4156 47.4815 47.2343 48.3892C47.1437 48.8431 46.9625 48.9339 46.5093 48.9339H23.1281C23.9437 45.7569 24.7593 42.7615 25.575 39.5846C24.3062 40.0385 23.2187 40.4923 21.95 41.0369C22.3125 39.6754 22.675 38.4954 23.1281 37.2246C23.1281 37.0431 23.4 36.9523 23.5812 36.9523C24.3968 36.5892 25.3031 36.3169 26.1187 35.9539C26.3906 35.8631 26.6625 35.5908 26.6625 35.3185L30.4687 21.1585C30.5593 20.6139 30.7406 20.4323 31.375 20.4323H39.6218C38.625 24.1539 37.7187 27.8754 36.7218 31.7785C38.1718 31.1431 39.5312 30.5985 41.0718 30.0539C40.8906 30.78 40.6187 31.4154 40.5281 32.0508C40.3468 33.5031 39.5312 34.32 38.0812 34.6831C37.4468 34.8646 36.8125 35.1369 36.1781 35.4092C35.9968 35.5 35.725 35.7723 35.6343 35.9539C35 38.4046 34.3656 40.7646 33.8218 43.2154V43.3969Z" fill="white"/>
</g>
<defs>
<clipPath id="clip0">
<rect width="58" height="59" fill="white" transform="translate(6 6)"/>
</clipPath>
</defs>
</svg>
