<svg width="39" height="40" viewBox="0 0 39 40" fill="none" xmlns="http://www.w3.org/2000/svg">
<path d="M19.4028 39.2322C30.1039 39.2322 38.7788 30.5652 38.7788 19.8738C38.7788 9.18249 30.1039 0.515442 19.4028 0.515442C8.70181 0.515442 0.0269165 9.18249 0.0269165 19.8738C0.0269165 30.5652 8.70181 39.2322 19.4028 39.2322Z" fill="#F5B300"/>
<path d="M14.1463 9.98089C14.8186 10.1641 15.491 10.2862 16.1633 10.4694C16.8357 10.6526 17.508 10.7748 18.1804 10.958C18.3638 11.019 18.4249 10.958 18.486 10.7748C18.7305 9.73662 18.975 8.75954 19.2195 7.72139C19.2806 7.53819 19.3417 7.47712 19.5251 7.53819C20.1363 7.72139 20.6864 7.84353 21.2977 7.96566C21.481 8.02673 21.481 8.0878 21.4199 8.20993C21.1754 9.18701 20.9309 10.2252 20.6864 11.2022C20.6864 11.2633 20.6864 11.3244 20.6253 11.4465C21.1143 11.5686 21.6644 11.6908 22.1534 11.8129C22.2145 11.8129 22.2756 11.6908 22.3367 11.6297C22.5201 10.8358 22.7035 10.103 22.948 9.30915L23.1313 8.57634C23.1313 8.4542 23.1925 8.39313 23.3147 8.4542C23.9259 8.6374 24.5372 8.75954 25.2095 8.94274C25.2706 8.94274 25.2706 9.00381 25.3318 9.00381C25.1484 9.79769 24.965 10.5305 24.7817 11.2633C24.7205 11.5686 24.6594 11.874 24.5372 12.1793C24.476 12.3625 24.5372 12.4236 24.7205 12.4847L26.7376 13.4007C27.3488 13.7671 27.8989 14.2556 28.3268 14.8663C28.8769 15.7823 28.938 16.7594 28.6935 17.7365C28.5101 18.4082 28.2657 19.0189 27.7767 19.5074C27.4099 19.8738 26.921 20.1181 26.432 20.3013C26.3708 20.3013 26.3097 20.3624 26.1875 20.3624C26.432 20.5456 26.6765 20.6677 26.921 20.8509C27.6544 21.4005 28.1434 22.0722 28.3879 22.9272C28.5101 23.5989 28.449 24.3317 28.2657 25.0035C28.0212 25.8584 27.7155 26.5912 27.1654 27.263C26.4931 28.0569 25.6374 28.4843 24.6594 28.6065C23.3758 28.7897 22.1534 28.6675 20.9309 28.4843C20.7476 28.4233 20.6253 28.4843 20.5642 28.6675C20.3197 29.6446 20.0752 30.6828 19.8307 31.6598C19.7696 31.9041 19.7696 31.9652 19.464 31.843C18.9139 31.7209 18.3026 31.5377 17.7525 31.4156C17.5692 31.3545 17.5692 31.2934 17.6303 31.1713C17.8748 30.1332 18.1193 29.095 18.4249 28.1179C18.4249 27.9958 18.486 27.9347 18.3638 27.8737C17.8748 27.7515 17.3858 27.6294 16.8357 27.5073C16.7134 28.0569 16.5301 28.6065 16.4078 29.1561C16.2856 29.7057 16.1022 30.2553 15.98 30.8049C15.9188 30.927 15.9188 30.9881 15.7355 30.927C15.1243 30.7438 14.513 30.6217 13.9018 30.4996C13.7184 30.4385 13.7184 30.3774 13.7796 30.2553C14.024 29.2171 14.2685 28.179 14.5741 27.2019C14.5741 27.1408 14.6353 27.0798 14.6353 26.9576C13.2294 26.5912 11.8236 26.2248 10.3567 25.8584C10.4789 25.6142 10.54 25.431 10.6623 25.1867C10.9068 24.6371 11.1513 24.0875 11.3346 23.5989C11.3958 23.4157 11.4569 23.4157 11.6403 23.4157C12.0681 23.5379 12.5571 23.66 12.985 23.7211C13.4739 23.8432 13.8407 23.5989 13.9018 23.1715C14.6964 20.057 15.491 16.9426 16.2245 13.7671C16.3467 13.2785 16.0411 12.7289 15.491 12.5457C14.9409 12.3625 14.3908 12.2404 13.9018 12.1182C13.7796 12.1182 13.7184 12.0572 13.7796 11.935C13.9629 11.2633 14.1463 10.5305 14.3297 9.85875C14.0852 10.042 14.0852 10.042 14.1463 9.98089ZM17.2636 25.0646C17.3247 25.0646 17.3858 25.1256 17.3858 25.1256C18.3638 25.3699 19.4028 25.6752 20.4419 25.7363C21.1754 25.7974 21.8478 25.7974 22.5201 25.5531C23.6814 25.1867 24.1704 23.66 23.4981 22.6829C23.1925 22.1944 22.7035 21.889 22.2145 21.5837C21.1143 20.973 19.8307 20.7288 18.6083 20.4845C18.4249 20.4234 18.4249 20.4845 18.3638 20.6677C18.2415 21.2784 18.0581 21.828 17.9359 22.4387C17.6914 23.2936 17.508 24.1485 17.2636 25.0646ZM22.3979 18.8357C22.5201 18.8357 22.8257 18.7746 23.0702 18.7135C24.2316 18.4693 24.8428 17.1258 24.2315 16.0876C23.9259 15.538 23.3758 15.1716 22.8257 14.9274C21.97 14.5609 21.1143 14.3777 20.1974 14.1335C20.0141 14.0724 19.953 14.1335 19.8918 14.3167C19.5862 15.5991 19.2806 16.8204 18.9139 18.1029C18.8527 18.225 18.9139 18.2861 19.0361 18.3471C19.2806 18.4082 19.464 18.4693 19.7085 18.5303C20.6253 18.6525 21.4199 18.8357 22.3979 18.8357Z" fill="white"/>
</svg>
