<svg width="39" height="40" viewBox="0 0 39 40" fill="none" xmlns="http://www.w3.org/2000/svg">
<path d="M19.3172 0.49231C8.65313 0.49231 0 9.23077 0 20C0 30.7692 8.65313 39.5077 19.3172 39.5077C29.9813 39.5077 38.6344 30.7692 38.6344 20C38.6344 9.23077 29.9813 0.49231 19.3172 0.49231ZM7.73906 21.6V21.4769C7.92188 20.9846 8.10469 20.4923 8.2875 19.9385C8.47031 19.4462 8.59219 18.9538 8.775 18.4615C8.83594 18.3385 8.89688 18.2769 9.01875 18.2769H17.2453C17.2453 18.3385 17.1844 18.4615 17.1844 18.5231L16.2703 21.2923C16.2094 21.4769 16.1484 21.5385 15.9047 21.5385H7.98281C7.92188 21.6 7.8 21.6 7.73906 21.6ZM30.8953 15.9385C30.1031 18.4 29.3109 20.8615 28.5188 23.3846C28.0313 24.9231 25.9594 26.9538 23.7047 26.8923C18.6469 26.8308 13.5891 26.8923 8.59219 26.8923H8.2875C8.34844 26.7077 8.40938 26.5231 8.47031 26.4C8.775 25.5385 9.07969 24.6154 9.32344 23.7538C9.38438 23.5077 9.50625 23.5077 9.68906 23.5077H23.3391C23.5219 23.5077 23.6438 23.4462 23.7047 23.2615C24.375 21.1077 25.1063 18.9538 25.7766 16.8C25.7766 16.7385 25.8375 16.6769 25.8375 16.5538H11.6391C11.6391 16.4308 11.7 16.3692 11.7 16.3077C12.0047 15.3231 12.3703 14.3385 12.675 13.3538C12.7359 13.1692 12.7969 13.1077 12.9797 13.1077H28.3359C28.6406 13.1077 29.0063 13.1692 29.3109 13.2308C30.1641 13.5385 30.6516 14.1538 30.8344 15.0154C30.8344 15.0769 30.8953 15.1385 30.8953 15.2V15.9385Z" fill="#3A74BE"/>
</svg>
