<svg width="15" height="15" viewBox="0 0 15 15" fill="none" xmlns="http://www.w3.org/2000/svg">
<path fill-rule="evenodd" clip-rule="evenodd" d="M10.8623 -0.00613403H4.13595C3.03762 -0.00446533 1.98472 0.432422 1.20786 1.20884C0.430997 1.98525 -0.00649257 3.0379 -0.00878906 4.13623V10.8625C-0.00649257 11.9609 0.430997 13.0135 1.20786 13.7899C1.98472 14.5664 3.03762 15.0032 4.13595 15.0049H10.8623C11.9606 15.0032 13.0135 14.5664 13.7904 13.7899C14.5672 13.0135 15.0047 11.9609 15.007 10.8625V4.13623C15.0047 3.0379 14.5672 1.98525 13.7904 1.20884C13.0135 0.432422 11.9606 -0.00446533 10.8623 -0.00613403ZM13.4202 11.052C13.4609 11.3728 13.4278 11.6986 13.3232 12.0045C13.2186 12.3104 13.0453 12.5883 12.8167 12.817C12.5881 13.0456 12.3101 13.2188 12.0042 13.3234C11.6983 13.428 11.3725 13.4612 11.0517 13.4204H3.94647C3.62574 13.4612 3.29993 13.428 2.994 13.3234C2.68807 13.2188 2.41015 13.0456 2.18153 12.817C1.95291 12.5883 1.77966 12.3104 1.67506 12.0045C1.57045 11.6986 1.53727 11.3728 1.57805 11.052V3.94676C1.53727 3.62603 1.57045 3.30021 1.67506 2.99428C1.77966 2.68836 1.95291 2.41043 2.18153 2.18181C2.41015 1.9532 2.68807 1.77995 2.994 1.67534C3.29993 1.57074 3.62574 1.53756 3.94647 1.57834H11.0517C11.3725 1.53756 11.6983 1.57074 12.0042 1.67534C12.3101 1.77995 12.5881 1.9532 12.8167 2.18181C13.0453 2.41043 13.2186 2.68836 13.3232 2.99428C13.4278 3.30021 13.4609 3.62603 13.4202 3.94676V11.052ZM7.49911 3.63097C6.734 3.63097 5.98608 3.85785 5.34993 4.28292C4.71377 4.70798 4.21794 5.31215 3.92515 6.01901C3.63236 6.72587 3.55575 7.50368 3.70502 8.25408C3.85428 9.00448 4.22271 9.69377 4.76372 10.2348C5.30473 10.7758 5.99401 11.1442 6.74441 11.2935C7.49481 11.4427 8.27262 11.3661 8.97949 11.0733C9.68635 10.7806 10.2905 10.2847 10.7156 9.64857C11.1406 9.01241 11.3675 8.26449 11.3675 7.49939C11.3663 6.47381 10.9583 5.49059 10.2331 4.76539C9.50791 4.04019 8.52469 3.63222 7.49911 3.63097ZM7.49911 10.0344C6.99751 10.0347 6.50708 9.88625 6.08987 9.6078C5.67265 9.32936 5.34739 8.93343 5.15522 8.4701C4.96305 8.00677 4.9126 7.49686 5.01027 7.00486C5.10793 6.51286 5.34932 6.06088 5.70389 5.70609C6.05847 5.35129 6.5103 5.10963 7.00224 5.01165C7.49418 4.91368 8.00412 4.96381 8.46757 5.15569C8.93101 5.34757 9.32714 5.67259 9.60585 6.08963C9.88455 6.50667 10.0333 6.997 10.0333 7.4986C10.0329 8.17081 9.76584 8.81539 9.29074 9.29094C8.81565 9.76648 8.17131 10.0341 7.49911 10.0352V10.0344ZM11.5254 2.50123C11.3005 2.50256 11.083 2.58173 10.9098 2.72528C10.7367 2.86884 10.6186 3.06793 10.5756 3.28871C10.5327 3.50948 10.5675 3.73832 10.6742 3.93633C10.7809 4.13434 10.9528 4.2893 11.1608 4.37487C11.3688 4.46043 11.6001 4.47133 11.8152 4.4057C12.0303 4.34007 12.2161 4.20197 12.3409 4.01487C12.4657 3.82777 12.5219 3.60321 12.4999 3.37937C12.4779 3.15553 12.379 2.94623 12.2202 2.78702C12.0354 2.60382 11.7856 2.50133 11.5254 2.50202V2.50123Z" fill="white"/>
</svg>
