<svg width="17" height="15" viewBox="0 0 17 15" fill="none" xmlns="http://www.w3.org/2000/svg">
<path fill-rule="evenodd" clip-rule="evenodd" d="M17.0099 9.2122V14.9919H13.3999V9.59657C13.3999 8.24001 12.8799 7.31845 11.5799 7.31845C11.1745 7.31929 10.7792 7.43744 10.4481 7.65674C10.117 7.87604 9.86618 8.18582 9.72988 8.54376C9.63133 8.80599 9.5872 9.08348 9.59988 9.36126V14.9863H5.99988C5.99988 14.9863 6.03988 5.8522 5.99988 4.90626H9.59988V6.33501C9.59705 6.34818 9.59008 6.36026 9.57988 6.3697H9.59988V6.33501C9.93067 5.80603 10.4089 5.37152 10.9833 5.07818C11.5577 4.78483 12.2064 4.64372 12.8599 4.67001C15.2299 4.6747 17.0099 6.1147 17.0099 9.2122ZM1.98988 0.00876107C2.25586 -0.00163662 2.52135 0.0381003 2.77065 0.125619C3.01995 0.213139 3.24799 0.346661 3.44126 0.518281C3.63453 0.689901 3.7891 0.896131 3.89584 1.12476C4.00257 1.35339 4.05929 1.59977 4.06263 1.84932C4.06598 2.09887 4.01588 2.34651 3.91532 2.57758C3.81475 2.80865 3.66575 3.01846 3.47714 3.19458C3.28853 3.3707 3.06415 3.50955 2.81727 3.60292C2.5704 3.69628 2.30605 3.74226 2.03988 3.73814H2.01988C1.75359 3.74771 1.48796 3.70705 1.23875 3.61856C0.989537 3.53006 0.761823 3.39555 0.569115 3.22299C0.376408 3.05043 0.222632 2.84334 0.116912 2.61401C0.0111913 2.38468 -0.0443205 2.13778 -0.0463301 1.88795C-0.0483398 1.63813 0.00319359 1.39047 0.105213 1.15967C0.207232 0.928867 0.357658 0.719628 0.547568 0.544363C0.737478 0.369099 0.963002 0.231378 1.21076 0.139373C1.45852 0.0473681 1.72347 0.00295239 1.98988 0.00876107ZM4.01988 14.9909H-0.0101186V4.67845H4.01988V14.9909Z" fill="white"/>
</svg>
