<?xml version="1.0" standalone="no"?>
<!DOCTYPE svg PUBLIC "-//W3C//DTD SVG 20010904//EN"
 "http://www.w3.org/TR/2001/REC-SVG-20010904/DTD/svg10.dtd">
<svg version="1.0" xmlns="http://www.w3.org/2000/svg"
 width="1080.000000pt" height="1080.000000pt" viewBox="0 0 1080.000000 1080.000000"
 preserveAspectRatio="xMidYMid meet">
<metadata>
Created by potrace 1.11, written by Peter Selinger 2001-2013
</metadata>
<g transform="translate(0.000000,1080.000000) scale(0.100000,-0.100000)"
fill="#000000" stroke="none">
<path d="M5268 10024 c-2 -1 -59 -5 -128 -9 -68 -3 -127 -8 -130 -10 -3 -1
-31 -6 -63 -9 -51 -6 -155 -24 -240 -41 -217 -44 -533 -147 -717 -235 -242
-115 -393 -204 -585 -343 -243 -177 -500 -422 -667 -637 -14 -19 -44 -57 -65
-85 -51 -65 -184 -268 -224 -342 -77 -139 -130 -246 -169 -339 -23 -54 -48
-114 -56 -132 -9 -18 -17 -40 -19 -50 -2 -9 -18 -57 -35 -107 -54 -156 -114
-415 -136 -587 -3 -24 -7 -54 -10 -68 -25 -159 -25 -686 0 -816 2 -12 7 -45
11 -75 9 -73 43 -250 62 -324 8 -33 16 -67 18 -75 17 -76 103 -327 153 -445
196 -468 535 -931 917 -1255 28 -23 61 -52 75 -64 93 -79 304 -224 450 -308
227 -130 548 -266 778 -327 l41 -12 -52 -50 c-28 -28 -234 -230 -456 -448
-222 -218 -458 -449 -525 -515 -66 -65 -210 -206 -319 -314 l-198 -196 68 -64
c103 -97 133 -123 198 -177 33 -28 62 -52 65 -55 3 -3 30 -23 60 -45 30 -22
57 -42 60 -45 7 -8 219 -150 224 -150 2 0 33 -18 68 -39 363 -221 905 -395
1351 -436 237 -22 544 -22 687 0 14 2 52 7 84 10 127 12 381 64 536 111 412
123 807 328 1140 593 124 99 162 133 300 271 124 124 262 281 320 366 118 172
166 244 212 324 181 312 305 635 387 1015 21 99 48 283 58 400 14 172 9 516
-12 675 -1 14 -6 50 -10 80 -8 63 -50 287 -64 340 -36 137 -56 203 -90 301
l-40 112 40 116 c69 201 137 485 154 641 4 36 9 74 11 85 24 126 24 621 -1
785 -2 14 -6 48 -10 75 -8 68 -44 263 -55 300 -5 17 -12 41 -14 55 -3 14 -10
41 -15 60 -5 19 -14 51 -19 70 -15 55 -46 146 -87 255 -180 481 -521 980 -901
1315 -92 81 -108 95 -179 151 -289 229 -653 426 -1015 549 -112 38 -371 105
-461 120 -35 5 -73 12 -84 14 -11 2 -47 7 -80 11 -32 4 -66 8 -75 10 -67 12
-512 29 -522 19z"/>
</g>
</svg>
