<svg width="64" height="65" viewBox="0 0 64 65" fill="none" xmlns="http://www.w3.org/2000/svg">
<ellipse cx="32" cy="32.5" rx="32" ry="32.5" fill="white"/>
<path d="M32.1688 59.2385C46.9406 59.2385 58.9156 47.2294 58.9156 32.4154C58.9156 17.6014 46.9406 5.59232 32.1688 5.59232C17.3969 5.59232 5.42188 17.6014 5.42188 32.4154C5.42188 47.2294 17.3969 59.2385 32.1688 59.2385Z" fill="#F8BF1A"/>
<path d="M17.3187 47.4769V40.3692H21.4531V24.1231H17.3187V17.2692H34.6156C35.7969 17.2692 36.9781 17.6077 38.075 18.0308C40.2687 18.8769 42.2094 20.1462 43.7281 22.0077C45.0781 23.6154 46.0062 25.4769 46.5125 27.5923C47.3562 31.1462 47.3562 34.7846 46.3437 38.3385C44.9937 42.9923 42.125 46.1231 37.2312 47.2231C36.3875 47.3923 35.4594 47.4769 34.6156 47.5616H17.9937C17.7406 47.4769 17.5719 47.4769 17.3187 47.4769ZM29.8906 40.3692C30.8187 40.3692 31.7469 40.4539 32.675 40.3692C33.8562 40.2846 34.9531 39.8616 35.7125 38.8462C36.3875 38 36.9781 37.0692 37.3156 36.0539C37.9906 33.7692 37.7375 31.4846 37.2312 29.2C36.9781 27.8462 36.3031 26.5769 35.4594 25.5615C34.9531 24.9692 34.2781 24.2923 33.5187 24.2077C32.3375 23.9539 31.0719 24.1231 29.8906 24.1231V40.3692Z" fill="white"/>
</svg>
