<svg width="27" height="27" viewBox="0 0 27 27" fill="none" xmlns="http://www.w3.org/2000/svg">
<path d="M23.1102 14.7917C22.826 14.7917 22.5289 14.7012 22.2448 14.6367C21.6693 14.5099 21.1038 14.3415 20.5527 14.1329C19.9535 13.9149 19.2948 13.9262 18.7034 14.1647C18.112 14.4032 17.6298 14.8519 17.3494 15.4246L17.0652 16.0058C15.8071 15.306 14.651 14.4368 13.6294 13.4225C12.6151 12.4008 11.7459 11.2447 11.046 9.98666L11.5885 9.62499C12.1612 9.34459 12.61 8.8623 12.8484 8.27093C13.0869 7.67955 13.0982 7.02088 12.8802 6.42166C12.6751 5.86937 12.5068 5.30411 12.3764 4.72958C12.3119 4.44541 12.2602 4.14833 12.2214 3.85124C12.0646 2.94142 11.588 2.11749 10.8776 1.52784C10.1672 0.938194 9.26959 0.62157 8.34644 0.634992H4.47144C3.91477 0.629766 3.36351 0.744543 2.85519 0.971511C2.34687 1.19848 1.89342 1.53231 1.52571 1.95027C1.15799 2.36824 0.884657 2.86053 0.724301 3.39362C0.563945 3.92672 0.520335 4.48811 0.596441 5.03958C1.28456 10.4509 3.75589 15.4787 7.62008 19.3288C11.4843 23.179 16.521 25.632 21.9348 26.3004H22.4256C23.3781 26.3018 24.2977 25.9523 25.0089 25.3187C25.4176 24.9533 25.744 24.5052 25.9667 24.0042C26.1893 23.5033 26.3031 22.9607 26.3006 22.4125V18.5375C26.2848 17.6403 25.9581 16.7764 25.3762 16.0932C24.7944 15.4101 23.9935 14.9501 23.1102 14.7917ZM23.756 22.5417C23.7558 22.7251 23.7165 22.9063 23.6408 23.0733C23.5651 23.2404 23.4546 23.3894 23.3169 23.5104C23.173 23.6357 23.0042 23.7292 22.8217 23.7849C22.6392 23.8405 22.447 23.857 22.2577 23.8333C17.4203 23.2131 12.927 21 9.48662 17.5433C6.04624 14.0865 3.85455 9.5828 3.25727 4.74249C3.23672 4.55329 3.25473 4.36188 3.31024 4.17983C3.36574 3.99778 3.45757 3.82888 3.58019 3.68333C3.70123 3.54555 3.85023 3.43512 4.01726 3.3594C4.1843 3.28368 4.36554 3.24439 4.54894 3.24416H8.42394C8.72431 3.23748 9.01762 3.33571 9.25338 3.52196C9.48913 3.70821 9.65259 3.97081 9.71561 4.26458C9.76727 4.61763 9.83186 4.96638 9.90936 5.31083C10.0586 5.99172 10.2572 6.66085 10.5035 7.31291L8.69519 8.15249C8.54057 8.22343 8.40149 8.32422 8.28594 8.44905C8.17038 8.57389 8.08062 8.72033 8.02181 8.87995C7.963 9.03958 7.9363 9.20925 7.94324 9.37922C7.95019 9.54919 7.99064 9.71611 8.06227 9.87041C9.92124 13.8523 13.122 17.0531 17.1039 18.9121C17.4184 19.0413 17.7711 19.0413 18.0856 18.9121C18.2467 18.8545 18.3947 18.7654 18.5211 18.6501C18.6475 18.5348 18.7497 18.3955 18.8219 18.2404L19.6227 16.4321C20.2904 16.6709 20.9719 16.8693 21.6635 17.0262C22.008 17.1037 22.3567 17.1683 22.7098 17.22C23.0035 17.283 23.2661 17.4465 23.4524 17.6822C23.6386 17.918 23.7369 18.2113 23.7302 18.5117L23.756 22.5417Z" fill="#030542"/>
</svg>
