<svg width="38" height="38" viewBox="0 0 38 38" fill="none" xmlns="http://www.w3.org/2000/svg">
<path d="M34.4375 19H28.5V14.25C28.5 11.6301 30.6301 9.5 33.25 9.5H33.8438C34.8309 9.5 35.625 8.70586 35.625 7.71875V4.15625C35.625 3.16914 34.8309 2.375 33.8438 2.375H33.25C26.6891 2.375 21.375 7.68906 21.375 14.25V32.0625C21.375 34.0293 22.9707 35.625 24.9375 35.625H34.4375C36.4043 35.625 38 34.0293 38 32.0625V22.5625C38 20.5957 36.4043 19 34.4375 19ZM13.0625 19H7.125V14.25C7.125 11.6301 9.25508 9.5 11.875 9.5H12.4688C13.4559 9.5 14.25 8.70586 14.25 7.71875V4.15625C14.25 3.16914 13.4559 2.375 12.4688 2.375H11.875C5.31406 2.375 0 7.68906 0 14.25V32.0625C0 34.0293 1.5957 35.625 3.5625 35.625H13.0625C15.0293 35.625 16.625 34.0293 16.625 32.0625V22.5625C16.625 20.5957 15.0293 19 13.0625 19Z" fill="#FC8500"/>
</svg>
