<svg width="88" height="88" viewBox="0 0 88 88" fill="none" xmlns="http://www.w3.org/2000/svg">
<rect width="88" height="88" rx="25" fill="#E8EDFF"/>
<rect x="20" y="20" width="48" height="48" rx="24" fill="#2A31F9"/>
<path d="M52.2297 47.88C52.2297 49.44 51.7397 50.77 50.7597 51.87C49.7797 52.95 48.4097 53.68 46.6497 54.06V58.89H42.8997V54.24C41.4997 54.12 40.2497 53.81 39.1497 53.31C38.0497 52.79 37.1097 52.14 36.3297 51.36L38.9697 48.48C40.4697 49.78 42.1097 50.43 43.8897 50.43C44.8097 50.43 45.5097 50.24 45.9897 49.86C46.4697 49.48 46.7097 48.97 46.7097 48.33C46.7097 47.87 46.6097 47.49 46.4097 47.19C46.2297 46.89 45.8897 46.62 45.3897 46.38C44.9097 46.12 44.2097 45.85 43.2897 45.57C41.0497 44.87 39.4697 44.02 38.5497 43.02C37.6297 42.02 37.1697 40.77 37.1697 39.27C37.1697 37.73 37.6897 36.45 38.7297 35.43C39.7897 34.41 41.1797 33.76 42.8997 33.48V29.04H46.6497V33.51C48.6697 33.83 50.3497 34.66 51.6897 36L49.2897 38.79C47.9697 37.71 46.5397 37.17 44.9997 37.17C44.2397 37.17 43.6497 37.32 43.2297 37.62C42.8097 37.9 42.5997 38.31 42.5997 38.85C42.5997 39.23 42.6997 39.55 42.8997 39.81C43.1197 40.05 43.4797 40.29 43.9797 40.53C44.4997 40.75 45.2797 41.03 46.3197 41.37C48.3597 42.01 49.8497 42.82 50.7897 43.8C51.7497 44.78 52.2297 46.14 52.2297 47.88Z" fill="white"/>
</svg>
