<svg width="55" height="56" viewBox="0 0 55 56" fill="none" xmlns="http://www.w3.org/2000/svg">
<path d="M0 7V8.75V24.4932H6.875V49H10.3125V24.4932H17.1875V8.75V7H13.75V8.75V20.9932H10.3125V7H6.875V20.9932H3.4375V8.75V7H0ZM37.8125 10.5C28.3405 10.5 20.625 18.3558 20.625 28C20.625 37.6443 28.3405 45.5 37.8125 45.5C47.2845 45.5 55 37.6443 55 28C55 18.3558 47.2845 10.5 37.8125 10.5ZM37.8125 14C45.4268 14 51.5625 20.2475 51.5625 28C51.5625 35.7528 45.4268 42 37.8125 42C30.1982 42 24.0625 35.7528 24.0625 28C24.0625 20.2475 30.1982 14 37.8125 14ZM37.8125 17.5C32.1374 17.5 27.5 22.2219 27.5 28C27.5 33.7785 32.1374 38.5 37.8125 38.5C43.4876 38.5 48.125 33.7785 48.125 28C48.125 22.2219 43.4876 17.5 37.8125 17.5ZM37.8125 21C41.6298 21 44.6875 24.1133 44.6875 28C44.6875 31.8867 41.6298 35 37.8125 35C33.9952 35 30.9375 31.8867 30.9375 28C30.9375 24.1133 33.9952 21 37.8125 21Z" fill="#170704"/>
</svg>
