<svg width="48" height="48" viewBox="0 0 48 48" fill="none" xmlns="http://www.w3.org/2000/svg">
<g clip-path="url(#clip0)">
<path d="M37.5 -0.00585938V0C35.2493 0 33.5547 0.412209 32.4082 0.849609C31.2617 1.28731 30.5566 1.83398 30.5566 1.83398L30 2.28516V5.98828H3V48H45V37.5234V31.9629V4.64062L44.8242 4.3125C44.8242 4.3125 42.4884 -0.00585938 37.5 -0.00585938ZM37.5 3C40.5349 3 41.7993 5.14961 42 5.50781V31.3477C40.8658 30.5662 39.4011 30.0117 37.5 30.0117H33V8.98828V5.98828V3.89648C33.1606 3.80648 33.1025 3.80025 33.4805 3.65625C34.2992 3.34365 35.6117 3 37.5 3ZM6 8.98828H30V33.0117H37.5C40.2008 33.0117 40.997 34.0444 41.5195 35.1562C42.042 36.2681 42 37.4414 42 37.4414V37.5234V45H6V8.98828ZM9 12V13.5V21H27V12H9ZM12 15H24V18H12V15ZM9 24V25.5V33H27V24H9ZM12 27H24V30H12V27ZM9 36V39H27V36H9Z" fill="black"/>
</g>
<defs>
<clipPath id="clip0">
<rect width="48" height="48" fill="white"/>
</clipPath>
</defs>
</svg>
