<svg width="48" height="48" viewBox="0 0 48 48" fill="none" xmlns="http://www.w3.org/2000/svg">
<path d="M6 0V48H45V8.40234L44.5605 7.96289L36.6387 0H6ZM9 3H35.3906L42 9.64453V45H9V3ZM33.3105 10.3477C32.5841 10.3477 31.8624 10.6176 31.3184 11.1621L28.3711 14.1035L28.3945 14.127L14.1152 28.3418L10.7168 38.543L20.9121 35.1445L35.1621 20.8945L36.2637 19.793L38.1094 17.9531C39.197 16.865 39.1975 15.0448 38.1094 13.957L35.3086 11.1621C34.7646 10.6182 34.037 10.3477 33.3105 10.3477ZM33.3164 13.4062L35.8652 15.9551L34.1309 17.6895L31.5645 15.1582L33.3164 13.4062ZM29.4609 17.3027L32.0039 19.8105L20.5664 31.2539L18.0117 28.6992L29.4609 17.3027ZM16.3125 31.2422L18.0176 32.9473L15.457 33.8027L16.3125 31.2422Z" fill="black"/>
</svg>
