<svg width="48" height="48" viewBox="0 0 48 48" fill="none" xmlns="http://www.w3.org/2000/svg">
<path d="M24 0C19.8756 0 16.5 3.3756 16.5 7.5C16.5 11.6244 19.8756 15 24 15C28.1244 15 31.5 11.6244 31.5 7.5C31.5 3.3756 28.1244 0 24 0ZM24 3C26.503 3 28.5 4.9971 28.5 7.5C28.5 10.0032 26.503 12 24 12C21.497 12 19.5 10.0032 19.5 7.5C19.5 4.9971 21.497 3 24 3ZM23.6426 16.0312V16.0371C20.7499 16.1841 18.0844 17.5753 16.002 19.6582C15.9442 19.7163 15.8913 19.779 15.8438 19.8457L6.46875 32.9707C6.4668 32.9707 6.46484 32.9707 6.46289 32.9707C5.79458 33.9109 5.62959 35.1298 5.98242 36.1582C6.33526 37.1866 7.14678 38.0086 8.19141 38.4844C10.2569 39.4255 12.803 39.06 14.1621 37.1484L18 31.7227V39H7.5C5.03295 39 3 41.0331 3 43.5C3 45.9672 5.03295 48 7.5 48H40.5C42.9671 48 45 45.9672 45 43.5C45 41.0331 42.9671 39 40.5 39H30V31.4473L34.0254 37.1484C35.3845 39.06 37.9306 39.4255 39.9961 38.4844C41.0407 38.0086 41.8522 37.1866 42.2051 36.1582C42.5579 35.1298 42.3929 33.9109 41.7246 32.9707C41.7227 32.9707 41.7207 32.9707 41.7188 32.9707L32.3438 19.8457C32.2965 19.777 32.2436 19.7123 32.1855 19.6523C29.5737 17.0402 26.5363 15.8836 23.6426 16.0312ZM23.7949 19.0312C25.8 18.9293 27.9106 19.6579 30.0176 21.7441L39.2812 34.7168H39.2754C39.4306 34.9358 39.4234 35.0277 39.3691 35.1855C39.3149 35.3445 39.1546 35.5774 38.7539 35.7598C37.9288 36.136 36.7625 35.8197 36.4746 35.4141L29.7246 25.8574C29.5409 25.5979 29.2796 25.4035 28.9782 25.3022C28.6769 25.2008 28.3511 25.1979 28.048 25.2937C27.7448 25.3896 27.48 25.5792 27.2916 25.8353C27.1032 26.0915 27.0011 26.4008 27 26.7188V28.125V30.375V40.5C27 40.8978 27.1581 41.2793 27.4394 41.5606C27.7207 41.8419 28.1022 42 28.5 42H40.5C41.3569 42 42 42.6432 42 43.5C42 44.3571 41.3569 45 40.5 45H7.5C6.64305 45 6 44.3571 6 43.5C6 42.6432 6.64305 42 7.5 42H19.5C19.8978 42 20.2793 41.8419 20.5606 41.5606C20.8419 41.2793 21 40.8978 21 40.5V30.375V28.125V27C20.9989 26.6821 20.8968 26.3727 20.7084 26.1166C20.52 25.8605 20.2552 25.6708 19.952 25.575C19.6489 25.4791 19.3231 25.4821 19.0218 25.5834C18.7204 25.6847 18.4591 25.8792 18.2754 26.1387L11.7129 35.4141C11.425 35.8191 10.2587 36.136 9.43359 35.7598C9.03291 35.5768 8.87257 35.3436 8.81836 35.1855C8.76415 35.0265 8.75693 34.9364 8.91211 34.7168H8.90625L18.1582 21.7617C19.8037 20.1285 21.7862 19.1341 23.7949 19.0312Z" fill="black"/>
</svg>
