<svg width="48" height="48" viewBox="0 0 48 48" fill="none" xmlns="http://www.w3.org/2000/svg">
<path d="M37.5 0C33.8831 0 30.8497 2.58315 30.1523 6H3V48H39V34.6172C40.6187 34.8673 41.2614 35.5044 41.6074 36.0586C42.0407 36.7522 42.001 37.3777 42 37.3945V37.5293L44.9941 37.6406C44.9941 37.6406 44.9645 37.5323 44.9648 37.5293H45V7.5C45 3.3711 41.6291 0 37.5 0ZM37.5 3C40.0189 3 42 4.9812 42 7.5V32.5898C40.8629 31.9556 39.4263 31.5 37.5 31.5C35.5739 31.5 34.1371 31.9556 33 32.5898V7.5C33 4.9812 34.9811 3 37.5 3ZM6 9H30V37.5293H30.0352C30.0354 37.5293 30.0059 37.6406 30.0059 37.6406L33 37.5293V37.3945C32.999 37.3645 32.9593 36.7522 33.3926 36.0586C33.7386 35.5044 34.3813 34.8673 36 34.6172V45H6V9ZM18 12C14.7041 12 12 14.7042 12 18C12 21.2961 14.7041 24 18 24C21.2959 24 24 21.2961 24 18C24 14.7042 21.2959 12 18 12ZM18 15C19.6746 15 21 16.3254 21 18C21 19.6746 19.6746 21 18 21C16.3254 21 15 19.6746 15 18C15 16.3254 16.3254 15 18 15ZM18.4629 24.0117C18.0767 23.9906 17.6893 23.9982 17.3027 24.0293C14.2099 24.2783 11.2802 26.1707 9.23438 29.3555L9 29.7305V34.4941V36H27V33V29.7129L26.7598 29.3438C26.4761 28.9034 26.1734 28.4809 25.8516 28.084C23.8183 25.5745 21.1661 24.1592 18.4629 24.0117ZM17.543 27.0234C19.5849 26.8584 21.6984 27.7231 23.5195 29.9707C23.6863 30.1777 23.8435 30.4078 24 30.6328V33H12V30.7266C13.6094 28.389 15.5905 27.1803 17.543 27.0234ZM9 39V42H27V39H9Z" fill="black"/>
</svg>
