<svg width="48" height="48" viewBox="0 0 48 48" fill="none" xmlns="http://www.w3.org/2000/svg">
<g clip-path="url(#clip0)">
<path d="M20.4668 0.0228392C19.178 -0.0402037 17.8989 0.0562544 16.6348 0.245495L16.5996 0.181042C16.5558 0.20448 16.52 0.24461 16.4766 0.268933C11.3763 1.07517 6.63724 3.86219 3.51562 8.32557C-1.71959 15.8112 -1.04784 25.9513 5.12694 32.683C11.1059 39.2009 20.6993 40.8013 28.4824 36.7494C28.9957 37.6138 29.5876 38.4317 30.3105 39.1224C30.3147 39.1584 30.3289 39.2504 30.3223 39.4154C30.3076 39.7874 30.222 40.357 30.1055 40.9213C29.989 41.4853 29.848 42.0477 29.7363 42.474C29.6805 42.687 29.6322 42.865 29.5957 43.0072C29.5775 43.0792 29.5594 43.1373 29.543 43.2123C29.5347 43.2513 29.5255 43.2862 29.5137 43.3822C29.5077 43.4302 29.5019 43.6253 29.5019 43.6283C29.502 43.6295 29.5603 43.9907 29.5605 43.9916C29.5606 43.9919 29.7186 44.3607 29.7187 44.3607C29.7189 44.361 30.24 44.8764 30.2402 44.8764L30.9668 45.3099L31.7168 44.9057C34.5282 43.3927 36.5781 42.3384 39.9082 41.8002C44.3804 41.0766 48 36.5812 48 31.5814C48 26.2618 43.9896 21.8882 38.8476 21.2162C39.5925 12.8036 34.8682 4.75747 26.9473 1.48182C24.8369 0.609124 22.6502 0.129939 20.4668 0.0228392ZM20.3086 3.01698C20.5938 3.03116 20.8787 3.10499 21.1641 3.13417C22.5053 3.86412 23.9786 5.72787 25.0664 8.45448C23.1507 8.80821 21.126 9.02884 19.043 8.9994C17.2798 8.97469 15.5931 8.75403 13.9687 8.45448C15.0045 5.84462 16.3825 3.97698 17.6367 3.11073C18.5202 3.01051 19.4123 2.97242 20.3086 3.01698ZM12.5098 4.56386C11.9779 5.50113 11.4853 6.50326 11.0625 7.61073C11.0463 7.65327 11.0375 7.70272 11.0215 7.7455C10.2609 7.51281 9.50779 7.27291 8.83007 6.98378C9.96361 6.01663 11.184 5.18394 12.5098 4.56386ZM26.5312 4.62831C27.8616 5.25739 29.086 6.02734 30.1699 6.94862C29.4897 7.24091 28.7764 7.49963 28.0137 7.73378C27.9931 7.67926 27.9759 7.61797 27.9551 7.56386C27.543 6.49558 27.0546 5.53187 26.5312 4.62831ZM32.4023 9.2162C34.3902 11.7123 35.5759 14.7695 35.8711 17.9994H29.9355C29.8337 15.3777 29.4899 12.87 28.9043 10.599C30.1478 10.2142 31.3165 9.75885 32.4023 9.2162ZM6.65038 9.23378C7.73077 9.77089 8.88534 10.2355 10.125 10.6166C9.52973 12.9002 9.17042 15.4031 9.06444 17.9994H3.07616C3.3295 15.2119 4.28112 12.4666 5.97655 10.0424C6.18061 9.75061 6.43077 9.50873 6.65038 9.23378ZM13.0312 11.3373C14.9447 11.7107 16.9333 11.9702 19.0019 11.9994C21.4166 12.0331 23.7683 11.7872 25.998 11.349C26.5158 13.3628 26.8335 15.6239 26.9355 17.9994H12.0644C12.1706 15.644 12.4991 13.3757 13.0312 11.3373ZM3.09374 20.9994H9.06444C9.17199 23.5206 9.51664 26.0131 10.1191 28.3119C8.88203 28.6966 7.73303 29.1944 6.63866 29.7416C4.58779 27.1667 3.38166 24.1326 3.09374 20.9994ZM12.0644 20.9994H26.9355C26.8269 23.3399 26.4942 25.5936 25.957 27.6146C21.712 26.7678 17.1685 26.7611 13.0312 27.5795C12.4946 25.5313 12.1728 23.2735 12.0644 20.9994ZM29.9355 20.9994H35.8711C35.8636 21.0815 35.8564 21.1633 35.8476 21.2455C33.3491 21.6466 31.1627 22.9323 29.5781 24.7728C29.7623 23.5474 29.8812 22.2892 29.9355 20.9994ZM37.5 24.0814C41.6599 24.0814 45 27.4216 45 31.5814C45 35.0263 42.0501 38.4173 39.4277 38.8412C36.8153 39.2633 35.0278 40.2842 33.0879 41.2142C33.1947 40.6601 33.3 40.0945 33.3223 39.5326C33.3355 39.1987 33.3309 38.8648 33.2578 38.4955C33.1845 38.1259 33.0495 37.6578 32.5664 37.2357C30.9902 35.8596 30 33.8455 30 31.5814C30 27.4216 33.3401 24.0814 37.5 24.0814ZM19.7168 30.0404C21.4952 30.0456 23.2693 30.2198 24.9844 30.5209C23.9294 33.1179 22.5405 35.0051 21.2812 35.8471C20.1529 35.9703 19.0279 35.9853 17.9062 35.8764C16.5939 35.2002 15.1148 33.2416 14.0156 30.5267C15.8446 30.2031 17.7749 30.0347 19.7168 30.0404ZM11.0449 31.2182C11.488 32.3884 12.0159 33.4477 12.5918 34.4349C11.246 33.8129 9.98437 33.0056 8.82421 32.015C9.52518 31.7194 10.2646 31.4496 11.0449 31.2182ZM27.1582 33.0228C27.206 33.3486 27.2381 33.6747 27.3164 33.9896C27.021 34.149 26.7153 34.2717 26.4141 34.4115C26.6728 33.9648 26.9254 33.5122 27.1582 33.0228Z" fill="black"/>
</g>
<defs>
<clipPath id="clip0">
<rect width="48" height="48" fill="white"/>
</clipPath>
</defs>
</svg>
