<svg width="48" height="48" viewBox="0 0 48 48" fill="none" xmlns="http://www.w3.org/2000/svg">
<path d="M18 0V1.5V6H9V7.5V27H15V31.2715L10.5645 45.6855L10.125 47.1211L12.9902 48L13.4355 46.5703L17.6133 33H30.3867L34.5645 46.5703L35.0098 48L37.875 47.1211L37.4355 45.6855L33 31.2715V27H39V6H30V0H18ZM21 3H27V6H21V3ZM12 9H36V18.8789L31.5 14.3789L27 18.8789L21 12.8789L12 21.8789V9ZM27 10.5C25.3609 10.5 24 11.8611 24 13.5C24 15.1392 25.3609 16.5 27 16.5C28.6391 16.5 30 15.1392 30 13.5C30 11.8611 28.6391 10.5 27 10.5ZM21 17.1211L27 23.1211V23.127L27.8789 24H14.1211L21 17.1211ZM31.5 18.6211L34.9395 22.0605L36 23.127V24H32.1211L31.0605 22.9395L29.1211 21L31.5 18.6211ZM18 27H30V30H18V27Z" fill="black"/>
</svg>
