<svg xmlns="http://www.w3.org/2000/svg" xmlns:xlink="http://www.w3.org/1999/xlink" width="793.052" height="582.948" viewBox="0 0 793.052 582.948"><defs><linearGradient id="a" x1="0.501" y1="1" x2="0.501" gradientUnits="objectBoundingBox"><stop offset="0" stop-color="gray" stop-opacity="0.251"/><stop offset="0.54" stop-color="gray" stop-opacity="0.122"/><stop offset="1" stop-color="gray" stop-opacity="0.102"/></linearGradient></defs><path d="M531.281,127.593c-46.811-1.627-91.394-16.737-133.967-33.271s-84.74-34.855-130.459-43.614c-29.358-5.634-62.969-6.43-86.649,9.316-22.783,15.189-30.147,41.336-34.1,65.616-2.98,18.277-4.73,37.5,3.428,54.608,5.671,11.876,15.724,21.858,22.682,33.271,24.208,39.578,7.1,88.385-19.131,127.03-12.3,18.126-26.581,35.441-36.077,54.724s-13.887,41.408-5.577,61.089c8.231,19.529,27.854,34.168,49.111,44.482,43.173,20.932,94.027,26.928,143.652,30.32,109.816,7.515,220.211,4.26,330.317,1.005,40.75-1.208,81.673-2.43,121.758-8.73,22.263-3.5,45.241-9.056,61.4-22.422,20.52-17.019,25.6-45.842,11.855-67.179-23.058-35.8-86.794-44.692-102.931-83.105-8.867-21.142.239-44.7,13.135-64.307,27.658-42.073,74.014-78.975,76.451-127.067,1.678-33.025-20.606-66.1-55.064-81.731C725,61.246,674.911,63.308,648.28,90.424,620.831,118.285,572.617,129.025,531.281,127.593Z" transform="translate(-67.063 -47.017)" fill="#17332d"/><g transform="translate(299.23 81.111)" opacity="0.9"><rect width="6.408" height="52.814" rx="2.29" transform="translate(213.094 98.83)" fill="#3a3768"/><rect width="3.595" height="17.388" rx="1.797" transform="translate(0.13 57.458)" fill="#3a3768"/><rect width="4.05" height="30.262" rx="2.025" transform="translate(0 89.289)" fill="#3a3768"/><rect width="3.855" height="30.523" rx="1.928" transform="translate(0.065 130.141)" fill="#3a3768"/><rect width="214.382" height="435.699" rx="38.99" transform="translate(2.17)" fill="#fff" stroke="#707070" stroke-width="1"/><rect width="29.937" height="6.076" rx="3.038" transform="translate(88.675 13.005)" fill="#e6e8ec"/><circle cx="3.45" cy="3.45" r="3.45" transform="translate(123.139 12.6)" fill="#e6e8ec"/></g><ellipse cx="144.635" cy="14.741" rx="144.635" ry="14.741" transform="translate(27.535 512.094)" opacity="0.1"/><ellipse cx="67.757" cy="6.907" rx="67.757" ry="6.907" transform="translate(426.015 569.133)" opacity="0.1"/><path d="M67.757,0c37.421,0,67.757,3.093,67.757,6.907s-30.336,6.907-67.757,6.907S0,10.722,0,6.907,30.336,0,67.757,0Z" transform="translate(657.538 534.328)" opacity="0.1"/><path d="M657.637,174.84H633.118V177.8A14.017,14.017,0,0,1,619.1,191.815H540.855A14.017,14.017,0,0,1,526.838,177.8V174.84H503.809a17.019,17.019,0,0,0-17.019,17.026V570.817a17.019,17.019,0,0,0,17.019,17.026H657.637a17.026,17.026,0,0,0,17.026-17.026V191.866A17.026,17.026,0,0,0,657.637,174.84Z" transform="translate(-172.147 -82.388)" fill="#2ce3a4"/><path d="M846.713,132.7s-60.9-3.674-53.718,39c0,0-1.447,7.544,5.41,10.965,0,0,.108-3.161,6.242-2.09a27.8,27.8,0,0,0,6.618.318,13.743,13.743,0,0,0,8.094-3.334h0s17.113-7.074,23.774-35.05c0,0,4.926-6.1,4.73-7.674l-10.278,4.39s3.508,7.414.723,13.576c0,0-.333-13.308-2.307-13.019-.405.058-5.345,2.568-5.345,2.568s6.047,12.911,1.447,22.3c0,0,1.729-15.912-3.371-21.366l-7.233,4.224s7.059,13.337,2.278,24.223c0,0,1.222-16.693-3.8-23.2l-6.553,5.114s6.633,13.142,2.589,22.169c0,0-.535-19.427-4.014-20.9,0,0-5.736,5.063-6.611,7.132,0,0,4.542,9.547,1.729,14.581,0,0-1.729-12.947-3.146-13.019,0,0-5.714,8.578-6.307,14.466,0,0,.246-8.745,4.918-15.276,0,0-5.519.948-8.745,4.528,0,0,.89-6.061,10.126-6.6,0,0,4.723-6.51,5.989-6.9,0,0-9.222-.774-14.813,1.707,0,0,4.918-5.721,16.505-3.117l6.466-5.287s-12.137-1.656-17.286.174c0,0,5.931-5.063,19.037-1.374l7.045-4.21s-10.35-2.235-16.52-1.447c0,0,6.51-3.508,18.581.3l5.063-2.264s-7.587-1.49-9.808-1.729-2.336-.846-2.336-.846a26.291,26.291,0,0,1,14.343,1.635S846.894,133.372,846.713,132.7Z" transform="translate(-256.715 -70.705)" fill="#63ff91"/><path d="M771.744,106.476S744.259,104.82,747.47,124.1a4.7,4.7,0,0,0,2.445,4.954s.051-1.447,2.821-.947a12.665,12.665,0,0,0,2.987.145,6.235,6.235,0,0,0,3.66-1.5h0s7.732-3.2,10.741-15.84c0,0,2.228-2.756,2.17-3.465l-4.643,1.982s1.584,3.349.333,6.133c0,0-.145-6.01-1.042-5.873-.181,0-2.409,1.164-2.409,1.164s2.727,5.83.665,10.075c0,0,.781-7.189-1.519-9.656l-3.269,1.909s3.19,6.025,1.027,10.943c0,0,.557-7.544-1.714-10.48l-2.965,2.315s3,5.938,1.172,10.017c0,0-.239-8.781-1.808-9.446,0,0-2.6,2.286-2.987,3.226,0,0,2.047,4.34.774,6.589,0,0-.781-5.851-1.447-5.88,0,0-2.582,3.877-2.85,6.51a14.075,14.075,0,0,1,2.221-6.9,7.746,7.746,0,0,0-3.949,2.047s.4-2.741,4.586-2.98c0,0,2.134-2.944,2.705-3.125,0,0-4.166-.347-6.69.774,0,0,2.221-2.582,7.457-1.447l2.893-2.387s-5.482-.723-7.811.08c0,0,2.683-2.286,8.6-.622l3.182-1.9s-4.672-1.005-7.457-.644c0,0,2.937-1.584,8.39.13l2.278-1.02s-3.421-.673-4.427-.781-1.056-.383-1.056-.383a11.833,11.833,0,0,1,6.43.723S771.823,106.78,771.744,106.476Z" transform="translate(-244.209 -63.461)" fill="#63ff91"/><ellipse cx="29.083" cy="4.918" rx="29.083" ry="4.918" transform="translate(0 485.883)" fill="#63ff91"/><path d="M98.3,709.332a8.412,8.412,0,0,0,2.777-4.181,3.748,3.748,0,0,0-1.938-4.26c-1.779-.687-3.682.55-5.121,1.794s-3.1,2.669-4.983,2.4a7.573,7.573,0,0,0,2.322-7.1,2.893,2.893,0,0,0-.651-1.447c-.984-1.056-2.777-.6-3.964.231-3.761,2.647-4.81,7.754-4.824,12.354a22.791,22.791,0,0,1-.072-5.063c-.007-1.671-.477-3.616-1.909-4.5a5.787,5.787,0,0,0-2.893-.687c-1.692-.058-3.573.108-4.73,1.345-1.447,1.533-1.063,4.116.188,5.786s3.146,2.749,4.889,3.92a10.791,10.791,0,0,1,3.5,3.334,3.186,3.186,0,0,1,.26.593h10.6a29.488,29.488,0,0,0,6.553-4.528Z" transform="translate(-57.198 -226.582)" fill="#63ff91"/><path d="M875.753,630.54s6.256,8.188-2.893,20.541-16.686,22.783-13.634,30.486c0,0,13.8-22.943,25.033-23.268S888.107,644.34,875.753,630.54Z" transform="translate(-275.015 -208.487)" fill="#63ff91"/><path d="M875.89,630.54a10.309,10.309,0,0,1,1.28,2.568c10.958,12.874,16.795,24.9,6.256,25.192-9.808.282-21.583,17.829-24.4,22.256a8.266,8.266,0,0,0,.333,1.013s13.8-22.943,25.033-23.268S888.244,644.34,875.89,630.54Z" transform="translate(-275.151 -208.487)" opacity="0.1"/><path d="M897.867,644.294c0,2.893-.325,5.215-.723,5.215s-.723-2.336-.723-5.215.405-1.519.8-1.519S897.867,641.4,897.867,644.294Z" transform="translate(-285.498 -211.783)" fill="#ffd037"/><path d="M902.05,648.963c-2.531,1.374-4.73,2.213-4.926,1.859s1.707-1.75,4.238-3.132,1.526-.369,1.721,0S904.582,647.582,902.05,648.963Z" transform="translate(-285.689 -213.038)" fill="#ffd037"/><path d="M831.269,630.54s-6.256,8.188,2.893,20.541,16.686,22.783,13.641,30.486c0,0-13.8-22.943-25.033-23.268S818.915,644.34,831.269,630.54Z" transform="translate(-263.585 -208.487)" fill="#63ff91"/><path d="M831.267,630.54a10.013,10.013,0,0,0-1.28,2.568c-10.958,12.874-16.795,24.9-6.263,25.192,9.815.282,21.583,17.829,24.4,22.256a9.763,9.763,0,0,1-.333,1.013s-13.8-22.943-25.033-23.268S818.913,644.34,831.267,630.54Z" transform="translate(-263.583 -208.487)" opacity="0.1"/><path d="M820.55,644.294c0,2.893.326,5.215.723,5.215s.723-2.336.723-5.215-.405-1.519-.8-1.519S820.55,641.4,820.55,644.294Z" transform="translate(-264.503 -211.783)" fill="#ffd037"/><path d="M814.415,648.963c2.524,1.374,4.73,2.213,4.918,1.859s-1.7-1.75-4.231-3.132-1.533-.369-1.721,0S811.913,647.582,814.415,648.963Z" transform="translate(-262.383 -213.038)" fill="#ffd037"/><path d="M823.31,695.992s17.5-.543,22.769-4.3,26.913-8.238,28.208-2.213,26.291,29.951,6.51,30.11-45.9-3.081-51.158-6.285S823.31,695.992,823.31,695.992Z" transform="translate(-265.267 -223.982)" fill="#a8a8a8"/><path d="M881.195,721.105c-19.753.159-45.9-3.081-51.158-6.285-4.014-2.437-5.605-11.2-6.141-15.24h-.586s1.107,14.111,6.372,17.315,31.4,6.444,51.158,6.285c5.7-.051,7.674-2.076,7.566-5.063C887.61,719.933,885.44,721.069,881.195,721.105Z" transform="translate(-265.267 -227.592)" opacity="0.2"/><rect width="56.438" height="56.438" transform="translate(422.781 352.871)" fill="#3a3768" opacity="0.3"/><rect width="56.438" height="56.438" transform="translate(339.604 278.372)" fill="#3a3768" opacity="0.3"/><rect width="56.438" height="56.438" transform="translate(345.028 426.096)" fill="#3a3768" opacity="0.3"/><rect width="56.438" height="56.438" transform="translate(332.436 139.798)" fill="#fff"/><path d="M564.784,265.79l-2,2a7.067,7.067,0,0,1,0,10l2,2.011a9.909,9.909,0,0,0,0-14.01Z" transform="translate(-193.174 -107.555)" fill="#63ff91"/><path d="M557.927,259.829l-1.974,1.975a12.571,12.571,0,0,1,0,17.764l1.974,1.975a15.348,15.348,0,0,0,0-21.7Zm-9.4,7.392V258.18h-2.785l-8.332,6.944H526.3l-2.777,1.389v9.728l2.777,1.389,6.972,11.117h4.166l-2.6-11.117h2.6l8.332,5.562h2.785V274.15a3.551,3.551,0,0,0,0-6.929Z" transform="translate(-182.311 -105.449)" fill="#63ff91"/><rect width="56.438" height="56.438" transform="matrix(0.742, -0.671, 0.671, 0.742, 426.058, 370.392)" fill="#fff"/><path d="M673.34,548.207l4.094-3.718L699.856,569.2l-4.123,3.732Zm9.67,23.145,4.123-3.725,6.51,7.233-4.123,3.725Zm8.636-15.3,4.123-3.732,10.249,11.334-4.115,3.725Zm.586-11.775,4.123-3.732L712.2,558.051l-4.123,3.732Z" transform="translate(-223.768 -183.583)" fill="#63ff91"/><rect width="56.438" height="56.438" transform="translate(421.848 207.809)" fill="#fff"/><path d="M677.3,363.723,669.725,375.3a4.121,4.121,0,0,1,.94,2.633,4.173,4.173,0,0,1-8.339,0,4.609,4.609,0,0,1,.072-.774l-5.005-2.893a4.188,4.188,0,0,1-4.94.622l-5.323,4.983v4.969a3.718,3.718,0,0,0,3.711,3.71h31.492a3.725,3.725,0,0,0,3.71-3.71V366.378L680.98,363a4.123,4.123,0,0,1-2.553.882,4.246,4.246,0,0,1-1.1-.152Z" transform="translate(-216.515 -134.455)" fill="#63ff91"/><path d="M654.508,363.037a4.166,4.166,0,0,1,4.173,4.166,2.7,2.7,0,0,1-.036.542l5.222,2.893a4.1,4.1,0,0,1,2.64-.94,4,4,0,0,1,.9.1L675,358.039a4.166,4.166,0,1,1,7.566-2.416,4.34,4.34,0,0,1-.116.984L686.064,359v-6.958a3.718,3.718,0,0,0-3.71-3.7H650.84a3.711,3.711,0,0,0-3.71,3.7v19.919l3.472-3.327a4.21,4.21,0,0,1-.26-1.447,4.166,4.166,0,0,1,4.166-4.152Z" transform="translate(-216.515 -130.398)" fill="#63ff91"/><rect width="56.438" height="56.438" transform="translate(350.504 270.734)" fill="#fff"/><path d="M585.5,435.457l-34.718,18.805a.723.723,0,0,0,.051,1.295l5.924,2.235a1.447,1.447,0,0,1,.781.723l4.6,9.475c.087.419.861.535.868.108l-.723-7.833a2.784,2.784,0,0,1,.636-1.584l18-17.634a.448.448,0,0,1,.4-.116.412.412,0,0,1,.224.658l-15.514,18.964a3.465,3.465,0,0,0-.608,1.562l-.926,6.763c.072.593.535.817.911.289l3.342-3.927a.723.723,0,0,1,.984-.159l8.614,6.278a.723.723,0,0,0,1.092-.427l7.067-34.718a.723.723,0,0,0-1.013-.781Z" transform="translate(-189.751 -154.481)" fill="#63ff91"/><path d="M1023.059,776.649c3.284.427,6.691.723,9.837-.333.484-.152,1.042-.485.976-.984a1.157,1.157,0,0,0-.224-.477,30.681,30.681,0,0,1-2.987-5.663.463.463,0,0,0-.181-.253.442.442,0,0,0-.318,0c-1.447.376-2.7,1.316-4.151,1.714a5.932,5.932,0,0,1-2.257.174c-.651-.072-1.548-.615-2.134-.55C1021.982,772.425,1022.806,774.457,1023.059,776.649Z" transform="translate(-320.143 -246.776)" fill="#63ff91"/><path d="M1108.162,767.7c2.17-1.447,4.412-3.052,5.692-5.345a.878.878,0,0,0,.152-.456.942.942,0,0,0-.181-.448,18.531,18.531,0,0,0-4.622-4.991,13.663,13.663,0,0,0-2.582,2.379c-.542.571-2.047,1.512-2.061,2.365,0,.514.572,1.07.839,1.447.362.535.723,1.085,1.034,1.635A27.192,27.192,0,0,1,1108.162,767.7Z" transform="translate(-343.093 -243.331)" fill="#63ff91"/><path d="M1028.583,784.619a2.169,2.169,0,0,1-.391,1.447,1.928,1.928,0,0,1-.832.484c-4.6,1.642-9.895-.412-14.466,1.215-.948.333-1.837.81-2.785,1.128a15.079,15.079,0,0,1-3.45.615c-1.627.159-3.255.253-4.882.3a11.812,11.812,0,0,1-3.674-.318,4.448,4.448,0,0,1-2.821-2.235,2.169,2.169,0,0,1-.137-1.591,1.8,1.8,0,0,1,.3-.514,4.4,4.4,0,0,1,1.085-.875l1.693-1.092a11.3,11.3,0,0,1,2.56-1.36c.665-.217,1.381-.311,2.054-.506,2.38-.723,4.188-2.582,5.873-4.39l2.3-2.452a2.249,2.249,0,0,1,.8-.636,2.17,2.17,0,0,1,.984-.1,13.284,13.284,0,0,1,6.271,2.112,9.056,9.056,0,0,0,1.548.911,5.526,5.526,0,0,0,4.34-.542c.593-.311.463-.506.723-1.063s.854-.919,1.374-.405a1.509,1.509,0,0,1,.325.622,17.256,17.256,0,0,1,.311,5.114,2.268,2.268,0,0,0,.1.8,4.831,4.831,0,0,0,.448.723,1.147,1.147,0,0,1,.094.188,5.02,5.02,0,0,1,.261,2.43Z" transform="translate(-312.791 -248.106)" fill="#514e7f"/><path d="M1028.583,787.863a2.169,2.169,0,0,1-.391,1.447,1.93,1.93,0,0,1-.832.485c-4.6,1.642-9.895-.412-14.466,1.215-.948.333-1.837.81-2.785,1.128a15.076,15.076,0,0,1-3.45.615c-1.627.159-3.255.253-4.882.3a11.816,11.816,0,0,1-3.674-.318,4.448,4.448,0,0,1-2.821-2.235,2.17,2.17,0,0,1-.137-1.591,1.8,1.8,0,0,1,.3-.514c.275.564.47,1.3.636,1.57a3.211,3.211,0,0,0,2.17,1.555,5.505,5.505,0,0,0,1.96-.253c4.166-1.034,8.593-1.049,12.585-2.611a30.055,30.055,0,0,1,4.122-1.584,32.744,32.744,0,0,1,4.456-.362c2.351-.188,4.622-.9,6.943-1.266a5.019,5.019,0,0,1,.268,2.423Z" transform="translate(-312.791 -251.35)" fill="#464353"/><path d="M1114.115,768.55a8.347,8.347,0,0,1-2.539,4.52,28.978,28.978,0,0,0-3.544,3.884c-1.2,1.823-1.729,4.072-3.277,5.613a8.876,8.876,0,0,1-1.967,1.447,13.6,13.6,0,0,1-2.553,1.172,19.545,19.545,0,0,1-7.233.4,6.432,6.432,0,0,1-2.286-.449,6.633,6.633,0,0,1-.969-.586,4.6,4.6,0,0,1-1.447-1.5,1.5,1.5,0,0,1-.137-1.078,2.46,2.46,0,0,1,.723-1.056,16.343,16.343,0,0,1,1.743-1.57,10.349,10.349,0,0,0,2.271-2,6.511,6.511,0,0,0,.875-2,17.89,17.89,0,0,0,.636-3.8,11.959,11.959,0,0,1,.268-2.539c.369-1.3,1.338-2.481,1.222-3.833a.984.984,0,0,1,.05-.579.9.9,0,0,1,.456-.282,8.247,8.247,0,0,1,2.372-.542,2.735,2.735,0,0,1,2.17.861c.34.405.557.969,1.056,1.15a1.748,1.748,0,0,0,.723,0,6.153,6.153,0,0,0,3.443-1.063,4.34,4.34,0,0,0,1.447-3.161c0-.448-.2-.919.484-1.013.528-.072.94.477,1.208.839a11.806,11.806,0,0,1,2.322,4.231,1.172,1.172,0,0,1,.441-.087,1.888,1.888,0,0,1,1.577.81,3.125,3.125,0,0,1,.463,2.2Z" transform="translate(-338.544 -244.463)" fill="#514e7f"/><path d="M1114.184,770.475a8.348,8.348,0,0,1-2.539,4.521,28.972,28.972,0,0,0-3.544,3.884c-1.2,1.823-1.729,4.072-3.277,5.613a8.869,8.869,0,0,1-1.967,1.447,13.593,13.593,0,0,1-2.553,1.172,19.543,19.543,0,0,1-7.233.4,6.431,6.431,0,0,1-2.286-.448,6.644,6.644,0,0,1-.969-.586,4.6,4.6,0,0,1-1.447-1.5,3.522,3.522,0,0,1,1.49-.354c1.078.058,1.859,1.07,2.893,1.381,1.447.441,2.893-.593,4.4-.947.969-.224,2-.159,2.944-.47a7.264,7.264,0,0,0,2.17-1.316,11.015,11.015,0,0,0,2.322-2.242,14.3,14.3,0,0,0,1.367-2.72,38.837,38.837,0,0,1,2.756-5.273,3.494,3.494,0,0,1,.564-.723c.224-.21.506-.362.723-.55a5.753,5.753,0,0,0,1.75-3.19,5.341,5.341,0,0,1,.391-1.063,1.888,1.888,0,0,1,1.577.81A3.125,3.125,0,0,1,1114.184,770.475Z" transform="translate(-338.613 -246.389)" fill="#464353"/><path d="M979.657,553.3a10.5,10.5,0,0,1,2.951,3.45c.723,1.36,4.694,11.92,4.463,13.431,1.3-1.316,6.466-1.533,7.761-2.843.55-.55,3.522-3.3,3.964-3.935s3.754-2,4.115-2.654c1.353-2.423-9.591-11.573-8.195-14a.593.593,0,0,0,.116-.376.58.58,0,0,0-.181-.289,17.409,17.409,0,0,0-3.168-2.17,5.063,5.063,0,0,1-2.416-2.893,10.39,10.39,0,0,0-2.8,1.9q-3,2.568-5.917,5.266c-.767.723-2.228,1.642-2.582,2.647S978.927,552.708,979.657,553.3Z" transform="translate(-307.994 -183.716)" fill="#a1616a"/><path d="M999.61,552.61a31.709,31.709,0,0,0-4.687,3.833,9.379,9.379,0,0,0-2.987,4.781c-.137.723-.116,1.49-.231,2.235-.485,3.24-3.3,5.62-4.535,8.679a14.844,14.844,0,0,0-.8,2.893,34.119,34.119,0,0,0-.564,5.685c0,1.852,1.779,3.125,2.445,4.853a29.438,29.438,0,0,1,1.179,5.258,64.065,64.065,0,0,0,2.958,9.764c2.445,6.748,10.365,25.409,12.809,32.164,7.486-1.88,27.42-6.2,34.045-10.126,2.213-1.316-15.334-16.187-12.969-17.214a1.192,1.192,0,0,0,.658-.5,1.144,1.144,0,0,0,0-.723c-2.358-10.336-9.757-18.805-13.106-28.931-1.165-3.493-3.255-6.473-4.846-9.8-1.447-3.009-2.206-6.329-3.92-9.186a6.143,6.143,0,0,0-1.251-1.57,7.678,7.678,0,0,0-1.389-.832C1001.476,553.369,1000.565,553.087,999.61,552.61Z" transform="translate(-310.233 -186.923)" fill="#514e7f"/><circle cx="11.717" cy="11.717" r="11.717" transform="translate(660.344 344.972)" fill="#a1616a"/><path d="M997.43,547.383a3.928,3.928,0,0,1,4.4-.629,2.17,2.17,0,0,1,1.309,2.112l5.786.087a12.11,12.11,0,0,1,2.756.253,4.007,4.007,0,0,1,2.3,1.447c.073.094.152.2.268.224a.463.463,0,0,0,.268-.094,5.1,5.1,0,0,1,2.893-.521A15.638,15.638,0,0,1,1025.92,554a2.756,2.756,0,0,1,1.013,1.237c.2.658,0,1.5.477,1.953,0,5.461,1.873,10.545,3.125,15.862a7.028,7.028,0,0,0,1.758,2.524,10.128,10.128,0,0,1,1.881,2.806c1.056,2.756-.405,5.989.629,8.759a14.1,14.1,0,0,0,2,3.146,8.108,8.108,0,0,1,1.7,4.065c.043.665-.043,1.331,0,2a12.22,12.22,0,0,0,.477,2.633c.419,1.6.868,3.2,1.331,4.788.723,2.575,1.736,5.36,4.043,6.734-5.577.948-11.45,1.866-16.766-.065a8.677,8.677,0,0,1-2.09-1.049c-1.917-1.367-2.843-3.71-3.667-5.917a27.8,27.8,0,0,1-2.054-7.638,8.737,8.737,0,0,0-.347-2.5c-.542-1.447-1.974-2.307-3.291-3.1a15.832,15.832,0,0,1-3.956-3.081,6.147,6.147,0,0,1-1.606-4.629c.1-.817.42-1.606.456-2.43a1.946,1.946,0,0,0-1.128-2c-4.057-1.23-6-6.032-6.9-10.177a32.471,32.471,0,0,1-.521-6.51l-.051-4.188a5.555,5.555,0,0,1-1.823-4.007,4.488,4.488,0,0,0,0-1.324,3.708,3.708,0,0,0-.926-1.447A12.222,12.222,0,0,1,997.43,547.383Z" transform="translate(-313.449 -185.189)" fill="#95aadb"/><path d="M979.858,564.967a30.987,30.987,0,0,1-.13,3.935c-.116.492-.311.962-.456,1.447a8.535,8.535,0,0,0,.543,5.511,30.634,30.634,0,0,0,2.813,4.882,7.44,7.44,0,0,1,.9,1.685,8.738,8.738,0,0,1,.347,1.931,58.813,58.813,0,0,0,1.381,7.768A15.261,15.261,0,0,0,988,598.369a1.9,1.9,0,0,0,1.128.767,2.04,2.04,0,0,0,.962-.2l2.994-1.136a2.093,2.093,0,0,0,.723-.376,1.816,1.816,0,0,0,.419-1.172,17.22,17.22,0,0,0-1.316-7.1c-2.43-6.9-5.656-13.547-7.233-20.686-.441-2-.673-5.063-2.126-6.618-.6-.651-.4-.376-1.114,0a9.061,9.061,0,0,0-1.049.557A3.435,3.435,0,0,0,979.858,564.967Z" transform="translate(-308.361 -189.371)" fill="#464353"/><path d="M1059.24,625.68" transform="translate(-330.553 -207.142)" fill="#464353"/><path d="M992.373,576.643q1.194,6.314,2.438,12.636l11.63-3.052a8.146,8.146,0,0,0-1.005-3.479c-1.063-2.662-1.085-5.62-1.946-8.354-.651-2.083-1.779-4-2.387-6.1-.354-1.215-.528-2.488-.875-3.71a28.332,28.332,0,0,0-1.367-3.537,22.537,22.537,0,0,0-2.539-4.709c-1.49.557-3.074,1.2-3.92,2.539a5.4,5.4,0,0,0-.723,2.5c-.2,2.618.723,5.244.427,7.833A23.147,23.147,0,0,0,992.373,576.643Z" transform="translate(-311.849 -187.955)" fill="#63ff91"/><path d="M1009.9,652.412c.651,2.488-.3,5.063-1.063,7.537a58.514,58.514,0,0,0-2.372,11.348,9.4,9.4,0,0,1-.586,2.893,27.051,27.051,0,0,1-1.41,2.315c-1.172,2.069-1.143,4.6-.89,6.965.166,1.562.419,3.117.723,4.658.383,1.873.854,3.841.3,5.671.919-.2,1.548.984,1.512,1.931s-.369,1.96.08,2.792c1.143.412,1.157,1.982,1.121,3.19a26.9,26.9,0,0,0,.788,6.249q2.589,12.433,5.5,24.8c4.188,1.3,9.077,2.654,13.07.853a2.568,2.568,0,0,0,1.656-1.664,3,3,0,0,0-.159-1.28l-1.9-6.886a12.679,12.679,0,0,1-.68-5.063c.188-1.28.723-2.654.116-3.776a10.89,10.89,0,0,0-.8-1.056c-1-1.447-.477-3.392-.391-5.157a4.041,4.041,0,0,0-.087-1.179,6.191,6.191,0,0,0-.557-1.295,19.767,19.767,0,0,1-2.17-9.837,2.417,2.417,0,0,0-.174-1.287,2.955,2.955,0,0,1-.318-.521,1.4,1.4,0,0,1,.1-.948,8.234,8.234,0,0,1-1.526-1.446,2.17,2.17,0,0,0,.362-3.342,1.114,1.114,0,0,0,.535-1.917c-.246-.173-.564-.246-.723-.492-.268-.362-.051-.875.166-1.266l1.157-2.09c.861-1.548,1.056-3.465,1.982-4.976a37.338,37.338,0,0,0,3.052-6.965l3.3-9.186,2.242,1.946a7.026,7.026,0,0,1,1.844,2.1,8.886,8.886,0,0,1,.593,2.517c.824,4.991,3.971,9.316,5.135,14.241a9.6,9.6,0,0,0,1.056,3.182,6.9,6.9,0,0,1,.607.911,4.8,4.8,0,0,1,.253,1.512,7.045,7.045,0,0,0,2.973,5.063c1.1.723,2.5,1.28,3.074,2.481a4.891,4.891,0,0,0,.506,1.056c.535.644,1.692.723,1.924,1.526.123.456-.116.991.145,1.389a1.266,1.266,0,0,0,.542.405l3.233,1.62c3.616,1.8,5.439,5.931,8.108,8.962a18.623,18.623,0,0,1,2.423,3.211c1.15,2.054,1.685,4.636,3.616,5.96a5.621,5.621,0,0,1,1.4,1.042c.615.8.391,1.931.441,2.944s.832,2.213,1.794,1.909a6.98,6.98,0,0,0,0,3.739,18.848,18.848,0,0,0,11.428-4.629,4.51,4.51,0,0,0,1.859-3.117,1.206,1.206,0,0,0-.137-.622,1.69,1.69,0,0,0-.723-.55c-3.016-1.635-3.927-5.425-5.439-8.506-1.338-2.712-3.305-5.063-4.976-7.58-3.616-5.425-6.032-11.985-11.464-15.572-1.193-.788-2.582-1.49-3.175-2.792a22.3,22.3,0,0,1-.636-2.315,1.946,1.946,0,0,0-1.7-1.446,10.32,10.32,0,0,0,.391-3.616,4.5,4.5,0,0,0-.181-1.555,7.34,7.34,0,0,0-.8-1.533,14.864,14.864,0,0,1-2.047-7.956,12.814,12.814,0,0,0-.137-4.275c-.217-.723-.593-1.324-.861-2a12.447,12.447,0,0,1-.622-3.725l-.3-4.766a22.809,22.809,0,0,0-.615-4.709c-1.005-3.7-1.968-19.182-5.374-20.925s-9.222,10.169-13.019,10.408a17.36,17.36,0,0,0-4.976.955,24.116,24.116,0,0,0-6.748,4.477l-7.03,5.9a25.63,25.63,0,0,1-4.361,3.146Z" transform="translate(-315.11 -207.604)" fill="#6a4cea"/><path d="M964.581,520.907a8.839,8.839,0,0,1,6.82-3.327,15.912,15.912,0,0,1,7.537,1.895,9.71,9.71,0,0,0,2.17.9c1.244.253,2.618-.087,3.739.506,1.49.788,1.772,2.8,1.642,4.477s-.441,3.515.448,4.954a13.723,13.723,0,0,1,.861,1.287,4.3,4.3,0,0,1-.079,2.756,22.129,22.129,0,0,1-1.447-1.815,1.683,1.683,0,0,0-2.047-.535c-.636.427-.636,1.215-.665,1.917s-.217,1.548-.882,1.779a1.447,1.447,0,0,1-1.447-.579c-1.135-1.389-.68-3.616-1.8-5.005-.644-.8-1.707-1.179-2.3-2.011-.463-.651-.579-1.5-.984-2.17s-1.353-1.222-1.989-.723a2.7,2.7,0,0,0-.528.723,3.045,3.045,0,0,1-3.616,1.085,6.343,6.343,0,0,0-1.57-.673,1.931,1.931,0,0,0-1.786.969,3.849,3.849,0,0,0-.47,2.069c0,.976.174,2.047-.391,2.842a2.936,2.936,0,0,1-.839.723,2.483,2.483,0,0,1-2.749.282,2.069,2.069,0,0,1-.615-1.924,15.8,15.8,0,0,1,.586-2.032c.434-1.533-.13-3.262.347-4.709A14.821,14.821,0,0,1,964.581,520.907Z" transform="translate(-303.521 -177.229)" fill="#464353"/><path d="M974.406,562.443a1.809,1.809,0,0,0,.109,1.078,1.75,1.75,0,0,0,.586.564,12.137,12.137,0,0,0,5.526,1.787,1.663,1.663,0,0,1,.723.2,1.367,1.367,0,0,1,.325,1.541,4.1,4.1,0,0,0-.347,1.635c.145,1.034,1.367,1.5,2.409,1.635a5.584,5.584,0,0,0,4.188-.81,6.46,6.46,0,0,0,1.729-2.6c2.843-6.51,3.841-13.742,6.719-20.252a4.113,4.113,0,0,0,.434-1.353,1.345,1.345,0,0,0-.535-1.251c-.535-.333-1.367-.145-1.729-.658-.181-.268-.159-.622-.318-.9-.333-.593-1.2-.521-1.8-.839-.463-.253-.788-.723-1.3-.861a1.663,1.663,0,0,0-1.36.586c-1.685,1.577-2.575,3.812-3.515,5.924a70.355,70.355,0,0,1-5.063,9.338c.224-.347-1.07-2.987-1.577-3.088-.882-.181-2.025,1.374-2.5,1.96a12.411,12.411,0,0,0-2.7,6.365Z" transform="translate(-307.067 -183.809)" fill="#63ff91"/><rect width="56.438" height="56.438" transform="translate(673.255 387.892)" fill="#fff"/><path d="M1015.142,606.676V599.27h-18.5v33.343h36.128V606.676Zm-11.1,22.227h-3.7v-3.7h3.7Zm0-7.406h-3.7v-3.7h3.7Zm0-7.406h-3.7V610.38h3.7Zm0-7.414h-3.7v-3.71h3.7Zm7.4,22.227h-3.689v-3.7h3.7Zm0-7.406h-3.689v-3.7h3.7Zm0-7.406h-3.689V610.38h3.7Zm0-7.414h-3.689v-3.71h3.7Zm17.634,22.227h-13.93v-3.7h3.7v-3.7h-3.7v-3.7h3.7v-3.711h-3.7v-3.7h13.93Zm-3.24-14.813h-3.7v3.71h3.7Zm0,7.406h-3.7v3.71h3.7Z" transform="translate(-313.23 -199.834)" fill="#63ff91"/><path d="M1058.505,625.2a22.782,22.782,0,0,0-2.676,2.806,5.591,5.591,0,0,0-1.229,3.616,1.86,1.86,0,0,0,.347,1.056.9.9,0,0,0,1.005.311,1.449,1.449,0,0,0,.492-.441,23.171,23.171,0,0,1,1.663-1.808c.217-.21.492-.434.781-.354a.825.825,0,0,1,.34.224,2.3,2.3,0,0,1,.723,1.092,2.589,2.589,0,0,1-.767,2.1,5.45,5.45,0,0,0-1.295,1.917.815.815,0,0,0,0,.615,1,1,0,0,0,.383.333,5.584,5.584,0,0,0,4.68.3c1.005-.4,1.873-1.092,2.893-1.447a6.956,6.956,0,0,0,1.28-.477,2.633,2.633,0,0,0,1.135-1.693,7.23,7.23,0,0,0,.079-2.09,23.869,23.869,0,0,0-1.743-7.884.942.942,0,0,0-.282-.42.991.991,0,0,0-.477-.137c-1.266-.13-3.349-.781-4.571-.311a3.123,3.123,0,0,0-1.078.962C1059.908,623.731,1058.505,624.866,1058.505,625.2Z" transform="translate(-329.268 -206.22)" fill="#a1616a"/><path d="M1052.6,607.018c0-1.215-1.5-4.13.875-4.34,0-1.287-1.83-2.1-1.5-3.457.116-.463.485-.832.542-1.295.152-1.324-2.235-2.04-1.844-3.313.145-.485.673-.781.788-1.273.268-1.143-1.779-1.656-1.815-2.828,0-.4.217-.774.2-1.164,0-.5-.434-.875-.673-1.3-.615-1.107-.318-2.821-1.447-3.385.723.058,1.005-1.049.687-1.729s-.94-1.266-.94-2.018a3.216,3.216,0,0,0,0-.832c-.21-.723-1.4-.774-1.591-1.5a7.671,7.671,0,0,1,0-.817c-.072-.564-.651-.911-1.194-1.078a4.75,4.75,0,0,1-1.591-.564c-.347-.268-.723-.723-1.121-.47-.137.08-.21.239-.318.362-.441.514-1.287.289-1.852-.094a7.659,7.659,0,0,1-2.835-5.106c-.362-1.967-.34-4-.774-5.953a13.652,13.652,0,0,0-.528-1.779,9.211,9.211,0,0,1-.839-1.779c-.087-1.136,2.271-.362,3.168-.246a14.068,14.068,0,0,1,2.575.485,27.234,27.234,0,0,1,2.626,1.15c3.616,1.584,7.9,1.779,10.777,4.434.948.875,1.743,2.018,2.965,2.409a15.1,15.1,0,0,1,1.664.434c1.367.644,1.577,2.452,2.322,3.761a8.035,8.035,0,0,1,.615,1.085,4.277,4.277,0,0,1,.2,1.389l.1,3.436a126.925,126.925,0,0,1-.275,17.243,14.229,14.229,0,0,0,.065,5.642c.145.492.354.962.477,1.447a9.845,9.845,0,0,1,.188,1.786l.079,2.22a.536.536,0,0,1-.709.658c-3.1-.275-6.228-2.025-9.157-.969" transform="translate(-323.8 -189.16)" fill="#95aadb"/><path d="M979.342,611.9a.952.952,0,0,0-.347.289,2.466,2.466,0,0,0,0,2.937.992.992,0,0,1,.174.289.853.853,0,0,1-.087.492,1.628,1.628,0,0,0,.224,1.823c.224.188.528.282.673.528.253.42-.1.955-.043,1.447.072.644.832.962,1.447,1.042a1.54,1.54,0,0,0,1.41-.376,1.172,1.172,0,0,0,0-1.28,3.428,3.428,0,0,0-.955-.955,1.447,1.447,0,0,0,1.367-1.324,2.054,2.054,0,0,0-.825-1.8c-.13-.109-.289-.217-.325-.391s.137-.412.3-.579c.723-.723,1.28-2.5-.08-2.893a3.35,3.35,0,0,0-1.447.065c-.347.109-.347.318-.615.463S979.646,611.751,979.342,611.9Z" transform="translate(-308.213 -203.108)" fill="#a1616a"/><path d="M997.207,543.14a2.387,2.387,0,0,0-1.837.926,5.287,5.287,0,0,0-.767,2.459,21.56,21.56,0,0,1-2.893,7.855" transform="translate(-311.866 -184.302)" opacity="0.1"/><path d="M1000.737,545.88a2.806,2.806,0,0,0-2.4,1.447,8.024,8.024,0,0,0-.608,2.452,13.326,13.326,0,0,1-2.409,5.143" transform="translate(-312.865 -185.06)" opacity="0.1"/><path d="M344.373,606.669c.42,4.571-3.031,9-2.025,13.467.217.955.629,1.859.781,2.821.412,2.654-1.172,5.171-2.683,7.392L327.47,649.4a12.346,12.346,0,0,1-1.859,2.293c-2.488,2.17-6.206,1.975-9.468,2.633a16.239,16.239,0,0,0-6.336,2.806.412.412,0,0,0-.087.571,5.461,5.461,0,0,0,4.716,2.213c.34.448,0,1.107-.47,1.447-.723.485-1.656.608-1.794,1.794a1.938,1.938,0,0,0,.239,1.186,3.667,3.667,0,0,0,2.271,1.577c4.492,1.374,9.352-1.034,12.708-4.34s5.786-7.428,9.084-10.777c1.83-1.844,3.906-3.436,5.786-5.229,3.761-3.573,6.676-7.956,9.5-12.3a13.647,13.647,0,0,0,2.054-4.181c.347-1.49.188-3.06.593-4.535.521-1.924,1.938-3.465,3.11-5.063a16.807,16.807,0,0,0,3.537-10.958c-.3-3.906-2.72-7.768-6.408-9.092a5.736,5.736,0,0,0-3.616-.224,8.73,8.73,0,0,0-3.66,2.893l-2.459,2.85a6.568,6.568,0,0,0-1.447,2.17,2.278,2.278,0,0,0,.506,2.423" transform="translate(-123.127 -199.769)" fill="#fbbebe"/><path d="M344.373,606.669c.42,4.571-3.031,9-2.025,13.467.217.955.629,1.859.781,2.821.412,2.654-1.172,5.171-2.683,7.392L327.47,649.4a12.346,12.346,0,0,1-1.859,2.293c-2.488,2.17-6.206,1.975-9.468,2.633a16.239,16.239,0,0,0-6.336,2.806.412.412,0,0,0-.087.571,5.461,5.461,0,0,0,4.716,2.213c.34.448,0,1.107-.47,1.447-.723.485-1.656.608-1.794,1.794a1.938,1.938,0,0,0,.239,1.186,3.667,3.667,0,0,0,2.271,1.577c4.492,1.374,9.352-1.034,12.708-4.34s5.786-7.428,9.084-10.777c1.83-1.844,3.906-3.436,5.786-5.229,3.761-3.573,6.676-7.956,9.5-12.3a13.647,13.647,0,0,0,2.054-4.181c.347-1.49.188-3.06.593-4.535.521-1.924,1.938-3.465,3.11-5.063a16.807,16.807,0,0,0,3.537-10.958c-.3-3.906-2.72-7.768-6.408-9.092a5.736,5.736,0,0,0-3.616-.224,8.73,8.73,0,0,0-3.66,2.893l-2.459,2.85a6.568,6.568,0,0,0-1.447,2.17,2.278,2.278,0,0,0,.506,2.423" transform="translate(-123.127 -199.769)" opacity="0.05"/><path d="M218.389,625.264c.723,2.286,1.447,4.571,2.322,6.8a57.522,57.522,0,0,0,6.011,10.965,78.946,78.946,0,0,0,4.969,6.51c2.213,2.611,4.687,5.237,5.468,8.571a43.4,43.4,0,0,1,.492,5.909c.188,1.967.832,4.058,2.423,5.237a9,9,0,0,0,3.993,1.316c1,.159,2.249.21,2.77-.658a2.467,2.467,0,0,0,.275-1.143l.246-2.893c.051-.622.268-1.447.89-1.447s.94.8,1.447,1.172a1.57,1.57,0,0,0,2.17-.723,3.616,3.616,0,0,0,.058-2.531,12.022,12.022,0,0,0-6.17-7.645,18.541,18.541,0,0,1-3.009-1.569,10.234,10.234,0,0,1-2.365-2.98c-5.468-9-10.965-18.082-14.827-27.854a20.606,20.606,0,0,1-1.526-5.49,35.439,35.439,0,0,1,.239-5.786,33.12,33.12,0,0,0-.955-10.329,8.121,8.121,0,0,0-.991-2.51c-1.584-2.416-5.323-2.77-7.681-1.107a7.913,7.913,0,0,0-3.052,5.584c-.174,1.946.955,3.978,1.526,5.786Q215.764,616.852,218.389,625.264Z" transform="translate(-95.988 -198.944)" fill="#a1616a"/><path d="M218.389,625.264c.723,2.286,1.447,4.571,2.322,6.8a57.522,57.522,0,0,0,6.011,10.965,78.946,78.946,0,0,0,4.969,6.51c2.213,2.611,4.687,5.237,5.468,8.571a43.4,43.4,0,0,1,.492,5.909c.188,1.967.832,4.058,2.423,5.237a9,9,0,0,0,3.993,1.316c1,.159,2.249.21,2.77-.658a2.467,2.467,0,0,0,.275-1.143l.246-2.893c.051-.622.268-1.447.89-1.447s.94.8,1.447,1.172a1.57,1.57,0,0,0,2.17-.723,3.616,3.616,0,0,0,.058-2.531,12.022,12.022,0,0,0-6.17-7.645,18.541,18.541,0,0,1-3.009-1.569,10.234,10.234,0,0,1-2.365-2.98c-5.468-9-10.965-18.082-14.827-27.854a20.606,20.606,0,0,1-1.526-5.49,35.439,35.439,0,0,1,.239-5.786,33.12,33.12,0,0,0-.955-10.329,8.121,8.121,0,0,0-.991-2.51c-1.584-2.416-5.323-2.77-7.681-1.107a7.913,7.913,0,0,0-3.052,5.584c-.174,1.946.955,3.978,1.526,5.786Q215.764,616.852,218.389,625.264Z" transform="translate(-95.988 -198.944)" fill="#db818e" opacity="0.268"/><path d="M368.41,753.166c-2.835,1.729-6.365,1.83-9.663,1.447-.528-.065-1.157-.109-1.5.3-.492.593.087,1.447.687,1.953a14.378,14.378,0,0,0,6.64,2.727,45.289,45.289,0,0,0,6.51.434,110.057,110.057,0,0,0,17.742-.658,2.352,2.352,0,0,0,.969-.282,1.837,1.837,0,0,0,.723-1.114,4.434,4.434,0,0,0-1.548-4.224,13.018,13.018,0,0,0-4.137-2.22l-5.15-2c-1.208-.47-3.153-1.721-4.463-1.62C372.793,748.067,370.456,751.965,368.41,753.166Z" transform="translate(-136.25 -240.963)" fill="#3f3d56"/><path d="M386.592,769.261a12.65,12.65,0,0,1-8.643,3.226c-.81,0-1.938.152-1.938.962a1.272,1.272,0,0,0,.231.673,7.956,7.956,0,0,0,4.47,3.5,15.916,15.916,0,0,0,5.4.34l5.28-.275c1-.051,2-.1,2.994-.224s2.069-.326,3.1-.485a41.392,41.392,0,0,1,7.688-.362,2.235,2.235,0,0,0,1.9-.506c.47-.593.2-1.447.043-2.17-.318-1.526,0-3.132-.3-4.672-.506-2.691-2.821-4.759-5.388-5.736-2.372-.9-6.582-1.938-8.831-.434C390.179,764.7,388.725,767.33,386.592,769.261Z" transform="translate(-141.492 -244.957)" fill="#3f3d56"/><path d="M374.725,666.259c-2.17,2.857-4.34,6.155-3.833,9.685.289,1.9,1.353,3.58,2.134,5.345a37.677,37.677,0,0,1,2.17,7.508c.8,3.739,1.606,7.486,2.1,11.276a70.418,70.418,0,0,1,.47,12.947,4.368,4.368,0,0,1-.9,2.893c-.289.289-.665.528-.788.919a1.555,1.555,0,0,0,.166,1.085,12.014,12.014,0,0,0,6.437,5.924,24.656,24.656,0,0,0,8.752,1.635,2.459,2.459,0,0,0,1.172-.152,2.257,2.257,0,0,0,.9-1.034c2.17-4.123.962-9.1,1-13.742,0-3.884.94-7.732.774-11.616-.137-3.11-.969-6.148-1.273-9.251-.5-5.063.434-10.2,1.367-15.225.723-3.848,1.447-7.7,2.351-11.515a21.96,21.96,0,0,1,2.488-6.683c1.013-1.6,2.387-2.937,3.544-4.441a20.158,20.158,0,0,0,3.964-14.733c-.072-.521-7.45,1.866-8.086,2.17a25.068,25.068,0,0,0-7.233,4.636,59.889,59.889,0,0,0-4.542,5.613q-3.168,3.855-6.235,7.753Q378.124,661.724,374.725,666.259Z" transform="translate(-140.055 -210.277)" fill="#464353"/><path d="M374.725,666.259c-2.17,2.857-4.34,6.155-3.833,9.685.289,1.9,1.353,3.58,2.134,5.345a37.677,37.677,0,0,1,2.17,7.508c.8,3.739,1.606,7.486,2.1,11.276a70.418,70.418,0,0,1,.47,12.947,4.368,4.368,0,0,1-.9,2.893c-.289.289-.665.528-.788.919a1.555,1.555,0,0,0,.166,1.085,12.014,12.014,0,0,0,6.437,5.924,24.656,24.656,0,0,0,8.752,1.635,2.459,2.459,0,0,0,1.172-.152,2.257,2.257,0,0,0,.9-1.034c2.17-4.123.962-9.1,1-13.742,0-3.884.94-7.732.774-11.616-.137-3.11-.969-6.148-1.273-9.251-.5-5.063.434-10.2,1.367-15.225.723-3.848,1.447-7.7,2.351-11.515a21.96,21.96,0,0,1,2.488-6.683c1.013-1.6,2.387-2.937,3.544-4.441a20.158,20.158,0,0,0,3.964-14.733c-.072-.521-7.45,1.866-8.086,2.17a25.068,25.068,0,0,0-7.233,4.636,59.889,59.889,0,0,0-4.542,5.613q-3.168,3.855-6.235,7.753Q378.124,661.724,374.725,666.259Z" transform="translate(-140.055 -210.277)" fill="#654fc6" opacity="0.488"/><path d="M393.825,642.857c.463,2.213,2.611,3.906,2.669,6.17.051,1.808-1.237,3.327-2.17,4.882a32.74,32.74,0,0,0-2.213,5.02,76.541,76.541,0,0,1-6.51,12.925c-1.237,1.967-2.625,4.1-2.336,6.408a9.461,9.461,0,0,0,1.121,3.06l3.718,7.385A21.194,21.194,0,0,1,390,693.371c.325,1.4.354,2.893.542,4.282.586,4.528,2.705,9.084,1.447,13.475-.108.376-.506.832-.8.571a14.07,14.07,0,0,1,2.119,7.233c-.043,1.367-.463,2.785.043,4.058a4.428,4.428,0,0,1,.564,1.548c0,.369-.174.723-.21,1.092a2.419,2.419,0,0,0,1.852,2.249c1,.333,2.083.311,3.088.608,1.938.579,3.313,2.242,4.976,3.4a10.452,10.452,0,0,0,5.707,1.859,1.446,1.446,0,0,0,.839-.166,1.374,1.374,0,0,0,.47-1.02,5.671,5.671,0,0,0-2.047-4.926,2.278,2.278,0,0,1-.723-.8,1.931,1.931,0,0,1-.072-.89,65.968,65.968,0,0,0-.217-12.187,18.8,18.8,0,0,1-.188-3.877,15.845,15.845,0,0,0,.311-3.233,16.509,16.509,0,0,0-.991-3.088,21.648,21.648,0,0,1-.47-5.786,50.713,50.713,0,0,0-1.635-9.9,7.515,7.515,0,0,0-1.541-3.573c-.774-.81-2.025-1.577-1.729-2.654a3.065,3.065,0,0,1,.723-1.056,4.238,4.238,0,0,0,.89-3.233,1.446,1.446,0,0,0,1.664-.781,26.038,26.038,0,0,0,13.077-14.871,4.828,4.828,0,0,1,.586-1.324,6.033,6.033,0,0,1,2.394-1.555c2.705-1.36,4.571-3.913,6.285-6.408a14.906,14.906,0,0,0,2.43-4.651,15.322,15.322,0,0,0,.333-3.356l.152-5.786a3.322,3.322,0,0,0-.109-1.135,2.893,2.893,0,0,0-.629-.926,11.233,11.233,0,0,0-6.177-3.327c-1.584-.282-3.2-.232-4.81-.362-3.11-.26-6.184-1.222-9.3-1-4.889.362-9.244,3.754-11.573,8.079C396.415,641.5,395.561,642.806,393.825,642.857Z" transform="translate(-143.489 -208.848)" fill="#654fc6"/><path d="M173.071,763.079a7.876,7.876,0,0,0,3.327.4c.08-.919,1.316-1.121,2.235-1.078a2.57,2.57,0,0,1,1.316.289c.231.145.405.362.629.514a2.707,2.707,0,0,0,1.3.333l4.788.405a14.338,14.338,0,0,0,6.35-.419,2.075,2.075,0,0,0,1.02-.68c.542-.774,0-1.888-.723-2.452s-1.714-.825-2.466-1.4c-1.664-1.266-1.888-3.616-2.77-5.526a15.951,15.951,0,0,0-2.286-3.32,12.707,12.707,0,0,0-2.264-2.315c-1.917-1.389-4.13-1.36-6.379-1.555-1.591-.145-3.088-.239-4.231,1.172-1.41,1.75-.846,5.28-.759,7.37A52.753,52.753,0,0,0,173.071,763.079Z" transform="translate(-85.033 -240.49)" fill="#514e7f"/><path d="M173.071,763.079a7.876,7.876,0,0,0,3.327.4c.08-.919,1.316-1.121,2.235-1.078a2.57,2.57,0,0,1,1.316.289c.231.145.405.362.629.514a2.707,2.707,0,0,0,1.3.333l4.788.405a14.338,14.338,0,0,0,6.35-.419,2.075,2.075,0,0,0,1.02-.68c.542-.774,0-1.888-.723-2.452s-1.714-.825-2.466-1.4c-1.664-1.266-1.888-3.616-2.77-5.526a15.951,15.951,0,0,0-2.286-3.32,12.707,12.707,0,0,0-2.264-2.315c-1.917-1.389-4.13-1.36-6.379-1.555-1.591-.145-3.088-.239-4.231,1.172-1.41,1.75-.846,5.28-.759,7.37A52.753,52.753,0,0,0,173.071,763.079Z" transform="translate(-85.033 -240.49)" opacity="0.05"/><path d="M171.877,639.377c-1.447.47-2.1,2.293-1.83,3.812a13.687,13.687,0,0,0,1.931,4.159c2.126,3.812,3.052,8.173,4.839,12.151,1.338,2.973,3.146,5.721,4.47,8.679s2.17,6.343,1.338,9.5c-.391,1.541-1.143,2.958-1.649,4.463a25.316,25.316,0,0,0-.969,5.063,95.965,95.965,0,0,0-.347,17.475,5.309,5.309,0,0,0,.441,2.069c.3.579.817,1.186.564,1.786-.1.239-.318.412-.427.651-.3.665.311,1.36.868,1.83a1.5,1.5,0,0,1-.94.723,2.22,2.22,0,0,1,.947,2.474c-.5.072-.528.832-.21,1.23s.8.651,1.027,1.1a1.541,1.541,0,0,1-.846,1.938,3.965,3.965,0,0,1-2.307.173,25.025,25.025,0,0,1-3.862-.846,3.471,3.471,0,0,1-1.186-.542,3.522,3.522,0,0,1-1.063-2.344,42.348,42.348,0,0,1-.268-7.233c.21-11.688,0-23.391-.506-35.072a40.158,40.158,0,0,0-3.443-13.627,69.927,69.927,0,0,0-3.356-6.51c-2.618-4.817-4.947-10.126-4.34-15.587.065-.586.282-1.295.861-1.389a1.251,1.251,0,0,1,.665.109,30.748,30.748,0,0,1,3.508,1.938,13.293,13.293,0,0,0,6.09,1.823Z" transform="translate(-81.9 -209.86)" fill="#464353"/><path d="M171.877,639.377c-1.447.47-2.1,2.293-1.83,3.812a13.687,13.687,0,0,0,1.931,4.159c2.126,3.812,3.052,8.173,4.839,12.151,1.338,2.973,3.146,5.721,4.47,8.679s2.17,6.343,1.338,9.5c-.391,1.541-1.143,2.958-1.649,4.463a25.316,25.316,0,0,0-.969,5.063,95.965,95.965,0,0,0-.347,17.475,5.309,5.309,0,0,0,.441,2.069c.3.579.817,1.186.564,1.786-.1.239-.318.412-.427.651-.3.665.311,1.36.868,1.83a1.5,1.5,0,0,1-.94.723,2.22,2.22,0,0,1,.947,2.474c-.5.072-.528.832-.21,1.23s.8.651,1.027,1.1a1.541,1.541,0,0,1-.846,1.938,3.965,3.965,0,0,1-2.307.173,25.025,25.025,0,0,1-3.862-.846,3.471,3.471,0,0,1-1.186-.542,3.522,3.522,0,0,1-1.063-2.344,42.348,42.348,0,0,1-.268-7.233c.21-11.688,0-23.391-.506-35.072a40.158,40.158,0,0,0-3.443-13.627,69.927,69.927,0,0,0-3.356-6.51c-2.618-4.817-4.947-10.126-4.34-15.587.065-.586.282-1.295.861-1.389a1.251,1.251,0,0,1,.665.109,30.748,30.748,0,0,1,3.508,1.938,13.293,13.293,0,0,0,6.09,1.823Z" transform="translate(-81.9 -209.86)" fill="#ff74c4" opacity="0.686"/><path d="M144.241,620.9a3.856,3.856,0,0,0-5.316.571,29.037,29.037,0,0,0-2.748,2.416,14.7,14.7,0,0,0-3.284,14.545,29.065,29.065,0,0,0,4.021,7.132l3.182,4.571c4.853,6.973,9.714,13.945,14.8,20.751a.781.781,0,0,0,.55.723c.188.051.412.043.528.2a.564.564,0,0,1,.065.311,4.722,4.722,0,0,1-.282,1.447.673.673,0,0,0-.058.5c.159.383.861.166,1.078.528a.575.575,0,0,1-.231.723.836.836,0,0,0-.4.723c.036.3.521.571.5.933,0,.2-.174.354-.3.514a1.309,1.309,0,0,0,.159,1.671c.333,3.327-1.447,6.473-1.83,9.8-.571,5.229,1.794,10.336,2.083,15.587a4.173,4.173,0,0,0,.325,1.721c.492.9,1.75,1.447,1.707,2.481a9.462,9.462,0,0,1-.354,1.251,10.062,10.062,0,0,0,.188,1.786c0,.6-.506,1.316-1.063,1.085q.629,2.083,1.114,4.2l11.139.918a10,10,0,0,0-.1-3.009c-.231-1.07-.723-2.076-.969-3.146a3.71,3.71,0,0,1,.441-3.146,1.23,1.23,0,0,1-1.23-1.013,4.962,4.962,0,0,1,0-1.729c.3-2.893-.926-5.786-.89-8.679.036-2.3.839-4.506,1.251-6.763.868-4.832-.036-10.075,2.112-14.466,1.3-2.662,3.1-5.613,1.642-8.188-.723-1.273-1.989-2.17-2.814-3.342a13.575,13.575,0,0,1-1.512-3.616c-1.721-5.323-4.492-10.234-6.929-15.276a16.079,16.079,0,0,1-1.49-4.014,20.4,20.4,0,0,1-.181-3.7,56.768,56.768,0,0,0-.412-6.654,4.851,4.851,0,0,0-2.546-4.34C152.537,624.418,148.182,622.979,144.241,620.9Z" transform="translate(-74.024 -205.598)" fill="#ff74c4"/><path d="M166.861,768.722a7.878,7.878,0,0,0,3.327.4c.087-.918,1.316-1.121,2.235-1.078a2.566,2.566,0,0,1,1.28.3c.231.145.405.362.636.513a2.66,2.66,0,0,0,1.3.333l4.781.405a14.375,14.375,0,0,0,6.358-.42,2.089,2.089,0,0,0,1.013-.68c.542-.774,0-1.888-.723-2.452s-1.714-.825-2.474-1.4c-1.656-1.266-1.888-3.616-2.77-5.526a15.948,15.948,0,0,0-2.286-3.32,12.67,12.67,0,0,0-2.257-2.315c-1.924-1.389-4.13-1.36-6.379-1.555-1.6-.145-3.1-.239-4.231,1.172-1.447,1.75-.853,5.28-.767,7.37a53.738,53.738,0,0,0,.955,8.26Z" transform="translate(-83.3 -242.053)" fill="#514e7f"/><rect width="56.438" height="56.438" transform="translate(143.955 442.775)" fill="#fff"/><path d="M300.105,689.953c0,6.437-3.016,10.488-7.783,10.488-2.437,0-4.3-1.3-4.622-3.233h-.347a5.063,5.063,0,0,1-5.012,3.117c-4.238,0-7.067-3.4-7.067-8.455,0-4.853,2.85-8.231,7.009-8.231a5.063,5.063,0,0,1,4.752,2.843h.347v-2.416h3.465v11.247a2.011,2.011,0,0,0,2.17,2.242c2.4,0,3.935-2.893,3.935-7.45,0-7.233-5.425-12.072-13.431-12.072s-13.562,5.786-13.562,13.945c0,8.354,5.584,13.692,14.278,13.692a26.187,26.187,0,0,0,4.723-.405,1.374,1.374,0,0,1,.579,2.683,24.049,24.049,0,0,1-5.439.593c-10.567,0-17.359-6.51-17.359-16.636,0-9.894,6.907-16.686,16.968-16.686C293.4,675.162,300.105,681.2,300.105,689.953Zm-21.084,2c0,3.211,1.5,5.157,3.964,5.157,2.589,0,4.224-2,4.224-5.157s-1.635-5.114-4.181-5.114-4.007,1.9-4.007,5.114Z" transform="translate(-111.256 -220.851)" fill="#63ff91"/><circle cx="11.03" cy="11.03" r="11.03" transform="translate(121.888 373.962)" fill="#db818e"/><path d="M213.016,583.005c-1.584,1.367-3.848,1.447-5.924,1.678a37.025,37.025,0,0,0-12.744,3.689,4.547,4.547,0,0,0-1.447,1.013,4.171,4.171,0,0,0-.723,1.577,10.429,10.429,0,0,0-.42,3.833,11.051,11.051,0,0,0,1.063,3.616,19.413,19.413,0,0,0,6.842,7.8,4.973,4.973,0,0,0,1.664.8c1.447.3,2.857-.543,4.282-.919a7.016,7.016,0,0,1,3.956.13c1.2.4,2.466,1.128,3.616.644a3.775,3.775,0,0,0,1.649-1.873,63.572,63.572,0,0,0,3.009-6.589,24.993,24.993,0,0,1,1.092-2.56c1.28-2.437,3.493-4.34,4.593-6.842a1.5,1.5,0,0,0,.1-1.287,1.785,1.785,0,0,0-.81-.622,19.335,19.335,0,0,1-4.4-3.457c-.723-.723-2.061-2.575-3.1-2.741C214.166,580.734,213.811,582.325,213.016,583.005Z" transform="translate(-90.498 -194.744)" fill="#db818e"/><path d="M201,608.342a6.581,6.581,0,0,1-4.173.051,46.06,46.06,0,0,1-10.488-3.052,5.613,5.613,0,0,1-2.575-1.975,6.314,6.314,0,0,1-.723-2.474l-.608-4.1a24.867,24.867,0,0,1,.188-4.209,1.23,1.23,0,0,0-.239-.919.991.991,0,0,0-.723-.224c-1.656,0-2.654,1.758-3.819,2.937a7.053,7.053,0,0,1-2.343,1.577c-1.063.434-2.372.723-2.8,1.8-.181.441-.159.948-.34,1.389-.723,1.765-3.906,1.179-4.709,2.893-.231.492-.217,1.114-.6,1.5s-1.085.376-1.664.477c-2.3.376-3.421,3.038-5.388,4.289-1.656,1.056-3.79,1.034-5.569,1.859a21.326,21.326,0,0,1-2.893,1.447,13.674,13.674,0,0,1-3.356.166.9.9,0,0,0-.673.217.926.926,0,0,0-.109.723,20.3,20.3,0,0,0,12.549,15.717,4.424,4.424,0,0,1,1.07.514c1.005.723,1.179,2.365,2.315,2.893a2.394,2.394,0,0,0,2.416-.521,21.028,21.028,0,0,0,1.743-1.924,6.943,6.943,0,0,1,3.884-2.04c1.367-.217,2.893-.058,4-.9a12.286,12.286,0,0,0,1.259-1.345,7.892,7.892,0,0,1,2.893-1.707,28.932,28.932,0,0,1,9.041-1.909c2.893-.166,5.895.1,8.636-.846a5.062,5.062,0,0,0,1.924-1.085,5.785,5.785,0,0,0,1.287-2.235A17.062,17.062,0,0,0,201,608.342Z" transform="translate(-78.223 -197.666)" fill="#514e7f"/><path d="M199.5,592.249c.817-.072,1.635,0,2.452,0,.962,0,1.909-.231,2.893-.239a7.132,7.132,0,0,1,6.727,5.121,1.3,1.3,0,0,1,.043.723.514.514,0,0,1-.557.376,12.222,12.222,0,0,0-1.237-2.481,7.023,7.023,0,0,0-3.7-2.575,9.612,9.612,0,0,0-4.557-.166c-.622.116-1.237.282-1.852.456l-3,.81c-.542.145-1.085.3-1.613.492-.405.145-1.107.723-1.5.723-.542,0-.1-.47.137-.788a3.862,3.862,0,0,1,1.924-1.4,16.187,16.187,0,0,1,3.848-1.056Z" transform="translate(-90.942 -197.825)" fill="#514e7f"/><path d="M209.546,626.966c.723,2.286,1.447,4.571,2.322,6.8a57.531,57.531,0,0,0,6.018,10.965,79.019,79.019,0,0,0,4.969,6.509c2.213,2.611,4.687,5.237,5.468,8.571a43.4,43.4,0,0,1,.492,5.909c.188,1.967.832,4.058,2.423,5.237a9.007,9.007,0,0,0,3.993,1.316c1,.159,2.249.21,2.77-.658a2.467,2.467,0,0,0,.275-1.143l.239-2.893c.058-.622.275-1.447.9-1.447s.94.8,1.447,1.172a1.57,1.57,0,0,0,2.17-.723,3.667,3.667,0,0,0,.058-2.531,12.021,12.021,0,0,0-6.155-7.652,18.553,18.553,0,0,1-3.009-1.57,10.126,10.126,0,0,1-2.365-2.98c-5.475-9-10.972-18.082-14.827-27.854a20.606,20.606,0,0,1-1.526-5.49,35.44,35.44,0,0,1,.239-5.786,33.118,33.118,0,0,0-.933-10.343,8.123,8.123,0,0,0-.991-2.51c-1.584-2.416-5.323-2.77-7.681-1.107a7.913,7.913,0,0,0-3.052,5.584c-.174,1.946.955,3.978,1.526,5.786Q206.928,618.554,209.546,626.966Z" transform="translate(-93.553 -199.409)" fill="#db818e"/><path d="M242.812,564.915c.087-.919-.723-1.75-1.671-2.336a23.33,23.33,0,0,1-2.835-1.736c-.839-.723-1.295-1.671-2.134-2.394a9.4,9.4,0,0,0-3.182-1.584,24.158,24.158,0,0,0-7.609-1.367,13.4,13.4,0,0,0-7.283,1.924,4.34,4.34,0,0,0-1.237,1.15,5.063,5.063,0,0,0-.6,1.83,36.163,36.163,0,0,1-1.9,5.786c-.817,2.083-1.692,4.238-3.616,5.844-2.061,1.721-5.222,2.712-6.582,4.788a1.555,1.555,0,0,0-.3,1.338c.2.521.825.875,1.4,1.208,3.349,1.924,6.235,4.412,7.725,7.392a8.571,8.571,0,0,1-.68,9.222c-.774,1.013-1.844,2.213-1.085,3.233,1.15,1.548,5.121.665,6.032,2.3a3.269,3.269,0,0,1,.123,1.693c0,1.714,1.656,3.248,3.667,4.036a20.445,20.445,0,0,0,6.6,1.085,5.7,5.7,0,0,0,.166-4.267,1.707,1.707,0,0,1-.166-.969,2.329,2.329,0,0,1,.723-.933c2.423-2.286,1.909-5.649.456-8.361s-3.71-5.2-4.549-8.057a4.092,4.092,0,0,1,.723-4.2,14.607,14.607,0,0,1,2.076-1.519,7.891,7.891,0,0,0,2.893-3.616c.673-1.881.571-4.144,2.553-5.388s4.549-.839,6.64-1.642A7.116,7.116,0,0,0,242.812,564.915Z" transform="translate(-93.844 -187.721)" fill="#464353"/><circle cx="12.028" cy="12.028" r="12.028" transform="translate(198.788 369.065)" fill="#fbbebe"/><path d="M353.814,572.327a15.593,15.593,0,0,0,9.981,6.98l-.9,3.284c-1.562,5.656-3.327,11.645-7.7,15.565a7.276,7.276,0,0,0-1.222-5.627,21.311,21.311,0,0,0-4.079-4.267l-6.922-6.025a1.889,1.889,0,0,1-.521-.579,1.765,1.765,0,0,1,0-1.316c.882-2.748,3.4-4.463,5.439-6.314a19.188,19.188,0,0,0,2.741-3.19C352.049,568.885,352.939,570.859,353.814,572.327Z" transform="translate(-132.171 -191.741)" fill="#fbbebe"/><path d="M358.266,589.807a6.509,6.509,0,0,1-.354,2.654,1.866,1.866,0,0,1-2.17,1.114c.253-.571-.412-1.222-1.034-1.15a1.945,1.945,0,0,0-1.374,1.164,4.34,4.34,0,0,0-.4,2.691c.2,1.143.853,2.235.68,3.378-.137.948-.839,1.9-.463,2.785a4.472,4.472,0,0,0,.9,1.07,3.038,3.038,0,0,1-.326,4.166l9.4.181a6.6,6.6,0,0,0,1.164,4.564,28.736,28.736,0,0,0,21.424,13.988,1.866,1.866,0,0,0-.448,2.85,2.638,2.638,0,0,0,3.009.174,22.847,22.847,0,0,0,2.582-1.931,7.891,7.891,0,0,1,5.294-1.447c1.179.109,2.315.485,3.493.55,3.472.188,6.459-2.315,9.779-3.334,2.437-.723,5.193-.723,7.233-2.271A2.867,2.867,0,0,0,418,618.21a4.551,4.551,0,0,0-1.013-1.635,29.11,29.11,0,0,1-2.712-5.063,30.226,30.226,0,0,0-6.777-9.07,59.838,59.838,0,0,0-6.712-5.1,11.364,11.364,0,0,0-1.823-1.092,18.665,18.665,0,0,1-2.488-1.013,13.887,13.887,0,0,1-2.582-2.893c-1.859-2.17-4.716-3.161-7.009-4.868-1.533-1.143-2.893-2.647-4.723-3.2-.89-.268-1.844-.289-2.734-.557-2.025-.615-3.5-2.416-5.49-3.139-1.569-.579-3.305-.427-4.969-.637a11.571,11.571,0,0,1-5.106-1.931,6.138,6.138,0,0,0-1.649-.969c-2.51-.723-2.712,3.92-2.951,5.54A46.451,46.451,0,0,0,358.266,589.807Z" transform="translate(-135.089 -193.662)" fill="#3f3d56"/><path d="M350.419,613.508c.42,4.564-3.031,8.99-2.025,13.468.217.955.622,1.859.774,2.821.419,2.654-1.165,5.164-2.676,7.385l-13.019,19.051a11.573,11.573,0,0,1-1.852,2.293c-2.488,2.206-6.206,1.975-9.468,2.64a16.207,16.207,0,0,0-6.343,2.806.412.412,0,0,0-.08.564,5.439,5.439,0,0,0,4.716,2.213c.34.448,0,1.114-.47,1.447-.723.484-1.656.615-1.794,1.794a2.01,2.01,0,0,0,.231,1.193,3.7,3.7,0,0,0,2.278,1.577c4.492,1.374,9.345-1.042,12.708-4.34s5.786-7.428,9.084-10.777c1.83-1.852,3.906-3.436,5.786-5.229a68.376,68.376,0,0,0,9.5-12.3,13.684,13.684,0,0,0,2.054-4.188c.347-1.483.188-3.059.593-4.528.521-1.931,1.931-3.472,3.11-5.063a16.826,16.826,0,0,0,3.537-10.965c-.3-3.913-2.727-7.761-6.408-9.092a5.736,5.736,0,0,0-3.616-.217,8.619,8.619,0,0,0-3.66,2.893l-2.466,2.85a6.769,6.769,0,0,0-1.447,2.17,2.278,2.278,0,0,0,.506,2.423" transform="translate(-124.791 -201.661)" fill="#fbbebe"/><path d="M369.588,590.441c-1.707.1-3.616.268-4.8,1.447a6.7,6.7,0,0,0-1.2,1.9c-1.172,2.38-2.315,4.875-2.394,7.529a33.953,33.953,0,0,0,.868,6.293c.268,1.743-.412,3.522-.542,5.287a36.1,36.1,0,0,0,6.828-2.626,22.831,22.831,0,0,1,4-2.076c2.032-.68,5.461.484,7.385,1.446.109-1.36-.911-3.725-.8-5.063a5.546,5.546,0,0,1,.3-1.685,10.054,10.054,0,0,1,1.02-1.627,6.661,6.661,0,0,0-.6-7.819c-1.714-1.931-4.4-2.654-6.972-2.958a30.5,30.5,0,0,0-4.875-.166" transform="translate(-137.392 -197.348)" fill="#3f3d56"/><path d="M320.179,553.494l-.275-2.264c1.9.485,3.7-1.121,4.918-2.792s2.336-3.616,4.181-4.34c2.249-.846,4.629.506,6.777,1.62a21.214,21.214,0,0,0,7.775,2.575,5.5,5.5,0,0,1,1.287.21c1.4.5,2.061,2.249,2.264,3.841s.145,3.284.832,4.7c.528,1.07,1.447,1.873,1.967,2.893,1.447,2.842.051,6.734,1.606,9.526l-3.855-3.53c-.354-.326-.854-.666-1.237-.391s-.333.723-.463,1.063a2.018,2.018,0,0,1-2.741,1,7.517,7.517,0,0,1-2.452-2.242,14.986,14.986,0,0,0-6.119-4.636,7.819,7.819,0,0,0-6.473.383c-1.8,1.02-3.117,3.385-5.323,3.464-3.023.116-4.282-5.511-5.678-7.732a2.741,2.741,0,0,0,.8-3.414C318.175,553.357,320.135,553.147,320.179,553.494Z" transform="translate(-125.21 -184.494)" fill="#464353"/><path d="M731.008,759.086c-.586-2.481-.94-4.651-.94-4.651a9.633,9.633,0,0,0-1.078-4.723v-.68h0v-4.991a16.5,16.5,0,0,1,1.259-2.611c.9-1.562,0-7.305,0-7.305s-3.327-8.094-2.524-13.229-6.828-22.805-6.828-22.805a22.528,22.528,0,0,1,.723-5.063,3.659,3.659,0,0,0,.094-1.056.8.8,0,0,0,0-.13v.043c-.116-3.385-2.792-9.735-2.792-9.735l.362-12.093s1.707-7.139-1.078-16.715c-.976-3.342-1.6-6.011-2-8.079-.043-.232-.087-.456-.123-.673,5.736-.875,10.126-1.606,10.126-1.606s-3.327-13.923-5.577-16.361-4.043-10.09-4.043-10.09-1.172-9.837.723-12.708,2.17-7.833,2.17-7.833,4.34-3.132,4.853-4.528a22.93,22.93,0,0,0,1.447-6.177c0-1.656-.542-3.132-.362-4.007s-1.259-4.173-.535-5.743a4.2,4.2,0,0,0,.282-1.512.1.1,0,0,0,0-.043h0a21.5,21.5,0,0,0-.383-4.086,11.572,11.572,0,0,0-4.267-2.286l-.094-.369-.246-.976a3.3,3.3,0,0,0-.427-.253V564.2l.673-3.182c1.331-5.519-6.047-6.343-6.047-6.343a3.891,3.891,0,0,0-2.09-1.837c-1.447-.521-.246,8.318.448,8.882a28.773,28.773,0,0,1,2.893,4.557h0l.13.224a2.942,2.942,0,0,0-.34.354l.282,1.917.043.3a7.879,7.879,0,0,0-1.179,2,4.275,4.275,0,0,1,1.078,3.139,9.836,9.836,0,0,0,.448,3.826c-.08-.094-1.027-1.121-1.974-.868s-3.616,1.042-3.616,1.042-1.982.347-1.8.781-1.345,2.351-1.345,2.351l-5.316-5.063c-.058-.152-.109-.3-.159-.456a12.165,12.165,0,0,1-.456-2.17,11.831,11.831,0,0,0,1.693-.542,3.669,3.669,0,0,0,1.447-.94,5.744,5.744,0,0,0,.853-2.293,31.826,31.826,0,0,1,1.975-4.4,14.306,14.306,0,0,0,1.027-7.848,5.224,5.224,0,0,0-.81-2.315c-.868-1.193-2.445-1.678-3.616-2.633s-1.88-2.4-3.219-3.117a6.343,6.343,0,0,0-4.036-.347,21.57,21.57,0,0,0-7.529,2.734,3.872,3.872,0,0,1-2.524.832,3.407,3.407,0,0,1-1.815-1.331.346.346,0,0,1,0-.079l-.065-.065a9.525,9.525,0,0,0-.825,3.978v.854a1.666,1.666,0,0,1,0,.188h0a1.275,1.275,0,0,1-.043.282,2.046,2.046,0,0,1-.492.723,3.2,3.2,0,0,0-.434.593.64.64,0,0,1,.072-.217,3.14,3.14,0,0,0-.557,1.671,1.664,1.664,0,0,0,.405,1.2,5.8,5.8,0,0,0,.861.723,10.133,10.133,0,0,0-.152,1.765,10.285,10.285,0,0,0,5.005,8.773l.181.456a12.648,12.648,0,0,1,.962,5.786.978.978,0,0,1-.065.427l-.188.217h0s-8.781.087-10.849-1.786-5.215,4.571-5.215,4.571-3.146.615-3.776,0-4.34-.087-4.34-.087a7.957,7.957,0,0,0-5.483-2,16.107,16.107,0,0,0-4.029-2.242h0l-.1-.036h0a4.5,4.5,0,0,0-1.982-.246s-4.34-3.573-5.569-5.482-7.233-9.019-7.283-9.056v-.34L640.836,561a4.046,4.046,0,0,1-.535.051,1.257,1.257,0,0,0-.123-.362A19.537,19.537,0,0,0,638.9,557.8s0-1.3.383-1.627-.159-5.114-.159-5.114-3.891-9.092-7.37-2.307c0,0-6.589,4.39-1.063,9.511,0,0,2.17,1.063,2.517,1.909.21.55.955,2.09,1.447,3.11l.224.456-.065.051.087.854v.333c-1.042.586-1.743,1.172-1.577,1.62a9.517,9.517,0,0,1,.629,2.351s7.645,9.569,8.636,13.663c0,0,20.5,12.18,27.239,13.055l-1.165,6.09a48.153,48.153,0,0,0-.268,4.962c.087,1.3-.81,7.233-.81,7.233s-1.172,8.679-2.17,9.916-.81,6.445-.81,6.445a43.462,43.462,0,0,1-1.345,7.392,18.783,18.783,0,0,0-.268,7.4s-3.421,7.833,4.766,2.524c0,0,4.014-.246,8.679-.4v2.38c-.058,4.484-.087,10.668.116,15.348.362,8.267,2.893,24.592,2.893,24.592v8.217a11.482,11.482,0,0,0-.231,2.351,15.231,15.231,0,0,0,2.213,8.231l.629,5.483a22.711,22.711,0,0,1,1.5,5.786,2.832,2.832,0,0,1-.065.521,3.894,3.894,0,0,0-.072.839c-.079,2.488,1.447,8.448,1.447,8.448s.094,6,.991,6.35c.767.3-1.027,3.464-1.562,4.34a1.45,1.45,0,0,1-.036-.174c-.065.116-.108.181-.108.181a4.212,4.212,0,0,0-.282,1.519,2.17,2.17,0,0,0,1,2.112c1.707,1.049,2.625,1.917,1.179,2.264a14.346,14.346,0,0,0-1.584.333c0-.065-.058-.137-.08-.2a.969.969,0,0,0-.564,1.005,4.447,4.447,0,0,0,.543,2.032,21.7,21.7,0,0,0,2.43,4.441l.723-.08a3.416,3.416,0,0,1-.405.723,2.8,2.8,0,0,1-1.013.9,3.242,3.242,0,0,1-1.229.427,3.429,3.429,0,0,0-2.546,1.237c-.9,1.157-1.447,2.741.311,4.13l6.43,2.213s11.059,1.447,10.473-1.042-.94-4.651-.94-4.651a9.817,9.817,0,0,0-.9-4.4,4.348,4.348,0,0,0-.391-.651l.391-.043s.81-5.482,1.888-6.51c.253-.239.311-.427.246-.571.116-.3-.166-.47-.528-.571l-.08.217a5.439,5.439,0,0,0-1.07-.116s-.362-2.893.8-3.92a1.106,1.106,0,0,0,.231-.853,4.919,4.919,0,0,0-.123-1.172l-.043.072a41.781,41.781,0,0,0-2.582-6.748s-.087-2.611.629-3.66-.087-14.184-.087-14.184.268-6.351-.542-9.309.991-6.444.991-6.444v-.231s-.043-.391-.109-1.005v.065c-.181-1.685-.521-4.73-.774-6.133-.362-2,.087-11.573.087-11.573l1.62-4.087,2.893,7.045,3.052,9.4a7.991,7.991,0,0,1,1.555,3.993v.3a4.747,4.747,0,0,0,0,.629,5.613,5.613,0,0,0,.933,3.349s.81,4.441,2.069,5.569a5.013,5.013,0,0,1,1.259,3.305s1.526,6.444,2.249,7.573c.608.955.636,3.573.629,4.34h0v.239s.21,2.3.2,4.238v.673a6.736,6.736,0,0,1-.188,1.562v-.232a16.1,16.1,0,0,0-.463,4.014c-.043,2.315.311,5.063,1.714,6.661,2.43,2.785,3.956,2.437,3.956,2.437s-1.172,3.479-2.611,4.181a.878.878,0,0,0-.152.094.4.4,0,0,0-.036-.2,1.7,1.7,0,0,0-.42,1.3,9.316,9.316,0,0,0,1.779,5.157,2.849,2.849,0,0,0,1.215.723l-.224.138a5.054,5.054,0,0,1-.5.239,2.356,2.356,0,0,1-.723.188,3.428,3.428,0,0,0-2.546,1.237c-.9,1.157-1.447,2.741.311,4.13l6.43,2.213S731.565,761.6,731.008,759.086Z" transform="translate(-211.357 -185.158)" fill="url(#a)"/><path d="M709.019,841.533l-6.227-2.213c-1.714-1.389-1.164-2.973-.3-4.13a3.276,3.276,0,0,1,2.459-1.237,3.046,3.046,0,0,0,1.193-.427,2.821,2.821,0,0,0,.984-.9,4.579,4.579,0,0,0,.723-2.409s6.835-2,8.679,0a5.1,5.1,0,0,1,.832,1.215,10.125,10.125,0,0,1,.868,4.4s.347,2.17.911,4.651S709.019,841.533,709.019,841.533Z" transform="translate(-231.608 -263.496)"/><path d="M751.13,837.331l-6.22-2.213c-1.721-1.389-1.172-2.973-.3-4.123a3.269,3.269,0,0,1,2.466-1.244,2.25,2.25,0,0,0,.723-.188,3.666,3.666,0,0,0,.477-.239c1.743-.955,1.7-3.305,1.7-3.305s6.828-2,8.679,0a4.836,4.836,0,0,1,.651.89,9.937,9.937,0,0,1,1.049,4.73s.347,2.17.911,4.651S751.13,837.331,751.13,837.331Z" transform="translate(-243.261 -262.333)"/><path d="M718.63,830.22a5.1,5.1,0,0,1,.832,1.215h0l-10.242,1.186a4.578,4.578,0,0,0,.723-2.409S716.764,828.224,718.63,830.22Z" transform="translate(-233.697 -263.496)" opacity="0.1"/><path d="M760.839,826.863v1.917c-1.591,2.625-9.294,2.054-11.529.723a3.675,3.675,0,0,0,.477-.239c1.743-.955,1.7-3.305,1.7-3.305s6.828-2,8.679,0a4.837,4.837,0,0,1,.673.9Z" transform="translate(-244.79 -262.316)" opacity="0.1"/><path d="M747.036,777.214a17.075,17.075,0,0,0-1.222,2.611V786.7c-1.736,2.893-10.791,1.917-12.006.347s-2.524-5.656-1.136-6.35,2.524-4.181,2.524-4.181-1.447.347-3.826-2.437-1.649-8.961-1.215-10.444,0-6.437,0-6.437.087-3.479-.608-4.614-2.17-7.573-2.17-7.573a5.141,5.141,0,0,0-1.215-3.305c-1.215-1.136-2-5.569-2-5.569a5.706,5.706,0,0,1-.868-3.739c.26-2.17-1.483-4.528-1.483-4.528l-2.958-9.4-2.785-7.052L714.5,715.5s-.441,9.576-.087,11.573.868,7.305.868,7.305-1.743,3.486-.955,6.445.521,9.309.521,9.309.781,13.142.087,14.191-.608,3.616-.608,3.616,3.566,7.66,2.43,8.68-.781,3.92-.781,3.92,2.438,0,1.4,1.042-1.83,6.51-1.83,6.51l-10.538,1.331a22.284,22.284,0,0,1-2.358-4.441c-1.389-3.219.26-2.893,1.664-3.219s.514-1.215-1.143-2.264-.723-3.392-.723-3.392,2.524-4.267,1.656-4.615-.962-6.351-.962-6.351-1.736-7.139-1.3-9.048-1.4-6.51-1.4-6.51l-.608-5.482a15.073,15.073,0,0,1-1.881-10.372v-8.47s-2.437-16.361-2.792-24.592c-.217-5.294-.159-12.52-.087-17.033.043-2.524.087-4.2.087-4.2l37.611-3.913a31.154,31.154,0,0,0,.687,5.584c.383,2.061.984,4.737,1.924,8.079a36.744,36.744,0,0,1,1.049,16.708l-.347,12.093s3.305,8.094,2.611,10.849a22.976,22.976,0,0,0-.723,5.063s7.4,17.67,6.618,22.805,2.445,13.193,2.445,13.193S747.9,775.68,747.036,777.214Z" transform="translate(-229.764 -220.934)" fill="#bf7979"/><path d="M737.22,752.856l11.413-1.526S742.182,757.941,737.22,752.856Z" transform="translate(-241.445 -241.912)" opacity="0.05"/><path d="M749.953,735.87s.4,4.043-2.083,5.569C747.87,741.439,752.3,740.745,749.953,735.87Z" transform="translate(-244.392 -237.634)" opacity="0.1"/><path d="M744.617,718.06s-9.562,7.877-13.019,7.233S744.617,718.06,744.617,718.06Z" transform="translate(-239.757 -232.705)" opacity="0.1"/><path d="M714.737,758.55s-7.233,1.656-7.479,4.571S714.737,758.55,714.737,758.55Z" transform="translate(-233.152 -243.91)" opacity="0.1"/><path d="M716.8,808.72s-10.263,1.917-7.348,3.226a49.759,49.759,0,0,0,7.7,2.343S720.459,814.463,716.8,808.72Z" transform="translate(-233.616 -257.792)" opacity="0.05"/><g transform="translate(465.206 458.174)" opacity="0.05"><path d="M706.277,815.43a2.033,2.033,0,0,1-.94-1.49l-.1.188s-.962,2.343.723,3.392c.188.116.369.239.535.354.3-.058.637-.1.948-.181C708.816,817.376,707.933,816.5,706.277,815.43Z" transform="translate(-697.725 -717.41)"/><path d="M724.883,814.394c.282-.26.268-.933.1-1.794a4.853,4.853,0,0,0-.586,2.524,1.932,1.932,0,0,1,.484-.73Z" transform="translate(-703.102 -717.04)"/><path d="M722.6,755.22a11.979,11.979,0,0,0-.723,3.2,12.639,12.639,0,0,1,.8-2.17A6.454,6.454,0,0,0,722.6,755.22Z" transform="translate(-702.406 -701.162)"/><path d="M755.318,748.535a4.134,4.134,0,0,0,.094-.955c-.13.651-.217,1.258-.282,1.786C755.188,749.092,755.246,748.817,755.318,748.535Z" transform="translate(-711.607 -699.048)"/><path d="M722.449,797.261a5.475,5.475,0,0,0,.26-1.931,6.373,6.373,0,0,0-.5,2.438A2.348,2.348,0,0,1,722.449,797.261Z" transform="translate(-702.498 -712.261)"/><path d="M719.8,820.68a34.786,34.786,0,0,0-1.193,5.345l-10.524,1.222a21.8,21.8,0,0,1-2.358-4.441,7.718,7.718,0,0,1-.3-.767c-.629.289-.883.94-.051,2.893a21.553,21.553,0,0,0,2.358,4.434l10.516-1.222s.789-5.482,1.83-6.51C720.6,821.078,720.27,820.817,719.8,820.68Z" transform="translate(-697.694 -719.276)"/><path d="M703.161,766.254s.087,6.01.955,6.358h0c.441-.991.723-1.931.34-2.09-.868-.347-.955-6.35-.955-6.35s-1.743-7.139-1.3-9.056-1.4-6.51-1.4-6.51l-.608-5.482a15.1,15.1,0,0,1-1.917-10.357v-8.455s-2.437-16.361-2.785-24.628c-.224-5.294-.159-12.52-.087-17.033v-2.17h-.3s-.043,1.671-.087,4.2c-.072,4.506-.137,11.739.087,17.033.347,8.267,2.785,24.628,2.785,24.628v8.441a15.052,15.052,0,0,0,1.96,10.444l.608,5.482s1.83,4.607,1.389,6.51S703.161,766.254,703.161,766.254Z" transform="translate(-694.956 -680.48)"/><path d="M748.335,824.927a10.125,10.125,0,0,1-1.664-4.137c-1.078.969.159,4.738,1.316,6.228s10.271,2.524,12.014-.354v-1.656C757.644,827.343,749.492,826.41,748.335,824.927Z" transform="translate(-709.152 -719.306)"/><path d="M766.955,812.88a17.394,17.394,0,0,0-1.215,2.611v1.222c.2-.448.477-1.042.868-1.743a5.272,5.272,0,0,0,.384-2.17Z" transform="translate(-714.543 -717.095)"/><path d="M747.964,809.89a16.774,16.774,0,0,0,.861-2.069s-1.447.347-3.833-2.437c-1.707-2.025-1.8-5.851-1.562-8.354-.434,1.483-1.136,7.66,1.215,10.444C746.185,809.3,747.335,809.774,747.964,809.89Z" transform="translate(-708.246 -712.731)"/><path d="M737.72,769.831a47.824,47.824,0,0,1,.174,5.157c.058-.34.123-.615.174-.81.441-1.447,0-6.437,0-6.437s.087-3.486-.608-4.614-2.17-7.573-2.17-7.573a5.14,5.14,0,0,0-1.215-3.305c-1.215-1.136-2-5.569-2-5.569a5.706,5.706,0,0,1-.875-3.739c.268-2.17-1.447-4.528-1.447-4.528l-2.958-9.4L723.97,722l-1.57,4.087s0,.513-.051,1.324l1.273-3.32,2.785,7.045,2.958,9.4s1.736,2.351,1.447,4.521a5.722,5.722,0,0,0,.9,3.7s.781,4.434,2,5.569a5.166,5.166,0,0,1,1.222,3.305s1.447,6.437,2.17,7.573S737.72,769.831,737.72,769.831Z" transform="translate(-702.536 -691.969)"/></g><path d="M750.423,563.639l-.651,3.182.036,1.447v1.042l-3.616.376-.405-.723h0a30.774,30.774,0,0,0-2.821-4.557c-.673-.564-1.866-9.4-.434-8.875a3.791,3.791,0,0,1,2.025,1.83S751.711,558.114,750.423,563.639Z" transform="translate(-242.728 -187.725)" fill="#ffcdd3"/><path d="M751.352,573.99l-3.616.376-.405-.723h0a3.2,3.2,0,0,1,4.007-.658Z" transform="translate(-244.242 -192.441)" opacity="0.1"/><path d="M752.177,575.832l-4.781,1.114-.1-.723-.275-1.917a3.291,3.291,0,0,1,4.636-.636l.239.976Z" transform="translate(-244.156 -192.562)" fill="#dce6f2"/><path d="M642.474,561.39l-5.106,2.748-.463-.969c-.492-1.02-1.215-2.553-1.447-3.1-.3-.846-2.437-1.917-2.437-1.917-5.352-5.114,1.02-9.5,1.02-9.5,3.378-6.792,7.139,2.3,7.139,2.3s.521,4.8.152,5.114-.369,1.635-.369,1.635a19.887,19.887,0,0,1,1.237,2.893C642.395,561.094,642.474,561.39,642.474,561.39Z" transform="translate(-212.019 -185.129)" fill="#ffcdd3"/><path d="M644.779,566.922l-5.106,2.748-.463-.969c.723-.6,3.276-2.676,4.116-2.582a6,6,0,0,0,1.215,0C644.7,566.625,644.779,566.922,644.779,566.922Z" transform="translate(-214.324 -190.66)" opacity="0.1"/><path d="M645.358,568.6l-5.743,2.828-.116-1.237-.08-.846s3.327-2.857,4.34-2.749a5.332,5.332,0,0,0,1.5,0l.065,1.034Z" transform="translate(-214.382 -190.793)" fill="#dce6f2"/><path d="M726.435,588.5s-25.047,2.828-20.368,1.309c3.262-1.063,4.557-3.132,4.831-5.432a13.228,13.228,0,0,0-.933-5.786,25.151,25.151,0,0,0-2.242-4.528s19.145-10.531,15.319-.955a15.016,15.016,0,0,0-1.085,4.535,12.789,12.789,0,0,0,.485,4.586,13.677,13.677,0,0,0,3.992,6.271Z" transform="translate(-232.663 -191.483)" fill="#ffcdd3"/><path d="M723.9,573.1a15.016,15.016,0,0,0-1.085,4.535c-1.808,1.512-3.783,1.447-6.322,1.447-1.953,0-4.116.477-5.671-.463a25.152,25.152,0,0,0-2.242-4.528S727.725,563.528,723.9,573.1Z" transform="translate(-233.52 -191.483)" opacity="0.1"/><circle cx="10.357" cy="10.357" r="10.357" transform="translate(472.276 367.524)" fill="#ffcdd3"/><path d="M726.435,593.116s-25.047,2.828-20.368,1.309c3.262-1.063,4.557-3.132,4.831-5.432,1.244-1.353,3.747-2.329,5.36-2.843a7.471,7.471,0,0,1,4.535-.072,6.044,6.044,0,0,1,1.649.723A13.677,13.677,0,0,0,726.435,593.116Z" transform="translate(-232.663 -196.096)" opacity="0.1"/><path d="M752.282,576.4l-4.781,1.114-.1-.723a4.224,4.224,0,0,1,4.6-1.577Z" transform="translate(-244.262 -193.131)" opacity="0.1"/><path d="M645.389,569l-5.743,2.828-.116-1.237a42.277,42.277,0,0,1,5.786-2.56Z" transform="translate(-214.412 -191.19)" opacity="0.1"/><path d="M733.47,681.054c-9.7,1.526-23.507,3.522-25.7,2.857-1.815-.557-7.616-.5-12.672-.326.043-2.524.087-4.2.087-4.2L732.8,675.47A31.157,31.157,0,0,0,733.47,681.054Z" transform="translate(-229.789 -220.92)" opacity="0.1"/><path d="M727.184,649.133s-31.94,5.482-35.369,4.434-21.026.094-21.026.094c-7.92,5.3-4.607-2.524-4.607-2.524a18.874,18.874,0,0,1,.26-7.4,45.315,45.315,0,0,0,1.3-7.4s-.174-5.222.781-6.437,2.09-9.923,2.09-9.923.875-5.916.788-7.233.26-4.955.26-4.955l1.128-6.1c-6.51-.868-26.371-13.055-26.371-13.055-.955-4.087-8.354-13.663-8.354-13.663a10.067,10.067,0,0,0-.608-2.351c-.521-1.389,7.313-4.173,7.313-4.173s5.83,7.139,7.045,9.048,5.4,5.483,5.4,5.483a4.216,4.216,0,0,1,1.917.253h.1a15.433,15.433,0,0,1,3.891,2.235,7.544,7.544,0,0,1,5.309,2s3.573-.521,4.181.087,3.616,0,3.616,0,3.052-6.437,5.063-4.571,10.495,1.786,10.495,1.786c1.135-1.5,3.884-2.582,5.613-3.139a7.472,7.472,0,0,1,4.535-.072,5.612,5.612,0,0,1,1.794.868l5.15,5.063s1.447-1.917,1.309-2.351,1.743-.781,1.743-.781,2.524-.781,3.479-1.049,1.837.781,1.909.868a10.19,10.19,0,0,1-.434-3.826,4.34,4.34,0,0,0-1.042-3.132c3.074-7.436,9.952-1.143,9.952-1.143s.781,4.087.087,5.656.723,4.875.521,5.743.347,2.351.347,4a23.8,23.8,0,0,1-1.389,6.184c-.528,1.389-4.7,4.521-4.7,4.521s-.26,4.962-2.09,7.833-.723,12.708-.723,12.708,1.736,7.66,3.913,10.126S727.184,649.133,727.184,649.133Z" transform="translate(-213.833 -191.306)" fill="#ba5e5e"/><path d="M695.484,598.828s-.955-2.893-1.83-3.139a20.6,20.6,0,0,1-2.524-1.128l.564-1.07s3.269.9,3.79,1.852S695.484,598.828,695.484,598.828Z" transform="translate(-228.691 -198.235)" opacity="0.1"/><path d="M669.973,591.211c-.174.875-7.913,1.656-7.913,1.656l3.913-3.927h0l.1.036h0A15.431,15.431,0,0,1,669.973,591.211Z" transform="translate(-220.647 -196.976)" opacity="0.1"/><circle cx="0.694" cy="0.694" r="0.694" transform="translate(426.195 381.6)" fill="#575988"/><circle cx="0.694" cy="0.694" r="0.694" transform="translate(427.085 382.995)" fill="#575988"/><circle cx="0.694" cy="0.694" r="0.694" transform="translate(427.96 384.276)" fill="#575988"/><circle cx="0.694" cy="0.694" r="0.694" transform="translate(428.872 385.672)" fill="#575988"/><circle cx="0.564" cy="0.564" r="0.564" transform="translate(511.037 385.722)" fill="#575988"/><circle cx="0.564" cy="0.564" r="0.564" transform="translate(511.123 387.01)" fill="#575988"/><circle cx="0.564" cy="0.564" r="0.564" transform="translate(511.196 388.29)" fill="#575988"/><path d="M697.21,633.47c-.08-.1,19.529,24.671,34.768,10.357C731.978,643.827,707.907,647.089,697.21,633.47Z" transform="translate(-230.373 -209.298)" opacity="0.1"/><path d="M681.63,651.28s11.739.318,12.968,3.7v3.515a2.25,2.25,0,0,1-2.17,0c-1.186-.637-8.282-4.246-10.784-2.51Z" transform="translate(-226.062 -214.226)" opacity="0.1"/><path d="M681.93,651.28s11.225.3,12.4,3.522v3.356a2.169,2.169,0,0,1-2.09,0c-1.136-.615-7.956-4.05-10.314-2.394Z" transform="translate(-226.145 -214.226)" fill="#3f3d56"/><path d="M690.49,616a37.818,37.818,0,0,0,4.549,7.8,30.487,30.487,0,0,0,7.132,6.886S690.685,617.642,690.49,616Z" transform="translate(-228.514 -204.464)" opacity="0.1"/><path d="M685.18,597.18s1.96,8.455,7,11.327Z" transform="translate(-227.044 -199.256)" opacity="0.1"/><path d="M680.933,598.359c-.051-.159-1.743,6.683,6.51,10.473C687.442,608.832,683.956,607.646,680.933,598.359Z" transform="translate(-225.82 -199.581)" opacity="0.1"/><path d="M751.9,590.518c-.13,0,4.065,2.676,5.208,3.913C757.107,594.431,754.38,590.344,751.9,590.518Z" transform="translate(-245.506 -197.411)" opacity="0.1"/><path d="M711.886,573.5a2.206,2.206,0,0,0,.8,1.4,2.262,2.262,0,0,0,.976.217c3.161.2,6.445.333,9.4-.882a3.5,3.5,0,0,0,1.447-.947,5.634,5.634,0,0,0,.767-2.278,35.5,35.5,0,0,1,1.917-4.4,14.777,14.777,0,0,0,1.02-7.9,5.286,5.286,0,0,0-.788-2.315c-.839-1.193-2.365-1.678-3.472-2.633s-1.823-2.409-3.11-3.125a6.047,6.047,0,0,0-3.906-.347,20.635,20.635,0,0,0-7.291,2.741,3.609,3.609,0,0,1-2.437.832,3.349,3.349,0,0,1-1.794-1.374,9.631,9.631,0,0,0-.774,4.506,1.333,1.333,0,0,1-.485,1.4c-.781.9-1.266,2.336-.5,3.248.34.4.853.615,1.179,1.02.586.723.383,1.772.369,2.705a1.445,1.445,0,0,0,.231.919,1.345,1.345,0,0,0,1.28.3,3.5,3.5,0,0,1,1.36-.13,2.293,2.293,0,0,1,1.186.911A16.538,16.538,0,0,1,711.886,573.5Z" transform="translate(-232.052 -186.233)" fill="#2d293d"/><g transform="translate(471.152 366.15)" opacity="0.1"><path d="M724.747,575.8a3.423,3.423,0,0,1-1.447.94c-2.893,1.222-6.206,1.078-9.359.882a2.126,2.126,0,0,1-.976-.217,2.17,2.17,0,0,1-.81-1.4,16.143,16.143,0,0,0-2.64-6.126,2.256,2.256,0,0,0-1.186-.911,3.5,3.5,0,0,0-1.36.13,1.345,1.345,0,0,1-1.28-.3,1.4,1.4,0,0,1-.224-.919c0-.933.21-1.982-.376-2.705-.326-.405-.839-.622-1.179-1.02a2.04,2.04,0,0,1-.2-2.083,2.382,2.382,0,0,0-.152,2.777c.34.4.853.615,1.179,1.02.586.723.383,1.772.369,2.705a1.446,1.446,0,0,0,.231.919,1.338,1.338,0,0,0,1.28.3,3.5,3.5,0,0,1,1.36-.13,2.293,2.293,0,0,1,1.186.911,16.425,16.425,0,0,1,2.64,6.126,2.206,2.206,0,0,0,.8,1.4,2.261,2.261,0,0,0,.976.217c3.161.2,6.445.333,9.4-.882a3.551,3.551,0,0,0,1.447-.948,2.751,2.751,0,0,0,.448-.839A.522.522,0,0,1,724.747,575.8Z" transform="translate(-703.176 -555.691)"/><path d="M705.16,558.27a1.446,1.446,0,0,0,.318-.528,2.171,2.171,0,0,0,0-.68,9.549,9.549,0,0,1,.485-3.747l-.058-.065a9.547,9.547,0,0,0-.774,4.506A3.036,3.036,0,0,1,705.16,558.27Z" transform="translate(-703.71 -553.25)"/></g><path d="M712.62,591.031s12.94,1.714,14.1-.231" transform="translate(-234.637 -197.491)" opacity="0.1"/><path d="M747.4,583.72s7.182,0,8.766,2.705" transform="translate(-244.262 -195.531)" opacity="0.1"/></svg>