<svg xmlns="http://www.w3.org/2000/svg" xmlns:xlink="http://www.w3.org/1999/xlink" viewBox="0 0 736.35 397.74"><defs><style>.cls-1{fill:#f9f9fa;}.cls-2{fill:url(#linear-gradient);}.cls-3{fill:url(#linear-gradient-2);}.cls-4{fill:#304fe5;}.cls-5{opacity:0.14;}.cls-6{fill:#b2b2b2;}.cls-7{fill:#efefef;}.cls-10,.cls-28,.cls-78,.cls-79,.cls-8,.cls-80,.cls-81,.cls-83,.cls-85,.cls-86,.cls-87,.cls-88{fill:none;}.cls-8{stroke:#dbdbdb;}.cls-10,.cls-28,.cls-8,.cls-83{stroke-miterlimit:10;}.cls-9{fill:#f7f7f7;}.cls-10{stroke:#e5e5e5;}.cls-11{fill:#ededed;}.cls-12{fill:#d8d8d8;}.cls-13{fill:url(#linear-gradient-3);}.cls-14{fill:#cecece;}.cls-15{fill:url(#linear-gradient-4);}.cls-16{fill:url(#linear-gradient-5);}.cls-17{clip-path:url(#clip-path);}.cls-18{fill:url(#linear-gradient-6);}.cls-19{fill:url(#linear-gradient-7);}.cls-20{fill:url(#linear-gradient-8);}.cls-21{fill:url(#linear-gradient-9);}.cls-22{fill:url(#linear-gradient-10);}.cls-23{fill:url(#linear-gradient-11);}.cls-24{fill:url(#linear-gradient-12);}.cls-25{fill:#db5614;}.cls-26{fill:url(#radial-gradient);}.cls-27{fill:#f2d972;}.cls-28{stroke:#edad72;stroke-dasharray:2.08 2.08;}.cls-29{fill:url(#linear-gradient-13);}.cls-30{fill:url(#linear-gradient-14);}.cls-31{fill:url(#linear-gradient-15);}.cls-32{fill:url(#linear-gradient-16);}.cls-33{fill:url(#linear-gradient-17);}.cls-34{fill:url(#linear-gradient-18);}.cls-35{fill:url(#linear-gradient-19);}.cls-36{fill:url(#linear-gradient-20);}.cls-37{fill:url(#linear-gradient-21);}.cls-38{fill:url(#linear-gradient-22);}.cls-39{fill:url(#linear-gradient-23);}.cls-40{fill:url(#linear-gradient-24);}.cls-41{fill:url(#linear-gradient-25);}.cls-42{fill:url(#linear-gradient-26);}.cls-43{fill:url(#linear-gradient-27);}.cls-44{fill:url(#linear-gradient-28);}.cls-45{fill:url(#linear-gradient-29);}.cls-46{fill:url(#linear-gradient-30);}.cls-47{fill:url(#linear-gradient-31);}.cls-48{fill:url(#linear-gradient-32);}.cls-49{fill:url(#linear-gradient-33);}.cls-50{fill:url(#linear-gradient-34);}.cls-51{fill:url(#linear-gradient-35);}.cls-52{fill:url(#linear-gradient-36);}.cls-53{fill:url(#linear-gradient-37);}.cls-54{fill:url(#linear-gradient-38);}.cls-55{fill:#edad72;}.cls-56{fill:url(#linear-gradient-39);}.cls-57{fill:url(#linear-gradient-40);}.cls-58{fill:url(#linear-gradient-41);}.cls-59{fill:url(#linear-gradient-42);}.cls-60{fill:url(#linear-gradient-43);}.cls-61{fill:url(#linear-gradient-44);}.cls-62{fill:url(#linear-gradient-45);}.cls-63{fill:url(#linear-gradient-46);}.cls-64{fill:url(#linear-gradient-47);}.cls-65{fill:url(#linear-gradient-48);}.cls-66{fill:url(#linear-gradient-49);}.cls-67{fill:url(#linear-gradient-50);}.cls-68{fill:url(#linear-gradient-51);}.cls-69{fill:url(#linear-gradient-52);}.cls-70{fill:url(#linear-gradient-53);}.cls-71{fill:url(#linear-gradient-54);}.cls-72,.cls-77,.cls-83{opacity:0.94;}.cls-73{fill:#364eff;}.cls-74{fill:#f45914;}.cls-75{opacity:0.81;}.cls-76,.cls-77{fill:#ffc112;}.cls-78,.cls-79,.cls-80,.cls-81,.cls-83,.cls-85,.cls-86,.cls-87,.cls-88{stroke-linecap:round;}.cls-78,.cls-79,.cls-80,.cls-81,.cls-85,.cls-86,.cls-87,.cls-88{stroke-linejoin:round;stroke-width:2px;}.cls-78{stroke:url(#linear-gradient-55);}.cls-79{stroke:url(#linear-gradient-56);}.cls-80{stroke:url(#linear-gradient-57);}.cls-81{stroke:url(#linear-gradient-58);}.cls-82{fill:#19354c;}.cls-83{stroke:#f45914;}.cls-84{fill:url(#linear-gradient-59);}.cls-85{stroke:url(#linear-gradient-60);}.cls-86{stroke:url(#linear-gradient-61);}.cls-87{stroke:url(#linear-gradient-62);}.cls-88{stroke:url(#linear-gradient-63);}.cls-89{fill:url(#radial-gradient-2);}.cls-90{fill:url(#radial-gradient-3);}.cls-91{fill:url(#linear-gradient-64);}.cls-92{fill:url(#linear-gradient-65);}.cls-93{fill:url(#linear-gradient-66);}.cls-94{fill:url(#radial-gradient-4);}.cls-95{fill:url(#radial-gradient-5);}</style><linearGradient id="linear-gradient" x1="516.7" y1="248.2" x2="381.02" y2="292.97" gradientUnits="userSpaceOnUse"><stop offset="0" stop-opacity="0"/><stop offset="1" stop-opacity="0.2"/></linearGradient><linearGradient id="linear-gradient-2" x1="531" y1="220.62" x2="354.52" y2="113.42" xlink:href="#linear-gradient"/><linearGradient id="linear-gradient-3" x1="503.68" y1="135.56" x2="488.3" y2="133.12" gradientUnits="userSpaceOnUse"><stop offset="0" stop-opacity="0"/><stop offset="1" stop-opacity="0.1"/></linearGradient><linearGradient id="linear-gradient-4" x1="246.3" y1="205.5" x2="221.27" y2="250.65" gradientUnits="userSpaceOnUse"><stop offset="0" stop-color="#0011bf" stop-opacity="0.5"/><stop offset="1" stop-color="#fff" stop-opacity="0"/></linearGradient><linearGradient id="linear-gradient-5" x1="476.8" y1="213.37" x2="159.6" y2="213.37" gradientUnits="userSpaceOnUse"><stop offset="0" stop-color="#999"/><stop offset="0.48" stop-color="#dbd9e4"/><stop offset="0.59" stop-color="#e9e8f0"/></linearGradient><clipPath id="clip-path"><path class="cls-1" d="M472.92,128.43,337.48,206.76a37.59,37.59,0,0,1-37.53.06L164.73,129.22a10,10,0,0,1-.05-17.31L300.85,32.68a27.88,27.88,0,0,1,27.84-.12l144.2,82.28A7.83,7.83,0,0,1,472.92,128.43Z"/></clipPath><linearGradient id="linear-gradient-6" x1="557.2" y1="114.91" x2="337.29" y2="140.84" gradientUnits="userSpaceOnUse"><stop offset="0" stop-opacity="0.1"/><stop offset="1" stop-opacity="0.11"/></linearGradient><linearGradient id="linear-gradient-7" x1="203.16" y1="127.41" x2="431.88" y2="127.41" gradientUnits="userSpaceOnUse"><stop offset="0" stop-color="#e6e6e6"/><stop offset="0.41" stop-color="#e6e6e6"/><stop offset="0.52" stop-color="#ccc"/><stop offset="1" stop-color="#b3b3b3"/></linearGradient><linearGradient id="linear-gradient-8" x1="440.48" y1="78.8" x2="193.66" y2="78.8" gradientUnits="userSpaceOnUse"><stop offset="0" stop-color="#ccc"/><stop offset="0.48" stop-color="#e6e6e6"/><stop offset="0.59" stop-color="#e9e8f0"/><stop offset="1" stop-color="#e9e8f0"/></linearGradient><linearGradient id="linear-gradient-9" x1="436.65" y1="188.6" x2="396.34" y2="230.34" gradientUnits="userSpaceOnUse"><stop offset="0" stop-color="#ffffb9"/><stop offset="1" stop-color="#ffba63"/></linearGradient><linearGradient id="linear-gradient-10" x1="455.25" y1="253.26" x2="410.11" y2="253.26" gradientUnits="userSpaceOnUse"><stop offset="0" stop-color="#f7931e"/><stop offset="1" stop-color="#ffbb5a"/></linearGradient><linearGradient id="linear-gradient-11" x1="410.92" y1="250.27" x2="381.01" y2="250.27" gradientUnits="userSpaceOnUse"><stop offset="0" stop-color="#ffcd6a"/><stop offset="1" stop-color="#fff394"/></linearGradient><linearGradient id="linear-gradient-12" x1="409.01" y1="213.14" x2="400.7" y2="221.16" gradientUnits="userSpaceOnUse"><stop offset="0" stop-color="#3f1c00"/><stop offset="1" stop-color="#ffcd6a"/></linearGradient><radialGradient id="radial-gradient" cx="415.29" cy="200.18" r="2.28" gradientTransform="translate(-0.81 -0.65)" gradientUnits="userSpaceOnUse"><stop offset="0" stop-color="#bf3000"/><stop offset="1" stop-color="#2a0a00"/></radialGradient><linearGradient id="linear-gradient-13" x1="470.3" y1="301.39" x2="449.46" y2="298.08" xlink:href="#linear-gradient"/><linearGradient id="linear-gradient-14" x1="489.78" y1="291.03" x2="468.94" y2="287.72" xlink:href="#linear-gradient"/><linearGradient id="linear-gradient-15" x1="469.24" y1="217.34" x2="455.21" y2="217.34" gradientUnits="userSpaceOnUse"><stop offset="0" stop-color="#089"/><stop offset="1" stop-color="#00f4e6"/></linearGradient><linearGradient id="linear-gradient-16" x1="464.01" y1="279.4" x2="455.78" y2="287.92" gradientUnits="userSpaceOnUse"><stop offset="0" stop-color="#fff394"/><stop offset="1" stop-color="#ffba63"/></linearGradient><linearGradient id="linear-gradient-17" x1="444.99" y1="291.45" x2="437.48" y2="299.22" xlink:href="#linear-gradient-16"/><linearGradient id="linear-gradient-18" x1="450.25" y1="257.11" x2="462.38" y2="257.11" gradientUnits="userSpaceOnUse"><stop offset="0" stop-color="#156bff"/><stop offset="0.22" stop-color="#0d47b5"/><stop offset="1" stop-color="#000833"/></linearGradient><linearGradient id="linear-gradient-19" x1="453.66" y1="263.55" x2="430.92" y2="255.27" gradientUnits="userSpaceOnUse"><stop offset="0" stop-color="#000833"/><stop offset="1" stop-color="#156bff"/></linearGradient><linearGradient id="linear-gradient-20" x1="458.92" y1="197.32" x2="444.26" y2="197.32" gradientUnits="userSpaceOnUse"><stop offset="0" stop-color="#ff6300"/><stop offset="1" stop-color="#ffcd6a"/></linearGradient><linearGradient id="linear-gradient-21" x1="461.58" y1="186.83" x2="451.07" y2="186.83" xlink:href="#linear-gradient-20"/><linearGradient id="linear-gradient-22" x1="465.18" y1="183.75" x2="445.6" y2="183.75" gradientUnits="userSpaceOnUse"><stop offset="0" stop-color="#2a0b00"/><stop offset="1" stop-color="#7f1100"/></linearGradient><linearGradient id="linear-gradient-23" x1="466.44" y1="217.91" x2="435.59" y2="217.91" xlink:href="#linear-gradient-15"/><linearGradient id="linear-gradient-24" x1="414.16" y1="204.75" x2="408.22" y2="204.75" xlink:href="#linear-gradient-20"/><linearGradient id="linear-gradient-25" x1="439.53" y1="211.16" x2="411.7" y2="211.16" xlink:href="#linear-gradient-15"/><linearGradient id="linear-gradient-26" x1="432.82" y1="196.63" x2="433.3" y2="196.63" xlink:href="#linear-gradient-15"/><linearGradient id="linear-gradient-27" x1="441.81" y1="197.46" x2="441.84" y2="197.46" xlink:href="#linear-gradient-15"/><linearGradient id="linear-gradient-28" x1="440.69" y1="293.52" x2="433.85" y2="300.6" gradientUnits="userSpaceOnUse"><stop offset="0" stop-color="#6a6bff"/><stop offset="1" stop-color="#00003f"/></linearGradient><linearGradient id="linear-gradient-29" x1="459.11" y1="282.61" x2="452.06" y2="289.91" xlink:href="#linear-gradient-28"/><linearGradient id="linear-gradient-30" x1="222.04" y1="149.56" x2="220.48" y2="141.54" gradientUnits="userSpaceOnUse"><stop offset="0" stop-color="#00abe9"/><stop offset="1" stop-color="#1200ff"/></linearGradient><linearGradient id="linear-gradient-31" x1="228.27" y1="153.16" x2="226.72" y2="145.15" xlink:href="#linear-gradient-30"/><linearGradient id="linear-gradient-32" x1="234.59" y1="156.86" x2="233.03" y2="148.84" xlink:href="#linear-gradient-30"/><linearGradient id="linear-gradient-33" x1="240.83" y1="160.5" x2="239.27" y2="152.48" xlink:href="#linear-gradient-30"/><linearGradient id="linear-gradient-34" x1="247.13" y1="164.1" x2="245.57" y2="156.09" xlink:href="#linear-gradient-30"/><linearGradient id="linear-gradient-35" x1="253.38" y1="167.62" x2="251.82" y2="159.61" xlink:href="#linear-gradient-30"/><linearGradient id="linear-gradient-36" x1="259.44" y1="171.19" x2="257.88" y2="163.17" xlink:href="#linear-gradient-30"/><linearGradient id="linear-gradient-37" x1="265.4" y1="174.65" x2="263.84" y2="166.63" xlink:href="#linear-gradient-30"/><linearGradient id="linear-gradient-38" x1="271.47" y1="178.18" x2="269.91" y2="170.16" xlink:href="#linear-gradient-30"/><linearGradient id="linear-gradient-39" x1="591.74" y1="218.73" x2="567.82" y2="214.93" xlink:href="#linear-gradient-3"/><linearGradient id="linear-gradient-40" x1="634.76" y1="158.26" x2="608.36" y2="154.07" xlink:href="#linear-gradient-3"/><linearGradient id="linear-gradient-41" x1="667.53" y1="194.18" x2="652.99" y2="191.87" xlink:href="#linear-gradient-3"/><linearGradient id="linear-gradient-42" x1="399.09" y1="374.9" x2="344.87" y2="366.28" xlink:href="#linear-gradient-3"/><linearGradient id="linear-gradient-43" x1="674.17" y1="120.43" x2="658.2" y2="117.89" xlink:href="#linear-gradient-3"/><linearGradient id="linear-gradient-44" x1="400.03" y1="378.81" x2="376.12" y2="375.01" xlink:href="#linear-gradient-3"/><linearGradient id="linear-gradient-45" x1="358.41" y1="-6.49" x2="375.81" y2="-6.49" gradientTransform="matrix(1, 0, 0, -1, 0, 166.24)" xlink:href="#linear-gradient-30"/><linearGradient id="linear-gradient-46" x1="364.65" y1="-2.88" x2="382.05" y2="-2.88" gradientTransform="matrix(1, 0, 0, -1, 0, 166.24)" xlink:href="#linear-gradient-30"/><linearGradient id="linear-gradient-47" x1="370.96" y1="0.81" x2="388.36" y2="0.81" gradientTransform="matrix(1, 0, 0, -1, 0, 166.24)" xlink:href="#linear-gradient-30"/><linearGradient id="linear-gradient-48" x1="377.2" y1="4.45" x2="394.61" y2="4.45" gradientTransform="matrix(1, 0, 0, -1, 0, 166.24)" xlink:href="#linear-gradient-30"/><linearGradient id="linear-gradient-49" x1="383.5" y1="8.06" x2="400.9" y2="8.06" gradientTransform="matrix(1, 0, 0, -1, 0, 166.24)" xlink:href="#linear-gradient-30"/><linearGradient id="linear-gradient-50" x1="389.75" y1="11.58" x2="407.15" y2="11.58" gradientTransform="matrix(1, 0, 0, -1, 0, 166.24)" xlink:href="#linear-gradient-30"/><linearGradient id="linear-gradient-51" x1="395.81" y1="15.14" x2="413.21" y2="15.14" gradientTransform="matrix(1, 0, 0, -1, 0, 166.24)" xlink:href="#linear-gradient-30"/><linearGradient id="linear-gradient-52" x1="401.77" y1="18.6" x2="419.17" y2="18.6" gradientTransform="matrix(1, 0, 0, -1, 0, 166.24)" xlink:href="#linear-gradient-30"/><linearGradient id="linear-gradient-53" x1="407.84" y1="22.13" x2="425.24" y2="22.13" gradientTransform="matrix(1, 0, 0, -1, 0, 166.24)" xlink:href="#linear-gradient-30"/><linearGradient id="linear-gradient-54" x1="97.15" y1="336.3" x2="169.04" y2="336.3" gradientUnits="userSpaceOnUse"><stop offset="0" stop-opacity="0.2"/><stop offset="0.72" stop-opacity="0"/></linearGradient><linearGradient id="linear-gradient-55" x1="90.89" y1="320.27" x2="90.89" y2="284.48" gradientUnits="userSpaceOnUse"><stop offset="0" stop-color="#f2f2f2" stop-opacity="0"/><stop offset="1" stop-color="#f2f2f2" stop-opacity="0.7"/></linearGradient><linearGradient id="linear-gradient-56" x1="95.75" y1="298.19" x2="95.75" y2="281.22" gradientUnits="userSpaceOnUse"><stop offset="0" stop-color="#f2f2f2" stop-opacity="0.7"/><stop offset="1" stop-color="#f2f2f2" stop-opacity="0.7"/></linearGradient><linearGradient id="linear-gradient-57" x1="100.6" y1="294.76" x2="100.6" y2="277.89" xlink:href="#linear-gradient-56"/><linearGradient id="linear-gradient-58" x1="105.57" y1="314.21" x2="105.57" y2="274.72" xlink:href="#linear-gradient-55"/><linearGradient id="linear-gradient-59" x1="179.84" y1="289.75" x2="251.73" y2="289.75" xlink:href="#linear-gradient-54"/><linearGradient id="linear-gradient-60" x1="173.58" y1="273.72" x2="173.58" y2="237.93" xlink:href="#linear-gradient-55"/><linearGradient id="linear-gradient-61" x1="178.44" y1="251.64" x2="178.44" y2="234.66" xlink:href="#linear-gradient-56"/><linearGradient id="linear-gradient-62" x1="183.29" y1="248.21" x2="183.29" y2="231.33" xlink:href="#linear-gradient-56"/><linearGradient id="linear-gradient-63" x1="188.26" y1="267.65" x2="188.26" y2="228.17" xlink:href="#linear-gradient-55"/><radialGradient id="radial-gradient-2" cx="97.36" cy="283.53" r="30.19" gradientUnits="userSpaceOnUse"><stop offset="0" stop-color="#fff" stop-opacity="0.4"/><stop offset="1" stop-color="#f2f2f2" stop-opacity="0"/></radialGradient><radialGradient id="radial-gradient-3" cx="180.34" cy="236.27" r="30.19" xlink:href="#radial-gradient-2"/><linearGradient id="linear-gradient-64" x1="510.79" y1="102.04" x2="484.38" y2="97.84" xlink:href="#linear-gradient-3"/><linearGradient id="linear-gradient-65" x1="569.15" y1="102.14" x2="548.31" y2="98.83" xlink:href="#linear-gradient-3"/><linearGradient id="linear-gradient-66" x1="548.26" y1="60.21" x2="538.35" y2="58.64" xlink:href="#linear-gradient-3"/><radialGradient id="radial-gradient-4" cx="97.33" cy="284.01" r="62.23" xlink:href="#radial-gradient-2"/><radialGradient id="radial-gradient-5" cx="180.09" cy="238.55" r="62.23" xlink:href="#radial-gradient-2"/></defs><title>home-banner-1</title><g id="Layer_2" data-name="Layer 2"><g id="Layer_1-2" data-name="Layer 1"><polygon class="cls-2" points="542.48 303.29 410.47 294.64 426.28 214.44 605.13 222.39 542.48 303.29"/><polygon class="cls-3" points="580.88 323.44 318.5 307.29 602.28 76.28 736.35 129.61 580.88 323.44"/><polygon class="cls-4" points="186.66 229.59 171.77 191.69 180.57 154.92 248.25 180.19 247.8 225.53 186.66 229.59"/><path class="cls-5" d="M92.07,394.27s5.41,9.77,28.92-3.5,170.65-98.6,170.65-98.6l-22.75-10.62Z"/><path class="cls-6" d="M2.37,342.61l-.79-.46A4,4,0,0,0,2.37,342.61Z"/><path class="cls-7" d="M249.07,198.42l49.39,30.39-11.06,51.6L93.17,395.56,2.37,342.61l-.79-.46a4,4,0,0,1-1-1.18v0A4,4,0,0,1,2,335.5l199.85-116,44.31-25.44Z"/><line class="cls-8" x1="119.26" y1="373.61" x2="27.97" y2="319.9"/><line class="cls-8" x1="295.73" y1="271.94" x2="204.43" y2="218.23"/><line class="cls-8" x1="144.4" y1="358.95" x2="53.1" y2="305.24"/><line class="cls-8" x1="169.66" y1="344.4" x2="78.36" y2="290.69"/><line class="cls-8" x1="194.91" y1="329.7" x2="103.61" y2="275.99"/><line class="cls-8" x1="220.29" y1="314.97" x2="128.99" y2="261.27"/><line class="cls-8" x1="245.39" y1="300.46" x2="154.1" y2="246.75"/><line class="cls-8" x1="270.85" y1="285.71" x2="179.56" y2="232"/><line class="cls-8" x1="92.54" y1="389.69" x2="1.25" y2="335.99"/><path class="cls-6" d="M95.53,396.27a4,4,0,0,1-2-7.46l199.85-116a4,4,0,0,1,4,6.92l-199.85,116A4,4,0,0,1,95.53,396.27Z"/><path class="cls-5" d="M633.61,76.87s13.11,8.89-.32,16.93c-23.17,13.87-185.94,108.26-185.94,108.26l2.1-25Z"/><path class="cls-9" d="M633.3,80l1-.63c-.27-.47,1.44-1.21,1-1.52l-.78-.52-92-51.93h0a4,4,0,0,0-4.27-.18L339.75,140.09a4,4,0,1,0,4,6.92l4.89-2.84L338.6,191,388,221.42l2.91,4.33,44.31-25.44L633.61,82.25C635.52,81.15,634.39,81.94,633.3,80Z"/><path class="cls-6" d="M632.9,77.28a3.55,3.55,0,0,1,3.46,2c.73,2-.65,5-2.56,6.09L435.06,200.72a4,4,0,0,1-4-6.92l199.85-116A4,4,0,0,1,632.9,77.28Z"/><line class="cls-10" x1="630.3" y1="78.22" x2="538.31" y2="25.84"/><line class="cls-10" x1="478.97" y1="165.22" x2="387.67" y2="111.51"/><line class="cls-10" x1="504.23" y1="150.67" x2="412.24" y2="98.3"/><line class="cls-10" x1="529.48" y1="135.97" x2="437.49" y2="83.6"/><line class="cls-10" x1="554.86" y1="121.25" x2="462.87" y2="68.87"/><line class="cls-10" x1="579.96" y1="106.73" x2="487.98" y2="54.36"/><line class="cls-10" x1="605.42" y1="91.99" x2="513.44" y2="39.61"/><polygon class="cls-11" points="469.47 120.55 480.89 127.29 491.65 120.87 480.45 114.13 469.47 120.55"/><polygon class="cls-12" points="469.47 120.55 469.38 133.1 480.86 139.74 480.89 127.29 469.47 120.55"/><polygon class="cls-13" points="480.86 139.74 498.84 139.81 509.64 133.67 498.84 126.99 485.39 126.78 480.86 139.74"/><polygon class="cls-14" points="480.86 139.74 480.89 127.29 491.65 120.87 491.65 132.93 480.86 139.74"/><polygon class="cls-15" points="189.67 226.62 282.23 279.98 283.35 221.82 188.98 169.61 189.67 226.62"/><path class="cls-16" d="M395.26,165.75l-67.67-38.61a25.89,25.89,0,0,0-25.85.11L238.49,164,159.6,119.48l0,95.94a9.9,9.9,0,0,0,5,8.94l14.51,8.33,10.79-6.23V177.94a4,4,0,0,1,6-3.46l78.75,46.09A15.52,15.52,0,0,1,282.4,234l-.17,57.85,18.61,10.68a35.6,35.6,0,0,0,35.55-.06l136.44-78.9a7.76,7.76,0,0,0,3.9-7l.08-96Z"/><path class="cls-1" d="M472.92,128.43,337.48,206.76a37.59,37.59,0,0,1-37.53.06L164.73,129.22a10,10,0,0,1-.05-17.31L300.85,32.68a27.88,27.88,0,0,1,27.84-.12l144.2,82.28A7.83,7.83,0,0,1,472.92,128.43Z"/><g class="cls-17"><polygon class="cls-18" points="318.15 181.5 390.09 181.97 494.3 124.6 423.77 83.28 378.92 108.97 318.15 181.5"/></g><path class="cls-19" d="M203.16,77.52v37a6.33,6.33,0,0,0,3.21,5.44l102.38,58.77a19,19,0,0,0,19,0l101.35-58.61a5.58,5.58,0,0,0,2.81-5.15V73.54Z"/><path class="cls-20" d="M440.43,78.3l0-6.66-6.64-2.47-.3,2.47L325.57,10a21.62,21.62,0,0,0-21.59.09L197.67,72l-4-1.45-.05,7.69s0,.1,0,.15v.05h0a6.82,6.82,0,0,0,3.45,5.84l110.49,63.42a20.51,20.51,0,0,0,20.47,0L437.45,84.4A6,6,0,0,0,440.43,78.3Z"/><path class="cls-1" d="M437.45,77.2,328.08,140.45a20.51,20.51,0,0,1-20.47,0L197.12,77.07a6.89,6.89,0,0,1,0-11.94L304,2.93a21.62,21.62,0,0,1,21.59-.09L437.42,66.66A6.08,6.08,0,0,1,437.45,77.2Z"/><polygon class="cls-21" points="426.59 178.89 455.08 209.89 409.59 243.13 381.01 205.83 426.59 178.89"/><polygon class="cls-22" points="455.25 269.06 410.47 294.64 410.11 238.53 455.06 211.89 455.25 269.06"/><polygon class="cls-23" points="381.01 205.8 381.01 277.93 410.53 294.74 410.92 238.44 381.01 205.8"/><polygon class="cls-24" points="393.96 205.31 415.07 228.21 419.71 225.16 398.52 202.51 393.96 205.31"/><polygon class="cls-25" points="403.61 215.77 412.95 200.48 414.47 201.5 404.83 217.1 403.61 215.77"/><circle class="cls-26" cx="414.48" cy="199.53" r="2.28" transform="matrix(0.99, -0.13, 0.13, 0.99, -22.17, 54.8)"/><ellipse class="cls-27" cx="426.28" cy="205.69" rx="9.5" ry="8.75"/><ellipse class="cls-28" cx="426.32" cy="206" rx="7.51" ry="7.05"/><rect class="cls-29" x="441.13" y="296.02" width="36.53" height="7.28"/><rect class="cls-30" x="460.61" y="285.66" width="36.53" height="7.28"/><path class="cls-31" d="M461.06,198.12s18.69,24.34-.45,37.39C448.2,244,461.06,198.12,461.06,198.12Z"/><path class="cls-32" d="M457.91,280.87s.57,4.81-2.93,3.18,2.12,5.13,2.12,5.13l5.13-2a67.92,67.92,0,0,1-.73-9.53C461.66,274.36,457.91,280.87,457.91,280.87Z"/><path class="cls-33" d="M439.42,293.42s.41,2.28-2.69,1.87-1.06,3.42,2.69,4.81,4-2.28,4-2.28-1.06-6.19-.57-8.06S439.42,293.42,439.42,293.42Z"/><path class="cls-34" d="M450.25,248.6s5.32,33,9,35.13,3.46-16,2.4-20.22,2.26-30.6-2-33S450.25,248.6,450.25,248.6Z"/><path class="cls-35" d="M437,238.49s1.11,54.83,2.7,56.29,6-1.6,6.12-22.89,6.39-22.09,9.58-25.68,8-7.85,4.26-15.7S437,238.49,437,238.49Z"/><path class="cls-36" d="M444.26,196.65a4.08,4.08,0,0,0,3-5c-.74-4.25,5.27.74,5.27.74a3.87,3.87,0,0,0,4.57,3.42c4.11-.56-.13,9-.13,9l-12.38-3.51Z"/><path class="cls-37" d="M461.47,181.16s1.6,12.37-7.64,11.28S461.47,181.16,461.47,181.16Z"/><path class="cls-38" d="M448.65,192.8s-4.28-1.58-2.7-10,12.21-11.44,17.37-5.28-2,1.47-3.17,6.63S455.4,195,448.65,192.8Z"/><path class="cls-39" d="M435.59,238s14.9,7.16,24.86-5.2c12.11-15,3.18-37.59-3.32-37,0,0-4.92,9.11-12.87.87,0,0-9.69,1.45-8.38,13S435.59,238,435.59,238Z"/><path class="cls-40" d="M412.07,207.67s-4.49-.32-3.77-3.27,3.63-4.06,3.81-1.83,1.4.47,1.4.47,1.29.18.25,3.23S412.07,207.67,412.07,207.67Z"/><path class="cls-41" d="M427.55,211.31s-3.85,4.52-6.51,1.43-7.22-8.58-8.56-7.07-1.76,2.48,5.63,12.51,18.64.76,21-10.3c.82-3.84.32-6.36-.69-8A140.49,140.49,0,0,0,427.55,211.31Z"/><path class="cls-42" d="M433.3,196.66c-.3,0-.48,0-.48,0Z"/><path class="cls-43" d="M441.81,197.46h0Z"/><path class="cls-44" d="M438.83,295s-3.24.85.38,2.66,4-1.34,4-1.34,4.78,2.25,0,6.47c-3.45,3-6.84-3.15-11.19-4.49s-2.75-7.81,1-6.53A15.7,15.7,0,0,1,438.83,295Z"/><path class="cls-45" d="M457,284.19s-3.19.91.43,2.72,4.58-1.36,4.58-1.36,4.22,2.27-.56,6.49c-3.45,3-6.84-3.15-11.19-4.49s-2.75-7.81,1-6.53A15.69,15.69,0,0,1,457,284.19Z"/><polygon class="cls-46" points="211.37 149.54 213.67 150.92 230.88 140.18 228.53 138.7 211.37 149.54"/><polygon class="cls-47" points="217.6 153.15 219.91 154.52 237.12 143.78 234.76 142.31 217.6 153.15"/><polygon class="cls-48" points="223.92 156.84 226.22 158.22 243.44 147.48 241.08 146 223.92 156.84"/><polygon class="cls-49" points="230.16 160.48 232.46 161.86 249.68 151.12 247.32 149.64 230.16 160.48"/><polygon class="cls-50" points="236.45 164.09 238.76 165.47 255.97 154.73 253.62 153.25 236.45 164.09"/><polygon class="cls-51" points="242.71 167.61 245.01 168.99 262.23 158.25 259.87 156.77 242.71 167.61"/><polygon class="cls-52" points="248.76 171.17 251.07 172.55 268.29 161.81 265.93 160.33 248.76 171.17"/><polygon class="cls-53" points="254.72 174.63 257.03 176.01 274.24 165.27 271.89 163.79 254.72 174.63"/><polygon class="cls-54" points="260.8 178.16 263.1 179.54 280.32 168.8 277.96 167.32 260.8 178.16"/><path class="cls-55" d="M421.66,202.37l5.39,3.08s.65.95-.55,1Z"/><polygon class="cls-11" points="538.54 195.38 556.3 205.86 573.04 195.89 555.62 185.4 538.54 195.38"/><polygon class="cls-12" points="538.54 195.38 538.41 214.9 556.25 225.22 556.3 205.86 538.54 195.38"/><polygon class="cls-56" points="556.25 225.22 584.21 225.33 601 215.78 584.21 205.41 563.3 205.08 556.25 225.22"/><polygon class="cls-14" points="556.25 225.22 556.3 205.86 573.04 195.89 573.04 214.63 556.25 225.22"/><polygon class="cls-11" points="576.03 132.48 595.63 144.05 614.12 133.04 594.89 121.46 576.03 132.48"/><polygon class="cls-12" points="576.03 132.48 575.88 154.03 595.58 165.43 595.63 144.05 576.03 132.48"/><polygon class="cls-57" points="595.58 165.43 626.45 165.55 645 155 626.45 143.55 603.36 143.19 595.58 165.43"/><polygon class="cls-14" points="595.58 165.43 595.63 144.05 614.12 133.04 614.12 153.73 595.58 165.43"/><polygon class="cls-11" points="635.19 179.98 645.99 186.36 656.16 180.29 645.58 173.92 635.19 179.98"/><polygon class="cls-12" points="635.19 179.98 635.11 191.85 645.96 198.13 645.99 186.36 635.19 179.98"/><polygon class="cls-58" points="645.96 198.13 662.96 198.19 673.17 192.39 662.96 186.08 650.24 185.88 645.96 198.13"/><polygon class="cls-14" points="645.96 198.13 645.99 186.36 656.16 180.29 656.16 191.69 645.96 198.13"/><polygon class="cls-11" points="278.49 321.95 318.74 345.72 356.69 323.1 317.21 299.33 278.49 321.95"/><polygon class="cls-12" points="278.49 321.95 278.18 366.21 318.63 389.61 318.74 345.72 278.49 321.95"/><polygon class="cls-59" points="318.63 389.61 382.03 389.86 420.11 368.21 382.03 344.69 334.61 343.94 318.63 389.61"/><polygon class="cls-14" points="318.63 389.61 318.74 345.72 356.69 323.1 356.69 365.59 318.63 389.61"/><polygon class="cls-11" points="638.65 104.84 650.5 111.84 661.68 105.18 650.05 98.18 638.65 104.84"/><polygon class="cls-12" points="638.65 104.84 638.56 117.87 650.47 124.76 650.5 111.84 638.65 104.84"/><polygon class="cls-60" points="650.47 124.76 669.14 124.84 680.36 118.46 669.14 111.53 655.18 111.31 650.47 124.76"/><polygon class="cls-14" points="650.47 124.76 650.5 111.84 661.68 105.18 661.68 117.69 650.47 124.76"/><polygon class="cls-11" points="346.84 355.46 364.59 365.94 381.33 355.96 363.92 345.48 346.84 355.46"/><polygon class="cls-12" points="346.84 355.46 346.71 374.98 364.55 385.3 364.59 365.94 346.84 355.46"/><polygon class="cls-61" points="364.55 385.3 392.51 385.41 409.3 375.86 392.51 365.49 371.59 365.16 364.55 385.3"/><polygon class="cls-14" points="364.55 385.3 364.59 365.94 381.33 355.96 381.33 374.71 364.55 385.3"/><polygon class="cls-62" points="358.96 168 361.26 166.62 378.48 177.36 376.12 178.84 358.96 168"/><polygon class="cls-63" points="365.2 164.4 367.5 163.02 384.72 173.76 382.36 175.24 365.2 164.4"/><polygon class="cls-64" points="371.51 160.7 373.82 159.32 391.03 170.06 388.68 171.54 371.51 160.7"/><polygon class="cls-65" points="377.75 157.06 380.06 155.68 397.27 166.42 394.92 167.9 377.75 157.06"/><polygon class="cls-66" points="384.05 153.46 386.35 152.08 403.57 162.81 401.21 164.29 384.05 153.46"/><polygon class="cls-67" points="390.3 149.94 392.61 148.56 409.82 159.29 407.47 160.78 390.3 149.94"/><polygon class="cls-68" points="396.36 146.37 398.67 144.99 415.88 155.73 413.52 157.21 396.36 146.37"/><polygon class="cls-69" points="402.32 142.91 404.62 141.53 421.84 152.27 419.48 153.75 402.32 142.91"/><polygon class="cls-70" points="408.39 139.38 410.69 138 427.91 148.74 425.56 150.22 408.39 139.38"/><polygon class="cls-71" points="97.15 347.1 143.62 348.34 192.09 324.27 109.38 327.93 97.15 347.1"/><g class="cls-72"><path class="cls-73" d="M97.18,330c-12,0-21.72-5.23-21.72-11.65s9.75-11.65,21.72-11.65,21.72,5.23,21.72,11.65v.26c-.13.56-.25,1.22-.36,1.88C116.68,325.93,107.69,330,97.18,330Z"/><path class="cls-74" d="M97.18,307.16c11.5,0,21.22,5.11,21.22,11.15,0,0,0,.08,0,.12v0c-.12.55-.23,1.13-.34,1.83-1.84,5.24-10.79,9.18-20.87,9.18-11.5,0-21.22-5.11-21.22-11.15s9.72-11.15,21.22-11.15m0-1c-12.27,0-22.22,5.44-22.22,12.15s10,12.15,22.22,12.15c10.89,0,19.94-4.28,21.85-9.93.11-.65.22-1.3.36-1.94,0-.09,0-.19,0-.28,0-6.71-10-12.15-22.22-12.15Z"/></g><g class="cls-75"><path class="cls-76" d="M97.2,306.17c-12.27,0-22.22,5.44-22.22,12.15s10,12.15,22.22,12.15c10.89,0,19.94-4.28,21.85-9.93.11-.65.22-1.3.36-1.94,0-.09,0-.19,0-.28C119.42,311.61,109.47,306.17,97.2,306.17Z"/></g><path class="cls-77" d="M97.18,247.43a36,36,0,0,0-29.68,56.5q.92,1.33,2,2.57a35.84,35.84,0,0,1,5.58,13h0a6.78,6.78,0,0,1-.1-1.14c0-6.71,10-12.15,22.22-12.15s22.22,5.44,22.22,12.15c0,.09,0,.19,0,.28a35.89,35.89,0,0,1,4.12-10.51,36,36,0,0,0-26.33-60.65Z"/><path class="cls-78" d="M93.33,288.55c-.38-1.78-1.18-3-2.15-3.07-1.41-.05-2.62,2.42-2.71,5.52v10s-.26,4.29,1.34,6.21,2.59,3.15,2.59,12"/><path class="cls-79" d="M93.33,288.55v0c0-.27,0-.53,0-.81.09-3.1,1.3-5.57,2.71-5.52,1,0,1.8,1.33,2.17,3.16"/><path class="cls-80" d="M103,281.91c-.38-1.76-1.18-3-2.14-3-1.41-.05-2.62,2.42-2.71,5.52,0,.33,0,.66,0,1v8.38"/><path class="cls-81" d="M103.49,313.21c-.07-1.53-.46-9.82,2.19-14.74s2.44-7.84,2.44-7.84v-9.2c.09-3.1-1-5.66-2.39-5.72s-2.62,2.42-2.71,5.52c0,.23,0,.45,0,.67v0"/><path class="cls-82" d="M97.31,346.59a13.28,13.28,0,0,1-7.24-2.14l-9.15-5.94a10.06,10.06,0,0,1-4.6-8.47v-4.41q0-1.26-.19-2.54c3.4,4.66,11.62,7.88,21.06,7.88s17.57-3.16,21-7.81c-.07.72-.11,1.44-.13,2.15h0v4.8a10.07,10.07,0,0,1-4.53,8.42l-8.87,5.87A13.27,13.27,0,0,1,97.31,346.59Z"/><path class="cls-74" d="M76.76,324.61c4,4.12,11.68,6.86,20.42,6.86s16.38-2.7,20.36-6.79v5.42a9.57,9.57,0,0,1-4.3,8L104.37,344a12.8,12.8,0,0,1-14,.06l-9.15-5.94a9.56,9.56,0,0,1-4.37-8v-4.44q0-.49-.05-1m-1.64-4.86h0a36.08,36.08,0,0,1,.72,5.88V330a10.59,10.59,0,0,0,4.83,8.89l9.15,5.94a13.8,13.8,0,0,0,15.13-.07l8.87-5.87a10.59,10.59,0,0,0,4.75-8.84v-3.76h0a36.11,36.11,0,0,1,.48-5.8c-1.91,5.65-11,9.93-21.85,9.93-11.39,0-20.77-4.68-22.07-10.72Z"/><path class="cls-83" d="M76.27,323.74c0,6.32,9.36,11.43,20.91,11.43,10.24,0,18.76-4,20.56-9.35.1-.61.21-1.22.34-1.83,0-.09,0-.17,0-.26"/><path class="cls-83" d="M76.33,326.94c0,6.32,9.36,11.43,20.91,11.43,10.24,0,18.76-4,20.56-9.35a4.71,4.71,0,0,0,.29-1.85c0-.09,0-.17,0-.26"/><path class="cls-83" d="M76.3,330.66c0,6.32,9.36,11.43,20.91,11.43,10.24,0,18.76-4,20.56-9.35a3.92,3.92,0,0,0,.25-1.86c0-.09,0-.14,0-.23"/><polygon class="cls-84" points="179.84 300.54 226.31 301.78 274.77 277.71 192.06 281.38 179.84 300.54"/><g class="cls-72"><path class="cls-73" d="M179.87,283.41c-12,0-21.72-5.23-21.72-11.65s9.75-11.65,21.72-11.65,21.72,5.23,21.72,11.65V272c-.13.56-.25,1.22-.36,1.88C199.37,279.38,190.38,283.41,179.87,283.41Z"/><path class="cls-74" d="M179.87,260.61c11.5,0,21.22,5.11,21.22,11.15,0,0,0,.08,0,.12v0c-.12.55-.23,1.13-.34,1.83-1.84,5.24-10.79,9.18-20.87,9.18-11.5,0-21.22-5.11-21.22-11.15s9.72-11.15,21.22-11.15m0-1c-12.27,0-22.22,5.44-22.22,12.15s10,12.15,22.22,12.15c10.89,0,19.94-4.28,21.85-9.93.11-.65.22-1.3.36-1.94,0-.09,0-.19,0-.28,0-6.71-10-12.15-22.22-12.15Z"/></g><g class="cls-75"><path class="cls-76" d="M179.89,259.61c-12.27,0-22.22,5.44-22.22,12.15s10,12.15,22.22,12.15c10.89,0,19.94-4.28,21.85-9.93.11-.65.22-1.3.36-1.94,0-.09,0-.19,0-.28C202.11,265.05,192.16,259.61,179.89,259.61Z"/></g><path class="cls-77" d="M179.87,200.87a36,36,0,0,0-29.68,56.5q.92,1.33,2,2.57a35.84,35.84,0,0,1,5.58,13h0a6.78,6.78,0,0,1-.1-1.14c0-6.71,10-12.15,22.22-12.15S202.1,265,202.1,271.76c0,.09,0,.19,0,.28a35.89,35.89,0,0,1,4.12-10.51,36,36,0,0,0-26.33-60.65Z"/><path class="cls-85" d="M176,242c-.38-1.78-1.18-3-2.15-3.07-1.41-.05-2.62,2.42-2.71,5.52v10s-.26,4.29,1.34,6.21,2.59,3.15,2.59,12"/><path class="cls-86" d="M176,242v0c0-.27,0-.53,0-.81.09-3.1,1.3-5.57,2.71-5.52,1,0,1.8,1.33,2.17,3.16"/><path class="cls-87" d="M185.72,235.35c-.38-1.76-1.18-3-2.14-3-1.41-.05-2.62,2.42-2.71,5.52,0,.33,0,.66,0,1v8.38"/><path class="cls-88" d="M186.18,266.65c-.07-1.53-.46-9.82,2.19-14.74s2.44-7.84,2.44-7.84v-9.2c.09-3.1-1-5.66-2.39-5.72s-2.62,2.42-2.71,5.52c0,.23,0,.45,0,.67v0"/><path class="cls-82" d="M180,300a13.28,13.28,0,0,1-7.24-2.14l-9.15-5.94a10.06,10.06,0,0,1-4.6-8.47v-4.41q0-1.26-.19-2.54c3.4,4.66,11.62,7.88,21.06,7.88s17.57-3.16,21-7.81c-.08.82-.12,1.63-.14,2.44h0v4.5a10.07,10.07,0,0,1-4.53,8.42l-8.87,5.87A13.27,13.27,0,0,1,180,300Z"/><path class="cls-74" d="M159.45,278c4,4.12,11.68,6.86,20.42,6.86s16.38-2.7,20.36-6.79v5.42a9.57,9.57,0,0,1-4.3,8l-8.87,5.87a12.8,12.8,0,0,1-14,.06l-9.15-5.94a9.56,9.56,0,0,1-4.37-8V279q0-.49-.05-1m-1.64-4.86h0a36.09,36.09,0,0,1,.72,5.88v4.41a10.59,10.59,0,0,0,4.83,8.89l9.15,5.94a13.8,13.8,0,0,0,15.13-.07l8.87-5.87a10.59,10.59,0,0,0,4.75-8.84v-3.76h0a36.11,36.11,0,0,1,.48-5.8c-1.91,5.65-11,9.93-21.85,9.93-11.39,0-20.77-4.68-22.07-10.72Z"/><path class="cls-83" d="M159,277.18c0,6.32,9.36,11.43,20.91,11.43,10.24,0,18.76-4,20.56-9.35.1-.61.21-1.22.34-1.83,0-.09,0-.17,0-.26"/><path class="cls-83" d="M159,280.38c0,6.32,9.36,11.43,20.91,11.43,10.24,0,18.76-4,20.56-9.35a4.71,4.71,0,0,0,.29-1.85c0-.09,0-.17,0-.26"/><path class="cls-83" d="M159,284.11c0,6.32,9.36,11.43,20.91,11.43,10.24,0,18.76-4,20.56-9.35a3.92,3.92,0,0,0,.25-1.86c0-.09,0-.14,0-.23"/><circle class="cls-89" cx="97.36" cy="283.53" r="30.19"/><circle class="cls-90" cx="180.34" cy="236.27" r="30.19"/><polygon class="cls-11" points="452.06 76.25 471.66 87.83 490.14 76.81 470.91 65.24 452.06 76.25"/><polygon class="cls-12" points="452.06 76.25 451.91 97.81 471.61 109.2 471.66 87.83 452.06 76.25"/><polygon class="cls-91" points="471.61 109.2 502.48 109.33 521.02 98.78 502.48 87.33 479.39 86.96 471.61 109.2"/><polygon class="cls-14" points="471.61 109.2 471.66 87.83 490.14 76.81 490.14 97.51 471.61 109.2"/><polygon class="cls-11" points="522.77 81.65 538.25 90.86 552.85 82.1 537.66 72.89 522.77 81.65"/><polygon class="cls-12" points="522.77 81.65 522.65 98.8 538.21 107.86 538.25 90.86 522.77 81.65"/><polygon class="cls-92" points="538.21 107.86 562.59 107.96 577.24 99.57 562.59 90.46 544.35 90.17 538.21 107.86"/><polygon class="cls-14" points="538.21 107.86 538.25 90.86 552.85 82.1 552.85 98.56 538.21 107.86"/><polygon class="cls-11" points="526.23 50.54 533.58 54.88 540.51 50.75 533.3 46.41 526.23 50.54"/><polygon class="cls-12" points="526.23 50.54 526.17 58.63 533.56 62.9 533.58 54.88 526.23 50.54"/><polygon class="cls-93" points="533.56 62.9 545.14 62.95 552.1 58.99 545.14 54.7 536.48 54.56 533.56 62.9"/><polygon class="cls-14" points="533.56 62.9 533.58 54.88 540.51 50.75 540.51 58.51 533.56 62.9"/><circle class="cls-94" cx="97.33" cy="284.01" r="62.23"/><circle class="cls-95" cx="180.09" cy="238.55" r="62.23"/></g></g></svg>