<svg xmlns="http://www.w3.org/2000/svg" xmlns:xlink="http://www.w3.org/1999/xlink" width="508.206" height="457.066" viewBox="0 0 508.206 457.066"><defs><linearGradient id="a" x1="1.048" y1="-0.181" x2="1.048" y2="0.819" gradientUnits="objectBoundingBox"><stop offset="0" stop-color="gray" stop-opacity="0.251"/><stop offset="0.54" stop-color="gray" stop-opacity="0.122"/><stop offset="1" stop-color="gray" stop-opacity="0.102"/></linearGradient><linearGradient id="b" x1="0.5" y1="-2.617" x2="0.5" y2="-1.617" xlink:href="#a"/><linearGradient id="c" x1="0.5" y1="-1.704" x2="0.5" y2="-0.704" xlink:href="#a"/><linearGradient id="d" x1="0.5" y1="1.654" x2="0.5" y2="2.654" xlink:href="#a"/></defs><g transform="translate(26.572 0.03)"><g transform="translate(108.572 -0.03)" opacity="0.7"><path d="M283.014,245.132l-.41-.1V229.347a83.456,83.456,0,0,0,62.326-67.394h.2c4.005,0,7.247-6.088,7.247-13.591,0-4.658-1.249-8.76-3.151-11.21q.43-4.3.437-8.725a86.766,86.766,0,0,0-26.808-62.812A55.9,55.9,0,0,0,316.7,49.087c-6.178-10.884-16.458-22.212-12.265-34.013l-27.141,2.777L277.045-.03C268.576,1.49,265.029,11.305,260,18.3c-12.085,16.812-36.338,19.151-52.379,32.243-5.449,4.449-17.707,17.978-15.4,26.849a87.023,87.023,0,0,0-16.111,59.765c-1.9,2.45-3.151,6.553-3.151,11.21,0,7.511,3.249,13.591,7.247,13.591h.2a83.456,83.456,0,0,0,62.326,67.394v15.687l-.41.1c-9.343-1.09-103.634-8.288-82.956,146.782l12.682,46.757,2.825-.111a19.936,19.936,0,0,0,39.142,3.547c17.957-.062,38.24-.118,48.589-.118s30.667.062,48.59.118a19.936,19.936,0,0,0,39.177-3.547l2.825.111,12.682-46.757C386.656,236.844,292.357,244.042,283.014,245.132Z" transform="translate(-156.413 0.03)" fill="url(#a)"/></g><rect width="448.141" height="15.188" transform="translate(0 433.937)" fill="#e0e0e0"/><rect width="410.158" height="6.213" transform="translate(18.992 449.131)" fill="#e0e0e0"/><rect width="410.158" height="2.069" transform="translate(18.992 449.131)" opacity="0.1" style="isolation:isolate"/><path d="M193.4,622.973s60.133-.236,80.582-.236,80.582.236,80.582.236V614.22H193.4Z" transform="translate(-59.154 -187.877)" opacity="0.1" style="isolation:isolate"/><path d="M354.574,540.056s-60.133-.236-80.582-.236-80.582.236-80.582.236v-110.6a80.582,80.582,0,0,1,80.575-80.582h0a80.582,80.582,0,0,1,80.589,80.575V540.056Z" transform="translate(-59.157 -106.716)" fill="#56fde4"/><path d="M293.374,290.83h15.271a11.634,11.634,0,0,1,11.634,11.634h0v32.159a19.27,19.27,0,0,1-19.269,19.269h0a19.27,19.27,0,0,1-19.269-19.269h0V302.464a11.634,11.634,0,0,1,11.634-11.634Z" transform="translate(-86.174 -88.964)" fill="#fdb797"/><path d="M281.73,320.8a80.644,80.644,0,0,0,38.538,0V293.35H281.73Z" transform="translate(-86.171 -89.734)" opacity="0.1" style="isolation:isolate"/><circle cx="84.088" cy="84.088" r="84.088" transform="translate(130.747 47.706)" fill="#333"/><circle cx="80.582" cy="80.582" r="80.582" transform="translate(134.253 70.48)" fill="#fdb797"/><path d="M226.153,59.871c15.5-12.654,38.948-14.91,50.63-31.167,4.859-6.754,8.281-16.243,16.472-17.714l.243,17.284,26.231-2.693c-4.047,11.4,5.886,22.372,11.856,32.888a54.1,54.1,0,0,1,7,25.461c-9.107,5.47-20.4-.5-30.542-3.686-9.857-3.1-20.331-3.415-30.66-3.707-5.3-.153-10.655-.292-15.826.868-4.533,1.02-8.774,3.013-13.064,4.81-6.976,2.922-29.008,13.945-35.491,6.837C205.662,80.994,220.17,64.758,226.153,59.871Z" transform="translate(-64.53 -3.371)" fill="#333"/><path d="M233.63,138.8c4.276,2.589,9.3,3.61,14.251,4.29a125.537,125.537,0,0,0,61.16-6.872c3.193,8.094,10.988,13.654,19.276,16.3s17.138,2.777,25.836,2.881c1.916,0,3.97,0,5.553-1.062,3.873-2.617,2-8.607-.257-12.7L348.225,121.31c-3.318-6.011-6.733-12.147-11.87-16.7-6.442-5.7-14.993-8.371-23.427-10.058a132.114,132.114,0,0,0-60.14,2.006C231.811,102.2,204.865,121.393,233.63,138.8Z" transform="translate(-67.627 -28.152)" opacity="0.1" style="isolation:isolate"/><path d="M233.63,136.27c4.276,2.589,9.3,3.61,14.251,4.29a125.537,125.537,0,0,0,61.16-6.872c3.193,8.094,10.988,13.654,19.276,16.3s17.138,2.777,25.836,2.881c1.916,0,3.97,0,5.553-1.062,3.873-2.617,2-8.607-.257-12.7L348.225,118.75c-3.318-6.011-6.733-12.147-11.87-16.7-6.442-5.7-14.993-8.371-23.427-10.058A132.114,132.114,0,0,0,252.788,94C231.811,99.661,204.865,118.854,233.63,136.27Z" transform="translate(-67.627 -27.369)" fill="#333"/><ellipse cx="7.011" cy="13.14" rx="7.011" ry="13.14" transform="translate(287.532 137.923)" fill="#fdb797"/><ellipse cx="7.011" cy="13.14" rx="7.011" ry="13.14" transform="translate(128.117 137.923)" fill="#fdb797"/><path d="M336.79,352.293S438.717,336.419,417.7,494.085l-12.258,45.2-35.04-1.388s22.775-52.553,8.76-87.593S336.79,352.293,336.79,352.293Z" transform="translate(-103.012 -107.627)" fill="#56fde4"/><path d="M245.293,352.293s-101.9-15.875-80.908,141.791l12.258,45.2,35.04-1.388s-22.775-52.553-8.76-87.593S245.293,352.293,245.293,352.293Z" transform="translate(-49.408 -107.627)" fill="#56fde4"/><path d="M217.761,452.58s-7.011,54.143,5.255,69.906" transform="translate(-65.995 -138.437)" opacity="0.1" style="isolation:isolate"/><path d="M398.035,454.58s7.011,52.754-5.255,68.518" transform="translate(-120.137 -139.049)" opacity="0.1" style="isolation:isolate"/><circle cx="19.269" cy="19.269" r="19.269" transform="translate(261.217 410.864)" fill="#fdb797"/><circle cx="19.269" cy="19.269" r="19.269" transform="translate(129.908 410.864)" fill="#fdb797"/><g transform="translate(151.349 319.987)" opacity="0.7"><rect width="126.867" height="112.45" rx="21.34" fill="url(#b)"/></g><rect width="122.168" height="108.285" rx="21.34" transform="translate(153.696 322.07)" fill="#e0e0e0"/><path d="M272.96,568.005v-8.128a.805.805,0,0,0-.783-.827.851.851,0,0,0-.133.008,8.7,8.7,0,0,0-3.353.743v8.184H266.4V552.936h2.284v4.97a10.909,10.909,0,0,1,3.672-.743c2.082,0,2.853,1.277,2.853,3.026V568h-2.263Zm6.532-4.914c.076,2.721.611,3.255,2.284,3.255a11.811,11.811,0,0,0,3.943-.875l.382,1.715a10.673,10.673,0,0,1-4.47,1.083c-3.811,0-4.4-2.082-4.4-5.428a18.1,18.1,0,0,1,.569-5,13.062,13.062,0,0,1,4.588-.694c3.124,0,4.075,1.735,4.075,4.762v1.159h-6.941Zm2.895-4.019a15.3,15.3,0,0,0-2.665.187,12.12,12.12,0,0,0-.25,2.249h4.762C284.232,559.926,283.948,559.072,282.386,559.072Zm8.33.743V568h-2.284v-9.211a13.2,13.2,0,0,1,5.3-1.465v1.9a9.732,9.732,0,0,0-3.006.59Zm9.024,8.455c-3.408,0-4.949-1.673-4.949-5.5,0-4.054,2.034-5.595,4.949-5.595,3.408,0,4.949,1.673,4.949,5.5C304.689,566.728,302.648,568.269,299.739,568.269Zm0-9.2c-1.749,0-2.721,1.007-2.721,3.693,0,2.929.819,3.582,2.721,3.582,1.749,0,2.721-.993,2.721-3.672,0-2.929-.819-3.6-2.721-3.6ZM315.7,568h-2.686a14.884,14.884,0,0,0-2.853-4.859h-1.2V568h-2.235V552.936h2.284v8.642h1.069a13.9,13.9,0,0,0,2.686-4.165h2.568a17.873,17.873,0,0,1-3.255,4.609,32.28,32.28,0,0,1,3.672,5.956Zm4.283.264c-2.082,0-2.853-1.277-2.853-3.026v-7.8H319.4v8.094a.806.806,0,0,0,.784.827.835.835,0,0,0,.133-.008,9.241,9.241,0,0,0,3.471-.743v-8.17H326.1v9.176a12.113,12.113,0,0,1-6.06,1.652ZM318.981,549.1H273.466a7.053,7.053,0,0,1-7.066-7.039V482.182a7.053,7.053,0,0,1,7.052-7.052h45.556a7.059,7.059,0,0,1,7.087,7.032v59.89a7.053,7.053,0,0,1-7.052,7.052h-.007Z" transform="translate(-81.482 -145.334)" fill="#6762a6"/><path d="M309.9,543.369V513.993s1.909-7.032-23.538,2.874c-.049.125-.049-27.168-.049-27.168l8.33-.049v17.485s23.281-9.17,23.281,6.941v29.279H309.9Zm4.741-43.141h-8.829c3.172-3.88,6.046-10.53,6.046-10.53h9.121a43.672,43.672,0,0,1-6.351,10.53Zm-28.175,43.085V526.585l8.364,8.364Z" transform="translate(-87.572 -149.776)" fill="#fff"/><g transform="translate(-26.572 190.621)" opacity="0.7"><rect width="126.867" height="112.45" rx="21.34" fill="url(#c)"/></g><rect width="122.168" height="108.285" rx="21.34" transform="translate(-26.225 187.704)" fill="#e0e0e0"/><path d="M731.415,446.652a10.058,10.058,0,0,0,.368,2.957A17.84,17.84,0,0,0,732.845,452a1.444,1.444,0,0,1,.236.764,1.318,1.318,0,0,1-.632,1l-2.082,1.388a1.6,1.6,0,0,1-.868.3,1.526,1.526,0,0,1-1-.465,10.269,10.269,0,0,1-1.194-1.562,16.916,16.916,0,0,1-1.027-1.964,12.28,12.28,0,0,1-9.773,4.588,9.138,9.138,0,0,1-6.65-2.395,9.378,9.378,0,0,1,.562-13.23,12.091,12.091,0,0,1,8.142-2.6,26.408,26.408,0,0,1,3.526.264c1.229.167,2.492.43,3.825.729v-2.429c0-2.527-.534-4.29-1.562-5.317s-2.86-1.527-5.421-1.527a15.1,15.1,0,0,0-3.589.43,26.506,26.506,0,0,0-3.589,1.131,9.545,9.545,0,0,1-1.166.43,2.026,2.026,0,0,1-.535.1c-.465,0-.694-.333-.694-1.027v-1.631a2.087,2.087,0,0,1,.236-1.166,2.494,2.494,0,0,1,.93-.694,19.144,19.144,0,0,1,4.165-1.5,20.156,20.156,0,0,1,5.185-.632c3.957,0,6.851.9,8.711,2.693s2.777,4.519,2.777,8.177v10.794Zm-13.494,5.053a10.78,10.78,0,0,0,3.422-.6,7.405,7.405,0,0,0,3.158-2.131,5.277,5.277,0,0,0,1.131-2.131,11.923,11.923,0,0,0,.333-2.895v-1.388a27.757,27.757,0,0,0-3.061-.562,25.128,25.128,0,0,0-3.124-.2,7.642,7.642,0,0,0-4.956,1.333,4.748,4.748,0,0,0,3.089,8.58Zm26.7,3.589a1.852,1.852,0,0,1-1.263-.333,2.7,2.7,0,0,1-.694-1.3l-7.809-25.683a5.8,5.8,0,0,1-.3-1.333.729.729,0,0,1,.8-.833h3.255a1.84,1.84,0,0,1,1.3.333,2.721,2.721,0,0,1,.694,1.3l5.553,22.011,5.185-22.011a2.329,2.329,0,0,1,.632-1.3,2.285,2.285,0,0,1,1.333-.333h2.659a2,2,0,0,1,1.333.333,2.242,2.242,0,0,1,.632,1.3l5.255,22.275,5.754-22.275a2.854,2.854,0,0,1,.694-1.3,2.164,2.164,0,0,1,1.3-.333h3.089a.736.736,0,0,1,.833.623.759.759,0,0,1,0,.21,3.292,3.292,0,0,1-.069.534,4.687,4.687,0,0,1-.236.833l-8.01,25.683a2.547,2.547,0,0,1-.694,1.3,2.126,2.126,0,0,1-1.263.333h-2.86a2,2,0,0,1-1.333-.333,2.355,2.355,0,0,1-.632-1.333l-5.15-21.442-5.123,21.407a2.589,2.589,0,0,1-.632,1.333,2.079,2.079,0,0,1-1.333.333Zm42.717.9a21.992,21.992,0,0,1-5.123-.6,15.128,15.128,0,0,1-3.825-1.333,2.39,2.39,0,0,1-1.027-.93,2.345,2.345,0,0,1-.2-.93v-1.694c0-.694.264-1.027.764-1.027a1.877,1.877,0,0,1,.6.1c.2.069.5.2.833.333a18.09,18.09,0,0,0,3.658,1.166,19.982,19.982,0,0,0,3.957.4,8.968,8.968,0,0,0,4.859-1.1,3.582,3.582,0,0,0,1.728-3.158,3.234,3.234,0,0,0-.9-2.325,8.323,8.323,0,0,0-3.36-1.728l-4.852-1.5a10.1,10.1,0,0,1-5.317-3.394,7.924,7.924,0,0,1-1.659-4.817,7.4,7.4,0,0,1,.9-3.693,8.544,8.544,0,0,1,2.395-2.728,10.551,10.551,0,0,1,3.471-1.728,14.492,14.492,0,0,1,4.165-.562,16.6,16.6,0,0,1,2.228.132c.764.1,1.465.236,2.159.368a13.879,13.879,0,0,1,1.9.534,7.221,7.221,0,0,1,1.388.6,2.878,2.878,0,0,1,1,.833,1.792,1.792,0,0,1,.3,1.1v1.562c0,.694-.264,1.062-.764,1.062a3.461,3.461,0,0,1-1.263-.4,15.2,15.2,0,0,0-6.386-1.3,8.581,8.581,0,0,0-4.422.93,3.207,3.207,0,0,0-1.562,2.957,3.137,3.137,0,0,0,1,2.36,9.93,9.93,0,0,0,3.658,1.826l4.72,1.5a10.05,10.05,0,0,1,5.15,3.193,7.524,7.524,0,0,1,1.527,4.658,8.542,8.542,0,0,1-.868,3.859,8.942,8.942,0,0,1-2.429,2.922,10.719,10.719,0,0,1-3.693,1.86,15.788,15.788,0,0,1-4.755.694Z" transform="translate(-718.366 -212.983)" fill="#252f3e"/><path d="M791.791,489.622c-10.94,8.08-26.828,12.37-40.489,12.37a73.251,73.251,0,0,1-49.436-18.853c-1.027-.93-.1-2.193,1.131-1.465a98.18,98.18,0,0,0,87.2,5.421c1.826-.833,3.394,1.194,1.6,2.527Z" transform="translate(-716.541 -230.27)" fill="#f90"/><path d="M832.133,483.586c-1.388-1.8-9.239-.868-12.8-.43-1.062.132-1.229-.8-.264-1.5,6.247-4.387,16.521-3.124,17.721-1.659s-.333,11.8-6.185,16.659c-.9.764-1.763.368-1.388-.632C830.571,492.756,833.528,485.342,832.133,483.586Z" transform="translate(-752.329 -229.405)" fill="#f90"/><g transform="translate(354.768 118.816)" opacity="0.7"><rect width="126.867" height="112.45" rx="21.34" fill="url(#d)"/></g><rect width="122.168" height="108.285" rx="21.34" transform="translate(357.114 120.899)" fill="#e0e0e0"/><path d="M632.693,211.549,616.27,183.09l16.423-28.46h32.84l16.423,28.46-16.423,28.46h-32.84" transform="translate(-231.495 -8.305)" fill="#cac9c2"/><path d="M658.76,203.08a12.8,12.8,0,1,1,12.8-12.8,12.8,12.8,0,0,1-12.8,12.8" transform="translate(-240.576 -15.294)" fill="#fff"/><path d="M673.6,139.542a7.033,7.033,0,0,0-5.491-3.172H627.639a7.033,7.033,0,0,0-5.491,3.172l-11.8,20.477a6.729,6.729,0,0,0,.736,3.714l8,13.681,14.285-24.683h45.16a6.6,6.6,0,0,1,3.3,1.041l-8.219-14.237" transform="translate(-229.675 -2.72)" fill="#5072aa"/><path d="M610.829,169.157l-.521.9a6.729,6.729,0,0,0,.736,3.714l8,13.681,4.255-7.358-12.494-10.94" transform="translate(-229.663 -12.746)" fill="#4d6796"/><path d="M635.681,149.362a2.471,2.471,0,1,1,2.471-2.471h0a2.471,2.471,0,0,1-2.471,2.471m40.468-2.471a2.287,2.287,0,0,1-4.574.056v-.056a2.287,2.287,0,0,1,4.574,0Z" transform="translate(-236.676 -5.182)" fill="#fff"/><path d="M712.072,181.8l-12.016-20.824a6.6,6.6,0,0,0-3.3-1.041H680.475l14.091,24.836-22.3,39.392a6.44,6.44,0,0,1-2.291,2.193h16.382a7.033,7.033,0,0,0,5.491-3.172l20.234-35.047a7.024,7.024,0,0,0,0-6.337" transform="translate(-247.923 -9.926)" fill="#cc4232"/><path d="M705.23,161.928l-.541-.937a6.582,6.582,0,0,0-3.3-1.041H685.1l4.241,7.469,15.889-5.5" transform="translate(-252.548 -9.932)" fill="#b23f33"/><path d="M690.681,230.218a2.471,2.471,0,1,1,2.471-2.471h0a2.471,2.471,0,0,1-2.471,2.471M709.9,197.3a2.471,2.471,0,1,1,2.471-2.471h0A2.471,2.471,0,0,1,709.9,197.3" transform="translate(-253.499 -19.845)" fill="#fff"/><path d="M629.633,212.813l-22.594-38.649a6.729,6.729,0,0,1-.736-3.714L597.9,185.027a7.032,7.032,0,0,0,0,6.337L618.146,226.4a7.032,7.032,0,0,0,5.491,3.165h24.08a6.446,6.446,0,0,0,2.291-2.193l8.246-14.577H629.633" transform="translate(-225.645 -13.144)" fill="#ecb02a"/><path d="M667.99,248.23h1.388a6.44,6.44,0,0,0,2.291-2.193l8.246-14.577h-8.767l-3.158,16.756" transform="translate(-247.314 -31.804)" fill="#c79732"/><path d="M627.2,230.218a2.471,2.471,0,1,1,2.471-2.471h0a2.471,2.471,0,0,1-2.471,2.471M607.941,197.3a2.471,2.471,0,1,1,2.471-2.471h0a2.471,2.471,0,0,1-2.471,2.471" transform="translate(-228.192 -19.845)" fill="#fff"/></g></svg>