<svg width="113" height="37" viewBox="0 0 113 37" fill="none" xmlns="http://www.w3.org/2000/svg">
<path d="M48.0875 19.4875C48.0875 24.762 43.9372 28.6488 38.8439 28.6488C33.7506 28.6488 29.6003 24.762 29.6003 19.4875C29.6003 14.1757 33.7506 10.3262 38.8439 10.3262C43.9372 10.3262 48.0875 14.1757 48.0875 19.4875ZM44.0411 19.4875C44.0411 16.1914 41.6357 13.9362 38.8439 13.9362C36.0521 13.9362 33.6467 16.1914 33.6467 19.4875C33.6467 22.7505 36.0521 25.0388 38.8439 25.0388C41.6357 25.0388 44.0411 22.7464 44.0411 19.4875Z" fill="white"/>
<path d="M68.0286 19.4875C68.0286 24.762 63.8784 28.6488 58.7851 28.6488C53.6918 28.6488 49.5415 24.762 49.5415 19.4875C49.5415 14.1799 53.6918 10.3262 58.7851 10.3262C63.8784 10.3262 68.0286 14.1757 68.0286 19.4875ZM63.9822 19.4875C63.9822 16.1914 61.5768 13.9362 58.7851 13.9362C55.9933 13.9362 53.5879 16.1914 53.5879 19.4875C53.5879 22.7505 55.9933 25.0388 58.7851 25.0388C61.5768 25.0388 63.9822 22.7464 63.9822 19.4875Z" fill="white"/>
<path d="M87.1389 10.8797V27.327C87.1389 34.0927 83.1258 36.856 78.3814 36.856C73.9154 36.856 71.2275 33.8862 70.2139 31.4575L73.7368 29.9994C74.3641 31.4905 75.9012 33.2501 78.3773 33.2501C81.4142 33.2501 83.2961 31.3873 83.2961 27.8805V26.5629H83.1549C82.2492 27.674 80.5043 28.6447 78.3025 28.6447C73.6952 28.6447 69.4744 24.6547 69.4744 19.5205C69.4744 14.3492 73.6952 10.3262 78.3025 10.3262C80.5002 10.3262 82.245 11.2968 83.1549 12.3749H83.2961V10.8838H87.1389V10.8797ZM83.5828 19.5205C83.5828 16.2947 81.4183 13.9362 78.6639 13.9362C75.8722 13.9362 73.5332 16.2947 73.5332 19.5205C73.5332 22.7133 75.8722 25.0388 78.6639 25.0388C81.4183 25.0388 83.5828 22.7133 83.5828 19.5205Z" fill="white"/>
<path d="M93.4743 1.23926V28.0871H89.5276V1.23926H93.4743Z" fill="white"/>
<path d="M108.854 22.5029L111.995 24.5847C110.981 26.0757 108.538 28.6449 104.317 28.6449C99.0829 28.6449 95.1736 24.6218 95.1736 19.4836C95.1736 14.0355 99.1161 10.3223 103.865 10.3223C108.646 10.3223 110.985 14.1057 111.75 16.1503L112.169 17.1912L99.8515 22.2634C100.795 24.1014 102.261 25.039 104.317 25.039C106.378 25.039 107.807 24.0312 108.854 22.5029ZM99.1867 19.2068L107.421 15.8075C106.968 14.6634 105.605 13.8662 104.002 13.8662C101.945 13.8662 99.0829 15.6712 99.1867 19.2068Z" fill="white"/>
<path d="M14.661 17.1043V13.2176H27.8347C27.9634 13.895 28.0299 14.6963 28.0299 15.5637C28.0299 18.4798 27.2281 22.0856 24.6441 24.6548C22.1306 27.2569 18.9193 28.6448 14.6652 28.6448C6.7801 28.6448 0.149658 22.2591 0.149658 14.4196C0.149658 6.57999 6.7801 0.194336 14.6652 0.194336C19.0273 0.194336 22.1348 1.89608 24.4696 4.11412L21.7111 6.85673C20.0368 5.29542 17.7685 4.08108 14.661 4.08108C8.903 4.08108 4.39962 8.69477 4.39962 14.4196C4.39962 20.1443 8.903 24.758 14.661 24.758C18.3958 24.758 20.5229 23.2669 21.8855 21.9122C22.9906 20.8135 23.7176 19.2439 24.0043 17.1002L14.661 17.1043Z" fill="white"/>
</svg>
