<svg width="19" height="15" viewBox="0 0 19 15" fill="none" xmlns="http://www.w3.org/2000/svg">
<path fill-rule="evenodd" clip-rule="evenodd" d="M18.4722 0.276674C17.7118 0.717453 16.8759 1.02881 16.0022 1.19667C15.6411 0.820183 15.2012 0.51905 14.7106 0.312449C14.2199 0.105849 13.6892 -0.0016924 13.1522 -0.00332642C12.1056 0.00958555 11.1073 0.415814 10.3769 1.126C9.64645 1.83619 9.2437 2.79218 9.25722 3.78367C9.25644 4.07372 9.28828 4.36302 9.35222 4.64667C7.79358 4.56435 6.27126 4.16886 4.88632 3.48645C3.50139 2.80405 2.28552 1.85035 1.31944 0.688674C0.976169 1.26931 0.794541 1.92317 0.791667 2.58867C0.790174 3.20852 0.94796 3.81939 1.2514 4.36855C1.55484 4.9177 1.99482 5.38863 2.53333 5.74067C1.91031 5.72089 1.30172 5.55787 0.76 5.26567V5.31367C0.753948 6.1794 1.0621 7.02081 1.63283 7.69695C2.20356 8.37309 3.00221 8.8429 3.895 9.02767C3.558 9.11554 3.21009 9.16027 2.86056 9.16067C2.616 9.16001 2.37208 9.1369 2.13222 9.09167C2.37098 9.8368 2.85117 10.4919 3.50477 10.9641C4.15836 11.4363 4.95222 11.7017 5.77389 11.7227C4.40123 12.7704 2.69167 13.3421 0.928889 13.3427C0.618487 13.3424 0.308354 13.3254 0 13.2917C1.77217 14.4016 3.85 14.9929 5.97444 14.9917C13.1417 14.9917 17.0683 9.21967 17.0683 4.21467L17.0472 3.72467C17.8194 3.19096 18.4813 2.52725 19 1.76667C18.2911 2.07458 17.5363 2.27697 16.7622 2.36667C17.58 1.88852 18.1874 1.14613 18.4722 0.276674Z" fill="white"/>
</svg>
