<svg id="Layer_1" data-name="Layer 1" xmlns="http://www.w3.org/2000/svg" viewBox="0 0 500 500"><defs><style>.cls-1{fill:#fc5b1e;}</style></defs><path d="M180.77,346.47c-1.68-2.17-3.28-4.4-4.85-6.65H117.31V157.54h58.9c1.58-2.27,3.21-4.5,4.91-6.68A159.83,159.83,0,0,1,249,100.42H45.49V397.36H249A159.87,159.87,0,0,1,180.77,346.47Z"/><path class="cls-1" d="M326.79,104.11a148.48,148.48,0,0,0-164,108.19h46.31a24.65,24.65,0,0,0,20.62-11.2A91.21,91.21,0,0,1,316,160.33c43.23,4.55,77.8,40.23,81.12,83.58a91.31,91.31,0,0,1-83,98.13c-2.65.23-5.33.38-8,.38s-5.39-.15-8.05-.38a91.25,91.25,0,0,1-70.39-44.21,24.93,24.93,0,0,0-21.34-12.34H161.59a148.48,148.48,0,1,0,165.2-181.38Z"/><path d="M317.75,175a77.58,77.58,0,0,0-10.74-.76,76.67,76.67,0,0,0-60.56,29.56,75,75,0,0,0-5.06,7.32,24.36,24.36,0,0,1-20.7,12.05H94.79v51.39h122.9a24.19,24.19,0,0,1,21.51,12.61,75.63,75.63,0,0,0,7.07,11A76.7,76.7,0,0,0,307,328a76.85,76.85,0,0,0,10.74-153Z"/></svg>