<svg id="Layer_1" data-name="Layer 1" xmlns="http://www.w3.org/2000/svg" viewBox="0 0 500 500"><defs><style>.cls-1{fill:#fff;}.cls-2{fill:#fc5b1e;}</style></defs><path class="cls-1" d="M176.72,352.11c-1.78-2.29-3.47-4.65-5.13-7h-62V152.13h62.34c1.68-2.4,3.4-4.77,5.21-7.07a169.15,169.15,0,0,1,71.8-53.39H33.53V406H248.89A169.18,169.18,0,0,1,176.72,352.11Z"/><path class="cls-2" d="M331.29,95.58A157.14,157.14,0,0,0,157.66,210.1h49a26.12,26.12,0,0,0,21.83-11.86,96.53,96.53,0,0,1,91.29-43.16c45.77,4.82,82.35,42.59,85.87,88.48a96.65,96.65,0,0,1-87.84,103.87c-2.81.24-5.64.39-8.51.39s-5.71-.15-8.52-.39a96.62,96.62,0,0,1-74.51-46.8,26.37,26.37,0,0,0-22.59-13.07H156.42a157.16,157.16,0,1,0,174.87-192Z"/><path class="cls-1" d="M321.71,170.63a81.15,81.15,0,0,0-75.47,30.49,79.56,79.56,0,0,0-5.35,7.75A25.78,25.78,0,0,1,219,221.63H85.71V276H215.8a25.62,25.62,0,0,1,22.77,13.34A78.25,78.25,0,0,0,246.06,301a81.34,81.34,0,1,0,75.65-130.37Z"/></svg>