<?xml version="1.0" standalone="no"?>
<!DOCTYPE svg PUBLIC "-//W3C//DTD SVG 20010904//EN"
 "http://www.w3.org/TR/2001/REC-SVG-20010904/DTD/svg10.dtd">
<svg version="1.0" xmlns="http://www.w3.org/2000/svg"
 width="700.000000pt" height="700.000000pt" viewBox="0 0 700.000000 700.000000"
 preserveAspectRatio="xMidYMid meet">
<metadata>
Created by potrace 1.11, written by Peter Selinger 2001-2013
</metadata>
<g transform="translate(0.000000,700.000000) scale(0.100000,-0.100000)"
fill="#000000" stroke="none">
<path d="M642 5585 c-11 -17 -8 -4145 3 -4146 65 -5 2825 -2 2825 4 0 4 -5 7
-10 7 -6 0 -65 26 -133 58 -138 66 -323 183 -442 280 -111 90 -278 262 -355
365 -56 74 -69 87 -95 88 -16 0 -201 1 -411 1 l-381 1 1 456 1 456 740 0 740
0 60 -28 c74 -34 126 -83 172 -162 84 -143 185 -258 308 -350 88 -66 264 -149
360 -171 156 -36 313 -44 450 -23 456 71 831 456 894 919 10 74 8 263 -5 330
-23 126 -120 368 -164 410 -3 3 -22 28 -42 55 -153 211 -422 371 -693 412 -64
10 -275 10 -340 1 -285 -42 -555 -220 -729 -479 -77 -115 -151 -168 -257 -187
-24 -4 -370 -7 -769 -7 l-725 0 -1 460 -1 460 411 0 411 0 70 90 c163 212 433
448 645 564 78 43 242 121 264 127 15 3 24 9 21 12 -11 11 -2816 8 -2823 -3z"/>
<path d="M4186 5563 c-1 -2 -36 -5 -77 -8 -256 -19 -548 -104 -786 -230 -91
-48 -222 -129 -263 -162 -8 -7 -42 -33 -75 -58 -257 -197 -497 -520 -626 -842
-36 -88 -80 -225 -75 -231 2 -2 157 -3 344 -3 229 0 354 3 383 11 93 25 156
73 219 165 116 168 277 311 464 411 89 47 246 105 326 120 25 4 47 8 50 9 27
7 159 18 210 18 202 -1 368 -38 546 -123 447 -211 735 -660 737 -1150 0 -62
-12 -221 -18 -230 -2 -4 -6 -17 -8 -31 -45 -239 -167 -463 -356 -649 -151
-149 -306 -246 -486 -305 -118 -38 -164 -48 -305 -63 -440 -48 -910 181 -1166
566 -93 139 -170 201 -270 218 -40 7 -660 12 -681 6 -8 -2 -8 -12 -2 -35 6
-18 12 -41 14 -52 20 -93 117 -321 198 -465 309 -549 895 -943 1522 -1025 28
-3 64 -9 82 -11 52 -8 313 -8 388 0 396 41 774 189 1080 425 33 25 67 53 76
61 8 8 41 39 72 67 413 382 657 937 659 1498 0 112 -8 261 -18 309 -2 12 -6
35 -9 51 -73 429 -270 812 -577 1123 -197 199 -454 371 -693 462 -33 12 -69
26 -80 30 -71 27 -194 63 -260 76 -22 4 -44 8 -50 9 -29 7 -159 25 -218 30
-66 7 -266 12 -271 8z"/>
</g>
</svg>
