<svg id="Layer_1" data-name="Layer 1" xmlns="http://www.w3.org/2000/svg" viewBox="0 0 50 50"><defs><style>.cls-1{fill:#bffdca;}</style></defs><path class="cls-1" d="M15.72,39.92a7.86,7.86,0,0,1-4.32-1.08,9.08,9.08,0,0,1-2.76-2.76A10.11,10.11,0,0,1,7,31.88a24.87,24.87,0,0,1-.36-3.72,19.74,19.74,0,0,1,3-10.68A21.38,21.38,0,0,1,19,9.68L20,11.84a16.21,16.21,0,0,0-6.42,4.92,10.86,10.86,0,0,0-2.7,6.84,8,8,0,0,0,.36,2.52,6.84,6.84,0,0,1,4.44-1.56,7.83,7.83,0,0,1,5.4,2,7.18,7.18,0,0,1,2.28,5.64,7.27,7.27,0,0,1-2.28,5.52A7.59,7.59,0,0,1,15.72,39.92Zm20.4,0a7.86,7.86,0,0,1-4.32-1.08A9.08,9.08,0,0,1,29,36.08a10.11,10.11,0,0,1-1.68-4.2A24.87,24.87,0,0,1,27,28.16a19.74,19.74,0,0,1,3-10.68,21.38,21.38,0,0,1,9.36-7.8l1.08,2.16A16.21,16.21,0,0,0,34,16.76a10.86,10.86,0,0,0-2.7,6.84,8,8,0,0,0,.36,2.52,6.84,6.84,0,0,1,4.44-1.56,7.83,7.83,0,0,1,5.4,2,7.18,7.18,0,0,1,2.28,5.64,7.27,7.27,0,0,1-2.28,5.52A7.59,7.59,0,0,1,36.12,39.92Z"/></svg>