<svg width="82" height="82" viewBox="0 0 82 82" fill="none" xmlns="http://www.w3.org/2000/svg">
<circle cx="41" cy="41" r="41" fill="white"/>
<path d="M40.6813 75.1508C59.2829 75.1508 74.3625 60.0848 74.3625 41.5C74.3625 22.9152 59.2829 7.84924 40.6813 7.84924C22.0796 7.84924 7 22.9152 7 41.5C7 60.0848 22.0796 75.1508 40.6813 75.1508Z" fill="#F5B300"/>
<path d="M31.5437 24.3031C32.7125 24.6215 33.8812 24.8339 35.05 25.1523C36.2187 25.4708 37.3875 25.6831 38.5562 26.0015C38.875 26.1077 38.9812 26.0015 39.0875 25.6831C39.5125 23.8785 39.9375 22.18 40.3625 20.3754C40.4687 20.0569 40.575 19.9508 40.8937 20.0569C41.9562 20.3754 42.9125 20.5877 43.975 20.8C44.2937 20.9062 44.2937 21.0123 44.1875 21.2246C43.7625 22.9231 43.3375 24.7277 42.9125 26.4262C42.9125 26.5323 42.9125 26.6385 42.8062 26.8508C43.6562 27.0631 44.6125 27.2754 45.4625 27.4877C45.5687 27.4877 45.675 27.2754 45.7812 27.1692C46.1 25.7892 46.4187 24.5154 46.8437 23.1354L47.1625 21.8615C47.1625 21.6492 47.2687 21.5431 47.4812 21.6492C48.5437 21.9677 49.6062 22.18 50.775 22.4985C50.8812 22.4985 50.8812 22.6046 50.9875 22.6046C50.6687 23.9846 50.35 25.2585 50.0312 26.5323C49.925 27.0631 49.8187 27.5939 49.6062 28.1246C49.5 28.4431 49.6062 28.5492 49.925 28.6554L53.4312 30.2477C54.4937 30.8846 55.45 31.7339 56.1937 32.7954C57.15 34.3877 57.2562 36.0862 56.8312 37.7846C56.5125 38.9523 56.0875 40.0139 55.2375 40.8631C54.6 41.5 53.75 41.9246 52.9 42.2431C52.7937 42.2431 52.6875 42.3492 52.475 42.3492C52.9 42.6677 53.325 42.88 53.75 43.1985C55.025 44.1539 55.875 45.3215 56.3 46.8077C56.5125 47.9754 56.4062 49.2492 56.0875 50.4169C55.6625 51.9031 55.1312 53.1769 54.175 54.3446C53.0062 55.7246 51.5187 56.4677 49.8187 56.68C47.5875 56.9985 45.4625 56.7862 43.3375 56.4677C43.0187 56.3615 42.8062 56.4677 42.7 56.7862C42.275 58.4846 41.85 60.2892 41.425 61.9877C41.3187 62.4123 41.3187 62.5185 40.7875 62.3062C39.8312 62.0939 38.7687 61.7754 37.8125 61.5631C37.4937 61.4569 37.4937 61.3508 37.6 61.1385C38.025 59.3339 38.45 57.5292 38.9812 55.8308C38.9812 55.6185 39.0875 55.5123 38.875 55.4062C38.025 55.1939 37.175 54.9815 36.2187 54.7692C36.0062 55.7246 35.6875 56.68 35.475 57.6354C35.2625 58.5908 34.9437 59.5462 34.7312 60.5015C34.625 60.7139 34.625 60.82 34.3062 60.7139C33.2437 60.3954 32.1812 60.1831 31.1187 59.9708C30.8 59.8646 30.8 59.7585 30.9062 59.5462C31.3312 57.7415 31.7562 55.9369 32.2875 54.2385C32.2875 54.1323 32.3937 54.0262 32.3937 53.8139C29.95 53.1769 27.5062 52.54 24.9562 51.9031C25.1687 51.4785 25.275 51.16 25.4875 50.7354C25.9125 49.78 26.3375 48.8246 26.6562 47.9754C26.7625 47.6569 26.8687 47.6569 27.1875 47.6569C27.9312 47.8692 28.7812 48.0815 29.525 48.1877C30.375 48.4 31.0125 47.9754 31.1187 47.2323C32.5 41.8185 33.8812 36.4046 35.1562 30.8846C35.3687 30.0354 34.8375 29.08 33.8812 28.7615C32.925 28.4431 31.9687 28.2308 31.1187 28.0185C30.9062 28.0185 30.8 27.9123 30.9062 27.7C31.225 26.5323 31.5437 25.2585 31.8625 24.0908C31.4375 24.4092 31.4375 24.4092 31.5437 24.3031ZM36.9625 50.5231C37.0687 50.5231 37.175 50.6292 37.175 50.6292C38.875 51.0539 40.6812 51.5846 42.4875 51.6908C43.7625 51.7969 44.9312 51.7969 46.1 51.3723C48.1187 50.7354 48.9687 48.0815 47.8 46.3831C47.2687 45.5339 46.4187 45.0031 45.5687 44.4723C43.6562 43.4108 41.425 42.9862 39.3 42.5615C38.9812 42.4554 38.9812 42.5615 38.875 42.88C38.6625 43.9415 38.3437 44.8969 38.1312 45.9585C37.7062 47.4446 37.3875 48.9308 36.9625 50.5231ZM45.8875 39.6954C46.1 39.6954 46.6312 39.5892 47.0562 39.4831C49.075 39.0585 50.1375 36.7231 49.075 34.9185C48.5437 33.9631 47.5875 33.3262 46.6312 32.9015C45.1437 32.2646 43.6562 31.9462 42.0625 31.5215C41.7437 31.4154 41.6375 31.5215 41.5312 31.84C41 34.0692 40.4687 36.1923 39.8312 38.4215C39.725 38.6339 39.8312 38.74 40.0437 38.8462C40.4687 38.9523 40.7875 39.0585 41.2125 39.1646C42.8062 39.3769 44.1875 39.6954 45.8875 39.6954Z" fill="white"/>
</svg>
