<svg width="64" height="64" viewBox="0 0 64 64" fill="none" xmlns="http://www.w3.org/2000/svg">
<circle cx="32" cy="32" r="32" fill="white"/>
<path d="M33.0861 4.62192V25.1127C33.0861 25.2007 32.9999 25.2886 32.9137 25.2886C32.3103 25.5525 31.7932 25.8163 31.1898 26.0801C30.414 26.4319 29.552 26.7837 28.7762 27.2234L25.9317 28.5425L23.6043 29.5979L20.7597 30.917C19.984 31.2688 19.2082 31.6206 18.3462 32.0603C17.7428 32.3241 17.0532 32.6759 16.4498 32.9397C16.3636 32.9397 16.3636 33.0277 16.2774 32.9397H16.1912C16.4498 32.5 16.7084 32.1482 16.967 31.7085C18.3462 29.334 19.8116 26.9596 21.1907 24.5851C22.6561 22.0347 24.2077 19.4844 25.6731 16.934C27.0522 14.5595 28.4314 12.1851 29.8106 9.89852C30.845 8.13966 31.8794 6.46873 32.8275 4.70986C32.9999 4.70986 32.9999 4.62192 33.0861 4.62192C32.9999 4.62192 33.0861 4.62192 33.0861 4.62192Z" fill="#8A92B2"/>
<path d="M49.8087 32.9397C48.5157 33.8191 47.1365 34.6106 45.8435 35.4021C41.6198 37.9525 37.4823 40.4149 33.2585 42.9653C33.1723 42.9653 33.1723 43.0532 33.0861 43.0532C32.9999 43.0532 32.9999 42.9653 32.9999 42.9653V25.2886C32.9999 25.2007 33.0861 25.2007 33.1723 25.2007C33.5171 25.3766 33.8619 25.5525 34.2929 25.7283C35.3273 26.256 36.4479 26.6957 37.4823 27.2234C38.4304 27.6631 39.2924 28.1028 40.2406 28.4546C41.1888 28.8943 42.0508 29.334 42.999 29.7737C43.7748 30.1255 44.6367 30.4773 45.4125 30.917C46.1883 31.2688 47.0503 31.6206 47.8261 32.0603C48.4295 32.3241 49.0329 32.6759 49.7225 32.9397C49.7225 32.8518 49.7225 32.9397 49.8087 32.9397Z" fill="#454A75"/>
<path d="M33.0862 60.2901C33.0862 60.2901 33 60.2901 33.0862 60.2901C33 60.2901 33 60.2901 32.9138 60.2022C31.1898 57.7398 29.552 55.3653 27.828 52.9029L22.6561 45.5156C21.0184 43.1411 19.2944 40.7667 17.6566 38.3043L16.3636 36.4574C16.3636 36.3695 16.2774 36.3695 16.2774 36.2816C16.3636 36.2816 16.3636 36.3695 16.4498 36.3695C18.7772 37.7766 21.1908 39.1837 23.5181 40.5908C26.1903 42.2617 28.9486 43.8447 31.6208 45.5156C32.0518 45.7794 32.569 46.0433 33 46.3071C33.0862 46.3071 33.0862 46.3951 33.0862 46.483V60.2901Z" fill="#8A92B2"/>
<path d="M16.2774 32.9397C16.2774 32.9397 16.3636 32.9397 16.2774 32.9397C16.3636 32.9397 16.3636 32.9397 16.2774 32.9397C16.2774 33.0276 16.2774 33.0276 16.2774 32.9397Z" fill="#808080"/>
<path d="M16.3636 33.0276C16.3636 32.9397 16.3636 32.9397 16.3636 33.0276C17.2256 32.5879 18.0876 32.2362 18.9496 31.7964L22.3113 30.2135C23.1733 29.7737 24.0353 29.422 24.8973 28.9822C26.1041 28.3666 27.397 27.839 28.6038 27.2234C29.4658 26.8716 30.3278 26.4319 31.1898 26.0801C31.7932 25.8163 32.3965 25.5524 32.9999 25.2007C33.0861 25.2007 33.0861 25.1127 33.1723 25.1127V43.0532C33.0861 43.1411 33.0861 43.0532 32.9999 43.0532C32.7413 42.8773 32.4827 42.7894 32.3103 42.6135L16.536 33.1156C16.4498 33.0276 16.3636 33.0276 16.3636 33.0276ZM49.7225 36.2816C49.7225 36.3695 49.7224 36.3695 49.6362 36.4574C44.6367 43.6688 39.6372 50.7922 34.6377 58.0036C34.1205 58.7951 33.6033 59.4986 33.0861 60.2901V46.3071C34.2067 45.6036 35.3273 44.9 36.4479 44.2844L49.6362 36.3695C49.6362 36.2816 49.7225 36.2816 49.7225 36.2816Z" fill="#62688F"/>
<path d="M33.0862 25.2007V4.70987L49.6363 32.6759C49.7225 32.7638 49.8087 32.8518 49.8087 32.9397C49.4639 32.7638 49.1191 32.5879 48.6881 32.4121C48.2571 32.2362 47.8261 31.9723 47.3951 31.7965C47.1365 31.7085 46.8779 31.5326 46.5331 31.4447C46.1021 31.2688 45.5849 31.005 45.1539 30.8291C44.8954 30.7411 44.6368 30.5652 44.3782 30.4773L42.568 29.6858C42.2232 29.5099 41.9646 29.422 41.6198 29.2461C41.1888 29.0702 40.7578 28.8064 40.3268 28.6305C40.0682 28.5425 39.8096 28.3667 39.551 28.2787L37.7409 27.4872C37.3961 27.3113 37.1375 27.2234 36.7927 27.0475C36.3617 26.8716 35.9307 26.6078 35.4997 26.4319C35.2411 26.256 34.8963 26.1681 34.6377 25.9922L33.0862 25.2007Z" fill="#62688F"/>
</svg>
